<svg width="99" height="123" viewBox="0 0 99 123" fill="none" xmlns="http://www.w3.org/2000/svg">
<path d="M92.1147 73.2723C94.9311 69.7398 98.66 61.8799 91.0436 58.7006" stroke="white" stroke-width="5"/>
<path d="M9.40582 76.1153C4.30606 72.0801 -2.57214 62.7329 10.7132 57.6258" stroke="white" stroke-width="5"/>
<g filter="url(#filter0_d_78_218)">
<ellipse cx="50.4308" cy="73.2276" rx="43.5001" ry="41.7724" fill="#D4B793"/>
</g>
<path d="M53.3112 18.0801C53.1625 21.0587 47.7119 23.2083 41.1369 22.8815C34.5618 22.5547 29.3522 19.8753 29.5009 16.8967C29.6496 13.9182 35.0534 9.31561 41.6285 9.64239C48.2035 9.96918 53.4599 15.1016 53.3112 18.0801Z" fill="#B3B3B3"/>
<ellipse cx="46.6317" cy="8.93326" rx="4.28697" ry="4.40372" fill="#B3B3B3"/>
<ellipse cx="49.4056" cy="8.80744" rx="9.83481" ry="8.80744" fill="#B3B3B3"/>
<g filter="url(#filter1_df_78_218)">
<ellipse cx="51.549" cy="73.4792" rx="42.2392" ry="40.7659" fill="#795B53"/>
</g>
<path d="M39.8855 18.0756C40.7826 16.5433 42.4249 15.6017 44.2004 15.6017H64.5349C67.1225 15.6017 69.2826 17.576 69.5148 20.1532L69.688 22.0769C69.7815 23.1151 69.5482 24.1566 69.0207 25.0557L67.6435 27.4028C67.2655 28.0472 67.0366 28.768 66.9738 29.5124L66.7978 31.5963C66.5523 34.5039 63.8794 36.5843 61.0005 36.1087L54.9253 35.105C54.3977 35.0178 53.8596 35.0158 53.3314 35.0991L46.6131 36.1587C43.7561 36.6092 41.1138 34.5489 40.8544 31.6682L40.4391 27.0575C40.3587 26.1647 40.0282 25.3127 39.4855 24.5992C38.3164 23.062 38.1902 20.9714 39.1659 19.3047L39.8855 18.0756Z" fill="#B3B3B3"/>
<ellipse cx="64.9143" cy="10.1915" rx="9.45654" ry="8.93326" fill="#B3B3B3"/>
<ellipse cx="70.4621" cy="17.3632" rx="10.4652" ry="9.31072" fill="#B3B3B3"/>
<g filter="url(#filter2_d_78_218)">
<path d="M93.9309 73.1368C93.9309 96.2572 74.6717 115 50.5932 115C26.5148 115 6.99534 96.2572 6.99534 73.1368C5.43362 62.5418 32.5034 76.2378 50.5932 81.6645C72.0668 73.1368 93.9309 59.6993 93.9309 73.1368Z" fill="white"/>
</g>
<g filter="url(#filter3_i_78_218)">
<ellipse cx="51.5491" cy="73.4792" rx="8.70002" ry="8.30416" fill="#895C4C"/>
</g>
<g filter="url(#filter4_d_78_218)">
<ellipse cx="78.4057" cy="36.1105" rx="8.82611" ry="8.93326" fill="#D4B793"/>
</g>
<g filter="url(#filter5_d_78_218)">
<ellipse cx="51.9273" cy="55.7385" rx="7.56524" ry="7.42341" fill="#D4B793"/>
</g>
<g filter="url(#filter6_d_78_218)">
<ellipse cx="77.649" cy="37.6203" rx="7.31306" ry="7.42341" fill="#795B53"/>
</g>
<g filter="url(#filter7_d_78_218)">
<ellipse cx="67.31" cy="51.3348" rx="3.02609" ry="2.76805" fill="#59423D"/>
</g>
<g filter="url(#filter8_d_78_218)">
<ellipse cx="51.549" cy="52.3414" rx="2.64783" ry="2.51641" fill="#785952"/>
</g>
<g filter="url(#filter9_d_78_218)">
<path d="M39.0665 51.7123C39.0665 53.4495 37.5423 54.8578 35.6622 54.8578C33.782 54.8578 32.2578 53.4495 32.2578 51.7123C32.2578 49.975 33.782 48.5667 35.6622 48.5667C37.5423 48.5667 39.0665 49.975 39.0665 51.7123Z" fill="#59423D"/>
</g>
<g filter="url(#filter10_d_78_218)">
<path d="M51.675 54.4803L51.6904 54.5371C52.2452 56.5935 53.6025 58.341 55.4577 59.3873V59.3873" stroke="#785952" stroke-width="5"/>
</g>
<g filter="url(#filter11_d_78_218)">
<path d="M51.4229 53.0963L51.2999 53.6439C50.7741 55.9863 49.3752 58.0402 47.3881 59.3873V59.3873" stroke="#785952" stroke-width="5"/>
</g>
<g filter="url(#filter12_d_78_218)">
<ellipse cx="27.4665" cy="36.1105" rx="8.82611" ry="8.93326" fill="#D4B793"/>
</g>
<g filter="url(#filter13_d_78_218)">
<ellipse cx="28.223" cy="37.6203" rx="7.31306" ry="7.42341" fill="#795B53"/>
<ellipse cx="28.223" cy="37.6203" rx="7.31306" ry="7.42341" fill="#795B53"/>
</g>
<path d="M43.6735 34.5773C43.0072 34.5773 43.1011 34.7892 42.6834 35.206C42.4693 35.4197 42.0687 35.6583 41.9521 35.8909" stroke="#B3B3B3" stroke-width="5" stroke-linecap="round"/>
<path d="M43.3699 34.8805C43.2332 35.0339 43.1478 35.1933 42.9648 35.2846" stroke="#B3B3B3" stroke-width="5" stroke-linecap="round"/>
<path d="M43.2685 34.6784C43.2245 35.0297 42.7503 35.1984 42.5597 35.4362C42.4262 35.6026 42.1632 35.9877 41.9521 36.093" stroke="#B3B3B3" stroke-width="5" stroke-linecap="round"/>
<path d="M67.0636 25.9889C66.8549 25.7807 66.6461 25.5959 66.456 25.3826C66.2713 25.1752 66.2123 24.8157 66.051 24.5743" stroke="#B3B3B3" stroke-width="5" stroke-linecap="round"/>
<ellipse cx="49.6578" cy="10.0656" rx="9.83481" ry="8.80744" fill="#D9D9D9"/>
<ellipse cx="64.9143" cy="11.4497" rx="9.45654" ry="8.93326" fill="#D9D9D9"/>
<ellipse cx="69.7055" cy="17.3632" rx="10.2131" ry="8.5558" fill="#D9D9D9"/>
<path d="M54.5588 18.1968C54.4174 21.0284 48.9727 23.059 42.3977 22.7322C35.8227 22.4054 30.6071 19.8451 30.7485 17.0135C30.8898 14.1819 36.2817 9.8189 42.8567 10.1457C49.4318 10.4725 54.7001 15.3652 54.5588 18.1968Z" fill="#D9D9D9"/>
<ellipse cx="47.8924" cy="9.68817" rx="4.28697" ry="4.40372" fill="#D9D9D9"/>
<path d="M41.2784 17.5136C42.1439 15.8733 43.8461 14.8468 45.7007 14.8468H62.8084C65.413 14.8468 67.5813 16.8463 67.792 19.4423L67.9486 21.3703C68.0256 22.3193 67.8301 23.2705 67.385 24.1121L66.0926 26.5563C65.7717 27.1632 65.5792 27.8296 65.5271 28.5142L65.3803 30.4441C65.1549 33.405 62.4139 35.5182 59.4931 34.9827L54.9621 34.1521C54.3794 34.0452 53.7823 34.0428 53.1987 34.145L48.0873 35.0394C45.188 35.5468 42.4799 33.4524 42.2418 30.5188L41.8866 26.143C41.8161 25.2744 41.5193 24.4386 41.0266 23.7199C39.977 22.1885 39.861 20.2 40.7274 18.558L41.2784 17.5136Z" fill="#D9D9D9"/>
<path d="M67.3323 26.4976C67.2584 25.908 65.4648 25.1642 64.9157 24.945C63.5667 24.4066 62.2587 23.8282 60.8523 23.5164C59.7946 23.2818 58.792 23.5246 57.7903 23.5246C56.9973 23.5246 55.7844 23.3781 55.1172 23.8219" stroke="#B3B3B3" stroke-width="5" stroke-linecap="round"/>
<path d="M80.3907 79.5105C80.3536 79.1303 80.0588 78.1349 79.7274 77.9351C79.4076 77.7424 78.8666 77.5959 78.685 78.1077C78.5398 78.517 78.1502 79.0095 78.3533 79.4673C78.613 80.0527 79.1414 80.3357 79.5905 80.7729C79.8637 81.0389 80.2405 81.5575 80.5802 81.7225C81.2278 82.0368 81.9202 81.0505 82.2859 80.6758C82.6574 80.2951 83.2026 79.4815 83.2335 78.9278C83.2444 78.7317 83.4068 78.4409 83.3072 78.248C83.1973 78.0354 82.8721 78.1075 82.707 77.9998C81.9473 77.5044 81.2857 78.2466 81.2435 79.0249C81.2337 79.2058 81.1609 79.8433 81.0329 79.9744C80.8453 80.1668 80.4241 79.4118 80.3854 79.2731C80.2757 78.8796 79.928 78.9745 79.68 78.7767C79.3083 78.4805 79.0519 79.0664 79.2746 79.2947C79.5863 79.6141 79.6522 78.3358 79.3957 78.5987C79.2056 78.7935 79.0931 79.7047 79.4431 79.7047" stroke="#D49393" stroke-width="5" stroke-linecap="round"/>
<path d="M79.0525 78.8661C79.0525 79.4332 79.5164 79.6861 79.8226 80.0519C79.9573 80.2128 79.9745 80.3896 80.062 80.5777C80.2726 81.0305 80.0269 80.2544 80.1348 80.3372C80.5513 80.657 80.4303 81.2078 81.0403 80.7791C81.4485 80.4921 81.9561 79.9954 81.9561 79.4254C81.9561 79.1404 82.0762 79.0434 82.1382 78.8101C82.1954 78.5951 82.3308 79.1891 82.3308 79.3192C82.3308 79.6276 82.2893 79.6155 82.0966 79.8226C81.8917 80.0429 81.905 80.0973 81.7896 80.3764C81.6142 80.8007 81.4739 81.1072 81.1652 81.4392C80.8434 81.785 80.5933 81.0712 80.4575 80.7791" stroke="#D49393" stroke-width="5" stroke-linecap="round"/>
<path d="M79.2581 78.7637C78.9967 78.7637 79.059 78.8834 79.059 79.0464C79.059 79.3001 79.2285 79.2653 79.5568 79.2653" stroke="#D49393" stroke-width="5" stroke-linecap="round"/>
<path d="M75.2699 89.5731C75.2699 99.8636 64.0926 108.206 50.3046 108.206C36.5167 108.206 25.3394 99.8636 25.3394 89.5731C25.3394 79.2826 36.5167 87.2245 50.3046 87.2245C64.0926 87.2245 75.2699 79.2826 75.2699 89.5731Z" fill="#D9D9D9"/>
<path d="M50.3046 106.951C49.975 106.951 49.6471 106.946 49.321 106.935L49.3053 107.435C48.633 107.414 47.9682 107.371 47.3119 107.308L47.3596 106.811C46.7011 106.748 46.0516 106.664 45.4122 106.56L45.332 107.053C44.6684 106.946 44.0153 106.817 43.3742 106.668L43.4875 106.181C42.8429 106.031 42.2108 105.86 41.5927 105.67L41.4457 106.148C40.8018 105.95 40.1725 105.731 39.5594 105.492L39.7408 105.026C39.1245 104.786 38.5252 104.526 37.9444 104.246L37.7277 104.697C37.1199 104.405 36.5317 104.092 35.9648 103.76L36.2175 103.329C35.6476 102.995 35.1001 102.641 34.5769 102.27L34.2874 102.677C33.7371 102.287 33.2125 101.876 32.7158 101.447L33.0428 101.068C32.5447 100.638 32.0761 100.189 31.6389 99.7237L31.2744 100.066C30.8127 99.5745 30.3845 99.0642 29.9923 98.5371L30.3935 98.2386C30.0037 97.7147 29.6512 97.1745 29.3383 96.6198L28.9028 96.8655C28.573 96.2809 28.2853 95.68 28.0423 95.0648L28.5074 94.8811C28.271 94.2825 28.0789 93.6706 27.9336 93.0474L27.4466 93.1609C27.2961 92.5152 27.1938 91.8572 27.1426 91.1891L27.6412 91.1509C27.6168 90.8333 27.6045 90.5133 27.6045 90.1911C27.6045 89.8641 27.6172 89.5603 27.6418 89.2784L27.1437 89.2348C27.2078 88.5016 27.3496 87.8917 27.5638 87.3887L28.0239 87.5846C28.2654 87.0173 28.6021 86.6264 29.0204 86.3566L28.7494 85.9364C29.2464 85.6158 29.8482 85.4326 30.5438 85.3534L30.6003 85.8502C31.1303 85.7899 31.7318 85.7937 32.4048 85.8495L32.4461 85.3512C33.0339 85.3999 33.6629 85.486 34.3296 85.5981L34.2466 86.0912C34.8335 86.19 35.4521 86.3096 36.1012 86.4427L36.2017 85.9529C36.8004 86.0757 37.4222 86.2093 38.0649 86.3474L37.9598 86.8363L37.9912 86.843C38.5839 86.9704 39.1963 87.1021 39.8252 87.2327L39.927 86.7432C40.5347 86.8694 41.1576 86.9947 41.7943 87.1147L41.7017 87.606C42.3186 87.7223 42.9493 87.8336 43.5921 87.9361L43.6708 87.4423C44.2891 87.5409 44.9183 87.6311 45.557 87.7093L45.4963 88.2056C46.125 88.2825 46.7635 88.3481 47.4108 88.3988L47.4498 87.9003C48.0764 87.9494 48.7106 87.9844 49.3515 88.0022L49.3377 88.502C49.6582 88.5109 49.9806 88.5155 50.3046 88.5155C50.6285 88.5155 50.9509 88.5109 51.2714 88.502L51.2576 88.0022C51.8985 87.9844 52.5327 87.9494 53.1593 87.9003L53.1983 88.3988C53.8456 88.3481 54.4841 88.2825 55.1128 88.2056L55.0521 87.7093C55.6908 87.6311 56.32 87.5409 56.9383 87.4423L57.017 87.9361C57.6598 87.8336 58.2905 87.7223 58.9074 87.606L58.8148 87.1147C59.4515 86.9947 60.0744 86.8694 60.6821 86.7432L60.7839 87.2327C61.4128 87.102 62.0252 86.9704 62.618 86.843L62.6493 86.8363L62.5442 86.3474C63.1869 86.2093 63.8087 86.0757 64.4074 85.9529L64.5079 86.4427C65.157 86.3096 65.7756 86.19 66.3625 86.0912L66.2795 85.5981C66.9462 85.486 67.5752 85.3999 68.163 85.3512L68.2043 85.8495C68.8773 85.7937 69.4788 85.7899 70.0088 85.8502L70.0653 85.3534C70.7609 85.4326 71.3627 85.6158 71.8597 85.9364L71.5887 86.3566C72.007 86.6264 72.3437 87.0173 72.5852 87.5846L73.0453 87.3887C73.2595 87.8917 73.4013 88.5016 73.4654 89.2348L72.9673 89.2784C72.9919 89.5603 73.0046 89.8641 73.0046 90.1911C73.0046 90.5133 72.9923 90.8333 72.9679 91.1509L73.4665 91.1891C73.4153 91.8572 73.313 92.5152 73.1625 93.1609L72.6755 93.0474C72.5302 93.6706 72.3381 94.2825 72.1017 94.8811L72.5668 95.0648C72.3238 95.68 72.0361 96.2809 71.7063 96.8655L71.2708 96.6198C70.9579 97.1745 70.6054 97.7147 70.2156 98.2386L70.6168 98.5371C70.2246 99.0642 69.7964 99.5745 69.3347 100.066L68.9702 99.7237C68.533 100.189 68.0644 100.638 67.5663 101.068L67.8932 101.447C67.3966 101.876 66.872 102.287 66.3217 102.677L66.0322 102.27C65.509 102.641 64.9615 102.995 64.3916 103.329L64.6443 103.76C64.0774 104.092 63.4892 104.405 62.8814 104.697L62.6647 104.246C62.0839 104.526 61.4846 104.786 60.8683 105.026L61.0497 105.492C60.4366 105.731 59.8073 105.95 59.1634 106.148L59.0164 105.67C58.3983 105.86 57.7662 106.031 57.1216 106.181L57.2349 106.668C56.5938 106.817 55.9408 106.946 55.2771 107.053L55.1969 106.56C54.5575 106.664 53.908 106.748 53.2495 106.811L53.2972 107.308C52.641 107.371 51.9761 107.414 51.3038 107.435L51.2881 106.935C50.962 106.946 50.6341 106.951 50.3046 106.951Z" stroke="#DD9696" stroke-dasharray="2 2"/>
<path d="M92.1147 73.2723C94.9311 69.7398 98.66 61.8799 91.0436 58.7006" stroke="white" stroke-width="5"/>
<path d="M9.40582 76.1153C4.30606 72.0801 -2.57214 62.7329 10.7132 57.6258" stroke="white" stroke-width="5"/>
<g filter="url(#filter14_d_78_218)">
<ellipse cx="50.4308" cy="73.2276" rx="43.5001" ry="41.7724" fill="#D4B793"/>
</g>
<path d="M53.3112 18.0801C53.1625 21.0587 47.7119 23.2083 41.1369 22.8815C34.5618 22.5547 29.3522 19.8753 29.5009 16.8967C29.6496 13.9182 35.0534 9.31561 41.6285 9.64239C48.2035 9.96918 53.4599 15.1016 53.3112 18.0801Z" fill="#B3B3B3"/>
<ellipse cx="46.6317" cy="8.93326" rx="4.28697" ry="4.40372" fill="#B3B3B3"/>
<ellipse cx="49.4056" cy="8.80744" rx="9.83481" ry="8.80744" fill="#B3B3B3"/>
<g filter="url(#filter15_df_78_218)">
<ellipse cx="51.549" cy="73.4792" rx="42.2392" ry="40.7659" fill="#795B53"/>
</g>
<path d="M39.8855 18.0756C40.7826 16.5433 42.4249 15.6017 44.2004 15.6017H64.5349C67.1225 15.6017 69.2826 17.576 69.5148 20.1532L69.688 22.0769C69.7815 23.1151 69.5482 24.1566 69.0207 25.0557L67.6435 27.4028C67.2655 28.0472 67.0366 28.768 66.9738 29.5124L66.7978 31.5963C66.5523 34.5039 63.8794 36.5843 61.0005 36.1087L54.9253 35.105C54.3977 35.0178 53.8596 35.0158 53.3314 35.0991L46.6131 36.1587C43.7561 36.6092 41.1138 34.5489 40.8544 31.6682L40.4391 27.0575C40.3587 26.1647 40.0282 25.3127 39.4855 24.5992C38.3164 23.062 38.1902 20.9714 39.1659 19.3047L39.8855 18.0756Z" fill="#B3B3B3"/>
<ellipse cx="64.9143" cy="10.1915" rx="9.45654" ry="8.93326" fill="#B3B3B3"/>
<ellipse cx="70.4621" cy="17.3632" rx="10.4652" ry="9.31072" fill="#B3B3B3"/>
<g filter="url(#filter16_d_78_218)">
<path d="M93.9309 73.1368C93.9309 96.2572 74.6717 115 50.5932 115C26.5148 115 6.99534 96.2572 6.99534 73.1368C5.43362 62.5418 32.5034 76.2378 50.5932 81.6645C72.0668 73.1368 93.9309 59.6993 93.9309 73.1368Z" fill="white"/>
</g>
<g filter="url(#filter17_i_78_218)">
<ellipse cx="51.5491" cy="73.4792" rx="8.70002" ry="8.30416" fill="#895C4C"/>
</g>
<g filter="url(#filter18_d_78_218)">
<ellipse cx="78.4057" cy="36.1105" rx="8.82611" ry="8.93326" fill="#D4B793"/>
</g>
<g filter="url(#filter19_d_78_218)">
<ellipse cx="51.9273" cy="55.7385" rx="7.56524" ry="7.42341" fill="#D4B793"/>
</g>
<g filter="url(#filter20_d_78_218)">
<ellipse cx="77.649" cy="37.6203" rx="7.31306" ry="7.42341" fill="#795B53"/>
</g>
<g filter="url(#filter21_d_78_218)">
<ellipse cx="67.31" cy="51.3348" rx="3.02609" ry="2.76805" fill="#59423D"/>
</g>
<g filter="url(#filter22_d_78_218)">
<ellipse cx="51.549" cy="52.3414" rx="2.64783" ry="2.51641" fill="#785952"/>
</g>
<g filter="url(#filter23_d_78_218)">
<path d="M39.0665 51.7123C39.0665 53.4495 37.5423 54.8578 35.6622 54.8578C33.782 54.8578 32.2578 53.4495 32.2578 51.7123C32.2578 49.975 33.782 48.5667 35.6622 48.5667C37.5423 48.5667 39.0665 49.975 39.0665 51.7123Z" fill="#59423D"/>
</g>
<g filter="url(#filter24_d_78_218)">
<path d="M51.675 54.4803L51.6904 54.5371C52.2452 56.5935 53.6025 58.341 55.4577 59.3873V59.3873" stroke="#785952" stroke-width="5"/>
</g>
<g filter="url(#filter25_d_78_218)">
<path d="M51.4229 53.0963L51.2999 53.6439C50.7741 55.9863 49.3752 58.0402 47.3881 59.3873V59.3873" stroke="#785952" stroke-width="5"/>
</g>
<g filter="url(#filter26_d_78_218)">
<ellipse cx="27.4665" cy="36.1105" rx="8.82611" ry="8.93326" fill="#D4B793"/>
</g>
<g filter="url(#filter27_d_78_218)">
<ellipse cx="28.223" cy="37.6203" rx="7.31306" ry="7.42341" fill="#795B53"/>
<ellipse cx="28.223" cy="37.6203" rx="7.31306" ry="7.42341" fill="#795B53"/>
</g>
<path d="M43.6735 34.5773C43.0072 34.5773 43.1011 34.7892 42.6834 35.206C42.4693 35.4197 42.0687 35.6583 41.9521 35.8909" stroke="#B3B3B3" stroke-width="5" stroke-linecap="round"/>
<path d="M43.3699 34.8805C43.2332 35.0339 43.1478 35.1933 42.9648 35.2846" stroke="#B3B3B3" stroke-width="5" stroke-linecap="round"/>
<path d="M43.2685 34.6784C43.2245 35.0297 42.7503 35.1984 42.5597 35.4362C42.4262 35.6026 42.1632 35.9877 41.9521 36.093" stroke="#B3B3B3" stroke-width="5" stroke-linecap="round"/>
<path d="M67.0636 25.9889C66.8549 25.7807 66.6461 25.5959 66.456 25.3826C66.2713 25.1752 66.2123 24.8157 66.051 24.5743" stroke="#B3B3B3" stroke-width="5" stroke-linecap="round"/>
<ellipse cx="49.6578" cy="10.0656" rx="9.83481" ry="8.80744" fill="#D9D9D9"/>
<ellipse cx="64.9143" cy="11.4497" rx="9.45654" ry="8.93326" fill="#D9D9D9"/>
<ellipse cx="69.7055" cy="17.3632" rx="10.2131" ry="8.5558" fill="#D9D9D9"/>
<path d="M54.5588 18.1968C54.4174 21.0284 48.9727 23.059 42.3977 22.7322C35.8227 22.4054 30.6071 19.8451 30.7485 17.0135C30.8898 14.1819 36.2817 9.8189 42.8567 10.1457C49.4318 10.4725 54.7001 15.3652 54.5588 18.1968Z" fill="#D9D9D9"/>
<ellipse cx="47.8924" cy="9.68817" rx="4.28697" ry="4.40372" fill="#D9D9D9"/>
<path d="M41.2784 17.5136C42.1439 15.8733 43.8461 14.8468 45.7007 14.8468H62.8084C65.413 14.8468 67.5813 16.8463 67.792 19.4423L67.9486 21.3703C68.0256 22.3193 67.8301 23.2705 67.385 24.1121L66.0926 26.5563C65.7717 27.1632 65.5792 27.8296 65.5271 28.5142L65.3803 30.4441C65.1549 33.405 62.4139 35.5182 59.4931 34.9827L54.9621 34.1521C54.3794 34.0452 53.7823 34.0428 53.1987 34.145L48.0873 35.0394C45.188 35.5468 42.4799 33.4524 42.2418 30.5188L41.8866 26.143C41.8161 25.2744 41.5193 24.4386 41.0266 23.7199C39.977 22.1885 39.861 20.2 40.7274 18.558L41.2784 17.5136Z" fill="#D9D9D9"/>
<path d="M67.3323 26.4976C67.2584 25.908 65.4648 25.1642 64.9157 24.945C63.5667 24.4066 62.2587 23.8282 60.8523 23.5164C59.7946 23.2818 58.792 23.5246 57.7903 23.5246C56.9973 23.5246 55.7844 23.3781 55.1172 23.8219" stroke="#B3B3B3" stroke-width="5" stroke-linecap="round"/>
<path d="M80.3907 79.5105C80.3536 79.1303 80.0588 78.1349 79.7274 77.9351C79.4076 77.7424 78.8666 77.5959 78.685 78.1077C78.5398 78.517 78.1502 79.0095 78.3533 79.4673C78.613 80.0527 79.1414 80.3357 79.5905 80.7729C79.8637 81.0389 80.2405 81.5575 80.5802 81.7225C81.2278 82.0368 81.9202 81.0505 82.2859 80.6758C82.6574 80.2951 83.2026 79.4815 83.2335 78.9278C83.2444 78.7317 83.4068 78.4409 83.3072 78.248C83.1973 78.0354 82.8721 78.1075 82.707 77.9998C81.9473 77.5044 81.2857 78.2466 81.2435 79.0249C81.2337 79.2058 81.1609 79.8433 81.0329 79.9744C80.8453 80.1668 80.4241 79.4118 80.3854 79.2731C80.2757 78.8796 79.928 78.9745 79.68 78.7767C79.3083 78.4805 79.0519 79.0664 79.2746 79.2947C79.5863 79.6141 79.6522 78.3358 79.3957 78.5987C79.2056 78.7935 79.0931 79.7047 79.4431 79.7047" stroke="#D49393" stroke-width="5" stroke-linecap="round"/>
<path d="M79.0525 78.8661C79.0525 79.4332 79.5164 79.6861 79.8226 80.0519C79.9573 80.2128 79.9745 80.3896 80.062 80.5777C80.2726 81.0305 80.0269 80.2544 80.1348 80.3372C80.5513 80.657 80.4303 81.2078 81.0403 80.7791C81.4485 80.4921 81.9561 79.9954 81.9561 79.4254C81.9561 79.1404 82.0762 79.0434 82.1382 78.8101C82.1954 78.5951 82.3308 79.1891 82.3308 79.3192C82.3308 79.6276 82.2893 79.6155 82.0966 79.8226C81.8917 80.0429 81.905 80.0973 81.7896 80.3764C81.6142 80.8007 81.4739 81.1072 81.1652 81.4392C80.8434 81.785 80.5933 81.0712 80.4575 80.7791" stroke="#D49393" stroke-width="5" stroke-linecap="round"/>
<path d="M79.2581 78.7637C78.9967 78.7637 79.059 78.8834 79.059 79.0464C79.059 79.3001 79.2285 79.2653 79.5568 79.2653" stroke="#D49393" stroke-width="5" stroke-linecap="round"/>
<path d="M75.2699 89.5731C75.2699 99.8636 64.0926 108.206 50.3046 108.206C36.5167 108.206 25.3394 99.8636 25.3394 89.5731C25.3394 79.2826 36.5167 87.2245 50.3046 87.2245C64.0926 87.2245 75.2699 79.2826 75.2699 89.5731Z" fill="#D9D9D9"/>
<path d="M50.3046 106.951C49.975 106.951 49.6471 106.946 49.321 106.935L49.3053 107.435C48.633 107.414 47.9682 107.371 47.3119 107.308L47.3596 106.811C46.7011 106.748 46.0516 106.664 45.4122 106.56L45.332 107.053C44.6684 106.946 44.0153 106.817 43.3742 106.668L43.4875 106.181C42.8429 106.031 42.2108 105.86 41.5927 105.67L41.4457 106.148C40.8018 105.95 40.1725 105.731 39.5594 105.492L39.7408 105.026C39.1245 104.786 38.5252 104.526 37.9444 104.246L37.7277 104.697C37.1199 104.405 36.5317 104.092 35.9648 103.76L36.2175 103.329C35.6476 102.995 35.1001 102.641 34.5769 102.27L34.2874 102.677C33.7371 102.287 33.2125 101.876 32.7158 101.447L33.0428 101.068C32.5447 100.638 32.0761 100.189 31.6389 99.7237L31.2744 100.066C30.8127 99.5745 30.3845 99.0642 29.9923 98.5371L30.3935 98.2386C30.0037 97.7147 29.6512 97.1745 29.3383 96.6198L28.9028 96.8655C28.573 96.2809 28.2853 95.68 28.0423 95.0648L28.5074 94.8811C28.271 94.2825 28.0789 93.6706 27.9336 93.0474L27.4466 93.1609C27.2961 92.5152 27.1938 91.8572 27.1426 91.1891L27.6412 91.1509C27.6168 90.8333 27.6045 90.5133 27.6045 90.1911C27.6045 89.8641 27.6172 89.5603 27.6418 89.2784L27.1437 89.2348C27.2078 88.5016 27.3496 87.8917 27.5638 87.3887L28.0239 87.5846C28.2654 87.0173 28.6021 86.6264 29.0204 86.3566L28.7494 85.9364C29.2464 85.6158 29.8482 85.4326 30.5438 85.3534L30.6003 85.8502C31.1303 85.7899 31.7318 85.7937 32.4048 85.8495L32.4461 85.3512C33.0339 85.3999 33.6629 85.486 34.3296 85.5981L34.2466 86.0912C34.8335 86.19 35.4521 86.3096 36.1012 86.4427L36.2017 85.9529C36.8004 86.0757 37.4222 86.2093 38.0649 86.3474L37.9598 86.8363L37.9912 86.843C38.5839 86.9704 39.1963 87.1021 39.8252 87.2327L39.927 86.7432C40.5347 86.8694 41.1576 86.9947 41.7943 87.1147L41.7017 87.606C42.3186 87.7223 42.9493 87.8336 43.5921 87.9361L43.6708 87.4423C44.2891 87.5409 44.9183 87.6311 45.557 87.7093L45.4963 88.2056C46.125 88.2825 46.7635 88.3481 47.4108 88.3988L47.4498 87.9003C48.0764 87.9494 48.7106 87.9844 49.3515 88.0022L49.3377 88.502C49.6582 88.5109 49.9806 88.5155 50.3046 88.5155C50.6285 88.5155 50.9509 88.5109 51.2714 88.502L51.2576 88.0022C51.8985 87.9844 52.5327 87.9494 53.1593 87.9003L53.1983 88.3988C53.8456 88.3481 54.4841 88.2825 55.1128 88.2056L55.0521 87.7093C55.6908 87.6311 56.32 87.5409 56.9383 87.4423L57.017 87.9361C57.6598 87.8336 58.2905 87.7223 58.9074 87.606L58.8148 87.1147C59.4515 86.9947 60.0744 86.8694 60.6821 86.7432L60.7839 87.2327C61.4128 87.102 62.0252 86.9704 62.618 86.843L62.6493 86.8363L62.5442 86.3474C63.1869 86.2093 63.8087 86.0757 64.4074 85.9529L64.5079 86.4427C65.157 86.3096 65.7756 86.19 66.3625 86.0912L66.2795 85.5981C66.9462 85.486 67.5752 85.3999 68.163 85.3512L68.2043 85.8495C68.8773 85.7937 69.4788 85.7899 70.0088 85.8502L70.0653 85.3534C70.7609 85.4326 71.3627 85.6158 71.8597 85.9364L71.5887 86.3566C72.007 86.6264 72.3437 87.0173 72.5852 87.5846L73.0453 87.3887C73.2595 87.8917 73.4013 88.5016 73.4654 89.2348L72.9673 89.2784C72.9919 89.5603 73.0046 89.8641 73.0046 90.1911C73.0046 90.5133 72.9923 90.8333 72.9679 91.1509L73.4665 91.1891C73.4153 91.8572 73.313 92.5152 73.1625 93.1609L72.6755 93.0474C72.5302 93.6706 72.3381 94.2825 72.1017 94.8811L72.5668 95.0648C72.3238 95.68 72.0361 96.2809 71.7063 96.8655L71.2708 96.6198C70.9579 97.1745 70.6054 97.7147 70.2156 98.2386L70.6168 98.5371C70.2246 99.0642 69.7964 99.5745 69.3347 100.066L68.9702 99.7237C68.533 100.189 68.0644 100.638 67.5663 101.068L67.8932 101.447C67.3966 101.876 66.872 102.287 66.3217 102.677L66.0322 102.27C65.509 102.641 64.9615 102.995 64.3916 103.329L64.6443 103.76C64.0774 104.092 63.4892 104.405 62.8814 104.697L62.6647 104.246C62.0839 104.526 61.4846 104.786 60.8683 105.026L61.0497 105.492C60.4366 105.731 59.8073 105.95 59.1634 106.148L59.0164 105.67C58.3983 105.86 57.7662 106.031 57.1216 106.181L57.2349 106.668C56.5938 106.817 55.9408 106.946 55.2771 107.053L55.1969 106.56C54.5575 106.664 53.908 106.748 53.2495 106.811L53.2972 107.308C52.641 107.371 51.9761 107.414 51.3038 107.435L51.2881 106.935C50.962 106.946 50.6341 106.951 50.3046 106.951Z" stroke="#DD9696" stroke-dasharray="2 2"/>
<defs>
<filter id="filter0_d_78_218" x="2.93066" y="31.4551" width="95.0002" height="91.5449" filterUnits="userSpaceOnUse" color-interpolation-filters="sRGB">
<feFlood flood-opacity="0" result="BackgroundImageFix"/>
<feColorMatrix in="SourceAlpha" type="matrix" values="0 0 0 0 0 0 0 0 0 0 0 0 0 0 0 0 0 0 127 0" result="hardAlpha"/>
<feOffset dy="4"/>
<feGaussianBlur stdDeviation="2"/>
<feComposite in2="hardAlpha" operator="out"/>
<feColorMatrix type="matrix" values="0 0 0 0 0 0 0 0 0 0 0 0 0 0 0 0 0 0 0.25 0"/>
<feBlend mode="normal" in2="BackgroundImageFix" result="effect1_dropShadow_78_218"/>
<feBlend mode="normal" in="SourceGraphic" in2="effect1_dropShadow_78_218" result="shape"/>
</filter>
<filter id="filter1_df_78_218" x="5.30981" y="28.7133" width="92.4785" height="93.5317" filterUnits="userSpaceOnUse" color-interpolation-filters="sRGB">
<feFlood flood-opacity="0" result="BackgroundImageFix"/>
<feColorMatrix in="SourceAlpha" type="matrix" values="0 0 0 0 0 0 0 0 0 0 0 0 0 0 0 0 0 0 127 0" result="hardAlpha"/>
<feOffset dy="4"/>
<feGaussianBlur stdDeviation="2"/>
<feComposite in2="hardAlpha" operator="out"/>
<feColorMatrix type="matrix" values="0 0 0 0 0 0 0 0 0 0 0 0 0 0 0 0 0 0 0.25 0"/>
<feBlend mode="normal" in2="BackgroundImageFix" result="effect1_dropShadow_78_218"/>
<feBlend mode="normal" in="SourceGraphic" in2="effect1_dropShadow_78_218" result="shape"/>
<feGaussianBlur stdDeviation="2" result="effect2_foregroundBlur_78_218"/>
</filter>
<filter id="filter2_d_78_218" x="2.93066" y="67.4398" width="95.0002" height="55.5602" filterUnits="userSpaceOnUse" color-interpolation-filters="sRGB">
<feFlood flood-opacity="0" result="BackgroundImageFix"/>
<feColorMatrix in="SourceAlpha" type="matrix" values="0 0 0 0 0 0 0 0 0 0 0 0 0 0 0 0 0 0 127 0" result="hardAlpha"/>
<feOffset dy="4"/>
<feGaussianBlur stdDeviation="2"/>
<feComposite in2="hardAlpha" operator="out"/>
<feColorMatrix type="matrix" values="0 0 0 0 0 0 0 0 0 0 0 0 0 0 0 0 0 0 0.25 0"/>
<feBlend mode="normal" in2="BackgroundImageFix" result="effect1_dropShadow_78_218"/>
<feBlend mode="normal" in="SourceGraphic" in2="effect1_dropShadow_78_218" result="shape"/>
</filter>
<filter id="filter3_i_78_218" x="42.8491" y="65.175" width="17.4001" height="20.6083" filterUnits="userSpaceOnUse" color-interpolation-filters="sRGB">
<feFlood flood-opacity="0" result="BackgroundImageFix"/>
<feBlend mode="normal" in="SourceGraphic" in2="BackgroundImageFix" result="shape"/>
<feColorMatrix in="SourceAlpha" type="matrix" values="0 0 0 0 0 0 0 0 0 0 0 0 0 0 0 0 0 0 127 0" result="hardAlpha"/>
<feOffset dy="4"/>
<feGaussianBlur stdDeviation="2"/>
<feComposite in2="hardAlpha" operator="arithmetic" k2="-1" k3="1"/>
<feColorMatrix type="matrix" values="0 0 0 0 0 0 0 0 0 0 0 0 0 0 0 0 0 0 0.25 0"/>
<feBlend mode="normal" in2="shape" result="effect1_innerShadow_78_218"/>
</filter>
<filter id="filter4_d_78_218" x="65.5796" y="27.1772" width="25.6523" height="25.8665" filterUnits="userSpaceOnUse" color-interpolation-filters="sRGB">
<feFlood flood-opacity="0" result="BackgroundImageFix"/>
<feColorMatrix in="SourceAlpha" type="matrix" values="0 0 0 0 0 0 0 0 0 0 0 0 0 0 0 0 0 0 127 0" result="hardAlpha"/>
<feOffset dy="4"/>
<feGaussianBlur stdDeviation="2"/>
<feComposite in2="hardAlpha" operator="out"/>
<feColorMatrix type="matrix" values="0 0 0 0 0 0 0 0 0 0 0 0 0 0 0 0 0 0 0.25 0"/>
<feBlend mode="normal" in2="BackgroundImageFix" result="effect1_dropShadow_78_218"/>
<feBlend mode="normal" in="SourceGraphic" in2="effect1_dropShadow_78_218" result="shape"/>
</filter>
<filter id="filter5_d_78_218" x="40.3621" y="48.3151" width="23.1304" height="22.8468" filterUnits="userSpaceOnUse" color-interpolation-filters="sRGB">
<feFlood flood-opacity="0" result="BackgroundImageFix"/>
<feColorMatrix in="SourceAlpha" type="matrix" values="0 0 0 0 0 0 0 0 0 0 0 0 0 0 0 0 0 0 127 0" result="hardAlpha"/>
<feOffset dy="4"/>
<feGaussianBlur stdDeviation="2"/>
<feComposite in2="hardAlpha" operator="out"/>
<feColorMatrix type="matrix" values="0 0 0 0 0 0 0 0 0 0 0 0 0 0 0 0 0 0 0.25 0"/>
<feBlend mode="normal" in2="BackgroundImageFix" result="effect1_dropShadow_78_218"/>
<feBlend mode="normal" in="SourceGraphic" in2="effect1_dropShadow_78_218" result="shape"/>
</filter>
<filter id="filter6_d_78_218" x="66.3359" y="30.1969" width="22.6262" height="22.8468" filterUnits="userSpaceOnUse" color-interpolation-filters="sRGB">
<feFlood flood-opacity="0" result="BackgroundImageFix"/>
<feColorMatrix in="SourceAlpha" type="matrix" values="0 0 0 0 0 0 0 0 0 0 0 0 0 0 0 0 0 0 127 0" result="hardAlpha"/>
<feOffset dy="4"/>
<feGaussianBlur stdDeviation="2"/>
<feComposite in2="hardAlpha" operator="out"/>
<feColorMatrix type="matrix" values="0 0 0 0 0 0 0 0 0 0 0 0 0 0 0 0 0 0 0.25 0"/>
<feBlend mode="normal" in2="BackgroundImageFix" result="effect1_dropShadow_78_218"/>
<feBlend mode="normal" in="SourceGraphic" in2="effect1_dropShadow_78_218" result="shape"/>
</filter>
<filter id="filter7_d_78_218" x="60.2839" y="48.5667" width="14.0522" height="13.5361" filterUnits="userSpaceOnUse" color-interpolation-filters="sRGB">
<feFlood flood-opacity="0" result="BackgroundImageFix"/>
<feColorMatrix in="SourceAlpha" type="matrix" values="0 0 0 0 0 0 0 0 0 0 0 0 0 0 0 0 0 0 127 0" result="hardAlpha"/>
<feOffset dy="4"/>
<feGaussianBlur stdDeviation="2"/>
<feComposite in2="hardAlpha" operator="out"/>
<feColorMatrix type="matrix" values="0 0 0 0 0 0 0 0 0 0 0 0 0 0 0 0 0 0 0.25 0"/>
<feBlend mode="normal" in2="BackgroundImageFix" result="effect1_dropShadow_78_218"/>
<feBlend mode="normal" in="SourceGraphic" in2="effect1_dropShadow_78_218" result="shape"/>
</filter>
<filter id="filter8_d_78_218" x="44.9011" y="49.825" width="13.2957" height="13.0328" filterUnits="userSpaceOnUse" color-interpolation-filters="sRGB">
<feFlood flood-opacity="0" result="BackgroundImageFix"/>
<feColorMatrix in="SourceAlpha" type="matrix" values="0 0 0 0 0 0 0 0 0 0 0 0 0 0 0 0 0 0 127 0" result="hardAlpha"/>
<feOffset dy="4"/>
<feGaussianBlur stdDeviation="2"/>
<feComposite in2="hardAlpha" operator="out"/>
<feColorMatrix type="matrix" values="0 0 0 0 0 0 0 0 0 0 0 0 0 0 0 0 0 0 0.25 0"/>
<feBlend mode="normal" in2="BackgroundImageFix" result="effect1_dropShadow_78_218"/>
<feBlend mode="normal" in="SourceGraphic" in2="effect1_dropShadow_78_218" result="shape"/>
</filter>
<filter id="filter9_d_78_218" x="28.2578" y="48.5667" width="14.8086" height="14.291" filterUnits="userSpaceOnUse" color-interpolation-filters="sRGB">
<feFlood flood-opacity="0" result="BackgroundImageFix"/>
<feColorMatrix in="SourceAlpha" type="matrix" values="0 0 0 0 0 0 0 0 0 0 0 0 0 0 0 0 0 0 127 0" result="hardAlpha"/>
<feOffset dy="4"/>
<feGaussianBlur stdDeviation="2"/>
<feComposite in2="hardAlpha" operator="out"/>
<feColorMatrix type="matrix" values="0 0 0 0 0 0 0 0 0 0 0 0 0 0 0 0 0 0 0.25 0"/>
<feBlend mode="normal" in2="BackgroundImageFix" result="effect1_dropShadow_78_218"/>
<feBlend mode="normal" in="SourceGraphic" in2="effect1_dropShadow_78_218" result="shape"/>
</filter>
<filter id="filter10_d_78_218" x="45.2615" y="53.8291" width="15.4243" height="15.7357" filterUnits="userSpaceOnUse" color-interpolation-filters="sRGB">
<feFlood flood-opacity="0" result="BackgroundImageFix"/>
<feColorMatrix in="SourceAlpha" type="matrix" values="0 0 0 0 0 0 0 0 0 0 0 0 0 0 0 0 0 0 127 0" result="hardAlpha"/>
<feOffset dy="4"/>
<feGaussianBlur stdDeviation="2"/>
<feComposite in2="hardAlpha" operator="out"/>
<feColorMatrix type="matrix" values="0 0 0 0 0 0 0 0 0 0 0 0 0 0 0 0 0 0 0.25 0"/>
<feBlend mode="normal" in2="BackgroundImageFix" result="effect1_dropShadow_78_218"/>
<feBlend mode="normal" in="SourceGraphic" in2="effect1_dropShadow_78_218" result="shape"/>
</filter>
<filter id="filter11_d_78_218" x="41.9854" y="52.5487" width="15.8767" height="16.9079" filterUnits="userSpaceOnUse" color-interpolation-filters="sRGB">
<feFlood flood-opacity="0" result="BackgroundImageFix"/>
<feColorMatrix in="SourceAlpha" type="matrix" values="0 0 0 0 0 0 0 0 0 0 0 0 0 0 0 0 0 0 127 0" result="hardAlpha"/>
<feOffset dy="4"/>
<feGaussianBlur stdDeviation="2"/>
<feComposite in2="hardAlpha" operator="out"/>
<feColorMatrix type="matrix" values="0 0 0 0 0 0 0 0 0 0 0 0 0 0 0 0 0 0 0.25 0"/>
<feBlend mode="normal" in2="BackgroundImageFix" result="effect1_dropShadow_78_218"/>
<feBlend mode="normal" in="SourceGraphic" in2="effect1_dropShadow_78_218" result="shape"/>
</filter>
<filter id="filter12_d_78_218" x="14.6404" y="27.1772" width="25.6521" height="25.8665" filterUnits="userSpaceOnUse" color-interpolation-filters="sRGB">
<feFlood flood-opacity="0" result="BackgroundImageFix"/>
<feColorMatrix in="SourceAlpha" type="matrix" values="0 0 0 0 0 0 0 0 0 0 0 0 0 0 0 0 0 0 127 0" result="hardAlpha"/>
<feOffset dy="4"/>
<feGaussianBlur stdDeviation="2"/>
<feComposite in2="hardAlpha" operator="out"/>
<feColorMatrix type="matrix" values="0 0 0 0 0 0 0 0 0 0 0 0 0 0 0 0 0 0 0.25 0"/>
<feBlend mode="normal" in2="BackgroundImageFix" result="effect1_dropShadow_78_218"/>
<feBlend mode="normal" in="SourceGraphic" in2="effect1_dropShadow_78_218" result="shape"/>
</filter>
<filter id="filter13_d_78_218" x="16.9099" y="30.1969" width="22.6262" height="22.8468" filterUnits="userSpaceOnUse" color-interpolation-filters="sRGB">
<feFlood flood-opacity="0" result="BackgroundImageFix"/>
<feColorMatrix in="SourceAlpha" type="matrix" values="0 0 0 0 0 0 0 0 0 0 0 0 0 0 0 0 0 0 127 0" result="hardAlpha"/>
<feOffset dy="4"/>
<feGaussianBlur stdDeviation="2"/>
<feComposite in2="hardAlpha" operator="out"/>
<feColorMatrix type="matrix" values="0 0 0 0 0 0 0 0 0 0 0 0 0 0 0 0 0 0 0.25 0"/>
<feBlend mode="normal" in2="BackgroundImageFix" result="effect1_dropShadow_78_218"/>
<feBlend mode="normal" in="SourceGraphic" in2="effect1_dropShadow_78_218" result="shape"/>
</filter>
<filter id="filter14_d_78_218" x="2.93066" y="31.4551" width="95.0002" height="91.5449" filterUnits="userSpaceOnUse" color-interpolation-filters="sRGB">
<feFlood flood-opacity="0" result="BackgroundImageFix"/>
<feColorMatrix in="SourceAlpha" type="matrix" values="0 0 0 0 0 0 0 0 0 0 0 0 0 0 0 0 0 0 127 0" result="hardAlpha"/>
<feOffset dy="4"/>
<feGaussianBlur stdDeviation="2"/>
<feComposite in2="hardAlpha" operator="out"/>
<feColorMatrix type="matrix" values="0 0 0 0 0 0 0 0 0 0 0 0 0 0 0 0 0 0 0.25 0"/>
<feBlend mode="normal" in2="BackgroundImageFix" result="effect1_dropShadow_78_218"/>
<feBlend mode="normal" in="SourceGraphic" in2="effect1_dropShadow_78_218" result="shape"/>
</filter>
<filter id="filter15_df_78_218" x="5.30981" y="28.7133" width="92.4785" height="93.5317" filterUnits="userSpaceOnUse" color-interpolation-filters="sRGB">
<feFlood flood-opacity="0" result="BackgroundImageFix"/>
<feColorMatrix in="SourceAlpha" type="matrix" values="0 0 0 0 0 0 0 0 0 0 0 0 0 0 0 0 0 0 127 0" result="hardAlpha"/>
<feOffset dy="4"/>
<feGaussianBlur stdDeviation="2"/>
<feComposite in2="hardAlpha" operator="out"/>
<feColorMatrix type="matrix" values="0 0 0 0 0 0 0 0 0 0 0 0 0 0 0 0 0 0 0.25 0"/>
<feBlend mode="normal" in2="BackgroundImageFix" result="effect1_dropShadow_78_218"/>
<feBlend mode="normal" in="SourceGraphic" in2="effect1_dropShadow_78_218" result="shape"/>
<feGaussianBlur stdDeviation="2" result="effect2_foregroundBlur_78_218"/>
</filter>
<filter id="filter16_d_78_218" x="2.93066" y="67.4398" width="95.0002" height="55.5602" filterUnits="userSpaceOnUse" color-interpolation-filters="sRGB">
<feFlood flood-opacity="0" result="BackgroundImageFix"/>
<feColorMatrix in="SourceAlpha" type="matrix" values="0 0 0 0 0 0 0 0 0 0 0 0 0 0 0 0 0 0 127 0" result="hardAlpha"/>
<feOffset dy="4"/>
<feGaussianBlur stdDeviation="2"/>
<feComposite in2="hardAlpha" operator="out"/>
<feColorMatrix type="matrix" values="0 0 0 0 0 0 0 0 0 0 0 0 0 0 0 0 0 0 0.25 0"/>
<feBlend mode="normal" in2="BackgroundImageFix" result="effect1_dropShadow_78_218"/>
<feBlend mode="normal" in="SourceGraphic" in2="effect1_dropShadow_78_218" result="shape"/>
</filter>
<filter id="filter17_i_78_218" x="42.8491" y="65.175" width="17.4001" height="20.6083" filterUnits="userSpaceOnUse" color-interpolation-filters="sRGB">
<feFlood flood-opacity="0" result="BackgroundImageFix"/>
<feBlend mode="normal" in="SourceGraphic" in2="BackgroundImageFix" result="shape"/>
<feColorMatrix in="SourceAlpha" type="matrix" values="0 0 0 0 0 0 0 0 0 0 0 0 0 0 0 0 0 0 127 0" result="hardAlpha"/>
<feOffset dy="4"/>
<feGaussianBlur stdDeviation="2"/>
<feComposite in2="hardAlpha" operator="arithmetic" k2="-1" k3="1"/>
<feColorMatrix type="matrix" values="0 0 0 0 0 0 0 0 0 0 0 0 0 0 0 0 0 0 0.25 0"/>
<feBlend mode="normal" in2="shape" result="effect1_innerShadow_78_218"/>
</filter>
<filter id="filter18_d_78_218" x="65.5796" y="27.1772" width="25.6523" height="25.8665" filterUnits="userSpaceOnUse" color-interpolation-filters="sRGB">
<feFlood flood-opacity="0" result="BackgroundImageFix"/>
<feColorMatrix in="SourceAlpha" type="matrix" values="0 0 0 0 0 0 0 0 0 0 0 0 0 0 0 0 0 0 127 0" result="hardAlpha"/>
<feOffset dy="4"/>
<feGaussianBlur stdDeviation="2"/>
<feComposite in2="hardAlpha" operator="out"/>
<feColorMatrix type="matrix" values="0 0 0 0 0 0 0 0 0 0 0 0 0 0 0 0 0 0 0.25 0"/>
<feBlend mode="normal" in2="BackgroundImageFix" result="effect1_dropShadow_78_218"/>
<feBlend mode="normal" in="SourceGraphic" in2="effect1_dropShadow_78_218" result="shape"/>
</filter>
<filter id="filter19_d_78_218" x="40.3621" y="48.3151" width="23.1304" height="22.8468" filterUnits="userSpaceOnUse" color-interpolation-filters="sRGB">
<feFlood flood-opacity="0" result="BackgroundImageFix"/>
<feColorMatrix in="SourceAlpha" type="matrix" values="0 0 0 0 0 0 0 0 0 0 0 0 0 0 0 0 0 0 127 0" result="hardAlpha"/>
<feOffset dy="4"/>
<feGaussianBlur stdDeviation="2"/>
<feComposite in2="hardAlpha" operator="out"/>
<feColorMatrix type="matrix" values="0 0 0 0 0 0 0 0 0 0 0 0 0 0 0 0 0 0 0.25 0"/>
<feBlend mode="normal" in2="BackgroundImageFix" result="effect1_dropShadow_78_218"/>
<feBlend mode="normal" in="SourceGraphic" in2="effect1_dropShadow_78_218" result="shape"/>
</filter>
<filter id="filter20_d_78_218" x="66.3359" y="30.1969" width="22.6262" height="22.8468" filterUnits="userSpaceOnUse" color-interpolation-filters="sRGB">
<feFlood flood-opacity="0" result="BackgroundImageFix"/>
<feColorMatrix in="SourceAlpha" type="matrix" values="0 0 0 0 0 0 0 0 0 0 0 0 0 0 0 0 0 0 127 0" result="hardAlpha"/>
<feOffset dy="4"/>
<feGaussianBlur stdDeviation="2"/>
<feComposite in2="hardAlpha" operator="out"/>
<feColorMatrix type="matrix" values="0 0 0 0 0 0 0 0 0 0 0 0 0 0 0 0 0 0 0.25 0"/>
<feBlend mode="normal" in2="BackgroundImageFix" result="effect1_dropShadow_78_218"/>
<feBlend mode="normal" in="SourceGraphic" in2="effect1_dropShadow_78_218" result="shape"/>
</filter>
<filter id="filter21_d_78_218" x="60.2839" y="48.5667" width="14.0522" height="13.5361" filterUnits="userSpaceOnUse" color-interpolation-filters="sRGB">
<feFlood flood-opacity="0" result="BackgroundImageFix"/>
<feColorMatrix in="SourceAlpha" type="matrix" values="0 0 0 0 0 0 0 0 0 0 0 0 0 0 0 0 0 0 127 0" result="hardAlpha"/>
<feOffset dy="4"/>
<feGaussianBlur stdDeviation="2"/>
<feComposite in2="hardAlpha" operator="out"/>
<feColorMatrix type="matrix" values="0 0 0 0 0 0 0 0 0 0 0 0 0 0 0 0 0 0 0.25 0"/>
<feBlend mode="normal" in2="BackgroundImageFix" result="effect1_dropShadow_78_218"/>
<feBlend mode="normal" in="SourceGraphic" in2="effect1_dropShadow_78_218" result="shape"/>
</filter>
<filter id="filter22_d_78_218" x="44.9011" y="49.825" width="13.2957" height="13.0328" filterUnits="userSpaceOnUse" color-interpolation-filters="sRGB">
<feFlood flood-opacity="0" result="BackgroundImageFix"/>
<feColorMatrix in="SourceAlpha" type="matrix" values="0 0 0 0 0 0 0 0 0 0 0 0 0 0 0 0 0 0 127 0" result="hardAlpha"/>
<feOffset dy="4"/>
<feGaussianBlur stdDeviation="2"/>
<feComposite in2="hardAlpha" operator="out"/>
<feColorMatrix type="matrix" values="0 0 0 0 0 0 0 0 0 0 0 0 0 0 0 0 0 0 0.25 0"/>
<feBlend mode="normal" in2="BackgroundImageFix" result="effect1_dropShadow_78_218"/>
<feBlend mode="normal" in="SourceGraphic" in2="effect1_dropShadow_78_218" result="shape"/>
</filter>
<filter id="filter23_d_78_218" x="28.2578" y="48.5667" width="14.8086" height="14.291" filterUnits="userSpaceOnUse" color-interpolation-filters="sRGB">
<feFlood flood-opacity="0" result="BackgroundImageFix"/>
<feColorMatrix in="SourceAlpha" type="matrix" values="0 0 0 0 0 0 0 0 0 0 0 0 0 0 0 0 0 0 127 0" result="hardAlpha"/>
<feOffset dy="4"/>
<feGaussianBlur stdDeviation="2"/>
<feComposite in2="hardAlpha" operator="out"/>
<feColorMatrix type="matrix" values="0 0 0 0 0 0 0 0 0 0 0 0 0 0 0 0 0 0 0.25 0"/>
<feBlend mode="normal" in2="BackgroundImageFix" result="effect1_dropShadow_78_218"/>
<feBlend mode="normal" in="SourceGraphic" in2="effect1_dropShadow_78_218" result="shape"/>
</filter>
<filter id="filter24_d_78_218" x="45.2615" y="53.8291" width="15.4243" height="15.7357" filterUnits="userSpaceOnUse" color-interpolation-filters="sRGB">
<feFlood flood-opacity="0" result="BackgroundImageFix"/>
<feColorMatrix in="SourceAlpha" type="matrix" values="0 0 0 0 0 0 0 0 0 0 0 0 0 0 0 0 0 0 127 0" result="hardAlpha"/>
<feOffset dy="4"/>
<feGaussianBlur stdDeviation="2"/>
<feComposite in2="hardAlpha" operator="out"/>
<feColorMatrix type="matrix" values="0 0 0 0 0 0 0 0 0 0 0 0 0 0 0 0 0 0 0.25 0"/>
<feBlend mode="normal" in2="BackgroundImageFix" result="effect1_dropShadow_78_218"/>
<feBlend mode="normal" in="SourceGraphic" in2="effect1_dropShadow_78_218" result="shape"/>
</filter>
<filter id="filter25_d_78_218" x="41.9854" y="52.5487" width="15.8767" height="16.9079" filterUnits="userSpaceOnUse" color-interpolation-filters="sRGB">
<feFlood flood-opacity="0" result="BackgroundImageFix"/>
<feColorMatrix in="SourceAlpha" type="matrix" values="0 0 0 0 0 0 0 0 0 0 0 0 0 0 0 0 0 0 127 0" result="hardAlpha"/>
<feOffset dy="4"/>
<feGaussianBlur stdDeviation="2"/>
<feComposite in2="hardAlpha" operator="out"/>
<feColorMatrix type="matrix" values="0 0 0 0 0 0 0 0 0 0 0 0 0 0 0 0 0 0 0.25 0"/>
<feBlend mode="normal" in2="BackgroundImageFix" result="effect1_dropShadow_78_218"/>
<feBlend mode="normal" in="SourceGraphic" in2="effect1_dropShadow_78_218" result="shape"/>
</filter>
<filter id="filter26_d_78_218" x="14.6404" y="27.1772" width="25.6521" height="25.8665" filterUnits="userSpaceOnUse" color-interpolation-filters="sRGB">
<feFlood flood-opacity="0" result="BackgroundImageFix"/>
<feColorMatrix in="SourceAlpha" type="matrix" values="0 0 0 0 0 0 0 0 0 0 0 0 0 0 0 0 0 0 127 0" result="hardAlpha"/>
<feOffset dy="4"/>
<feGaussianBlur stdDeviation="2"/>
<feComposite in2="hardAlpha" operator="out"/>
<feColorMatrix type="matrix" values="0 0 0 0 0 0 0 0 0 0 0 0 0 0 0 0 0 0 0.25 0"/>
<feBlend mode="normal" in2="BackgroundImageFix" result="effect1_dropShadow_78_218"/>
<feBlend mode="normal" in="SourceGraphic" in2="effect1_dropShadow_78_218" result="shape"/>
</filter>
<filter id="filter27_d_78_218" x="16.9099" y="30.1969" width="22.6262" height="22.8468" filterUnits="userSpaceOnUse" color-interpolation-filters="sRGB">
<feFlood flood-opacity="0" result="BackgroundImageFix"/>
<feColorMatrix in="SourceAlpha" type="matrix" values="0 0 0 0 0 0 0 0 0 0 0 0 0 0 0 0 0 0 127 0" result="hardAlpha"/>
<feOffset dy="4"/>
<feGaussianBlur stdDeviation="2"/>
<feComposite in2="hardAlpha" operator="out"/>
<feColorMatrix type="matrix" values="0 0 0 0 0 0 0 0 0 0 0 0 0 0 0 0 0 0 0.25 0"/>
<feBlend mode="normal" in2="BackgroundImageFix" result="effect1_dropShadow_78_218"/>
<feBlend mode="normal" in="SourceGraphic" in2="effect1_dropShadow_78_218" result="shape"/>
</filter>
</defs>
</svg>
