<svg width="575" height="644" viewBox="0 0 575 644" fill="none" xmlns="http://www.w3.org/2000/svg">
<path d="M360.35 291.178C371.519 277.14 386.306 245.906 356.103 233.271" stroke="white" stroke-width="5"/>
<path d="M32.3678 302.476C12.1447 286.44 -15.1308 249.295 37.5522 229" stroke="white" stroke-width="5"/>
<g filter="url(#filter0_d_11_26)">
<ellipse cx="195.052" cy="291" rx="172.5" ry="166" fill="#D4B793"/>
</g>
<path d="M206.474 71.8489C205.885 83.6853 184.27 92.2278 158.197 90.9292C132.124 89.6306 111.465 78.9826 112.055 67.1462C112.644 55.3098 134.073 37.0194 160.147 38.318C186.22 39.6166 207.064 60.0126 206.474 71.8489Z" fill="#B3B3B3"/>
<ellipse cx="179.987" cy="35.5" rx="17" ry="17.5" fill="#B3B3B3"/>
<ellipse cx="190.987" cy="35" rx="39" ry="35" fill="#B3B3B3"/>
<g filter="url(#filter1_df_11_26)">
<ellipse cx="199.487" cy="292" rx="167.5" ry="162" fill="#795B53"/>
</g>
<path d="M157.531 64.4778C158.427 62.9433 160.071 62 161.848 62H264.533C267.121 62 269.282 63.9748 269.513 66.5524L271.844 92.4821C271.937 93.5185 271.705 94.5581 271.179 95.456L261.605 111.809C261.228 112.452 261 113.172 260.937 113.915L258.604 141.602C258.359 144.511 255.685 146.592 252.805 146.115L210.515 139.113C209.986 139.026 209.447 139.024 208.918 139.107L164.26 146.165C161.402 146.617 158.758 144.556 158.499 141.674L155.071 103.525C154.987 102.59 154.641 101.698 154.074 100.95L146.007 90.3211C144.784 88.7105 144.652 86.5221 145.672 84.7762L157.531 64.4778Z" fill="#B3B3B3"/>
<ellipse cx="252.487" cy="40.5" rx="37.5" ry="35.5" fill="#B3B3B3"/>
<ellipse cx="274.487" cy="69" rx="41.5" ry="37" fill="#B3B3B3"/>
<g filter="url(#filter2_d_11_26)">
<path d="M367.552 290.639C367.552 382.518 291.18 457 195.697 457C100.213 457 22.8086 382.518 22.8086 290.639C16.6156 248.536 123.961 302.962 195.697 324.528C280.85 290.639 367.552 237.24 367.552 290.639Z" fill="white"/>
</g>
<g filter="url(#filter3_i_11_26)">
<ellipse cx="199.487" cy="292" rx="34.5" ry="33" fill="#895C4C"/>
</g>
<g filter="url(#filter4_d_11_26)">
<ellipse cx="305.987" cy="143.5" rx="35" ry="35.5" fill="#D4B793"/>
</g>
<g filter="url(#filter5_d_11_26)">
<ellipse cx="200.987" cy="221.5" rx="30" ry="29.5" fill="#D4B793"/>
</g>
<g filter="url(#filter6_d_11_26)">
<ellipse cx="302.987" cy="149.5" rx="29" ry="29.5" fill="#795B53"/>
</g>
<g filter="url(#filter7_d_11_26)">
<ellipse cx="261.987" cy="204" rx="12" ry="11" fill="#59423D"/>
</g>
<g filter="url(#filter8_d_11_26)">
<ellipse cx="199.487" cy="208" rx="10.5" ry="10" fill="#785952"/>
</g>
<g filter="url(#filter9_d_11_26)">
<path d="M149.987 205.5C149.987 212.404 143.943 218 136.487 218C129.031 218 122.987 212.404 122.987 205.5C122.987 198.596 129.031 193 136.487 193C143.943 193 149.987 198.596 149.987 205.5Z" fill="#59423D"/>
</g>
<g filter="url(#filter10_d_11_26)">
<path d="M199.987 216.5L200.053 216.744C202.25 224.905 207.63 231.842 214.987 236V236" stroke="#785952" stroke-width="5"/>
</g>
<g filter="url(#filter11_d_11_26)">
<path d="M198.987 211L198.495 213.196C196.413 222.492 190.868 230.646 182.987 236V236" stroke="#785952" stroke-width="5"/>
</g>
<g filter="url(#filter12_d_11_26)">
<ellipse cx="103.987" cy="143.5" rx="35" ry="35.5" fill="#D4B793"/>
</g>
<g filter="url(#filter13_d_11_26)">
<ellipse cx="106.987" cy="149.5" rx="29" ry="29.5" fill="#795B53"/>
<ellipse cx="106.987" cy="149.5" rx="29" ry="29.5" fill="#795B53"/>
</g>
<path d="M168.257 137.407C165.615 137.407 165.987 138.249 164.331 139.906C163.482 140.755 161.893 141.703 161.431 142.627" stroke="#B3B3B3" stroke-width="5" stroke-linecap="round"/>
<path d="M167.052 138.612C166.51 139.222 166.172 139.855 165.446 140.218" stroke="#B3B3B3" stroke-width="5" stroke-linecap="round"/>
<path d="M166.651 137.809C166.476 139.205 164.596 139.875 163.84 140.82C163.311 141.482 162.268 143.012 161.431 143.43" stroke="#B3B3B3" stroke-width="5" stroke-linecap="round"/>
<path d="M261.01 103.277C260.183 102.45 259.354 101.716 258.601 100.868C257.868 100.044 257.634 98.6155 256.995 97.656" stroke="#B3B3B3" stroke-width="5" stroke-linecap="round"/>
<ellipse cx="191.987" cy="40" rx="39" ry="35" fill="#D9D9D9"/>
<ellipse cx="252.487" cy="45.5" rx="37.5" ry="35.5" fill="#D9D9D9"/>
<ellipse cx="271.487" cy="69" rx="40.5" ry="34" fill="#D9D9D9"/>
<path d="M211.422 72.3126C210.861 83.5652 189.27 91.6344 163.197 90.3358C137.124 89.0372 116.441 78.8624 117.002 67.6099C117.562 56.3574 138.944 39.0194 165.017 40.318C191.091 41.6166 211.982 61.0601 211.422 72.3126Z" fill="#D9D9D9"/>
<ellipse cx="184.987" cy="38.5" rx="17" ry="17.5" fill="#D9D9D9"/>
<path d="M162.932 61.6706C163.797 60.0282 165.5 59 167.357 59H257.808C260.413 59 262.582 60.9999 262.792 63.5963L264.87 89.2479C264.946 90.1951 264.752 91.1445 264.308 91.9849L255.715 108.27C255.395 108.876 255.204 109.541 255.152 110.225L253.084 137.456C252.859 140.418 250.116 142.532 247.195 141.995L210.411 135.238C209.827 135.13 209.228 135.128 208.643 135.231L169.743 142.052C166.843 142.561 164.133 140.466 163.895 137.531L160.851 99.946C160.781 99.0788 160.486 98.2449 159.994 97.5268L152.688 86.845C151.642 85.3154 151.527 83.3326 152.391 81.6928L162.932 61.6706Z" fill="#D9D9D9"/>
<path d="M262.076 105.299C261.783 102.956 254.67 100 252.493 99.1295C247.143 96.9896 241.956 94.6913 236.379 93.452C232.185 92.5199 228.209 93.4848 224.237 93.4848C221.092 93.4848 216.282 92.9025 213.637 94.6663" stroke="#B3B3B3" stroke-width="5" stroke-linecap="round"/>
<path d="M313.859 315.968C313.712 314.457 312.543 310.501 311.229 309.707C309.961 308.941 307.815 308.359 307.095 310.393C306.519 312.02 304.975 313.977 305.78 315.796C306.809 318.122 308.905 319.247 310.686 320.985C311.769 322.042 313.263 324.103 314.611 324.758C317.179 326.007 319.925 322.088 321.374 320.599C322.848 319.086 325.01 315.853 325.132 313.652C325.176 312.873 325.82 311.717 325.424 310.951C324.989 310.106 323.699 310.393 323.045 309.965C320.032 307.996 317.408 310.945 317.241 314.038C317.202 314.757 316.913 317.29 316.406 317.811C315.662 318.576 313.992 315.576 313.838 315.024C313.403 313.461 312.024 313.838 311.041 313.052C309.567 311.875 308.55 314.203 309.433 315.11C310.669 316.38 310.931 311.3 309.913 312.344C309.16 313.119 308.714 316.74 310.101 316.74" stroke="#D49393" stroke-width="5" stroke-linecap="round"/>
<path d="M308.552 313.407C308.552 315.661 310.392 316.666 311.606 318.119C312.14 318.759 312.208 319.461 312.555 320.209C313.39 322.008 312.416 318.924 312.844 319.253C314.496 320.524 314.016 322.713 316.435 321.009C318.054 319.869 320.066 317.895 320.066 315.63C320.066 314.497 320.543 314.112 320.789 313.185C321.015 312.33 321.552 314.691 321.552 315.207C321.552 316.433 321.388 316.385 320.624 317.208C319.811 318.084 319.864 318.3 319.406 319.409C318.71 321.095 318.154 322.313 316.93 323.632C315.654 325.007 314.662 322.17 314.124 321.009" stroke="#D49393" stroke-width="5" stroke-linecap="round"/>
<path d="M309.368 313C308.331 313 308.578 313.476 308.578 314.123C308.578 315.132 309.25 314.994 310.552 314.994" stroke="#D49393" stroke-width="5" stroke-linecap="round"/>
<path d="M293.552 355.956C293.552 396.849 249.228 430 194.552 430C139.876 430 95.5522 396.849 95.5522 355.956C95.5522 315.062 139.876 346.622 194.552 346.622C249.228 346.622 293.552 315.062 293.552 355.956Z" fill="#D9D9D9"/>
<path d="M286.541 357.355C286.526 356.662 286.497 355.993 286.453 355.348L285.955 355.381C285.907 354.679 285.842 354.006 285.761 353.36L286.257 353.298C286.169 352.602 286.062 351.937 285.936 351.301L285.446 351.398C285.313 350.727 285.158 350.09 284.983 349.488L285.463 349.348C285.266 348.666 285.042 348.025 284.792 347.421L284.33 347.612C284.068 346.979 283.778 346.391 283.46 345.846L283.892 345.594C283.541 344.991 283.156 344.435 282.739 343.925L282.352 344.242C281.934 343.731 281.482 343.269 280.998 342.852L281.325 342.473C280.812 342.031 280.263 341.636 279.68 341.287L279.423 341.715C278.874 341.386 278.291 341.097 277.675 340.846L277.863 340.383C277.251 340.134 276.609 339.921 275.938 339.744L275.809 340.227C275.191 340.063 274.546 339.929 273.874 339.822L273.952 339.328C273.302 339.225 272.63 339.148 271.936 339.094L271.898 339.593C271.251 339.543 270.585 339.513 269.898 339.504L269.905 339.004C269.241 338.994 268.561 339.003 267.863 339.028L267.881 339.527C267.225 339.551 266.554 339.589 265.867 339.64L265.829 339.142C265.172 339.191 264.501 339.253 263.817 339.326L263.87 339.823C263.212 339.893 262.543 339.974 261.86 340.064L261.795 339.569C261.13 339.657 260.455 339.754 259.769 339.859L259.845 340.353C259.193 340.453 258.532 340.56 257.86 340.674L257.777 340.181C257.116 340.293 256.446 340.411 255.767 340.535L255.857 341.027C255.201 341.147 254.537 341.272 253.864 341.402L253.769 340.912C253.113 341.038 252.45 341.17 251.779 341.305L251.877 341.795C251.217 341.928 250.55 342.064 249.875 342.204L249.773 341.715C249.121 341.85 248.462 341.988 247.796 342.129L247.9 342.618C247.239 342.758 246.572 342.9 245.899 343.044L245.794 342.556C245.141 342.695 244.483 342.837 243.818 342.98L243.923 343.469L241.926 343.899L241.821 343.41C241.166 343.551 240.506 343.693 239.84 343.835L239.945 344.324C239.285 344.466 238.619 344.607 237.949 344.749L237.845 344.26C237.188 344.399 236.527 344.538 235.861 344.677L235.963 345.167C235.301 345.305 234.634 345.443 233.963 345.58L233.863 345.09C233.205 345.224 232.542 345.358 231.875 345.491L231.973 345.982C231.309 346.114 230.641 346.246 229.969 346.376L229.874 345.885C229.214 346.013 228.55 346.14 227.882 346.265L227.974 346.756C227.308 346.881 226.637 347.004 225.963 347.126L225.874 346.634C225.213 346.753 224.548 346.871 223.879 346.986L223.964 347.479C223.295 347.594 222.622 347.708 221.945 347.819L221.864 347.325C221.201 347.434 220.535 347.541 219.865 347.645L219.942 348.139C219.271 348.243 218.597 348.344 217.92 348.443L217.848 347.948C217.181 348.045 216.512 348.14 215.84 348.231L215.907 348.726C215.235 348.818 214.56 348.906 213.882 348.991L213.82 348.494C213.15 348.578 212.478 348.659 211.803 348.736L211.86 349.232C211.186 349.309 210.51 349.382 209.832 349.452L209.781 348.954C209.108 349.023 208.433 349.088 207.755 349.149L207.8 349.647C207.126 349.708 206.449 349.765 205.77 349.818L205.732 349.319C205.056 349.372 204.378 349.42 203.698 349.464L203.73 349.963C203.055 350.007 202.378 350.046 201.699 350.08L201.673 349.581C200.996 349.616 200.317 349.646 199.637 349.671L199.655 350.17C198.979 350.195 198.3 350.216 197.62 350.231L197.609 349.731C196.932 349.747 196.254 349.757 195.574 349.762L195.577 350.262C195.236 350.265 194.894 350.266 194.552 350.266C194.21 350.266 193.868 350.265 193.527 350.262L193.531 349.762C192.851 349.757 192.172 349.747 191.496 349.731L191.484 350.231C190.804 350.216 190.126 350.195 189.449 350.17L189.468 349.671C188.787 349.646 188.108 349.616 187.431 349.581L187.406 350.08C186.726 350.046 186.049 350.007 185.374 349.963L185.407 349.464C184.727 349.42 184.049 349.372 183.373 349.319L183.334 349.818C182.655 349.765 181.979 349.708 181.304 349.647L181.349 349.149C180.672 349.088 179.996 349.023 179.323 348.954L179.272 349.452C178.594 349.382 177.918 349.309 177.245 349.232L177.301 348.736C176.626 348.659 175.954 348.578 175.284 348.494L175.222 348.991C174.544 348.906 173.869 348.818 173.197 348.726L173.264 348.231C172.592 348.14 171.923 348.045 171.257 347.948L171.185 348.443C170.507 348.344 169.833 348.243 169.162 348.139L169.239 347.645C168.569 347.541 167.903 347.434 167.24 347.325L167.159 347.819C166.483 347.708 165.81 347.594 165.14 347.479L165.225 346.986C164.557 346.871 163.891 346.753 163.23 346.634L163.141 347.126C162.467 347.004 161.797 346.881 161.13 346.756L161.222 346.265C160.555 346.14 159.891 346.013 159.231 345.885L159.136 346.376C158.463 346.246 157.795 346.114 157.131 345.982L157.229 345.491C156.562 345.358 155.9 345.224 155.241 345.09L155.141 345.58C154.47 345.443 153.804 345.305 153.142 345.167L153.244 344.677C152.578 344.538 151.916 344.399 151.259 344.26L151.156 344.749C150.485 344.607 149.82 344.466 149.159 344.324L149.264 343.835C148.598 343.693 147.938 343.551 147.283 343.41L147.178 343.899L145.181 343.469L145.286 342.98C144.622 342.837 143.963 342.695 143.31 342.556L143.205 343.044C142.532 342.9 141.865 342.758 141.204 342.618L141.308 342.129C140.642 341.988 139.983 341.85 139.331 341.715L139.23 342.204C138.555 342.064 137.887 341.928 137.227 341.795L137.326 341.305C136.654 341.17 135.991 341.038 135.335 340.912L135.24 341.402C134.567 341.272 133.903 341.147 133.247 341.027L133.337 340.535C132.658 340.411 131.988 340.293 131.328 340.181L131.244 340.674C130.573 340.56 129.911 340.453 129.26 340.353L129.335 339.859C128.649 339.754 127.974 339.657 127.31 339.569L127.244 340.064C126.562 339.974 125.892 339.893 125.234 339.823L125.287 339.326C124.604 339.253 123.933 339.191 123.275 339.142L123.237 339.64C122.551 339.589 121.879 339.551 121.224 339.527L121.241 339.028C120.544 339.003 119.863 338.994 119.2 339.004L119.207 339.504C118.52 339.513 117.853 339.543 117.207 339.593L117.168 339.094C116.474 339.148 115.802 339.225 115.152 339.328L115.231 339.822C114.559 339.929 113.913 340.063 113.295 340.227L113.167 339.744C112.496 339.921 111.853 340.134 111.241 340.383L111.429 340.846C110.813 341.097 110.231 341.386 109.681 341.716L109.424 341.287C108.841 341.636 108.292 342.031 107.779 342.473L108.106 342.852C107.622 343.269 107.17 343.731 106.753 344.242L106.366 343.925C105.948 344.435 105.563 344.991 105.212 345.594L105.644 345.846C105.327 346.391 105.037 346.979 104.775 347.612L104.313 347.421C104.063 348.025 103.839 348.667 103.641 349.348L104.121 349.488C103.946 350.091 103.792 350.727 103.659 351.398L103.168 351.301C103.042 351.937 102.935 352.602 102.847 353.298L103.343 353.36C103.262 354.006 103.197 354.679 103.15 355.381L102.651 355.348C102.607 355.993 102.578 356.662 102.563 357.355L103.063 357.366C103.056 357.708 103.052 358.057 103.052 358.412C103.052 358.74 103.055 359.069 103.062 359.397L102.562 359.406C102.574 360.068 102.599 360.728 102.637 361.385L103.136 361.356C103.174 362.011 103.224 362.664 103.286 363.314L102.788 363.361C102.851 364.019 102.926 364.675 103.014 365.327L103.51 365.261C103.597 365.91 103.696 366.557 103.808 367.202L103.315 367.287C103.428 367.938 103.553 368.586 103.69 369.231L104.179 369.127C104.316 369.768 104.464 370.405 104.624 371.039L104.139 371.162C104.3 371.802 104.474 372.439 104.659 373.073L105.139 372.933C105.322 373.561 105.517 374.185 105.724 374.807L105.249 374.964C105.457 375.59 105.677 376.213 105.908 376.832L106.376 376.657C106.605 377.27 106.845 377.88 107.096 378.486L106.634 378.677C106.886 379.286 107.149 379.891 107.423 380.492L107.878 380.285C108.15 380.88 108.432 381.471 108.724 382.059L108.277 382.282C108.57 382.871 108.874 383.457 109.189 384.039L109.629 383.801C109.94 384.376 110.261 384.947 110.592 385.514L110.16 385.766C110.492 386.335 110.835 386.9 111.187 387.461L111.61 387.195C111.958 387.748 112.315 388.297 112.681 388.842L112.266 389.121C112.634 389.668 113.012 390.211 113.399 390.749L113.805 390.458C114.186 390.988 114.575 391.513 114.974 392.035L114.577 392.339C114.978 392.863 115.388 393.383 115.807 393.898L116.195 393.583C116.606 394.089 117.026 394.59 117.454 395.088L117.075 395.414C117.506 395.914 117.945 396.409 118.392 396.9L118.762 396.564C119.201 397.046 119.648 397.524 120.103 397.997L119.743 398.343C120.2 398.819 120.665 399.289 121.138 399.755L121.489 399.399C121.954 399.857 122.427 400.311 122.907 400.76L122.565 401.125C123.046 401.575 123.535 402.021 124.031 402.462L124.363 402.088C124.851 402.522 125.347 402.951 125.849 403.376L125.527 403.758C126.03 404.183 126.539 404.604 127.056 405.02L127.37 404.63C127.879 405.04 128.395 405.445 128.918 405.846L128.614 406.242C129.137 406.643 129.666 407.039 130.201 407.429L130.496 407.026C131.024 407.411 131.559 407.792 132.1 408.168L131.815 408.579C132.355 408.955 132.902 409.326 133.454 409.692L133.73 409.275C134.276 409.637 134.827 409.993 135.384 410.345L135.117 410.768C135.674 411.119 136.237 411.466 136.805 411.808L137.062 411.38C137.623 411.717 138.189 412.05 138.761 412.378L138.512 412.811C139.084 413.139 139.66 413.462 140.242 413.78L140.482 413.341C141.056 413.654 141.636 413.963 142.22 414.267L141.99 414.711C142.574 415.015 143.164 415.314 143.758 415.608L143.98 415.16C144.567 415.45 145.158 415.735 145.754 416.015L145.541 416.468C146.138 416.748 146.739 417.024 147.345 417.294L147.549 416.838C148.146 417.104 148.748 417.366 149.354 417.623L149.159 418.083C149.767 418.341 150.379 418.593 150.995 418.841L151.181 418.377C151.788 418.62 152.399 418.859 153.013 419.093L152.836 419.56C153.453 419.795 154.075 420.024 154.701 420.249L154.869 419.778C155.484 419.999 156.103 420.214 156.726 420.425L156.565 420.899C157.191 421.11 157.82 421.317 158.453 421.518L158.604 421.042C159.228 421.24 159.854 421.434 160.485 421.622L160.342 422.101C160.973 422.29 161.609 422.474 162.248 422.652L162.382 422.171C163.013 422.347 163.647 422.519 164.285 422.685L164.159 423.169C164.796 423.335 165.437 423.496 166.08 423.652L166.198 423.166C166.836 423.321 167.477 423.47 168.12 423.615L168.011 424.103C168.653 424.247 169.298 424.386 169.946 424.519L170.047 424.03C170.691 424.163 171.337 424.29 171.987 424.413L171.894 424.904C172.54 425.026 173.188 425.143 173.839 425.255L173.924 424.762C174.572 424.873 175.223 424.979 175.877 425.08L175.8 425.574C176.45 425.674 177.101 425.77 177.756 425.86L177.824 425.364C178.475 425.454 179.128 425.538 179.783 425.617L179.723 426.114C180.377 426.193 181.033 426.266 181.691 426.335L181.743 425.838C182.395 425.906 183.05 425.969 183.706 426.026L183.663 426.525C184.32 426.582 184.979 426.635 185.641 426.682L185.677 426.184C186.33 426.23 186.985 426.272 187.642 426.309L187.614 426.808C188.274 426.845 188.935 426.876 189.599 426.902L189.619 426.403C190.273 426.429 190.928 426.449 191.586 426.465L191.574 426.965C192.233 426.98 192.894 426.991 193.557 426.996L193.561 426.496C193.891 426.499 194.221 426.5 194.552 426.5C194.883 426.5 195.214 426.499 195.544 426.496L195.548 426.996C196.21 426.991 196.871 426.98 197.531 426.965L197.519 426.465C198.176 426.449 198.832 426.429 199.486 426.403L199.506 426.902C200.169 426.876 200.831 426.845 201.49 426.808L201.463 426.309C202.12 426.272 202.775 426.23 203.428 426.184L203.464 426.682C204.125 426.635 204.785 426.582 205.442 426.525L205.398 426.026C206.055 425.969 206.709 425.906 207.362 425.838L207.413 426.335C208.072 426.266 208.728 426.193 209.381 426.114L209.321 425.617C209.977 425.538 210.63 425.454 211.281 425.364L211.349 425.86C212.003 425.77 212.655 425.674 213.304 425.574L213.228 425.08C213.881 424.979 214.532 424.873 215.181 424.762L215.265 425.255C215.916 425.143 216.565 425.026 217.21 424.904L217.118 424.413C217.767 424.29 218.414 424.162 219.057 424.03L219.159 424.519C219.806 424.386 220.451 424.247 221.093 424.103L220.984 423.615C221.628 423.47 222.269 423.321 222.906 423.166L223.024 423.652C223.668 423.496 224.308 423.335 224.946 423.169L224.82 422.685C225.457 422.519 226.091 422.347 226.722 422.171L226.857 422.652C227.496 422.474 228.131 422.29 228.763 422.101L228.62 421.622C229.25 421.434 229.877 421.24 230.5 421.042L230.652 421.518C231.284 421.317 231.914 421.11 232.539 420.899L232.379 420.425C233.001 420.214 233.62 419.999 234.235 419.778L234.404 420.249C235.029 420.024 235.651 419.795 236.269 419.56L236.091 419.093C236.706 418.859 237.317 418.62 237.923 418.377L238.11 418.841C238.726 418.593 239.338 418.341 239.946 418.083L239.75 417.623C240.356 417.366 240.958 417.104 241.555 416.838L241.759 417.294C242.365 417.024 242.967 416.748 243.563 416.468L243.351 416.015C243.947 415.735 244.538 415.45 245.124 415.16L245.346 415.608C245.94 415.314 246.53 415.015 247.115 414.711L246.884 414.267C247.469 413.963 248.048 413.654 248.623 413.341L248.862 413.78C249.444 413.462 250.021 413.139 250.592 412.811L250.343 412.378C250.915 412.05 251.481 411.717 252.042 411.38L252.3 411.808C252.868 411.466 253.43 411.119 253.987 410.768L253.72 410.345C254.277 409.993 254.828 409.637 255.374 409.275L255.65 409.692C256.203 409.326 256.749 408.955 257.29 408.579L257.004 408.168C257.545 407.792 258.08 407.411 258.608 407.026L258.903 407.429C259.439 407.039 259.968 406.643 260.491 406.242L260.186 405.846C260.709 405.445 261.225 405.04 261.735 404.63L262.048 405.02C262.565 404.604 263.075 404.183 263.578 403.758L263.255 403.376C263.758 402.952 264.253 402.522 264.741 402.088L265.074 402.462C265.569 402.021 266.058 401.575 266.539 401.125L266.198 400.76C266.678 400.311 267.15 399.857 267.615 399.399L267.966 399.755C268.439 399.289 268.904 398.819 269.361 398.343L269.001 397.997C269.456 397.524 269.904 397.046 270.343 396.564L270.712 396.9C271.16 396.409 271.599 395.914 272.029 395.414L271.65 395.088C272.079 394.59 272.498 394.089 272.909 393.583L273.297 393.898C273.716 393.383 274.126 392.863 274.527 392.339L274.13 392.035C274.529 391.513 274.919 390.988 275.299 390.458L275.706 390.749C276.092 390.211 276.47 389.668 276.838 389.121L276.423 388.842C276.79 388.297 277.147 387.748 277.494 387.195L277.918 387.461C278.27 386.9 278.612 386.335 278.944 385.766L278.512 385.514C278.844 384.947 279.165 384.376 279.476 383.801L279.915 384.039C280.23 383.457 280.534 382.871 280.828 382.282L280.38 382.059C280.673 381.471 280.955 380.88 281.226 380.285L281.681 380.492C281.955 379.891 282.218 379.286 282.47 378.677L282.008 378.486C282.259 377.88 282.499 377.27 282.728 376.657L283.197 376.832C283.428 376.213 283.647 375.59 283.855 374.964L283.381 374.807C283.587 374.185 283.782 373.56 283.966 372.933L284.446 373.073C284.631 372.439 284.804 371.802 284.966 371.161L284.481 371.039C284.641 370.405 284.789 369.768 284.925 369.127L285.414 369.231C285.551 368.586 285.676 367.938 285.789 367.287L285.296 367.202C285.408 366.557 285.508 365.91 285.595 365.261L286.09 365.327C286.178 364.674 286.253 364.019 286.316 363.361L285.819 363.314C285.881 362.664 285.931 362.011 285.968 361.356L286.467 361.385C286.505 360.728 286.53 360.068 286.543 359.406L286.043 359.396C286.049 359.069 286.052 358.74 286.052 358.412C286.052 358.057 286.049 357.708 286.041 357.365L286.541 357.355Z" stroke="#DD9696" stroke-dasharray="2 2"/>
<g filter="url(#filter14_d_11_26)">
<path d="M11.256 496.024L23.096 496.088C29.2827 496.088 34.7227 498.328 39.416 502.808C44.1093 507.245 46.456 512.728 46.456 519.256C46.456 525.741 44.152 531.309 39.544 535.96C34.9787 540.611 29.432 542.936 22.904 542.936H11.192C8.58933 542.936 6.968 542.403 6.328 541.336C5.816 540.44 5.56 539.075 5.56 537.24V501.656C5.56 500.632 5.58133 499.885 5.624 499.416C5.70933 498.947 5.92267 498.392 6.264 497.752C6.86133 496.6 8.52533 496.024 11.256 496.024ZM23.096 531.608C26.168 531.608 28.9413 530.477 31.416 528.216C33.8907 525.912 35.128 523.032 35.128 519.576C35.128 516.12 33.912 513.24 31.48 510.936C29.0907 508.589 26.2747 507.416 23.032 507.416H16.888V531.608H23.096ZM49.6625 526.168C49.6625 521.048 51.4545 516.824 55.0385 513.496C58.6225 510.168 62.7185 508.504 67.3265 508.504C71.9345 508.504 76.0092 510.168 79.5505 513.496C83.0918 516.781 84.8625 520.984 84.8625 526.104C84.8625 529.645 83.9452 532.803 82.1105 535.576C80.2758 538.307 78.0358 540.333 75.3905 541.656C72.7878 542.936 70.0785 543.576 67.2625 543.576C64.4465 543.576 61.7158 542.893 59.0705 541.528C56.4252 540.12 54.1852 538.072 52.3505 535.384C50.5585 532.653 49.6625 529.581 49.6625 526.168ZM63.0385 530.776C64.4038 531.8 65.7905 532.312 67.1985 532.312C68.6065 532.312 70.0145 531.779 71.4225 530.712C72.8305 529.645 73.5345 528.067 73.5345 525.976C73.5345 523.885 72.8732 522.328 71.5505 521.304C70.2278 520.28 68.7985 519.768 67.2625 519.768C65.7265 519.768 64.2972 520.301 62.9745 521.368C61.6518 522.435 60.9905 524.013 60.9905 526.104C60.9905 528.152 61.6732 529.709 63.0385 530.776ZM107.75 509.272C112.016 509.272 115.558 510.915 118.374 514.2C121.232 517.443 122.662 521.411 122.662 526.104V537.368C122.662 538.349 122.619 539.096 122.534 539.608C122.491 540.077 122.32 540.611 122.022 541.208C121.424 542.36 119.76 542.936 117.03 542.936C114 542.936 112.251 542.147 111.782 540.568C111.526 539.843 111.398 538.755 111.398 537.304V526.04C111.398 524.291 110.886 522.925 109.862 521.944C108.88 520.963 107.536 520.472 105.83 520.472C104.166 520.472 102.8 520.984 101.734 522.008C100.71 523.032 100.198 524.376 100.198 526.04V537.368C100.198 538.349 100.155 539.096 100.07 539.608C100.027 540.077 99.8348 540.611 99.4935 541.208C98.9388 542.36 97.2962 542.936 94.5655 542.936C91.8775 542.936 90.2348 542.36 89.6375 541.208C89.3388 540.568 89.1468 540.013 89.0615 539.544C89.0188 539.032 88.9975 538.285 88.9975 537.304V514.648C88.9975 513.709 89.0188 513.005 89.0615 512.536C89.1468 512.024 89.3602 511.469 89.7015 510.872C90.2988 509.805 91.9415 509.272 94.6295 509.272C97.2322 509.272 98.8322 509.763 99.4295 510.744C99.8562 511.469 100.07 512.344 100.07 513.368C100.24 513.069 100.624 512.643 101.222 512.088C101.819 511.533 102.395 511.085 102.95 510.744C104.4 509.763 106 509.272 107.75 509.272ZM142.786 542.872C138.477 542.872 134.893 541.251 132.034 538.008C129.218 534.723 127.81 530.733 127.81 526.04V514.84C127.81 513.816 127.831 513.069 127.874 512.6C127.959 512.131 128.151 511.576 128.45 510.936C129.047 509.784 130.711 509.208 133.442 509.208C136.429 509.208 138.178 510.019 138.69 511.64C138.946 512.323 139.074 513.411 139.074 514.904V526.104C139.074 527.853 139.565 529.219 140.546 530.2C141.57 531.181 142.914 531.672 144.578 531.672C146.285 531.672 147.65 531.16 148.674 530.136C149.741 529.112 150.274 527.768 150.274 526.104V514.776C150.274 513.795 150.295 513.069 150.338 512.6C150.423 512.088 150.637 511.512 150.978 510.872C151.533 509.763 153.175 509.208 155.906 509.208C158.594 509.208 160.237 509.784 160.834 510.936C161.133 511.576 161.303 512.152 161.346 512.664C161.431 513.133 161.474 513.859 161.474 514.84V537.496C161.474 538.435 161.431 539.16 161.346 539.672C161.303 540.141 161.111 540.675 160.77 541.272C160.13 542.381 158.487 542.936 155.842 542.936C153.239 542.936 151.639 542.424 151.042 541.4C150.615 540.675 150.402 539.8 150.402 538.776C150.231 539.075 149.847 539.501 149.25 540.056C148.653 540.611 148.077 541.08 147.522 541.464C146.071 542.403 144.493 542.872 142.786 542.872ZM186.207 520.6L182.047 520.344V529.176C182.047 530.328 182.217 531.16 182.559 531.672C182.943 532.184 183.625 532.44 184.607 532.44C185.631 532.44 186.399 532.483 186.911 532.568C187.465 532.611 188.041 532.803 188.639 533.144C189.62 533.699 190.111 535.128 190.111 537.432C190.111 540.12 189.513 541.763 188.319 542.36C187.679 542.659 187.103 542.851 186.591 542.936C186.121 542.979 185.417 543 184.479 543C180.041 543 176.671 541.997 174.367 539.992C172.063 537.987 170.911 534.595 170.911 529.816V520.344C170.1 520.472 169.225 520.536 168.286 520.536C167.348 520.536 166.559 520.173 165.919 519.448C165.321 518.723 165.023 517.485 165.023 515.736C165.023 513.987 165.129 512.728 165.343 511.96C165.556 511.149 165.855 510.573 166.239 510.232C166.921 509.677 167.775 509.4 168.799 509.4L170.911 509.656V503.064C170.911 502.083 170.932 501.357 170.975 500.888C171.06 500.419 171.273 499.907 171.615 499.352C172.169 498.285 173.812 497.752 176.543 497.752C179.444 497.752 181.172 498.541 181.727 500.12C181.94 500.803 182.047 501.891 182.047 503.384V509.656C183.924 509.485 185.332 509.4 186.271 509.4C187.252 509.4 187.977 509.443 188.447 509.528C188.959 509.571 189.535 509.763 190.175 510.104C191.284 510.659 191.839 512.301 191.839 515.032C191.839 517.72 191.263 519.363 190.111 519.96C189.471 520.259 188.895 520.451 188.383 520.536C187.913 520.579 187.188 520.6 186.207 520.6ZM267.688 496.344C270.547 497.368 271.976 498.733 271.976 500.44C271.976 500.995 271.72 502.04 271.208 503.576L258.92 539.096C258.835 539.395 258.685 539.757 258.472 540.184C258.259 540.611 257.683 541.187 256.744 541.912C255.848 542.595 254.76 542.936 253.48 542.936C252.243 542.936 251.155 542.595 250.216 541.912C249.32 541.187 248.723 540.483 248.424 539.8L240.936 517.72C236.2 531.715 233.789 538.84 233.704 539.096C233.619 539.352 233.427 539.715 233.128 540.184C232.829 540.653 232.488 541.08 232.104 541.464C231.123 542.445 229.949 542.936 228.584 542.936C227.219 542.936 226.088 542.616 225.192 541.976C224.339 541.336 223.763 540.696 223.464 540.056L223.016 539.096L210.664 503.576C210.195 502.168 209.96 501.123 209.96 500.44C209.96 498.733 211.389 497.389 214.248 496.408C215.485 495.981 216.595 495.768 217.576 495.768C218.6 495.768 219.368 496.109 219.88 496.792C220.435 497.475 220.925 498.52 221.352 499.928L228.392 521.304L235.368 500.248C235.965 498.456 237.053 497.219 238.632 496.536C239.315 496.237 240.189 496.088 241.256 496.088C242.365 496.088 243.389 496.451 244.328 497.176C245.267 497.859 245.864 498.541 246.12 499.224L253.48 521.432L260.52 499.928C260.861 498.947 261.139 498.221 261.352 497.752C261.565 497.283 261.949 496.835 262.504 496.408C263.101 495.939 263.827 495.704 264.68 495.704C265.533 495.704 266.536 495.917 267.688 496.344ZM270.038 526.168C270.038 521.048 271.83 516.824 275.414 513.496C278.998 510.168 283.094 508.504 287.702 508.504C292.31 508.504 296.384 510.168 299.926 513.496C303.467 516.781 305.238 520.984 305.238 526.104C305.238 529.645 304.32 532.803 302.486 535.576C300.651 538.307 298.411 540.333 295.766 541.656C293.163 542.936 290.454 543.576 287.638 543.576C284.822 543.576 282.091 542.893 279.446 541.528C276.8 540.12 274.56 538.072 272.726 535.384C270.934 532.653 270.038 529.581 270.038 526.168ZM283.414 530.776C284.779 531.8 286.166 532.312 287.574 532.312C288.982 532.312 290.39 531.779 291.798 530.712C293.206 529.645 293.91 528.067 293.91 525.976C293.91 523.885 293.248 522.328 291.926 521.304C290.603 520.28 289.174 519.768 287.638 519.768C286.102 519.768 284.672 520.301 283.35 521.368C282.027 522.435 281.366 524.013 281.366 526.104C281.366 528.152 282.048 529.709 283.414 530.776ZM332.285 509.656C333.095 509.912 333.757 510.36 334.269 511C334.823 511.597 335.101 512.579 335.101 513.944C335.101 515.309 334.695 516.803 333.885 518.424C333.074 520.045 331.901 520.856 330.365 520.856C329.597 520.856 328.85 520.685 328.125 520.344C327.442 520.003 326.525 519.832 325.373 519.832C324.221 519.832 323.133 520.237 322.109 521.048C321.127 521.859 320.637 522.84 320.637 523.992V537.432C320.637 538.413 320.594 539.16 320.509 539.672C320.466 540.141 320.274 540.696 319.933 541.336C319.293 542.445 317.629 543 314.941 543C312.893 543 311.421 542.637 310.525 541.912C309.842 541.315 309.458 540.397 309.373 539.16C309.373 538.733 309.373 538.115 309.373 537.304V514.84C309.373 513.859 309.394 513.133 309.437 512.664C309.522 512.152 309.714 511.597 310.013 511C310.61 509.848 312.274 509.272 315.005 509.272C317.565 509.272 319.165 509.763 319.805 510.744C320.274 511.427 320.509 512.131 320.509 512.856C320.722 512.557 321.021 512.195 321.405 511.768C321.831 511.341 322.706 510.765 324.029 510.04C325.351 509.315 326.503 508.952 327.485 508.952C328.509 508.952 329.362 509.016 330.045 509.144C330.727 509.229 331.474 509.4 332.285 509.656ZM361.535 509.656C362.345 509.912 363.007 510.36 363.519 511C364.073 511.597 364.351 512.579 364.351 513.944C364.351 515.309 363.945 516.803 363.135 518.424C362.324 520.045 361.151 520.856 359.615 520.856C358.847 520.856 358.1 520.685 357.375 520.344C356.692 520.003 355.775 519.832 354.623 519.832C353.471 519.832 352.383 520.237 351.359 521.048C350.377 521.859 349.887 522.84 349.887 523.992V537.432C349.887 538.413 349.844 539.16 349.759 539.672C349.716 540.141 349.524 540.696 349.183 541.336C348.543 542.445 346.879 543 344.191 543C342.143 543 340.671 542.637 339.775 541.912C339.092 541.315 338.708 540.397 338.623 539.16C338.623 538.733 338.623 538.115 338.623 537.304V514.84C338.623 513.859 338.644 513.133 338.687 512.664C338.772 512.152 338.964 511.597 339.263 511C339.86 509.848 341.524 509.272 344.255 509.272C346.815 509.272 348.415 509.763 349.055 510.744C349.524 511.427 349.759 512.131 349.759 512.856C349.972 512.557 350.271 512.195 350.655 511.768C351.081 511.341 351.956 510.765 353.279 510.04C354.601 509.315 355.753 508.952 356.735 508.952C357.759 508.952 358.612 509.016 359.295 509.144C359.977 509.229 360.724 509.4 361.535 509.656ZM399.233 509.656C401.75 510.765 403.009 512.109 403.009 513.688C403.009 514.456 402.838 515.181 402.497 515.864C402.155 516.547 401.985 516.909 401.985 516.952L385.217 554.456C384.875 555.267 384.577 555.885 384.321 556.312C384.107 556.739 383.745 557.144 383.233 557.528C382.721 557.912 382.081 558.104 381.312 558.104C380.545 558.104 379.414 557.784 377.921 557.144C375.403 556.035 374.145 554.712 374.145 553.176C374.145 552.152 376.193 547.267 380.289 538.52L367.553 517.08C366.699 515.672 366.273 514.627 366.273 513.944C366.273 512.579 367.425 511.213 369.729 509.848C371.179 508.995 372.31 508.568 373.121 508.568C373.931 508.568 374.593 508.739 375.105 509.08C375.617 509.421 375.979 509.784 376.193 510.168C376.449 510.509 377.622 512.493 379.713 516.12C381.846 519.704 383.873 523.053 385.793 526.168C386.006 525.485 387.158 522.861 389.249 518.296C391.339 513.688 392.449 511.235 392.577 510.936C392.747 510.637 393.003 510.275 393.345 509.848C393.899 509.123 394.667 508.76 395.649 508.76C396.673 508.76 397.867 509.059 399.233 509.656ZM401.806 532.952C402.19 532.269 402.808 531.8 403.661 531.544C404.515 531.245 405.88 531.096 407.758 531.096C409.635 531.096 410.979 531.523 411.79 532.376C412.643 533.187 413.07 534.787 413.07 537.176C413.07 538.072 413.006 538.904 412.878 539.672C412.494 543.299 411.299 546.456 409.294 549.144C407.288 551.832 404.942 553.176 402.254 553.176C401.955 553.176 401.678 552.941 401.422 552.472C401.208 552.045 401.102 551.469 401.102 550.744C401.102 550.061 401.187 549.507 401.358 549.08C401.571 548.653 401.827 548.376 402.126 548.248C402.424 548.163 402.723 547.992 403.022 547.736C403.363 547.523 403.811 546.968 404.366 546.072C404.92 545.176 405.24 544.152 405.326 543C403.96 542.829 402.894 542.381 402.126 541.656C401.4 540.888 401.038 539.672 401.038 538.008C401.08 536.301 401.123 535.213 401.166 534.744C401.251 534.232 401.464 533.635 401.806 532.952ZM34.872 607.712L36.024 606.88C37.4747 606.027 38.4987 605.6 39.096 605.6C40.4187 605.6 41.848 606.795 43.384 609.184C44.3227 610.677 44.792 611.872 44.792 612.768C44.792 613.664 44.4933 614.411 43.896 615.008C43.3413 615.605 42.68 616.139 41.912 616.608C41.144 617.077 40.3973 617.525 39.672 617.952C38.9893 618.379 37.56 618.933 35.384 619.616C33.208 620.299 31.096 620.64 29.048 620.64C27.0427 620.64 24.9947 620.384 22.904 619.872C20.856 619.317 18.7227 618.421 16.504 617.184C14.328 615.904 12.3653 614.368 10.616 612.576C8.86667 610.741 7.416 608.416 6.264 605.6C5.15467 602.741 4.6 599.648 4.6 596.32C4.6 592.992 5.15467 589.984 6.264 587.296C7.37333 584.565 8.78133 582.325 10.488 580.576C12.2373 578.784 14.2213 577.291 16.44 576.096C20.6213 573.792 24.824 572.64 29.048 572.64C31.0533 572.64 33.08 572.96 35.128 573.6C37.2187 574.197 38.7973 574.816 39.864 575.456L41.4 576.352C42.168 576.821 42.7653 577.205 43.192 577.504C44.3013 578.4 44.856 579.424 44.856 580.576C44.856 581.685 44.408 582.859 43.512 584.096C41.848 586.4 40.3547 587.552 39.032 587.552C38.264 587.552 37.176 587.083 35.768 586.144C33.976 584.693 31.5867 583.968 28.6 583.968C25.8267 583.968 23.096 584.928 20.408 586.848C19.128 587.787 18.0613 589.109 17.208 590.816C16.3547 592.523 15.928 594.464 15.928 596.64C15.928 598.773 16.3547 600.693 17.208 602.4C18.0613 604.107 19.1493 605.451 20.472 606.432C23.0747 608.309 25.784 609.248 28.6 609.248C29.9227 609.248 31.16 609.077 32.312 608.736C33.5067 608.395 34.36 608.053 34.872 607.712ZM48.0375 603.168C48.0375 598.048 49.8295 593.824 53.4135 590.496C56.9975 587.168 61.0935 585.504 65.7015 585.504C70.3095 585.504 74.3842 587.168 77.9255 590.496C81.4668 593.781 83.2375 597.984 83.2375 603.104C83.2375 606.645 82.3202 609.803 80.4855 612.576C78.6508 615.307 76.4108 617.333 73.7655 618.656C71.1628 619.936 68.4535 620.576 65.6375 620.576C62.8215 620.576 60.0908 619.893 57.4455 618.528C54.8002 617.12 52.5602 615.072 50.7255 612.384C48.9335 609.653 48.0375 606.581 48.0375 603.168ZM61.4135 607.776C62.7788 608.8 64.1655 609.312 65.5735 609.312C66.9815 609.312 68.3895 608.779 69.7975 607.712C71.2055 606.645 71.9095 605.067 71.9095 602.976C71.9095 600.885 71.2482 599.328 69.9255 598.304C68.6028 597.28 67.1735 596.768 65.6375 596.768C64.1015 596.768 62.6722 597.301 61.3495 598.368C60.0268 599.435 59.3655 601.013 59.3655 603.104C59.3655 605.152 60.0482 606.709 61.4135 607.776ZM86.4125 603.168C86.4125 598.048 88.2045 593.824 91.7885 590.496C95.3725 587.168 99.4685 585.504 104.077 585.504C108.685 585.504 112.759 587.168 116.301 590.496C119.842 593.781 121.613 597.984 121.613 603.104C121.613 606.645 120.695 609.803 118.861 612.576C117.026 615.307 114.786 617.333 112.141 618.656C109.538 619.936 106.829 620.576 104.013 620.576C101.197 620.576 98.4658 619.893 95.8205 618.528C93.1752 617.12 90.9352 615.072 89.1005 612.384C87.3085 609.653 86.4125 606.581 86.4125 603.168ZM99.7885 607.776C101.154 608.8 102.541 609.312 103.949 609.312C105.357 609.312 106.765 608.779 108.173 607.712C109.581 606.645 110.285 605.067 110.285 602.976C110.285 600.885 109.623 599.328 108.301 598.304C106.978 597.28 105.549 596.768 104.013 596.768C102.477 596.768 101.047 597.301 99.7245 598.368C98.4018 599.435 97.7405 601.013 97.7405 603.104C97.7405 605.152 98.4232 606.709 99.7885 607.776ZM145.588 603.104L154.1 610.144C155.166 611.04 155.828 611.723 156.083 612.192C156.382 612.661 156.532 613.109 156.532 613.536C156.532 614.56 155.87 615.947 154.548 617.696C153.097 619.488 151.817 620.384 150.708 620.384C149.769 620.384 148.468 619.765 146.804 618.528L146.164 618.08C145.182 617.269 143.668 615.861 141.62 613.856C139.572 611.808 138.014 610.357 136.948 609.504V614.432C136.948 615.413 136.905 616.16 136.82 616.672C136.777 617.141 136.585 617.696 136.244 618.336C135.689 619.445 134.046 620 131.316 620C128.628 620 126.985 619.424 126.388 618.272C126.089 617.632 125.897 617.077 125.812 616.608C125.769 616.096 125.748 615.349 125.748 614.368V576.032C125.748 575.051 125.769 574.325 125.812 573.856C125.897 573.344 126.089 572.768 126.388 572.128C126.985 570.976 128.649 570.4 131.38 570.4C133.428 570.4 134.878 570.763 135.732 571.488C136.457 572.085 136.841 573.024 136.884 574.304C136.926 574.688 136.948 575.285 136.948 576.096V596.384C137.716 595.744 138.868 594.656 140.404 593.12C141.982 591.584 143.156 590.496 143.924 589.856L144.692 589.344C146.185 588.192 147.465 587.616 148.532 587.616C149.598 587.616 150.814 588.491 152.18 590.24C153.588 591.947 154.292 593.291 154.292 594.272C154.292 595.253 153.502 596.405 151.924 597.728L145.588 603.104ZM205.24 574.816C205.581 574.176 206.157 573.728 206.968 573.472C207.778 573.216 208.802 573.088 210.04 573.088C211.277 573.088 212.258 573.195 212.984 573.408C213.709 573.621 214.264 573.877 214.648 574.176C215.032 574.475 215.33 574.901 215.544 575.456C215.757 576.181 215.864 577.291 215.864 578.784V614.304C215.864 615.285 215.821 616.032 215.736 616.544C215.693 617.013 215.501 617.568 215.16 618.208C214.562 619.36 212.898 619.936 210.168 619.936C207.181 619.936 205.432 619.147 204.92 617.568C204.664 616.843 204.536 615.733 204.536 614.24V601.248H187.576V614.304C187.576 615.285 187.533 616.032 187.448 616.544C187.405 617.013 187.213 617.568 186.872 618.208C186.274 619.36 184.61 619.936 181.88 619.936C178.893 619.936 177.144 619.147 176.632 617.568C176.376 616.843 176.248 615.733 176.248 614.24V578.72C176.248 577.739 176.269 577.013 176.312 576.544C176.397 576.032 176.61 575.456 176.952 574.816C177.549 573.664 179.213 573.088 181.944 573.088C184.93 573.088 186.701 573.877 187.256 575.456C187.469 576.181 187.576 577.291 187.576 578.784V591.84H204.536V578.72C204.536 577.739 204.557 577.013 204.6 576.544C204.685 576.032 204.898 575.456 205.24 574.816ZM242.886 589.856C243.142 587.467 244.827 586.272 247.942 586.272C249.606 586.272 250.843 586.4 251.654 586.656C252.464 586.912 253.019 587.36 253.318 588C253.659 588.64 253.851 589.216 253.894 589.728C253.979 590.197 254.022 590.923 254.022 591.904V614.304C254.022 615.285 253.979 616.032 253.894 616.544C253.851 617.013 253.68 617.568 253.382 618.208C252.784 619.317 251.312 619.872 248.966 619.872C246.662 619.872 245.104 619.595 244.294 619.04C243.526 618.443 243.078 617.589 242.95 616.48C241.371 618.741 238.726 619.872 235.014 619.872C231.344 619.872 227.931 618.187 224.774 614.816C221.616 611.445 220.038 607.541 220.038 603.104C220.038 598.624 221.616 594.72 224.774 591.392C227.974 588.021 231.472 586.336 235.27 586.336C236.72 586.336 238.043 586.592 239.238 587.104C240.432 587.616 241.264 588.107 241.734 588.576C242.203 589.003 242.587 589.429 242.886 589.856ZM231.238 603.168C231.238 604.576 231.792 605.856 232.902 607.008C234.011 608.117 235.355 608.672 236.934 608.672C238.512 608.672 239.814 608.096 240.838 606.944C241.904 605.792 242.438 604.533 242.438 603.168C242.438 601.76 241.926 600.459 240.902 599.264C239.92 598.069 238.576 597.472 236.87 597.472C235.206 597.472 233.84 598.069 232.774 599.264C231.75 600.459 231.238 601.76 231.238 603.168ZM259.123 629.152V591.776C259.123 590.795 259.144 590.069 259.187 589.6C259.272 589.131 259.464 588.597 259.763 588C260.36 586.848 261.789 586.272 264.051 586.272C266.312 586.272 267.827 586.571 268.595 587.168C269.405 587.723 269.875 588.555 270.003 589.664C271.624 587.445 274.163 586.336 277.619 586.336C281.117 586.336 284.424 587.979 287.539 591.264C290.653 594.549 292.211 598.368 292.211 602.72C292.211 607.072 290.653 610.891 287.539 614.176C284.467 617.461 281.181 619.104 277.683 619.104C274.184 619.104 271.645 618.123 270.067 616.16V629.088C270.067 630.069 270.024 630.795 269.939 631.264C269.896 631.733 269.704 632.267 269.363 632.864C269.064 633.504 268.531 633.952 267.763 634.208C266.995 634.464 265.949 634.592 264.627 634.592C263.304 634.592 262.237 634.464 261.427 634.208C260.659 633.952 260.104 633.525 259.763 632.928C259.464 632.331 259.272 631.797 259.187 631.328C259.144 630.859 259.123 630.133 259.123 629.152ZM271.795 599.008C270.813 600.16 270.323 601.419 270.323 602.784C270.323 604.149 270.813 605.408 271.795 606.56C272.819 607.669 274.099 608.224 275.635 608.224C277.213 608.224 278.536 607.669 279.603 606.56C280.712 605.451 281.267 604.192 281.267 602.784C281.267 601.376 280.755 600.117 279.731 599.008C278.707 597.856 277.363 597.28 275.699 597.28C274.077 597.28 272.776 597.856 271.795 599.008ZM296.373 629.152V591.776C296.373 590.795 296.394 590.069 296.437 589.6C296.522 589.131 296.714 588.597 297.013 588C297.61 586.848 299.039 586.272 301.301 586.272C303.562 586.272 305.077 586.571 305.845 587.168C306.655 587.723 307.125 588.555 307.253 589.664C308.874 587.445 311.413 586.336 314.869 586.336C318.367 586.336 321.674 587.979 324.789 591.264C327.903 594.549 329.461 598.368 329.461 602.72C329.461 607.072 327.903 610.891 324.789 614.176C321.717 617.461 318.431 619.104 314.933 619.104C311.434 619.104 308.895 618.123 307.317 616.16V629.088C307.317 630.069 307.274 630.795 307.189 631.264C307.146 631.733 306.954 632.267 306.613 632.864C306.314 633.504 305.781 633.952 305.013 634.208C304.245 634.464 303.199 634.592 301.877 634.592C300.554 634.592 299.487 634.464 298.677 634.208C297.909 633.952 297.354 633.525 297.013 632.928C296.714 632.331 296.522 631.797 296.437 631.328C296.394 630.859 296.373 630.133 296.373 629.152ZM309.045 599.008C308.063 600.16 307.573 601.419 307.573 602.784C307.573 604.149 308.063 605.408 309.045 606.56C310.069 607.669 311.349 608.224 312.885 608.224C314.463 608.224 315.786 607.669 316.853 606.56C317.962 605.451 318.517 604.192 318.517 602.784C318.517 601.376 318.005 600.117 316.981 599.008C315.957 597.856 314.613 597.28 312.949 597.28C311.327 597.28 310.026 597.856 309.045 599.008ZM363.045 586.656C365.562 587.765 366.821 589.109 366.821 590.688C366.821 591.456 366.65 592.181 366.309 592.864C365.968 593.547 365.797 593.909 365.797 593.952L349.029 631.456C348.688 632.267 348.389 632.885 348.133 633.312C347.92 633.739 347.557 634.144 347.045 634.528C346.533 634.912 345.893 635.104 345.125 635.104C344.357 635.104 343.226 634.784 341.733 634.144C339.216 633.035 337.957 631.712 337.957 630.176C337.957 629.152 340.005 624.267 344.101 615.52L331.365 594.08C330.512 592.672 330.085 591.627 330.085 590.944C330.085 589.579 331.237 588.213 333.541 586.848C334.992 585.995 336.122 585.568 336.933 585.568C337.744 585.568 338.405 585.739 338.917 586.08C339.429 586.421 339.792 586.784 340.005 587.168C340.261 587.509 341.434 589.493 343.525 593.12C345.658 596.704 347.685 600.053 349.605 603.168C349.818 602.485 350.97 599.861 353.061 595.296C355.152 590.688 356.261 588.235 356.389 587.936C356.56 587.637 356.816 587.275 357.157 586.848C357.712 586.123 358.48 585.76 359.461 585.76C360.485 585.76 361.68 586.059 363.045 586.656ZM370.95 610.272C371.377 609.419 372.017 608.843 372.87 608.544C373.766 608.245 375.131 608.096 376.966 608.096C378.843 608.096 380.187 608.501 380.998 609.312C381.851 610.123 382.278 611.403 382.278 613.152V614.176C382.278 615.2 382.235 615.968 382.15 616.48C382.107 616.949 381.915 617.525 381.574 618.208C380.891 619.445 379.249 620.064 376.646 620.064C374.086 620.064 372.379 619.659 371.526 618.848C370.715 617.995 370.31 616.373 370.31 613.984C370.31 612.32 370.523 611.083 370.95 610.272ZM379.526 602.784C378.715 602.997 377.627 603.104 376.262 603.104C374.897 603.104 373.809 602.997 372.998 602.784C372.187 602.571 371.611 602.187 371.27 601.632C370.971 601.077 370.779 600.587 370.694 600.16C370.651 599.733 370.63 599.072 370.63 598.176V577.888C370.63 576.992 370.651 576.331 370.694 575.904C370.779 575.435 370.993 574.923 371.334 574.368C371.675 573.813 372.251 573.429 373.062 573.216C373.873 572.96 374.961 572.832 376.326 572.832C377.691 572.832 378.779 572.96 379.59 573.216C380.401 573.429 380.955 573.835 381.254 574.432C381.595 574.987 381.787 575.499 381.83 575.968C381.915 576.395 381.958 577.056 381.958 577.952V598.24C381.958 599.136 381.915 599.797 381.83 600.224C381.787 600.651 381.595 601.141 381.254 601.696C380.913 602.208 380.337 602.571 379.526 602.784Z" fill="white"/>
</g>
<defs>
<filter id="filter0_d_11_26" x="18.5522" y="125" width="353" height="340" filterUnits="userSpaceOnUse" color-interpolation-filters="sRGB">
<feFlood flood-opacity="0" result="BackgroundImageFix"/>
<feColorMatrix in="SourceAlpha" type="matrix" values="0 0 0 0 0 0 0 0 0 0 0 0 0 0 0 0 0 0 127 0" result="hardAlpha"/>
<feOffset dy="4"/>
<feGaussianBlur stdDeviation="2"/>
<feComposite in2="hardAlpha" operator="out"/>
<feColorMatrix type="matrix" values="0 0 0 0 0 0 0 0 0 0 0 0 0 0 0 0 0 0 0.25 0"/>
<feBlend mode="normal" in2="BackgroundImageFix" result="effect1_dropShadow_11_26"/>
<feBlend mode="normal" in="SourceGraphic" in2="effect1_dropShadow_11_26" result="shape"/>
</filter>
<filter id="filter1_df_11_26" x="27.9871" y="126" width="343" height="336" filterUnits="userSpaceOnUse" color-interpolation-filters="sRGB">
<feFlood flood-opacity="0" result="BackgroundImageFix"/>
<feColorMatrix in="SourceAlpha" type="matrix" values="0 0 0 0 0 0 0 0 0 0 0 0 0 0 0 0 0 0 127 0" result="hardAlpha"/>
<feOffset dy="4"/>
<feGaussianBlur stdDeviation="2"/>
<feComposite in2="hardAlpha" operator="out"/>
<feColorMatrix type="matrix" values="0 0 0 0 0 0 0 0 0 0 0 0 0 0 0 0 0 0 0.25 0"/>
<feBlend mode="normal" in2="BackgroundImageFix" result="effect1_dropShadow_11_26"/>
<feBlend mode="normal" in="SourceGraphic" in2="effect1_dropShadow_11_26" result="shape"/>
<feGaussianBlur stdDeviation="2" result="effect2_foregroundBlur_11_26"/>
</filter>
<filter id="filter2_d_11_26" x="18.5522" y="268" width="353" height="197" filterUnits="userSpaceOnUse" color-interpolation-filters="sRGB">
<feFlood flood-opacity="0" result="BackgroundImageFix"/>
<feColorMatrix in="SourceAlpha" type="matrix" values="0 0 0 0 0 0 0 0 0 0 0 0 0 0 0 0 0 0 127 0" result="hardAlpha"/>
<feOffset dy="4"/>
<feGaussianBlur stdDeviation="2"/>
<feComposite in2="hardAlpha" operator="out"/>
<feColorMatrix type="matrix" values="0 0 0 0 0 0 0 0 0 0 0 0 0 0 0 0 0 0 0.25 0"/>
<feBlend mode="normal" in2="BackgroundImageFix" result="effect1_dropShadow_11_26"/>
<feBlend mode="normal" in="SourceGraphic" in2="effect1_dropShadow_11_26" result="shape"/>
</filter>
<filter id="filter3_i_11_26" x="164.987" y="259" width="69" height="70" filterUnits="userSpaceOnUse" color-interpolation-filters="sRGB">
<feFlood flood-opacity="0" result="BackgroundImageFix"/>
<feBlend mode="normal" in="SourceGraphic" in2="BackgroundImageFix" result="shape"/>
<feColorMatrix in="SourceAlpha" type="matrix" values="0 0 0 0 0 0 0 0 0 0 0 0 0 0 0 0 0 0 127 0" result="hardAlpha"/>
<feOffset dy="4"/>
<feGaussianBlur stdDeviation="2"/>
<feComposite in2="hardAlpha" operator="arithmetic" k2="-1" k3="1"/>
<feColorMatrix type="matrix" values="0 0 0 0 0 0 0 0 0 0 0 0 0 0 0 0 0 0 0.25 0"/>
<feBlend mode="normal" in2="shape" result="effect1_innerShadow_11_26"/>
</filter>
<filter id="filter4_d_11_26" x="266.987" y="108" width="78" height="79" filterUnits="userSpaceOnUse" color-interpolation-filters="sRGB">
<feFlood flood-opacity="0" result="BackgroundImageFix"/>
<feColorMatrix in="SourceAlpha" type="matrix" values="0 0 0 0 0 0 0 0 0 0 0 0 0 0 0 0 0 0 127 0" result="hardAlpha"/>
<feOffset dy="4"/>
<feGaussianBlur stdDeviation="2"/>
<feComposite in2="hardAlpha" operator="out"/>
<feColorMatrix type="matrix" values="0 0 0 0 0 0 0 0 0 0 0 0 0 0 0 0 0 0 0.25 0"/>
<feBlend mode="normal" in2="BackgroundImageFix" result="effect1_dropShadow_11_26"/>
<feBlend mode="normal" in="SourceGraphic" in2="effect1_dropShadow_11_26" result="shape"/>
</filter>
<filter id="filter5_d_11_26" x="166.987" y="192" width="68" height="67" filterUnits="userSpaceOnUse" color-interpolation-filters="sRGB">
<feFlood flood-opacity="0" result="BackgroundImageFix"/>
<feColorMatrix in="SourceAlpha" type="matrix" values="0 0 0 0 0 0 0 0 0 0 0 0 0 0 0 0 0 0 127 0" result="hardAlpha"/>
<feOffset dy="4"/>
<feGaussianBlur stdDeviation="2"/>
<feComposite in2="hardAlpha" operator="out"/>
<feColorMatrix type="matrix" values="0 0 0 0 0 0 0 0 0 0 0 0 0 0 0 0 0 0 0.25 0"/>
<feBlend mode="normal" in2="BackgroundImageFix" result="effect1_dropShadow_11_26"/>
<feBlend mode="normal" in="SourceGraphic" in2="effect1_dropShadow_11_26" result="shape"/>
</filter>
<filter id="filter6_d_11_26" x="269.987" y="120" width="66" height="67" filterUnits="userSpaceOnUse" color-interpolation-filters="sRGB">
<feFlood flood-opacity="0" result="BackgroundImageFix"/>
<feColorMatrix in="SourceAlpha" type="matrix" values="0 0 0 0 0 0 0 0 0 0 0 0 0 0 0 0 0 0 127 0" result="hardAlpha"/>
<feOffset dy="4"/>
<feGaussianBlur stdDeviation="2"/>
<feComposite in2="hardAlpha" operator="out"/>
<feColorMatrix type="matrix" values="0 0 0 0 0 0 0 0 0 0 0 0 0 0 0 0 0 0 0.25 0"/>
<feBlend mode="normal" in2="BackgroundImageFix" result="effect1_dropShadow_11_26"/>
<feBlend mode="normal" in="SourceGraphic" in2="effect1_dropShadow_11_26" result="shape"/>
</filter>
<filter id="filter7_d_11_26" x="245.987" y="193" width="32" height="30" filterUnits="userSpaceOnUse" color-interpolation-filters="sRGB">
<feFlood flood-opacity="0" result="BackgroundImageFix"/>
<feColorMatrix in="SourceAlpha" type="matrix" values="0 0 0 0 0 0 0 0 0 0 0 0 0 0 0 0 0 0 127 0" result="hardAlpha"/>
<feOffset dy="4"/>
<feGaussianBlur stdDeviation="2"/>
<feComposite in2="hardAlpha" operator="out"/>
<feColorMatrix type="matrix" values="0 0 0 0 0 0 0 0 0 0 0 0 0 0 0 0 0 0 0.25 0"/>
<feBlend mode="normal" in2="BackgroundImageFix" result="effect1_dropShadow_11_26"/>
<feBlend mode="normal" in="SourceGraphic" in2="effect1_dropShadow_11_26" result="shape"/>
</filter>
<filter id="filter8_d_11_26" x="184.987" y="198" width="29" height="28" filterUnits="userSpaceOnUse" color-interpolation-filters="sRGB">
<feFlood flood-opacity="0" result="BackgroundImageFix"/>
<feColorMatrix in="SourceAlpha" type="matrix" values="0 0 0 0 0 0 0 0 0 0 0 0 0 0 0 0 0 0 127 0" result="hardAlpha"/>
<feOffset dy="4"/>
<feGaussianBlur stdDeviation="2"/>
<feComposite in2="hardAlpha" operator="out"/>
<feColorMatrix type="matrix" values="0 0 0 0 0 0 0 0 0 0 0 0 0 0 0 0 0 0 0.25 0"/>
<feBlend mode="normal" in2="BackgroundImageFix" result="effect1_dropShadow_11_26"/>
<feBlend mode="normal" in="SourceGraphic" in2="effect1_dropShadow_11_26" result="shape"/>
</filter>
<filter id="filter9_d_11_26" x="118.987" y="193" width="35" height="33" filterUnits="userSpaceOnUse" color-interpolation-filters="sRGB">
<feFlood flood-opacity="0" result="BackgroundImageFix"/>
<feColorMatrix in="SourceAlpha" type="matrix" values="0 0 0 0 0 0 0 0 0 0 0 0 0 0 0 0 0 0 127 0" result="hardAlpha"/>
<feOffset dy="4"/>
<feGaussianBlur stdDeviation="2"/>
<feComposite in2="hardAlpha" operator="out"/>
<feColorMatrix type="matrix" values="0 0 0 0 0 0 0 0 0 0 0 0 0 0 0 0 0 0 0.25 0"/>
<feBlend mode="normal" in2="BackgroundImageFix" result="effect1_dropShadow_11_26"/>
<feBlend mode="normal" in="SourceGraphic" in2="effect1_dropShadow_11_26" result="shape"/>
</filter>
<filter id="filter10_d_11_26" x="193.573" y="215.85" width="26.6442" height="30.3264" filterUnits="userSpaceOnUse" color-interpolation-filters="sRGB">
<feFlood flood-opacity="0" result="BackgroundImageFix"/>
<feColorMatrix in="SourceAlpha" type="matrix" values="0 0 0 0 0 0 0 0 0 0 0 0 0 0 0 0 0 0 127 0" result="hardAlpha"/>
<feOffset dy="4"/>
<feGaussianBlur stdDeviation="2"/>
<feComposite in2="hardAlpha" operator="out"/>
<feColorMatrix type="matrix" values="0 0 0 0 0 0 0 0 0 0 0 0 0 0 0 0 0 0 0.25 0"/>
<feBlend mode="normal" in2="BackgroundImageFix" result="effect1_dropShadow_11_26"/>
<feBlend mode="normal" in="SourceGraphic" in2="effect1_dropShadow_11_26" result="shape"/>
</filter>
<filter id="filter11_d_11_26" x="177.582" y="210.454" width="27.8444" height="35.6144" filterUnits="userSpaceOnUse" color-interpolation-filters="sRGB">
<feFlood flood-opacity="0" result="BackgroundImageFix"/>
<feColorMatrix in="SourceAlpha" type="matrix" values="0 0 0 0 0 0 0 0 0 0 0 0 0 0 0 0 0 0 127 0" result="hardAlpha"/>
<feOffset dy="4"/>
<feGaussianBlur stdDeviation="2"/>
<feComposite in2="hardAlpha" operator="out"/>
<feColorMatrix type="matrix" values="0 0 0 0 0 0 0 0 0 0 0 0 0 0 0 0 0 0 0.25 0"/>
<feBlend mode="normal" in2="BackgroundImageFix" result="effect1_dropShadow_11_26"/>
<feBlend mode="normal" in="SourceGraphic" in2="effect1_dropShadow_11_26" result="shape"/>
</filter>
<filter id="filter12_d_11_26" x="64.9871" y="108" width="78" height="79" filterUnits="userSpaceOnUse" color-interpolation-filters="sRGB">
<feFlood flood-opacity="0" result="BackgroundImageFix"/>
<feColorMatrix in="SourceAlpha" type="matrix" values="0 0 0 0 0 0 0 0 0 0 0 0 0 0 0 0 0 0 127 0" result="hardAlpha"/>
<feOffset dy="4"/>
<feGaussianBlur stdDeviation="2"/>
<feComposite in2="hardAlpha" operator="out"/>
<feColorMatrix type="matrix" values="0 0 0 0 0 0 0 0 0 0 0 0 0 0 0 0 0 0 0.25 0"/>
<feBlend mode="normal" in2="BackgroundImageFix" result="effect1_dropShadow_11_26"/>
<feBlend mode="normal" in="SourceGraphic" in2="effect1_dropShadow_11_26" result="shape"/>
</filter>
<filter id="filter13_d_11_26" x="73.9871" y="120" width="66" height="67" filterUnits="userSpaceOnUse" color-interpolation-filters="sRGB">
<feFlood flood-opacity="0" result="BackgroundImageFix"/>
<feColorMatrix in="SourceAlpha" type="matrix" values="0 0 0 0 0 0 0 0 0 0 0 0 0 0 0 0 0 0 127 0" result="hardAlpha"/>
<feOffset dy="4"/>
<feGaussianBlur stdDeviation="2"/>
<feComposite in2="hardAlpha" operator="out"/>
<feColorMatrix type="matrix" values="0 0 0 0 0 0 0 0 0 0 0 0 0 0 0 0 0 0 0.25 0"/>
<feBlend mode="normal" in2="BackgroundImageFix" result="effect1_dropShadow_11_26"/>
<feBlend mode="normal" in="SourceGraphic" in2="effect1_dropShadow_11_26" result="shape"/>
</filter>
<filter id="filter14_d_11_26" x="0.599998" y="495.704" width="416.469" height="147.4" filterUnits="userSpaceOnUse" color-interpolation-filters="sRGB">
<feFlood flood-opacity="0" result="BackgroundImageFix"/>
<feColorMatrix in="SourceAlpha" type="matrix" values="0 0 0 0 0 0 0 0 0 0 0 0 0 0 0 0 0 0 127 0" result="hardAlpha"/>
<feOffset dy="4"/>
<feGaussianBlur stdDeviation="2"/>
<feComposite in2="hardAlpha" operator="out"/>
<feColorMatrix type="matrix" values="0 0 0 0 0 0 0 0 0 0 0 0 0 0 0 0 0 0 0.25 0"/>
<feBlend mode="normal" in2="BackgroundImageFix" result="effect1_dropShadow_11_26"/>
<feBlend mode="normal" in="SourceGraphic" in2="effect1_dropShadow_11_26" result="shape"/>
</filter>
</defs>
</svg>
