<svg width="299" height="442" viewBox="0 0 299 442" fill="none" xmlns="http://www.w3.org/2000/svg">
<g filter="url(#filter0_d_41_2068)">
<path d="M53.464 54.064C54.104 55.6 54.424 56.7093 54.424 57.392C54.424 59.0133 53.1013 60.3787 50.456 61.488C49.0907 62.0853 47.9813 62.384 47.128 62.384C46.3173 62.384 45.6347 62.192 45.08 61.808C44.568 61.3813 44.184 60.9547 43.928 60.528C43.5013 59.7173 41.8373 55.856 38.936 48.944L36.952 49.072H28.888V56.304C28.888 57.2853 28.8453 58.032 28.76 58.544C28.7173 59.0133 28.5253 59.568 28.184 60.208C27.5867 61.36 25.9227 61.936 23.192 61.936C20.2053 61.936 18.456 61.1467 17.944 59.568C17.688 58.8427 17.56 57.7333 17.56 56.24V20.72C17.56 19.7387 17.5813 19.0133 17.624 18.544C17.7093 18.032 17.9227 17.456 18.264 16.816C18.8613 15.664 20.5253 15.088 23.256 15.088H37.08C40.8347 15.088 44.4827 16.4533 48.024 19.184C49.7307 20.5067 51.1387 22.2987 52.248 24.56C53.3573 26.8213 53.912 29.3387 53.912 32.112C53.912 36.9333 52.312 40.9013 49.112 44.016C50.0507 46.2773 51.5013 49.6267 53.464 54.064ZM28.888 37.744H37.08C38.3173 37.744 39.5547 37.2747 40.792 36.336C42.0293 35.3973 42.648 33.9893 42.648 32.112C42.648 30.2347 42.0293 28.8267 40.792 27.888C39.5547 26.9067 38.2747 26.416 36.952 26.416H28.888V37.744ZM89.197 41.136C89.197 43.7387 88.5357 45.68 87.213 46.96C85.933 48.1973 84.5037 48.816 82.925 48.816H67.757C67.757 50.0107 68.461 51.0133 69.869 51.824C71.277 52.6347 72.685 53.04 74.093 53.04C76.5677 53.04 78.509 52.784 79.917 52.272L80.621 52.016C81.645 51.5467 82.4983 51.312 83.181 51.312C84.5463 51.312 85.7197 52.272 86.701 54.192C87.2557 55.344 87.533 56.3253 87.533 57.136C87.533 60.9333 82.989 62.832 73.901 62.832C70.7437 62.832 67.9277 62.2987 65.453 61.232C63.021 60.1227 61.1223 58.672 59.757 56.88C57.069 53.424 55.725 49.5627 55.725 45.296C55.725 39.92 57.453 35.632 60.909 32.432C64.4077 29.1893 68.7597 27.568 73.965 27.568C79.8957 27.568 84.2477 29.6587 87.021 33.84C88.4717 36.0587 89.197 38.4907 89.197 41.136ZM75.693 42.992C77.3143 42.992 78.125 42.3093 78.125 40.944C78.125 39.9627 77.741 39.1733 76.973 38.576C76.2477 37.9787 75.181 37.68 73.773 37.68C72.4077 37.68 71.0423 38.256 69.677 39.408C68.3117 40.5173 67.629 41.712 67.629 42.992H75.693ZM103.933 45.168C103.933 46.96 104.53 48.368 105.725 49.392C106.919 50.3733 108.178 50.864 109.501 50.864C110.866 50.864 112.125 50.48 113.277 49.712C114.471 48.9013 115.431 48.496 116.157 48.496C117.437 48.496 118.994 49.6267 120.829 51.888C121.81 53.1253 122.301 54.2347 122.301 55.216C122.301 56.8373 121.127 58.352 118.781 59.76C116.349 61.4667 113.362 62.32 109.821 62.32C105.853 62.32 102.034 60.8907 98.3645 58.032C96.6152 56.6667 95.1858 54.8533 94.0765 52.592C92.9672 50.288 92.4125 47.7707 92.4125 45.04C92.4125 42.2667 92.9672 39.7707 94.0765 37.552C95.1858 35.2907 96.6152 33.4773 98.3645 32.112C101.906 29.296 105.682 27.888 109.693 27.888C111.314 27.888 112.893 28.1227 114.429 28.592C115.965 29.0187 117.095 29.4453 117.821 29.872L118.845 30.512C119.613 31.024 120.21 31.4293 120.637 31.728C121.746 32.5813 122.301 33.5627 122.301 34.672C122.301 35.7387 121.853 36.9547 120.957 38.32C119.421 40.6667 117.949 41.84 116.541 41.84C115.73 41.84 114.578 41.3707 113.085 40.432C112.317 39.7067 111.207 39.344 109.757 39.344C108.349 39.344 107.026 39.856 105.789 40.88C104.551 41.904 103.933 43.3333 103.933 45.168ZM158.01 41.136C158.01 43.7387 157.348 45.68 156.026 46.96C154.746 48.1973 153.316 48.816 151.738 48.816H136.57C136.57 50.0107 137.274 51.0133 138.682 51.824C140.09 52.6347 141.498 53.04 142.906 53.04C145.38 53.04 147.322 52.784 148.73 52.272L149.434 52.016C150.458 51.5467 151.311 51.312 151.994 51.312C153.359 51.312 154.532 52.272 155.514 54.192C156.068 55.344 156.346 56.3253 156.346 57.136C156.346 60.9333 151.802 62.832 142.714 62.832C139.556 62.832 136.74 62.2987 134.266 61.232C131.834 60.1227 129.935 58.672 128.57 56.88C125.882 53.424 124.538 49.5627 124.538 45.296C124.538 39.92 126.266 35.632 129.722 32.432C133.22 29.1893 137.572 27.568 142.778 27.568C148.708 27.568 153.06 29.6587 155.833 33.84C157.284 36.0587 158.01 38.4907 158.01 41.136ZM144.506 42.992C146.127 42.992 146.938 42.3093 146.938 40.944C146.938 39.9627 146.554 39.1733 145.786 38.576C145.06 37.9787 143.994 37.68 142.586 37.68C141.22 37.68 139.855 38.256 138.49 39.408C137.124 40.5173 136.442 41.712 136.442 42.992H144.506ZM162.185 33.904C162.185 32.9227 162.206 32.1973 162.249 31.728C162.334 31.216 162.526 30.64 162.825 30C163.422 28.8907 165.086 28.336 167.817 28.336C169.865 28.336 171.316 28.6987 172.169 29.424C172.894 30.0213 173.278 30.9387 173.321 32.176C173.364 32.6027 173.385 33.2213 173.385 34.032V56.432C173.385 57.4133 173.342 58.16 173.257 58.672C173.214 59.1413 173.022 59.696 172.681 60.336C172.126 61.4453 170.484 62 167.753 62C165.065 62 163.422 61.424 162.825 60.272C162.526 59.632 162.334 59.0773 162.249 58.608C162.206 58.1387 162.185 57.392 162.185 56.368V33.904ZM172.681 22.064C172.382 22.6613 171.828 23.088 171.017 23.344C170.206 23.6 169.118 23.728 167.753 23.728C166.43 23.728 165.364 23.6 164.553 23.344C163.742 23.088 163.166 22.64 162.825 22C162.526 21.36 162.334 20.8053 162.249 20.336C162.206 19.824 162.185 19.0773 162.185 18.096C162.185 17.1147 162.206 16.3893 162.249 15.92C162.334 15.408 162.526 14.8533 162.825 14.256C163.422 13.104 165.086 12.528 167.817 12.528C170.505 12.528 172.126 13.104 172.681 14.256C173.022 14.896 173.214 15.472 173.257 15.984C173.342 16.4533 173.385 17.1787 173.385 18.16C173.385 19.1413 173.342 19.888 173.257 20.4C173.214 20.8693 173.022 21.424 172.681 22.064ZM198.082 39.6L193.922 39.344V48.176C193.922 49.328 194.092 50.16 194.434 50.672C194.818 51.184 195.5 51.44 196.482 51.44C197.506 51.44 198.274 51.4827 198.786 51.568C199.34 51.6107 199.916 51.8027 200.514 52.144C201.495 52.6987 201.986 54.128 201.986 56.432C201.986 59.12 201.388 60.7627 200.194 61.36C199.554 61.6587 198.978 61.8507 198.466 61.936C197.996 61.9787 197.292 62 196.354 62C191.916 62 188.546 60.9973 186.242 58.992C183.938 56.9867 182.786 53.5947 182.786 48.816V39.344C181.975 39.472 181.1 39.536 180.161 39.536C179.223 39.536 178.434 39.1733 177.794 38.448C177.196 37.7227 176.898 36.4853 176.898 34.736C176.898 32.9867 177.004 31.728 177.218 30.96C177.431 30.1493 177.73 29.5733 178.114 29.232C178.796 28.6773 179.65 28.4 180.674 28.4L182.786 28.656V22.064C182.786 21.0827 182.807 20.3573 182.85 19.888C182.935 19.4187 183.148 18.9067 183.49 18.352C184.044 17.2853 185.687 16.752 188.418 16.752C191.319 16.752 193.047 17.5413 193.602 19.12C193.815 19.8027 193.922 20.8907 193.922 22.384V28.656C195.799 28.4853 197.207 28.4 198.146 28.4C199.127 28.4 199.852 28.4427 200.322 28.528C200.834 28.5707 201.41 28.7627 202.05 29.104C203.159 29.6587 203.714 31.3013 203.714 34.032C203.714 36.72 203.138 38.3627 201.986 38.96C201.346 39.2587 200.77 39.4507 200.258 39.536C199.788 39.5787 199.063 39.6 198.082 39.6ZM229.136 31.856C229.392 29.4667 231.077 28.272 234.192 28.272C235.856 28.272 237.093 28.4 237.904 28.656C238.714 28.912 239.269 29.36 239.568 30C239.909 30.64 240.101 31.216 240.144 31.728C240.229 32.1973 240.272 32.9227 240.272 33.904V56.304C240.272 57.2853 240.229 58.032 240.144 58.544C240.101 59.0133 239.93 59.568 239.632 60.208C239.034 61.3173 237.562 61.872 235.216 61.872C232.912 61.872 231.354 61.5947 230.544 61.04C229.776 60.4427 229.328 59.5893 229.2 58.48C227.621 60.7413 224.976 61.872 221.264 61.872C217.594 61.872 214.181 60.1867 211.024 56.816C207.866 53.4453 206.288 49.5413 206.288 45.104C206.288 40.624 207.866 36.72 211.024 33.392C214.224 30.0213 217.722 28.336 221.52 28.336C222.97 28.336 224.293 28.592 225.488 29.104C226.682 29.616 227.514 30.1067 227.984 30.576C228.453 31.0027 228.837 31.4293 229.136 31.856ZM217.488 45.168C217.488 46.576 218.042 47.856 219.152 49.008C220.261 50.1173 221.605 50.672 223.184 50.672C224.762 50.672 226.064 50.096 227.088 48.944C228.154 47.792 228.688 46.5333 228.688 45.168C228.688 43.76 228.176 42.4587 227.152 41.264C226.17 40.0693 224.826 39.472 223.12 39.472C221.456 39.472 220.09 40.0693 219.024 41.264C218 42.4587 217.488 43.76 217.488 45.168ZM245.629 58.992C244.818 58.48 244.413 57.6693 244.413 56.56C244.413 55.4507 245.223 53.7653 246.845 51.504C247.314 50.7787 248.061 50.416 249.085 50.416C250.151 50.416 251.581 50.9493 253.373 52.016C255.165 53.04 256.786 53.552 258.237 53.552C260.839 53.552 262.141 53.04 262.141 52.016C262.141 51.2053 260.711 50.608 257.853 50.224C255.165 49.84 252.498 48.8373 249.853 47.216C248.615 46.448 247.591 45.2533 246.781 43.632C245.97 41.968 245.565 40.0053 245.565 37.744C245.565 31.0027 250.194 27.632 259.453 27.632C262.482 27.632 265.597 28.3573 268.797 29.808C270.29 30.4907 271.037 31.344 271.037 32.368C271.037 33.392 270.567 34.6507 269.629 36.144C268.69 37.6373 267.73 38.384 266.749 38.384C266.237 38.384 265.277 38.064 263.869 37.424C262.503 36.784 261.01 36.464 259.389 36.464C256.871 36.464 255.613 36.9333 255.613 37.872C255.613 39.152 257.063 39.984 259.965 40.368C262.781 40.6667 265.511 41.4773 268.157 42.8C269.394 43.3973 270.418 44.4427 271.229 45.936C272.082 47.3867 272.509 49.2213 272.509 51.44C272.509 53.6587 272.082 55.5573 271.229 57.136C270.418 58.672 269.266 59.824 267.773 60.592C265.042 61.9147 261.607 62.576 257.469 62.576C253.373 62.576 249.426 61.3813 245.629 58.992Z" fill="#785952"/>
</g>
<path d="M263.633 311.72C271.873 301.368 282.782 278.335 260.5 269.018" stroke="white" stroke-width="5"/>
<path d="M21.666 320.051C6.74644 308.226 -13.3759 280.835 25.4907 265.869" stroke="white" stroke-width="5"/>
<g filter="url(#filter1_d_41_2068)">
<ellipse cx="141.685" cy="311.589" rx="127.261" ry="122.411" fill="#D4B793"/>
</g>
<path d="M150.112 149.983C149.677 158.711 133.731 165.01 114.496 164.053C95.2604 163.095 80.0195 155.243 80.4544 146.515C80.8893 137.786 96.6985 124.299 115.934 125.256C135.169 126.214 150.547 141.254 150.112 149.983Z" fill="#B3B3B3"/>
<ellipse cx="130.571" cy="123.178" rx="12.5417" ry="12.9048" fill="#B3B3B3"/>
<ellipse cx="138.686" cy="122.81" rx="28.772" ry="25.8096" fill="#B3B3B3"/>
<g filter="url(#filter2_df_41_2068)">
<ellipse cx="144.957" cy="312.326" rx="123.572" ry="119.462" fill="#795B53"/>
</g>
<path d="M113.624 145.197C114.521 143.663 116.164 142.72 117.941 142.72H191.746C194.334 142.72 196.495 144.695 196.726 147.272L198.3 164.779C198.394 165.816 198.161 166.856 197.635 167.754L190.935 179.193C190.558 179.836 190.329 180.556 190.267 181.3L188.69 200.003C188.445 202.912 185.771 204.993 182.891 204.516L153.302 199.619C152.774 199.532 152.235 199.53 151.705 199.613L120.353 204.566C117.496 205.018 114.852 202.957 114.593 200.075L112.223 173.718C112.139 172.782 111.793 171.89 111.225 171.142L106.033 164.304C104.81 162.693 104.678 160.504 105.699 158.757L113.624 145.197Z" fill="#B3B3B3"/>
<ellipse cx="184.058" cy="126.865" rx="27.6654" ry="26.1783" fill="#B3B3B3"/>
<ellipse cx="200.288" cy="147.882" rx="30.6164" ry="27.2845" fill="#B3B3B3"/>
<g filter="url(#filter3_d_41_2068)">
<path d="M268.946 311.323C268.946 379.075 212.603 434 142.161 434C71.7185 434 14.6137 379.075 14.6137 311.323C10.0449 280.275 89.2383 320.41 142.161 336.312C204.983 311.323 268.946 271.945 268.946 311.323Z" fill="white"/>
</g>
<g filter="url(#filter4_i_41_2068)">
<ellipse cx="144.957" cy="312.326" rx="25.4522" ry="24.3348" fill="#895C4C"/>
</g>
<g filter="url(#filter5_d_41_2068)">
<ellipse cx="223.527" cy="202.819" rx="25.8211" ry="26.1783" fill="#D4B793"/>
</g>
<g filter="url(#filter6_d_41_2068)">
<ellipse cx="146.064" cy="260.338" rx="22.1323" ry="21.7538" fill="#D4B793"/>
</g>
<g filter="url(#filter7_d_41_2068)">
<ellipse cx="221.314" cy="207.244" rx="21.3946" ry="21.7538" fill="#795B53"/>
</g>
<g filter="url(#filter8_d_41_2068)">
<ellipse cx="191.066" cy="247.433" rx="8.85294" ry="8.1116" fill="#59423D"/>
</g>
<g filter="url(#filter9_d_41_2068)">
<ellipse cx="144.957" cy="250.383" rx="7.74632" ry="7.37418" fill="#785952"/>
</g>
<g filter="url(#filter10_d_41_2068)">
<path d="M108.439 248.539C108.439 253.63 103.98 257.757 98.4794 257.757C92.9789 257.757 88.5199 253.63 88.5199 248.539C88.5199 243.449 92.9789 239.322 98.4794 239.322C103.98 239.322 108.439 243.449 108.439 248.539Z" fill="#59423D"/>
</g>
<g filter="url(#filter11_d_41_2068)">
<path d="M145.326 256.651L145.374 256.828C146.995 262.848 150.965 267.964 156.392 271.031V271.031" stroke="#785952" stroke-width="5"/>
</g>
<g filter="url(#filter12_d_41_2068)">
<path d="M144.588 252.595L144.226 254.211C142.69 261.069 138.598 267.083 132.785 271.031V271.031" stroke="#785952" stroke-width="5"/>
</g>
<g filter="url(#filter13_d_41_2068)">
<ellipse cx="74.5027" cy="202.819" rx="25.8211" ry="26.1783" fill="#D4B793"/>
</g>
<g filter="url(#filter14_d_41_2068)">
<ellipse cx="76.7159" cy="207.244" rx="21.3946" ry="21.7538" fill="#795B53"/>
<ellipse cx="76.7159" cy="207.244" rx="21.3946" ry="21.7538" fill="#795B53"/>
</g>
<path d="M121.917 198.327C119.968 198.327 120.243 198.948 119.021 200.169C118.394 200.795 117.222 201.494 116.882 202.176" stroke="#B3B3B3" stroke-width="5" stroke-linecap="round"/>
<path d="M121.029 199.215C120.629 199.665 120.379 200.132 119.844 200.399" stroke="#B3B3B3" stroke-width="5" stroke-linecap="round"/>
<path d="M120.732 198.623C120.604 199.652 119.217 200.147 118.659 200.843C118.269 201.331 117.499 202.459 116.882 202.768" stroke="#B3B3B3" stroke-width="5" stroke-linecap="round"/>
<path d="M190.346 173.159C189.735 172.549 189.124 172.007 188.568 171.382C188.028 170.774 187.855 169.721 187.383 169.013" stroke="#B3B3B3" stroke-width="5" stroke-linecap="round"/>
<ellipse cx="139.424" cy="126.497" rx="28.772" ry="25.8096" fill="#D9D9D9"/>
<ellipse cx="184.058" cy="130.553" rx="27.6654" ry="26.1783" fill="#D9D9D9"/>
<ellipse cx="198.075" cy="147.882" rx="29.8787" ry="25.0722" fill="#D9D9D9"/>
<path d="M153.762 150.325C153.349 158.622 137.42 164.573 118.185 163.615C98.9491 162.658 83.6908 155.155 84.1043 146.857C84.5178 138.559 100.292 125.774 119.527 126.731C138.763 127.689 154.176 142.027 153.762 150.325Z" fill="#D9D9D9"/>
<ellipse cx="134.26" cy="125.391" rx="12.5417" ry="12.9048" fill="#D9D9D9"/>
<path d="M117.62 143.177C118.485 141.536 120.188 140.508 122.044 140.508H186.774C189.379 140.508 191.547 142.508 191.758 145.104L193.162 162.432C193.239 163.379 193.044 164.329 192.6 165.17L186.567 176.599C186.247 177.205 186.055 177.87 186.003 178.554L184.608 196.908C184.383 199.87 181.641 201.983 178.72 201.447L153.247 196.769C152.664 196.662 152.065 196.66 151.481 196.762L124.43 201.504C121.53 202.012 118.821 199.917 118.583 196.983L116.482 171.05C116.412 170.182 116.116 169.348 115.625 168.63L110.879 161.695C109.832 160.165 109.717 158.181 110.581 156.541L117.62 143.177Z" fill="#D9D9D9"/>
<path d="M191.132 174.65C190.916 172.922 185.668 170.742 184.062 170.1C180.116 168.522 176.289 166.827 172.174 165.913C169.08 165.226 166.147 165.937 163.216 165.937C160.896 165.937 157.348 165.508 155.396 166.809" stroke="#B3B3B3" stroke-width="5" stroke-linecap="round"/>
<path d="M229.335 330C229.226 328.886 228.364 325.969 227.394 325.384C226.459 324.819 224.876 324.39 224.345 325.89C223.92 327.089 222.78 328.532 223.374 329.874C224.134 331.589 225.68 332.419 226.994 333.7C227.793 334.479 228.895 335.999 229.889 336.482C231.784 337.404 233.809 334.513 234.879 333.415C235.966 332.3 237.561 329.915 237.651 328.293C237.683 327.718 238.158 326.866 237.867 326.301C237.546 325.678 236.594 325.889 236.111 325.573C233.889 324.122 231.953 326.297 231.83 328.577C231.801 329.107 231.588 330.976 231.214 331.36C230.665 331.923 229.432 329.711 229.319 329.305C228.998 328.152 227.981 328.43 227.255 327.85C226.168 326.982 225.418 328.699 226.069 329.368C226.981 330.304 227.174 326.558 226.424 327.328C225.868 327.899 225.539 330.569 226.562 330.569" stroke="#D49393" stroke-width="5" stroke-linecap="round"/>
<path d="M225.419 328.112C225.419 329.774 226.777 330.515 227.673 331.587C228.067 332.058 228.117 332.577 228.373 333.128C228.989 334.455 228.27 332.18 228.586 332.423C229.804 333.36 229.45 334.974 231.235 333.718C232.429 332.877 233.914 331.421 233.914 329.751C233.914 328.916 234.266 328.632 234.447 327.948C234.614 327.318 235.01 329.059 235.01 329.44C235.01 330.344 234.889 330.308 234.325 330.915C233.726 331.561 233.764 331.72 233.427 332.538C232.914 333.781 232.504 334.679 231.6 335.652C230.659 336.666 229.927 334.574 229.53 333.718" stroke="#D49393" stroke-width="5" stroke-linecap="round"/>
<path d="M226.021 327.812C225.256 327.812 225.438 328.163 225.438 328.64C225.438 329.384 225.934 329.282 226.895 329.282" stroke="#D49393" stroke-width="5" stroke-linecap="round"/>
<path d="M214.353 359.488C214.353 389.644 181.654 414.09 141.317 414.09C100.98 414.09 68.2799 389.644 68.2799 359.488C68.2799 329.333 100.98 352.606 141.317 352.606C181.654 352.606 214.353 329.333 214.353 359.488Z" fill="#D9D9D9"/>
<path d="M209.174 360.239C209.153 359.525 209.11 358.845 209.047 358.199L208.549 358.248C208.48 357.546 208.385 356.886 208.266 356.267L208.757 356.173C208.621 355.462 208.453 354.799 208.253 354.184L207.778 354.338C207.563 353.673 207.312 353.069 207.026 352.52L207.47 352.289C207.141 351.656 206.767 351.089 206.349 350.584L205.963 350.902C205.545 350.396 205.08 349.955 204.571 349.574L204.87 349.174C204.328 348.769 203.739 348.427 203.104 348.143L202.9 348.6C202.323 348.342 201.702 348.132 201.039 347.967L201.16 347.482C200.521 347.323 199.848 347.205 199.141 347.124L199.084 347.621C198.449 347.548 197.783 347.506 197.088 347.491L197.099 346.991C196.439 346.977 195.755 346.987 195.048 347.019L195.071 347.519C194.418 347.549 193.743 347.598 193.048 347.664L193.001 347.166C192.338 347.229 191.657 347.308 190.96 347.399L191.025 347.895C190.367 347.982 189.693 348.081 189.003 348.19L188.925 347.697C188.261 347.802 187.584 347.918 186.894 348.041L186.983 348.533C186.326 348.651 185.658 348.777 184.978 348.908L184.883 348.418C184.224 348.545 183.554 348.679 182.875 348.818L182.975 349.308C182.316 349.443 181.646 349.582 180.968 349.725L180.865 349.236C180.202 349.375 179.531 349.518 178.851 349.664L178.956 350.153C178.357 350.282 177.751 350.412 177.138 350.544L176.948 350.585L176.843 350.096C176.183 350.238 175.516 350.382 174.842 350.526L174.946 351.015C174.283 351.157 173.612 351.3 172.935 351.442L172.832 350.953C172.166 351.093 171.494 351.234 170.815 351.373L170.916 351.863C170.253 352 169.584 352.135 168.909 352.27L168.811 351.78C168.145 351.912 167.473 352.044 166.795 352.173L166.889 352.665C166.218 352.793 165.542 352.919 164.861 353.043L164.772 352.551C164.105 352.672 163.433 352.791 162.756 352.907L162.841 353.4C162.168 353.516 161.49 353.628 160.808 353.737L160.729 353.243C160.056 353.351 159.379 353.455 158.698 353.555L158.771 354.049C158.096 354.149 157.417 354.244 156.735 354.335L156.669 353.839C155.992 353.929 155.312 354.015 154.628 354.096L154.687 354.592C154.009 354.673 153.327 354.748 152.641 354.819L152.59 354.321C151.912 354.391 151.231 354.455 150.547 354.514L150.59 355.012C149.907 355.071 149.22 355.124 148.531 355.171L148.497 354.672C147.818 354.719 147.136 354.759 146.452 354.793L146.476 355.293C145.791 355.327 145.103 355.355 144.413 355.376L144.397 354.876C143.717 354.897 143.033 354.911 142.347 354.918L142.352 355.418C142.008 355.422 141.663 355.424 141.317 355.424C140.971 355.424 140.625 355.422 140.281 355.418L140.286 354.918C139.6 354.911 138.917 354.897 138.236 354.876L138.221 355.376C137.53 355.355 136.842 355.327 136.157 355.293L136.182 354.793C135.497 354.759 134.815 354.719 134.136 354.672L134.102 355.171C133.413 355.124 132.727 355.071 132.044 355.012L132.086 354.514C131.402 354.455 130.721 354.391 130.043 354.321L129.992 354.819C129.307 354.748 128.625 354.673 127.946 354.592L128.005 354.096C127.321 354.015 126.641 353.929 125.965 353.839L125.899 354.335C125.216 354.244 124.537 354.149 123.862 354.049L123.935 353.555C123.254 353.455 122.577 353.351 121.904 353.243L121.825 353.737C121.143 353.628 120.465 353.516 119.793 353.4L119.877 352.907C119.2 352.791 118.529 352.672 117.862 352.551L117.772 353.043C117.091 352.919 116.415 352.793 115.744 352.665L115.838 352.173C115.161 352.044 114.489 351.912 113.822 351.78L113.725 352.27C113.049 352.135 112.38 352 111.717 351.863L111.818 351.373C111.139 351.234 110.467 351.093 109.801 350.953L109.698 351.442C109.021 351.3 108.35 351.157 107.687 351.015L107.791 350.526C107.117 350.382 106.45 350.238 105.79 350.096L105.685 350.585L105.495 350.544C104.882 350.412 104.277 350.281 103.677 350.153L103.782 349.664C103.102 349.518 102.431 349.375 101.769 349.236L101.665 349.725C100.987 349.582 100.318 349.443 99.6585 349.308L99.7586 348.818C99.0788 348.679 98.4093 348.545 97.7504 348.418L97.6552 348.908C96.9751 348.777 96.3067 348.651 95.6505 348.533L95.7388 348.041C95.0489 347.918 94.3719 347.802 93.7083 347.697L93.6297 348.19C92.9405 348.081 92.2664 347.982 91.608 347.895L91.6733 347.399C90.9761 347.308 90.2955 347.229 89.6323 347.166L89.5849 347.664C88.8899 347.598 88.2154 347.549 87.5619 347.519L87.5848 347.019C86.8782 346.987 86.1944 346.977 85.5342 346.991L85.5449 347.491C84.85 347.506 84.1844 347.548 83.5488 347.621L83.4918 347.124C82.7855 347.205 82.1123 347.323 81.4736 347.482L81.5942 347.967C80.9307 348.132 80.3102 348.342 79.733 348.6L79.5289 348.143C78.894 348.427 78.3047 348.769 77.7631 349.174L78.0626 349.574C77.5532 349.955 77.0886 350.396 76.6698 350.902L76.2845 350.584C75.8664 351.089 75.4921 351.656 75.1632 352.289L75.6069 352.52C75.3217 353.069 75.0705 353.673 74.8554 354.338L74.3797 354.184C74.1805 354.799 74.0122 355.462 73.8757 356.173L74.3668 356.267C74.2479 356.886 74.1534 357.546 74.0842 358.248L73.5866 358.199C73.5229 358.845 73.4803 359.525 73.4593 360.239L73.9591 360.254C73.9491 360.594 73.9441 360.942 73.9441 361.299C73.9441 361.635 73.9486 361.971 73.9574 362.306L73.4576 362.319C73.4757 362.999 73.5117 363.675 73.5654 364.348L74.0638 364.308C74.1171 364.976 74.1881 365.641 74.2764 366.303L73.7808 366.369C73.8707 367.042 73.9784 367.712 74.1034 368.377L74.5948 368.285C74.7185 368.943 74.8593 369.597 75.0171 370.246L74.5312 370.364C74.6911 371.023 74.8682 371.677 75.062 372.326L75.5411 372.184C75.7323 372.824 75.9401 373.461 76.1641 374.092L75.6929 374.259C75.9192 374.897 76.1618 375.531 76.4204 376.158L76.8827 375.968C77.1371 376.586 77.4071 377.198 77.6924 377.805L77.2398 378.018C77.5272 378.63 77.8299 379.236 78.1476 379.837L78.5896 379.603C78.9019 380.193 79.2289 380.778 79.5703 381.358L79.1395 381.612C79.4826 382.194 79.8401 382.771 80.2115 383.342L80.6306 383.069C80.9947 383.628 81.3724 384.182 81.7634 384.73L81.3565 385.02C81.7484 385.569 82.1534 386.112 82.5714 386.649L82.9658 386.342C83.3763 386.869 83.7994 387.39 84.2348 387.905L83.853 388.228C84.2892 388.743 84.7375 389.253 85.1977 389.756L85.5666 389.418C86.0175 389.911 86.4799 390.398 86.9536 390.878L86.5977 391.229C87.071 391.709 87.5555 392.182 88.0507 392.649L88.3936 392.285C88.8803 392.743 89.3777 393.196 89.8854 393.641L89.5556 394.017C90.0634 394.463 90.5815 394.902 91.1095 395.334L91.4262 394.947C91.9429 395.37 92.4693 395.787 93.005 396.196L92.7013 396.594C93.2368 397.003 93.7816 397.406 94.3354 397.802L94.6262 397.395C95.1714 397.785 95.7253 398.168 96.2879 398.544L96.01 398.96C96.5708 399.335 97.1399 399.703 97.7172 400.064L97.9823 399.64C98.5495 399.994 99.1247 400.342 99.7077 400.683L99.4553 401.115C100.038 401.455 100.629 401.789 101.227 402.116L101.467 401.677C102.055 401.999 102.651 402.313 103.253 402.62L103.026 403.066C103.626 403.372 104.234 403.671 104.848 403.963L105.062 403.512C105.668 403.8 106.281 404.081 106.899 404.355L106.697 404.812C107.314 405.086 107.938 405.352 108.568 405.611L108.758 405.149C109.378 405.403 110.003 405.651 110.634 405.892L110.456 406.359C111.087 406.599 111.725 406.833 112.367 407.059L112.533 406.588C113.166 406.81 113.804 407.026 114.447 407.234L114.293 407.71C114.935 407.917 115.582 408.118 116.234 408.311L116.376 407.832C117.021 408.023 117.67 408.207 118.324 408.384L118.194 408.866C118.845 409.042 119.5 409.211 120.16 409.372L120.279 408.886C120.931 409.045 121.587 409.198 122.248 409.342L122.141 409.831C122.802 409.975 123.467 410.113 124.135 410.243L124.231 409.752C124.889 409.88 125.551 410.001 126.216 410.114L126.132 410.607C126.799 410.72 127.469 410.827 128.143 410.925L128.215 410.431C128.879 410.528 129.547 410.618 130.218 410.701L130.157 411.197C130.827 411.28 131.5 411.355 132.177 411.423L132.227 410.925C132.896 410.992 133.569 411.052 134.244 411.105L134.206 411.603C134.878 411.655 135.553 411.7 136.231 411.738L136.258 411.238C136.93 411.275 137.604 411.305 138.281 411.327L138.265 411.827C138.939 411.849 139.616 411.864 140.296 411.872L140.301 411.372C140.639 411.376 140.978 411.377 141.317 411.377C141.656 411.377 141.994 411.376 142.332 411.372L142.338 411.872C143.017 411.864 143.694 411.849 144.368 411.827L144.352 411.327C145.029 411.305 145.703 411.275 146.375 411.238L146.403 411.738C147.08 411.7 147.755 411.655 148.427 411.603L148.389 411.105C149.064 411.052 149.737 410.992 150.407 410.925L150.456 411.423C151.133 411.355 151.806 411.28 152.476 411.197L152.415 410.701C153.086 410.618 153.754 410.528 154.418 410.431L154.49 410.925C155.164 410.827 155.834 410.72 156.501 410.607L156.417 410.114C157.083 410.001 157.744 409.88 158.402 409.752L158.498 410.243C159.167 410.113 159.831 409.975 160.492 409.831L160.385 409.342C161.046 409.198 161.702 409.045 162.354 408.886L162.473 409.372C163.133 409.211 163.788 409.042 164.439 408.866L164.309 408.384C164.963 408.207 165.613 408.023 166.257 407.832L166.399 408.311C167.051 408.118 167.698 407.917 168.34 407.71L168.186 407.234C168.829 407.026 169.467 406.81 170.1 406.588L170.266 407.059C170.909 406.833 171.546 406.599 172.177 406.359L171.999 405.892C172.63 405.651 173.256 405.403 173.875 405.149L174.065 405.611C174.695 405.352 175.319 405.086 175.936 404.812L175.734 404.355C176.353 404.081 176.965 403.8 177.571 403.512L177.786 403.963C178.4 403.671 179.007 403.372 179.607 403.066L179.38 402.62C179.983 402.313 180.578 401.999 181.166 401.677L181.406 402.116C182.004 401.789 182.595 401.455 183.178 401.115L182.926 400.683C183.509 400.342 184.084 399.994 184.651 399.64L184.916 400.063C185.493 399.703 186.062 399.335 186.623 398.96L186.345 398.544C186.908 398.168 187.462 397.785 188.007 397.395L188.298 397.802C188.852 397.406 189.396 397.003 189.932 396.594L189.628 396.196C190.164 395.787 190.69 395.37 191.207 394.947L191.524 395.334C192.052 394.902 192.57 394.463 193.078 394.017L192.748 393.641C193.256 393.196 193.753 392.743 194.24 392.285L194.583 392.649C195.078 392.182 195.562 391.709 196.035 391.229L195.68 390.878C196.153 390.398 196.616 389.911 197.067 389.418L197.435 389.756C197.896 389.253 198.344 388.743 198.78 388.228L198.398 387.905C198.834 387.39 199.257 386.869 199.667 386.342L200.062 386.649C200.48 386.112 200.885 385.569 201.277 385.02L200.87 384.73C201.261 384.182 201.639 383.628 202.003 383.069L202.422 383.342C202.793 382.771 203.151 382.194 203.494 381.612L203.063 381.358C203.404 380.778 203.731 380.193 204.044 379.603L204.486 379.837C204.803 379.236 205.106 378.63 205.393 378.018L204.941 377.805C205.226 377.198 205.496 376.586 205.75 375.968L206.213 376.158C206.471 375.531 206.714 374.897 206.94 374.259L206.469 374.092C206.693 373.461 206.901 372.824 207.092 372.184L207.571 372.327C207.765 371.677 207.942 371.023 208.102 370.364L207.616 370.246C207.774 369.597 207.915 368.943 208.038 368.285L208.53 368.377C208.655 367.712 208.762 367.042 208.852 366.369L208.357 366.303C208.445 365.641 208.516 364.976 208.569 364.308L209.068 364.348C209.122 363.675 209.158 362.999 209.176 362.319L208.676 362.306C208.685 361.971 208.689 361.635 208.689 361.299C208.689 360.942 208.684 360.594 208.674 360.254L209.174 360.239Z" stroke="#DD9696" stroke-dasharray="2 2"/>
<path d="M263.633 311.72C271.873 301.368 282.782 278.335 260.5 269.018" stroke="white" stroke-width="5"/>
<path d="M21.666 320.051C6.74644 308.226 -13.3759 280.835 25.4907 265.869" stroke="white" stroke-width="5"/>
<g filter="url(#filter15_d_41_2068)">
<ellipse cx="141.685" cy="311.589" rx="127.261" ry="122.411" fill="#D4B793"/>
</g>
<path d="M150.112 149.983C149.677 158.711 133.731 165.01 114.496 164.053C95.2604 163.095 80.0195 155.243 80.4544 146.515C80.8893 137.786 96.6985 124.299 115.934 125.256C135.169 126.214 150.547 141.254 150.112 149.983Z" fill="#B3B3B3"/>
<ellipse cx="130.571" cy="123.178" rx="12.5417" ry="12.9048" fill="#B3B3B3"/>
<ellipse cx="138.686" cy="122.81" rx="28.772" ry="25.8096" fill="#B3B3B3"/>
<g filter="url(#filter16_df_41_2068)">
<ellipse cx="144.957" cy="312.326" rx="123.572" ry="119.462" fill="#795B53"/>
</g>
<path d="M113.624 145.197C114.521 143.663 116.164 142.72 117.941 142.72H191.746C194.334 142.72 196.495 144.695 196.726 147.272L198.3 164.779C198.394 165.816 198.161 166.856 197.635 167.754L190.935 179.193C190.558 179.836 190.329 180.556 190.267 181.3L188.69 200.003C188.445 202.912 185.771 204.993 182.891 204.516L153.302 199.619C152.774 199.532 152.235 199.53 151.705 199.613L120.353 204.566C117.496 205.018 114.852 202.957 114.593 200.075L112.223 173.718C112.139 172.782 111.793 171.89 111.225 171.142L106.033 164.304C104.81 162.693 104.678 160.504 105.699 158.757L113.624 145.197Z" fill="#B3B3B3"/>
<ellipse cx="184.058" cy="126.865" rx="27.6654" ry="26.1783" fill="#B3B3B3"/>
<ellipse cx="200.288" cy="147.882" rx="30.6164" ry="27.2845" fill="#B3B3B3"/>
<g filter="url(#filter17_d_41_2068)">
<path d="M268.946 311.323C268.946 379.075 212.603 434 142.161 434C71.7185 434 14.6137 379.075 14.6137 311.323C10.0449 280.275 89.2383 320.41 142.161 336.312C204.983 311.323 268.946 271.945 268.946 311.323Z" fill="white"/>
</g>
<g filter="url(#filter18_i_41_2068)">
<ellipse cx="144.957" cy="312.326" rx="25.4522" ry="24.3348" fill="#895C4C"/>
</g>
<g filter="url(#filter19_d_41_2068)">
<ellipse cx="223.527" cy="202.819" rx="25.8211" ry="26.1783" fill="#D4B793"/>
</g>
<g filter="url(#filter20_d_41_2068)">
<ellipse cx="146.064" cy="260.338" rx="22.1323" ry="21.7538" fill="#D4B793"/>
</g>
<g filter="url(#filter21_d_41_2068)">
<ellipse cx="221.314" cy="207.244" rx="21.3946" ry="21.7538" fill="#795B53"/>
</g>
<g filter="url(#filter22_d_41_2068)">
<ellipse cx="191.066" cy="247.433" rx="8.85294" ry="8.1116" fill="#59423D"/>
</g>
<g filter="url(#filter23_d_41_2068)">
<ellipse cx="144.957" cy="250.383" rx="7.74632" ry="7.37418" fill="#785952"/>
</g>
<g filter="url(#filter24_d_41_2068)">
<path d="M108.439 248.539C108.439 253.63 103.98 257.757 98.4794 257.757C92.9789 257.757 88.5199 253.63 88.5199 248.539C88.5199 243.449 92.9789 239.322 98.4794 239.322C103.98 239.322 108.439 243.449 108.439 248.539Z" fill="#59423D"/>
</g>
<g filter="url(#filter25_d_41_2068)">
<path d="M145.326 256.651L145.374 256.828C146.995 262.848 150.965 267.964 156.392 271.031V271.031" stroke="#785952" stroke-width="5"/>
</g>
<g filter="url(#filter26_d_41_2068)">
<path d="M144.588 252.595L144.226 254.211C142.69 261.069 138.598 267.083 132.785 271.031V271.031" stroke="#785952" stroke-width="5"/>
</g>
<g filter="url(#filter27_d_41_2068)">
<ellipse cx="74.5027" cy="202.819" rx="25.8211" ry="26.1783" fill="#D4B793"/>
</g>
<g filter="url(#filter28_d_41_2068)">
<ellipse cx="76.7159" cy="207.244" rx="21.3946" ry="21.7538" fill="#795B53"/>
<ellipse cx="76.7159" cy="207.244" rx="21.3946" ry="21.7538" fill="#795B53"/>
</g>
<path d="M121.917 198.327C119.968 198.327 120.243 198.948 119.021 200.169C118.394 200.795 117.222 201.494 116.882 202.176" stroke="#B3B3B3" stroke-width="5" stroke-linecap="round"/>
<path d="M121.029 199.215C120.629 199.665 120.379 200.132 119.844 200.399" stroke="#B3B3B3" stroke-width="5" stroke-linecap="round"/>
<path d="M120.732 198.623C120.604 199.652 119.217 200.147 118.659 200.843C118.269 201.331 117.499 202.459 116.882 202.768" stroke="#B3B3B3" stroke-width="5" stroke-linecap="round"/>
<path d="M190.346 173.159C189.735 172.549 189.124 172.007 188.568 171.382C188.028 170.774 187.855 169.721 187.383 169.013" stroke="#B3B3B3" stroke-width="5" stroke-linecap="round"/>
<ellipse cx="139.424" cy="126.497" rx="28.772" ry="25.8096" fill="#D9D9D9"/>
<ellipse cx="184.058" cy="130.553" rx="27.6654" ry="26.1783" fill="#D9D9D9"/>
<ellipse cx="198.075" cy="147.882" rx="29.8787" ry="25.0722" fill="#D9D9D9"/>
<path d="M153.762 150.325C153.349 158.622 137.42 164.573 118.185 163.615C98.9491 162.658 83.6908 155.155 84.1043 146.857C84.5178 138.559 100.292 125.774 119.527 126.731C138.763 127.689 154.176 142.027 153.762 150.325Z" fill="#D9D9D9"/>
<ellipse cx="134.26" cy="125.391" rx="12.5417" ry="12.9048" fill="#D9D9D9"/>
<path d="M117.62 143.177C118.485 141.536 120.188 140.508 122.044 140.508H186.774C189.379 140.508 191.547 142.508 191.758 145.104L193.162 162.432C193.239 163.379 193.044 164.329 192.6 165.17L186.567 176.599C186.247 177.205 186.055 177.87 186.003 178.554L184.608 196.908C184.383 199.87 181.641 201.983 178.72 201.447L153.247 196.769C152.664 196.662 152.065 196.66 151.481 196.762L124.43 201.504C121.53 202.012 118.821 199.917 118.583 196.983L116.482 171.05C116.412 170.182 116.116 169.348 115.625 168.63L110.879 161.695C109.832 160.165 109.717 158.181 110.581 156.541L117.62 143.177Z" fill="#D9D9D9"/>
<path d="M191.132 174.65C190.916 172.922 185.668 170.742 184.062 170.1C180.116 168.522 176.289 166.827 172.174 165.913C169.08 165.226 166.147 165.937 163.216 165.937C160.896 165.937 157.348 165.508 155.396 166.809" stroke="#B3B3B3" stroke-width="5" stroke-linecap="round"/>
<path d="M229.335 330C229.226 328.886 228.364 325.969 227.394 325.384C226.459 324.819 224.876 324.39 224.345 325.89C223.92 327.089 222.78 328.532 223.374 329.874C224.134 331.589 225.68 332.419 226.994 333.7C227.793 334.479 228.895 335.999 229.889 336.482C231.784 337.404 233.809 334.513 234.879 333.415C235.966 332.3 237.561 329.915 237.651 328.293C237.683 327.718 238.158 326.866 237.867 326.301C237.546 325.678 236.594 325.889 236.111 325.573C233.889 324.122 231.953 326.297 231.83 328.577C231.801 329.107 231.588 330.976 231.214 331.36C230.665 331.923 229.432 329.711 229.319 329.305C228.998 328.152 227.981 328.43 227.255 327.85C226.168 326.982 225.418 328.699 226.069 329.368C226.981 330.304 227.174 326.558 226.424 327.328C225.868 327.899 225.539 330.569 226.562 330.569" stroke="#D49393" stroke-width="5" stroke-linecap="round"/>
<path d="M225.419 328.112C225.419 329.774 226.777 330.515 227.673 331.587C228.067 332.058 228.117 332.577 228.373 333.128C228.989 334.455 228.27 332.18 228.586 332.423C229.804 333.36 229.45 334.974 231.235 333.718C232.429 332.877 233.914 331.421 233.914 329.751C233.914 328.916 234.266 328.632 234.447 327.948C234.614 327.318 235.01 329.059 235.01 329.44C235.01 330.344 234.889 330.308 234.325 330.915C233.726 331.561 233.764 331.72 233.427 332.538C232.914 333.781 232.504 334.679 231.6 335.652C230.659 336.666 229.927 334.574 229.53 333.718" stroke="#D49393" stroke-width="5" stroke-linecap="round"/>
<path d="M226.021 327.812C225.256 327.812 225.438 328.163 225.438 328.64C225.438 329.384 225.934 329.282 226.895 329.282" stroke="#D49393" stroke-width="5" stroke-linecap="round"/>
<path d="M214.353 359.488C214.353 389.644 181.654 414.09 141.317 414.09C100.98 414.09 68.2799 389.644 68.2799 359.488C68.2799 329.333 100.98 352.606 141.317 352.606C181.654 352.606 214.353 329.333 214.353 359.488Z" fill="#D9D9D9"/>
<path d="M209.174 360.239C209.153 359.525 209.11 358.845 209.047 358.199L208.549 358.248C208.48 357.546 208.385 356.886 208.266 356.267L208.757 356.173C208.621 355.462 208.453 354.799 208.253 354.184L207.778 354.338C207.563 353.673 207.312 353.069 207.026 352.52L207.47 352.289C207.141 351.656 206.767 351.089 206.349 350.584L205.963 350.902C205.545 350.396 205.08 349.955 204.571 349.574L204.87 349.174C204.328 348.769 203.739 348.427 203.104 348.143L202.9 348.6C202.323 348.342 201.702 348.132 201.039 347.967L201.16 347.482C200.521 347.323 199.848 347.205 199.141 347.124L199.084 347.621C198.449 347.548 197.783 347.506 197.088 347.491L197.099 346.991C196.439 346.977 195.755 346.987 195.048 347.019L195.071 347.519C194.418 347.549 193.743 347.598 193.048 347.664L193.001 347.166C192.338 347.229 191.657 347.308 190.96 347.399L191.025 347.895C190.367 347.982 189.693 348.081 189.003 348.19L188.925 347.697C188.261 347.802 187.584 347.918 186.894 348.041L186.983 348.533C186.326 348.651 185.658 348.777 184.978 348.908L184.883 348.418C184.224 348.545 183.554 348.679 182.875 348.818L182.975 349.308C182.316 349.443 181.646 349.582 180.968 349.725L180.865 349.236C180.202 349.375 179.531 349.518 178.851 349.664L178.956 350.153C178.357 350.282 177.751 350.412 177.138 350.544L176.948 350.585L176.843 350.096C176.183 350.238 175.516 350.382 174.842 350.526L174.946 351.015C174.283 351.157 173.612 351.3 172.935 351.442L172.832 350.953C172.166 351.093 171.494 351.234 170.815 351.373L170.916 351.863C170.253 352 169.584 352.135 168.909 352.27L168.811 351.78C168.145 351.912 167.473 352.044 166.795 352.173L166.889 352.665C166.218 352.793 165.542 352.919 164.861 353.043L164.772 352.551C164.105 352.672 163.433 352.791 162.756 352.907L162.841 353.4C162.168 353.516 161.49 353.628 160.808 353.737L160.729 353.243C160.056 353.351 159.379 353.455 158.698 353.555L158.771 354.049C158.096 354.149 157.417 354.244 156.735 354.335L156.669 353.839C155.992 353.929 155.312 354.015 154.628 354.096L154.687 354.592C154.009 354.673 153.327 354.748 152.641 354.819L152.59 354.321C151.912 354.391 151.231 354.455 150.547 354.514L150.59 355.012C149.907 355.071 149.22 355.124 148.531 355.171L148.497 354.672C147.818 354.719 147.136 354.759 146.452 354.793L146.476 355.293C145.791 355.327 145.103 355.355 144.413 355.376L144.397 354.876C143.717 354.897 143.033 354.911 142.347 354.918L142.352 355.418C142.008 355.422 141.663 355.424 141.317 355.424C140.971 355.424 140.625 355.422 140.281 355.418L140.286 354.918C139.6 354.911 138.917 354.897 138.236 354.876L138.221 355.376C137.53 355.355 136.842 355.327 136.157 355.293L136.182 354.793C135.497 354.759 134.815 354.719 134.136 354.672L134.102 355.171C133.413 355.124 132.727 355.071 132.044 355.012L132.086 354.514C131.402 354.455 130.721 354.391 130.043 354.321L129.992 354.819C129.307 354.748 128.625 354.673 127.946 354.592L128.005 354.096C127.321 354.015 126.641 353.929 125.965 353.839L125.899 354.335C125.216 354.244 124.537 354.149 123.862 354.049L123.935 353.555C123.254 353.455 122.577 353.351 121.904 353.243L121.825 353.737C121.143 353.628 120.465 353.516 119.793 353.4L119.877 352.907C119.2 352.791 118.529 352.672 117.862 352.551L117.772 353.043C117.091 352.919 116.415 352.793 115.744 352.665L115.838 352.173C115.161 352.044 114.489 351.912 113.822 351.78L113.725 352.27C113.049 352.135 112.38 352 111.717 351.863L111.818 351.373C111.139 351.234 110.467 351.093 109.801 350.953L109.698 351.442C109.021 351.3 108.35 351.157 107.687 351.015L107.791 350.526C107.117 350.382 106.45 350.238 105.79 350.096L105.685 350.585L105.495 350.544C104.882 350.412 104.277 350.281 103.677 350.153L103.782 349.664C103.102 349.518 102.431 349.375 101.769 349.236L101.665 349.725C100.987 349.582 100.318 349.443 99.6585 349.308L99.7586 348.818C99.0788 348.679 98.4093 348.545 97.7504 348.418L97.6552 348.908C96.9751 348.777 96.3067 348.651 95.6505 348.533L95.7388 348.041C95.0489 347.918 94.3719 347.802 93.7083 347.697L93.6297 348.19C92.9405 348.081 92.2664 347.982 91.608 347.895L91.6733 347.399C90.9761 347.308 90.2955 347.229 89.6323 347.166L89.5849 347.664C88.8899 347.598 88.2154 347.549 87.5619 347.519L87.5848 347.019C86.8782 346.987 86.1944 346.977 85.5342 346.991L85.5449 347.491C84.85 347.506 84.1844 347.548 83.5488 347.621L83.4918 347.124C82.7855 347.205 82.1123 347.323 81.4736 347.482L81.5942 347.967C80.9307 348.132 80.3102 348.342 79.733 348.6L79.5289 348.143C78.894 348.427 78.3047 348.769 77.7631 349.174L78.0626 349.574C77.5532 349.955 77.0886 350.396 76.6698 350.902L76.2845 350.584C75.8664 351.089 75.4921 351.656 75.1632 352.289L75.6069 352.52C75.3217 353.069 75.0705 353.673 74.8554 354.338L74.3797 354.184C74.1805 354.799 74.0122 355.462 73.8757 356.173L74.3668 356.267C74.2479 356.886 74.1534 357.546 74.0842 358.248L73.5866 358.199C73.5229 358.845 73.4803 359.525 73.4593 360.239L73.9591 360.254C73.9491 360.594 73.9441 360.942 73.9441 361.299C73.9441 361.635 73.9486 361.971 73.9574 362.306L73.4576 362.319C73.4757 362.999 73.5117 363.675 73.5654 364.348L74.0638 364.308C74.1171 364.976 74.1881 365.641 74.2764 366.303L73.7808 366.369C73.8707 367.042 73.9784 367.712 74.1034 368.377L74.5948 368.285C74.7185 368.943 74.8593 369.597 75.0171 370.246L74.5312 370.364C74.6911 371.023 74.8682 371.677 75.062 372.326L75.5411 372.184C75.7323 372.824 75.9401 373.461 76.1641 374.092L75.6929 374.259C75.9192 374.897 76.1618 375.531 76.4204 376.158L76.8827 375.968C77.1371 376.586 77.4071 377.198 77.6924 377.805L77.2398 378.018C77.5272 378.63 77.8299 379.236 78.1476 379.837L78.5896 379.603C78.9019 380.193 79.2289 380.778 79.5703 381.358L79.1395 381.612C79.4826 382.194 79.8401 382.771 80.2115 383.342L80.6306 383.069C80.9947 383.628 81.3724 384.182 81.7634 384.73L81.3565 385.02C81.7484 385.569 82.1534 386.112 82.5714 386.649L82.9658 386.342C83.3763 386.869 83.7994 387.39 84.2348 387.905L83.853 388.228C84.2892 388.743 84.7375 389.253 85.1977 389.756L85.5666 389.418C86.0175 389.911 86.4799 390.398 86.9536 390.878L86.5977 391.229C87.071 391.709 87.5555 392.182 88.0507 392.649L88.3936 392.285C88.8803 392.743 89.3777 393.196 89.8854 393.641L89.5556 394.017C90.0634 394.463 90.5815 394.902 91.1095 395.334L91.4262 394.947C91.9429 395.37 92.4693 395.787 93.005 396.196L92.7013 396.594C93.2368 397.003 93.7816 397.406 94.3354 397.802L94.6262 397.395C95.1714 397.785 95.7253 398.168 96.2879 398.544L96.01 398.96C96.5708 399.335 97.1399 399.703 97.7172 400.064L97.9823 399.64C98.5495 399.994 99.1247 400.342 99.7077 400.683L99.4553 401.115C100.038 401.455 100.629 401.789 101.227 402.116L101.467 401.677C102.055 401.999 102.651 402.313 103.253 402.62L103.026 403.066C103.626 403.372 104.234 403.671 104.848 403.963L105.062 403.512C105.668 403.8 106.281 404.081 106.899 404.355L106.697 404.812C107.314 405.086 107.938 405.352 108.568 405.611L108.758 405.149C109.378 405.403 110.003 405.651 110.634 405.892L110.456 406.359C111.087 406.599 111.725 406.833 112.367 407.059L112.533 406.588C113.166 406.81 113.804 407.026 114.447 407.234L114.293 407.71C114.935 407.917 115.582 408.118 116.234 408.311L116.376 407.832C117.021 408.023 117.67 408.207 118.324 408.384L118.194 408.866C118.845 409.042 119.5 409.211 120.16 409.372L120.279 408.886C120.931 409.045 121.587 409.198 122.248 409.342L122.141 409.831C122.802 409.975 123.467 410.113 124.135 410.243L124.231 409.752C124.889 409.88 125.551 410.001 126.216 410.114L126.132 410.607C126.799 410.72 127.469 410.827 128.143 410.925L128.215 410.431C128.879 410.528 129.547 410.618 130.218 410.701L130.157 411.197C130.827 411.28 131.5 411.355 132.177 411.423L132.227 410.925C132.896 410.992 133.569 411.052 134.244 411.105L134.206 411.603C134.878 411.655 135.553 411.7 136.231 411.738L136.258 411.238C136.93 411.275 137.604 411.305 138.281 411.327L138.265 411.827C138.939 411.849 139.616 411.864 140.296 411.872L140.301 411.372C140.639 411.376 140.978 411.377 141.317 411.377C141.656 411.377 141.994 411.376 142.332 411.372L142.338 411.872C143.017 411.864 143.694 411.849 144.368 411.827L144.352 411.327C145.029 411.305 145.703 411.275 146.375 411.238L146.403 411.738C147.08 411.7 147.755 411.655 148.427 411.603L148.389 411.105C149.064 411.052 149.737 410.992 150.407 410.925L150.456 411.423C151.133 411.355 151.806 411.28 152.476 411.197L152.415 410.701C153.086 410.618 153.754 410.528 154.418 410.431L154.49 410.925C155.164 410.827 155.834 410.72 156.501 410.607L156.417 410.114C157.083 410.001 157.744 409.88 158.402 409.752L158.498 410.243C159.167 410.113 159.831 409.975 160.492 409.831L160.385 409.342C161.046 409.198 161.702 409.045 162.354 408.886L162.473 409.372C163.133 409.211 163.788 409.042 164.439 408.866L164.309 408.384C164.963 408.207 165.613 408.023 166.257 407.832L166.399 408.311C167.051 408.118 167.698 407.917 168.34 407.71L168.186 407.234C168.829 407.026 169.467 406.81 170.1 406.588L170.266 407.059C170.909 406.833 171.546 406.599 172.177 406.359L171.999 405.892C172.63 405.651 173.256 405.403 173.875 405.149L174.065 405.611C174.695 405.352 175.319 405.086 175.936 404.812L175.734 404.355C176.353 404.081 176.965 403.8 177.571 403.512L177.786 403.963C178.4 403.671 179.007 403.372 179.607 403.066L179.38 402.62C179.983 402.313 180.578 401.999 181.166 401.677L181.406 402.116C182.004 401.789 182.595 401.455 183.178 401.115L182.926 400.683C183.509 400.342 184.084 399.994 184.651 399.64L184.916 400.063C185.493 399.703 186.062 399.335 186.623 398.96L186.345 398.544C186.908 398.168 187.462 397.785 188.007 397.395L188.298 397.802C188.852 397.406 189.396 397.003 189.932 396.594L189.628 396.196C190.164 395.787 190.69 395.37 191.207 394.947L191.524 395.334C192.052 394.902 192.57 394.463 193.078 394.017L192.748 393.641C193.256 393.196 193.753 392.743 194.24 392.285L194.583 392.649C195.078 392.182 195.562 391.709 196.035 391.229L195.68 390.878C196.153 390.398 196.616 389.911 197.067 389.418L197.435 389.756C197.896 389.253 198.344 388.743 198.78 388.228L198.398 387.905C198.834 387.39 199.257 386.869 199.667 386.342L200.062 386.649C200.48 386.112 200.885 385.569 201.277 385.02L200.87 384.73C201.261 384.182 201.639 383.628 202.003 383.069L202.422 383.342C202.793 382.771 203.151 382.194 203.494 381.612L203.063 381.358C203.404 380.778 203.731 380.193 204.044 379.603L204.486 379.837C204.803 379.236 205.106 378.63 205.393 378.018L204.941 377.805C205.226 377.198 205.496 376.586 205.75 375.968L206.213 376.158C206.471 375.531 206.714 374.897 206.94 374.259L206.469 374.092C206.693 373.461 206.901 372.824 207.092 372.184L207.571 372.327C207.765 371.677 207.942 371.023 208.102 370.364L207.616 370.246C207.774 369.597 207.915 368.943 208.038 368.285L208.53 368.377C208.655 367.712 208.762 367.042 208.852 366.369L208.357 366.303C208.445 365.641 208.516 364.976 208.569 364.308L209.068 364.348C209.122 363.675 209.158 362.999 209.176 362.319L208.676 362.306C208.685 361.971 208.689 361.635 208.689 361.299C208.689 360.942 208.684 360.594 208.674 360.254L209.174 360.239Z" stroke="#DD9696" stroke-dasharray="2 2"/>
<defs>
<filter id="filter0_d_41_2068" x="13.56" y="12.528" width="262.949" height="58.304" filterUnits="userSpaceOnUse" color-interpolation-filters="sRGB">
<feFlood flood-opacity="0" result="BackgroundImageFix"/>
<feColorMatrix in="SourceAlpha" type="matrix" values="0 0 0 0 0 0 0 0 0 0 0 0 0 0 0 0 0 0 127 0" result="hardAlpha"/>
<feOffset dy="4"/>
<feGaussianBlur stdDeviation="2"/>
<feComposite in2="hardAlpha" operator="out"/>
<feColorMatrix type="matrix" values="0 0 0 0 0 0 0 0 0 0 0 0 0 0 0 0 0 0 0.25 0"/>
<feBlend mode="normal" in2="BackgroundImageFix" result="effect1_dropShadow_41_2068"/>
<feBlend mode="normal" in="SourceGraphic" in2="effect1_dropShadow_41_2068" result="shape"/>
</filter>
<filter id="filter1_d_41_2068" x="10.4245" y="189.177" width="262.522" height="252.823" filterUnits="userSpaceOnUse" color-interpolation-filters="sRGB">
<feFlood flood-opacity="0" result="BackgroundImageFix"/>
<feColorMatrix in="SourceAlpha" type="matrix" values="0 0 0 0 0 0 0 0 0 0 0 0 0 0 0 0 0 0 127 0" result="hardAlpha"/>
<feOffset dy="4"/>
<feGaussianBlur stdDeviation="2"/>
<feComposite in2="hardAlpha" operator="out"/>
<feColorMatrix type="matrix" values="0 0 0 0 0 0 0 0 0 0 0 0 0 0 0 0 0 0 0.25 0"/>
<feBlend mode="normal" in2="BackgroundImageFix" result="effect1_dropShadow_41_2068"/>
<feBlend mode="normal" in="SourceGraphic" in2="effect1_dropShadow_41_2068" result="shape"/>
</filter>
<filter id="filter2_df_41_2068" x="17.3851" y="188.864" width="255.144" height="250.923" filterUnits="userSpaceOnUse" color-interpolation-filters="sRGB">
<feFlood flood-opacity="0" result="BackgroundImageFix"/>
<feColorMatrix in="SourceAlpha" type="matrix" values="0 0 0 0 0 0 0 0 0 0 0 0 0 0 0 0 0 0 127 0" result="hardAlpha"/>
<feOffset dy="4"/>
<feGaussianBlur stdDeviation="2"/>
<feComposite in2="hardAlpha" operator="out"/>
<feColorMatrix type="matrix" values="0 0 0 0 0 0 0 0 0 0 0 0 0 0 0 0 0 0 0.25 0"/>
<feBlend mode="normal" in2="BackgroundImageFix" result="effect1_dropShadow_41_2068"/>
<feBlend mode="normal" in="SourceGraphic" in2="effect1_dropShadow_41_2068" result="shape"/>
<feGaussianBlur stdDeviation="2" result="effect2_foregroundBlur_41_2068"/>
</filter>
<filter id="filter3_d_41_2068" x="10.4245" y="294.628" width="262.522" height="147.372" filterUnits="userSpaceOnUse" color-interpolation-filters="sRGB">
<feFlood flood-opacity="0" result="BackgroundImageFix"/>
<feColorMatrix in="SourceAlpha" type="matrix" values="0 0 0 0 0 0 0 0 0 0 0 0 0 0 0 0 0 0 127 0" result="hardAlpha"/>
<feOffset dy="4"/>
<feGaussianBlur stdDeviation="2"/>
<feComposite in2="hardAlpha" operator="out"/>
<feColorMatrix type="matrix" values="0 0 0 0 0 0 0 0 0 0 0 0 0 0 0 0 0 0 0.25 0"/>
<feBlend mode="normal" in2="BackgroundImageFix" result="effect1_dropShadow_41_2068"/>
<feBlend mode="normal" in="SourceGraphic" in2="effect1_dropShadow_41_2068" result="shape"/>
</filter>
<filter id="filter4_i_41_2068" x="119.505" y="287.991" width="50.9044" height="52.6696" filterUnits="userSpaceOnUse" color-interpolation-filters="sRGB">
<feFlood flood-opacity="0" result="BackgroundImageFix"/>
<feBlend mode="normal" in="SourceGraphic" in2="BackgroundImageFix" result="shape"/>
<feColorMatrix in="SourceAlpha" type="matrix" values="0 0 0 0 0 0 0 0 0 0 0 0 0 0 0 0 0 0 127 0" result="hardAlpha"/>
<feOffset dy="4"/>
<feGaussianBlur stdDeviation="2"/>
<feComposite in2="hardAlpha" operator="arithmetic" k2="-1" k3="1"/>
<feColorMatrix type="matrix" values="0 0 0 0 0 0 0 0 0 0 0 0 0 0 0 0 0 0 0.25 0"/>
<feBlend mode="normal" in2="shape" result="effect1_innerShadow_41_2068"/>
</filter>
<filter id="filter5_d_41_2068" x="193.706" y="176.641" width="59.6421" height="60.3567" filterUnits="userSpaceOnUse" color-interpolation-filters="sRGB">
<feFlood flood-opacity="0" result="BackgroundImageFix"/>
<feColorMatrix in="SourceAlpha" type="matrix" values="0 0 0 0 0 0 0 0 0 0 0 0 0 0 0 0 0 0 127 0" result="hardAlpha"/>
<feOffset dy="4"/>
<feGaussianBlur stdDeviation="2"/>
<feComposite in2="hardAlpha" operator="out"/>
<feColorMatrix type="matrix" values="0 0 0 0 0 0 0 0 0 0 0 0 0 0 0 0 0 0 0.25 0"/>
<feBlend mode="normal" in2="BackgroundImageFix" result="effect1_dropShadow_41_2068"/>
<feBlend mode="normal" in="SourceGraphic" in2="effect1_dropShadow_41_2068" result="shape"/>
</filter>
<filter id="filter6_d_41_2068" x="119.932" y="238.584" width="52.2647" height="51.5077" filterUnits="userSpaceOnUse" color-interpolation-filters="sRGB">
<feFlood flood-opacity="0" result="BackgroundImageFix"/>
<feColorMatrix in="SourceAlpha" type="matrix" values="0 0 0 0 0 0 0 0 0 0 0 0 0 0 0 0 0 0 127 0" result="hardAlpha"/>
<feOffset dy="4"/>
<feGaussianBlur stdDeviation="2"/>
<feComposite in2="hardAlpha" operator="out"/>
<feColorMatrix type="matrix" values="0 0 0 0 0 0 0 0 0 0 0 0 0 0 0 0 0 0 0.25 0"/>
<feBlend mode="normal" in2="BackgroundImageFix" result="effect1_dropShadow_41_2068"/>
<feBlend mode="normal" in="SourceGraphic" in2="effect1_dropShadow_41_2068" result="shape"/>
</filter>
<filter id="filter7_d_41_2068" x="195.919" y="185.49" width="50.7892" height="51.5077" filterUnits="userSpaceOnUse" color-interpolation-filters="sRGB">
<feFlood flood-opacity="0" result="BackgroundImageFix"/>
<feColorMatrix in="SourceAlpha" type="matrix" values="0 0 0 0 0 0 0 0 0 0 0 0 0 0 0 0 0 0 127 0" result="hardAlpha"/>
<feOffset dy="4"/>
<feGaussianBlur stdDeviation="2"/>
<feComposite in2="hardAlpha" operator="out"/>
<feColorMatrix type="matrix" values="0 0 0 0 0 0 0 0 0 0 0 0 0 0 0 0 0 0 0.25 0"/>
<feBlend mode="normal" in2="BackgroundImageFix" result="effect1_dropShadow_41_2068"/>
<feBlend mode="normal" in="SourceGraphic" in2="effect1_dropShadow_41_2068" result="shape"/>
</filter>
<filter id="filter8_d_41_2068" x="178.213" y="239.322" width="25.7059" height="24.2232" filterUnits="userSpaceOnUse" color-interpolation-filters="sRGB">
<feFlood flood-opacity="0" result="BackgroundImageFix"/>
<feColorMatrix in="SourceAlpha" type="matrix" values="0 0 0 0 0 0 0 0 0 0 0 0 0 0 0 0 0 0 127 0" result="hardAlpha"/>
<feOffset dy="4"/>
<feGaussianBlur stdDeviation="2"/>
<feComposite in2="hardAlpha" operator="out"/>
<feColorMatrix type="matrix" values="0 0 0 0 0 0 0 0 0 0 0 0 0 0 0 0 0 0 0.25 0"/>
<feBlend mode="normal" in2="BackgroundImageFix" result="effect1_dropShadow_41_2068"/>
<feBlend mode="normal" in="SourceGraphic" in2="effect1_dropShadow_41_2068" result="shape"/>
</filter>
<filter id="filter9_d_41_2068" x="133.211" y="243.009" width="23.4926" height="22.7484" filterUnits="userSpaceOnUse" color-interpolation-filters="sRGB">
<feFlood flood-opacity="0" result="BackgroundImageFix"/>
<feColorMatrix in="SourceAlpha" type="matrix" values="0 0 0 0 0 0 0 0 0 0 0 0 0 0 0 0 0 0 127 0" result="hardAlpha"/>
<feOffset dy="4"/>
<feGaussianBlur stdDeviation="2"/>
<feComposite in2="hardAlpha" operator="out"/>
<feColorMatrix type="matrix" values="0 0 0 0 0 0 0 0 0 0 0 0 0 0 0 0 0 0 0.25 0"/>
<feBlend mode="normal" in2="BackgroundImageFix" result="effect1_dropShadow_41_2068"/>
<feBlend mode="normal" in="SourceGraphic" in2="effect1_dropShadow_41_2068" result="shape"/>
</filter>
<filter id="filter10_d_41_2068" x="84.5199" y="239.322" width="27.9191" height="26.4354" filterUnits="userSpaceOnUse" color-interpolation-filters="sRGB">
<feFlood flood-opacity="0" result="BackgroundImageFix"/>
<feColorMatrix in="SourceAlpha" type="matrix" values="0 0 0 0 0 0 0 0 0 0 0 0 0 0 0 0 0 0 127 0" result="hardAlpha"/>
<feOffset dy="4"/>
<feGaussianBlur stdDeviation="2"/>
<feComposite in2="hardAlpha" operator="out"/>
<feColorMatrix type="matrix" values="0 0 0 0 0 0 0 0 0 0 0 0 0 0 0 0 0 0 0.25 0"/>
<feBlend mode="normal" in2="BackgroundImageFix" result="effect1_dropShadow_41_2068"/>
<feBlend mode="normal" in="SourceGraphic" in2="effect1_dropShadow_41_2068" result="shape"/>
</filter>
<filter id="filter11_d_41_2068" x="138.912" y="256.001" width="22.7099" height="25.2065" filterUnits="userSpaceOnUse" color-interpolation-filters="sRGB">
<feFlood flood-opacity="0" result="BackgroundImageFix"/>
<feColorMatrix in="SourceAlpha" type="matrix" values="0 0 0 0 0 0 0 0 0 0 0 0 0 0 0 0 0 0 127 0" result="hardAlpha"/>
<feOffset dy="4"/>
<feGaussianBlur stdDeviation="2"/>
<feComposite in2="hardAlpha" operator="out"/>
<feColorMatrix type="matrix" values="0 0 0 0 0 0 0 0 0 0 0 0 0 0 0 0 0 0 0.25 0"/>
<feBlend mode="normal" in2="BackgroundImageFix" result="effect1_dropShadow_41_2068"/>
<feBlend mode="normal" in="SourceGraphic" in2="effect1_dropShadow_41_2068" result="shape"/>
</filter>
<filter id="filter12_d_41_2068" x="127.38" y="252.049" width="23.6478" height="29.0504" filterUnits="userSpaceOnUse" color-interpolation-filters="sRGB">
<feFlood flood-opacity="0" result="BackgroundImageFix"/>
<feColorMatrix in="SourceAlpha" type="matrix" values="0 0 0 0 0 0 0 0 0 0 0 0 0 0 0 0 0 0 127 0" result="hardAlpha"/>
<feOffset dy="4"/>
<feGaussianBlur stdDeviation="2"/>
<feComposite in2="hardAlpha" operator="out"/>
<feColorMatrix type="matrix" values="0 0 0 0 0 0 0 0 0 0 0 0 0 0 0 0 0 0 0.25 0"/>
<feBlend mode="normal" in2="BackgroundImageFix" result="effect1_dropShadow_41_2068"/>
<feBlend mode="normal" in="SourceGraphic" in2="effect1_dropShadow_41_2068" result="shape"/>
</filter>
<filter id="filter13_d_41_2068" x="44.6817" y="176.641" width="59.6421" height="60.3567" filterUnits="userSpaceOnUse" color-interpolation-filters="sRGB">
<feFlood flood-opacity="0" result="BackgroundImageFix"/>
<feColorMatrix in="SourceAlpha" type="matrix" values="0 0 0 0 0 0 0 0 0 0 0 0 0 0 0 0 0 0 127 0" result="hardAlpha"/>
<feOffset dy="4"/>
<feGaussianBlur stdDeviation="2"/>
<feComposite in2="hardAlpha" operator="out"/>
<feColorMatrix type="matrix" values="0 0 0 0 0 0 0 0 0 0 0 0 0 0 0 0 0 0 0.25 0"/>
<feBlend mode="normal" in2="BackgroundImageFix" result="effect1_dropShadow_41_2068"/>
<feBlend mode="normal" in="SourceGraphic" in2="effect1_dropShadow_41_2068" result="shape"/>
</filter>
<filter id="filter14_d_41_2068" x="51.3214" y="185.49" width="50.7892" height="51.5077" filterUnits="userSpaceOnUse" color-interpolation-filters="sRGB">
<feFlood flood-opacity="0" result="BackgroundImageFix"/>
<feColorMatrix in="SourceAlpha" type="matrix" values="0 0 0 0 0 0 0 0 0 0 0 0 0 0 0 0 0 0 127 0" result="hardAlpha"/>
<feOffset dy="4"/>
<feGaussianBlur stdDeviation="2"/>
<feComposite in2="hardAlpha" operator="out"/>
<feColorMatrix type="matrix" values="0 0 0 0 0 0 0 0 0 0 0 0 0 0 0 0 0 0 0.25 0"/>
<feBlend mode="normal" in2="BackgroundImageFix" result="effect1_dropShadow_41_2068"/>
<feBlend mode="normal" in="SourceGraphic" in2="effect1_dropShadow_41_2068" result="shape"/>
</filter>
<filter id="filter15_d_41_2068" x="10.4245" y="189.177" width="262.522" height="252.823" filterUnits="userSpaceOnUse" color-interpolation-filters="sRGB">
<feFlood flood-opacity="0" result="BackgroundImageFix"/>
<feColorMatrix in="SourceAlpha" type="matrix" values="0 0 0 0 0 0 0 0 0 0 0 0 0 0 0 0 0 0 127 0" result="hardAlpha"/>
<feOffset dy="4"/>
<feGaussianBlur stdDeviation="2"/>
<feComposite in2="hardAlpha" operator="out"/>
<feColorMatrix type="matrix" values="0 0 0 0 0 0 0 0 0 0 0 0 0 0 0 0 0 0 0.25 0"/>
<feBlend mode="normal" in2="BackgroundImageFix" result="effect1_dropShadow_41_2068"/>
<feBlend mode="normal" in="SourceGraphic" in2="effect1_dropShadow_41_2068" result="shape"/>
</filter>
<filter id="filter16_df_41_2068" x="17.3851" y="188.864" width="255.144" height="250.923" filterUnits="userSpaceOnUse" color-interpolation-filters="sRGB">
<feFlood flood-opacity="0" result="BackgroundImageFix"/>
<feColorMatrix in="SourceAlpha" type="matrix" values="0 0 0 0 0 0 0 0 0 0 0 0 0 0 0 0 0 0 127 0" result="hardAlpha"/>
<feOffset dy="4"/>
<feGaussianBlur stdDeviation="2"/>
<feComposite in2="hardAlpha" operator="out"/>
<feColorMatrix type="matrix" values="0 0 0 0 0 0 0 0 0 0 0 0 0 0 0 0 0 0 0.25 0"/>
<feBlend mode="normal" in2="BackgroundImageFix" result="effect1_dropShadow_41_2068"/>
<feBlend mode="normal" in="SourceGraphic" in2="effect1_dropShadow_41_2068" result="shape"/>
<feGaussianBlur stdDeviation="2" result="effect2_foregroundBlur_41_2068"/>
</filter>
<filter id="filter17_d_41_2068" x="10.4245" y="294.628" width="262.522" height="147.372" filterUnits="userSpaceOnUse" color-interpolation-filters="sRGB">
<feFlood flood-opacity="0" result="BackgroundImageFix"/>
<feColorMatrix in="SourceAlpha" type="matrix" values="0 0 0 0 0 0 0 0 0 0 0 0 0 0 0 0 0 0 127 0" result="hardAlpha"/>
<feOffset dy="4"/>
<feGaussianBlur stdDeviation="2"/>
<feComposite in2="hardAlpha" operator="out"/>
<feColorMatrix type="matrix" values="0 0 0 0 0 0 0 0 0 0 0 0 0 0 0 0 0 0 0.25 0"/>
<feBlend mode="normal" in2="BackgroundImageFix" result="effect1_dropShadow_41_2068"/>
<feBlend mode="normal" in="SourceGraphic" in2="effect1_dropShadow_41_2068" result="shape"/>
</filter>
<filter id="filter18_i_41_2068" x="119.505" y="287.991" width="50.9044" height="52.6696" filterUnits="userSpaceOnUse" color-interpolation-filters="sRGB">
<feFlood flood-opacity="0" result="BackgroundImageFix"/>
<feBlend mode="normal" in="SourceGraphic" in2="BackgroundImageFix" result="shape"/>
<feColorMatrix in="SourceAlpha" type="matrix" values="0 0 0 0 0 0 0 0 0 0 0 0 0 0 0 0 0 0 127 0" result="hardAlpha"/>
<feOffset dy="4"/>
<feGaussianBlur stdDeviation="2"/>
<feComposite in2="hardAlpha" operator="arithmetic" k2="-1" k3="1"/>
<feColorMatrix type="matrix" values="0 0 0 0 0 0 0 0 0 0 0 0 0 0 0 0 0 0 0.25 0"/>
<feBlend mode="normal" in2="shape" result="effect1_innerShadow_41_2068"/>
</filter>
<filter id="filter19_d_41_2068" x="193.706" y="176.641" width="59.6421" height="60.3567" filterUnits="userSpaceOnUse" color-interpolation-filters="sRGB">
<feFlood flood-opacity="0" result="BackgroundImageFix"/>
<feColorMatrix in="SourceAlpha" type="matrix" values="0 0 0 0 0 0 0 0 0 0 0 0 0 0 0 0 0 0 127 0" result="hardAlpha"/>
<feOffset dy="4"/>
<feGaussianBlur stdDeviation="2"/>
<feComposite in2="hardAlpha" operator="out"/>
<feColorMatrix type="matrix" values="0 0 0 0 0 0 0 0 0 0 0 0 0 0 0 0 0 0 0.25 0"/>
<feBlend mode="normal" in2="BackgroundImageFix" result="effect1_dropShadow_41_2068"/>
<feBlend mode="normal" in="SourceGraphic" in2="effect1_dropShadow_41_2068" result="shape"/>
</filter>
<filter id="filter20_d_41_2068" x="119.932" y="238.584" width="52.2647" height="51.5077" filterUnits="userSpaceOnUse" color-interpolation-filters="sRGB">
<feFlood flood-opacity="0" result="BackgroundImageFix"/>
<feColorMatrix in="SourceAlpha" type="matrix" values="0 0 0 0 0 0 0 0 0 0 0 0 0 0 0 0 0 0 127 0" result="hardAlpha"/>
<feOffset dy="4"/>
<feGaussianBlur stdDeviation="2"/>
<feComposite in2="hardAlpha" operator="out"/>
<feColorMatrix type="matrix" values="0 0 0 0 0 0 0 0 0 0 0 0 0 0 0 0 0 0 0.25 0"/>
<feBlend mode="normal" in2="BackgroundImageFix" result="effect1_dropShadow_41_2068"/>
<feBlend mode="normal" in="SourceGraphic" in2="effect1_dropShadow_41_2068" result="shape"/>
</filter>
<filter id="filter21_d_41_2068" x="195.919" y="185.49" width="50.7892" height="51.5077" filterUnits="userSpaceOnUse" color-interpolation-filters="sRGB">
<feFlood flood-opacity="0" result="BackgroundImageFix"/>
<feColorMatrix in="SourceAlpha" type="matrix" values="0 0 0 0 0 0 0 0 0 0 0 0 0 0 0 0 0 0 127 0" result="hardAlpha"/>
<feOffset dy="4"/>
<feGaussianBlur stdDeviation="2"/>
<feComposite in2="hardAlpha" operator="out"/>
<feColorMatrix type="matrix" values="0 0 0 0 0 0 0 0 0 0 0 0 0 0 0 0 0 0 0.25 0"/>
<feBlend mode="normal" in2="BackgroundImageFix" result="effect1_dropShadow_41_2068"/>
<feBlend mode="normal" in="SourceGraphic" in2="effect1_dropShadow_41_2068" result="shape"/>
</filter>
<filter id="filter22_d_41_2068" x="178.213" y="239.322" width="25.7059" height="24.2232" filterUnits="userSpaceOnUse" color-interpolation-filters="sRGB">
<feFlood flood-opacity="0" result="BackgroundImageFix"/>
<feColorMatrix in="SourceAlpha" type="matrix" values="0 0 0 0 0 0 0 0 0 0 0 0 0 0 0 0 0 0 127 0" result="hardAlpha"/>
<feOffset dy="4"/>
<feGaussianBlur stdDeviation="2"/>
<feComposite in2="hardAlpha" operator="out"/>
<feColorMatrix type="matrix" values="0 0 0 0 0 0 0 0 0 0 0 0 0 0 0 0 0 0 0.25 0"/>
<feBlend mode="normal" in2="BackgroundImageFix" result="effect1_dropShadow_41_2068"/>
<feBlend mode="normal" in="SourceGraphic" in2="effect1_dropShadow_41_2068" result="shape"/>
</filter>
<filter id="filter23_d_41_2068" x="133.211" y="243.009" width="23.4926" height="22.7484" filterUnits="userSpaceOnUse" color-interpolation-filters="sRGB">
<feFlood flood-opacity="0" result="BackgroundImageFix"/>
<feColorMatrix in="SourceAlpha" type="matrix" values="0 0 0 0 0 0 0 0 0 0 0 0 0 0 0 0 0 0 127 0" result="hardAlpha"/>
<feOffset dy="4"/>
<feGaussianBlur stdDeviation="2"/>
<feComposite in2="hardAlpha" operator="out"/>
<feColorMatrix type="matrix" values="0 0 0 0 0 0 0 0 0 0 0 0 0 0 0 0 0 0 0.25 0"/>
<feBlend mode="normal" in2="BackgroundImageFix" result="effect1_dropShadow_41_2068"/>
<feBlend mode="normal" in="SourceGraphic" in2="effect1_dropShadow_41_2068" result="shape"/>
</filter>
<filter id="filter24_d_41_2068" x="84.5199" y="239.322" width="27.9191" height="26.4354" filterUnits="userSpaceOnUse" color-interpolation-filters="sRGB">
<feFlood flood-opacity="0" result="BackgroundImageFix"/>
<feColorMatrix in="SourceAlpha" type="matrix" values="0 0 0 0 0 0 0 0 0 0 0 0 0 0 0 0 0 0 127 0" result="hardAlpha"/>
<feOffset dy="4"/>
<feGaussianBlur stdDeviation="2"/>
<feComposite in2="hardAlpha" operator="out"/>
<feColorMatrix type="matrix" values="0 0 0 0 0 0 0 0 0 0 0 0 0 0 0 0 0 0 0.25 0"/>
<feBlend mode="normal" in2="BackgroundImageFix" result="effect1_dropShadow_41_2068"/>
<feBlend mode="normal" in="SourceGraphic" in2="effect1_dropShadow_41_2068" result="shape"/>
</filter>
<filter id="filter25_d_41_2068" x="138.912" y="256.001" width="22.7099" height="25.2065" filterUnits="userSpaceOnUse" color-interpolation-filters="sRGB">
<feFlood flood-opacity="0" result="BackgroundImageFix"/>
<feColorMatrix in="SourceAlpha" type="matrix" values="0 0 0 0 0 0 0 0 0 0 0 0 0 0 0 0 0 0 127 0" result="hardAlpha"/>
<feOffset dy="4"/>
<feGaussianBlur stdDeviation="2"/>
<feComposite in2="hardAlpha" operator="out"/>
<feColorMatrix type="matrix" values="0 0 0 0 0 0 0 0 0 0 0 0 0 0 0 0 0 0 0.25 0"/>
<feBlend mode="normal" in2="BackgroundImageFix" result="effect1_dropShadow_41_2068"/>
<feBlend mode="normal" in="SourceGraphic" in2="effect1_dropShadow_41_2068" result="shape"/>
</filter>
<filter id="filter26_d_41_2068" x="127.38" y="252.049" width="23.6478" height="29.0504" filterUnits="userSpaceOnUse" color-interpolation-filters="sRGB">
<feFlood flood-opacity="0" result="BackgroundImageFix"/>
<feColorMatrix in="SourceAlpha" type="matrix" values="0 0 0 0 0 0 0 0 0 0 0 0 0 0 0 0 0 0 127 0" result="hardAlpha"/>
<feOffset dy="4"/>
<feGaussianBlur stdDeviation="2"/>
<feComposite in2="hardAlpha" operator="out"/>
<feColorMatrix type="matrix" values="0 0 0 0 0 0 0 0 0 0 0 0 0 0 0 0 0 0 0.25 0"/>
<feBlend mode="normal" in2="BackgroundImageFix" result="effect1_dropShadow_41_2068"/>
<feBlend mode="normal" in="SourceGraphic" in2="effect1_dropShadow_41_2068" result="shape"/>
</filter>
<filter id="filter27_d_41_2068" x="44.6817" y="176.641" width="59.6421" height="60.3567" filterUnits="userSpaceOnUse" color-interpolation-filters="sRGB">
<feFlood flood-opacity="0" result="BackgroundImageFix"/>
<feColorMatrix in="SourceAlpha" type="matrix" values="0 0 0 0 0 0 0 0 0 0 0 0 0 0 0 0 0 0 127 0" result="hardAlpha"/>
<feOffset dy="4"/>
<feGaussianBlur stdDeviation="2"/>
<feComposite in2="hardAlpha" operator="out"/>
<feColorMatrix type="matrix" values="0 0 0 0 0 0 0 0 0 0 0 0 0 0 0 0 0 0 0.25 0"/>
<feBlend mode="normal" in2="BackgroundImageFix" result="effect1_dropShadow_41_2068"/>
<feBlend mode="normal" in="SourceGraphic" in2="effect1_dropShadow_41_2068" result="shape"/>
</filter>
<filter id="filter28_d_41_2068" x="51.3214" y="185.49" width="50.7892" height="51.5077" filterUnits="userSpaceOnUse" color-interpolation-filters="sRGB">
<feFlood flood-opacity="0" result="BackgroundImageFix"/>
<feColorMatrix in="SourceAlpha" type="matrix" values="0 0 0 0 0 0 0 0 0 0 0 0 0 0 0 0 0 0 127 0" result="hardAlpha"/>
<feOffset dy="4"/>
<feGaussianBlur stdDeviation="2"/>
<feComposite in2="hardAlpha" operator="out"/>
<feColorMatrix type="matrix" values="0 0 0 0 0 0 0 0 0 0 0 0 0 0 0 0 0 0 0.25 0"/>
<feBlend mode="normal" in2="BackgroundImageFix" result="effect1_dropShadow_41_2068"/>
<feBlend mode="normal" in="SourceGraphic" in2="effect1_dropShadow_41_2068" result="shape"/>
</filter>
</defs>
</svg>
