<svg width="153" height="35" viewBox="0 0 153 35" fill="none" xmlns="http://www.w3.org/2000/svg">
<path d="M23.4375 4.625H2.8125C1.23047 4.625 0 5.91406 0 7.4375V28.0625C0 29.6445 1.23047 30.875 2.8125 30.875H10.8398V21.9688H7.14844V17.75H10.8398V14.5859C10.8398 10.9531 13.0078 8.90234 16.2891 8.90234C17.9297 8.90234 19.5703 9.19531 19.5703 9.19531V12.7695H17.7539C15.9375 12.7695 15.3516 13.8828 15.3516 15.0547V17.75H19.3945L18.75 21.9688H15.3516V30.875H23.4375C24.9609 30.875 26.25 29.6445 26.25 28.0625V7.4375C26.25 5.91406 24.9609 4.625 23.4375 4.625Z" fill="#757575"/>
<path d="M65.4375 4.625H44.8125C43.2305 4.625 42 5.91406 42 7.4375V28.0625C42 29.6445 43.2305 30.875 44.8125 30.875H65.4375C66.9609 30.875 68.25 29.6445 68.25 28.0625V7.4375C68.25 5.91406 66.9609 4.625 65.4375 4.625ZM62.5664 13.9414C62.5664 14.1172 62.5664 14.293 62.5664 14.4688C62.5664 19.5078 58.6992 25.3672 51.6094 25.3672C49.4414 25.3672 47.4492 24.7812 45.75 23.668C46.043 23.7266 46.3359 23.7266 46.6289 23.7266C48.4453 23.7266 50.0859 23.082 51.4336 22.0859C49.7344 22.0273 48.3281 20.9141 47.8008 19.3906C48.4453 19.5078 48.9727 19.5078 49.5586 19.332C47.8008 18.9805 46.5117 17.457 46.5117 15.582V15.5234C46.9805 15.8164 47.5664 15.9922 48.2109 15.9922C47.1562 15.2891 46.5117 14.1172 46.5117 12.8281C46.5117 12.0664 46.6875 11.4219 47.0391 10.8359C48.9141 13.1797 51.7852 14.7031 54.9492 14.8789C54.4219 12.3008 56.3555 10.1328 58.6992 10.1328C59.8125 10.1328 60.8086 10.6016 61.5117 11.3633C62.3906 11.1875 63.2109 10.8945 63.9727 10.4258C63.6797 11.3633 63.0352 12.0664 62.2734 12.5352C63.0352 12.4766 63.7969 12.2422 64.5 11.9492C63.9727 12.7109 63.2695 13.4141 62.5664 13.9414Z" fill="#757575"/>
<path d="M97.125 14.6445C95.3672 14.6445 93.9609 16.0508 93.9609 17.75C93.9609 19.5078 95.3672 20.9141 97.125 20.9141C98.8242 20.9141 100.23 19.5078 100.23 17.75C100.23 16.0508 98.8242 14.6445 97.125 14.6445ZM104.391 12.2422C104.098 11.4219 103.453 10.7773 102.633 10.4844C101.402 9.95703 98.4727 10.0742 97.125 10.0742C95.7188 10.0742 92.7891 9.95703 91.5586 10.4844C90.7383 10.7773 90.0938 11.4219 89.8008 12.2422C89.332 13.4727 89.3906 16.4023 89.3906 17.75C89.3906 19.1562 89.332 22.0859 89.8008 23.3164C90.0938 24.1367 90.7383 24.7812 91.5586 25.0742C92.7891 25.6016 95.7188 25.4844 97.125 25.4844C98.4727 25.4844 101.402 25.6016 102.633 25.0742C103.453 24.7812 104.098 24.1367 104.391 23.3164C104.918 22.0859 104.801 19.1562 104.801 17.75C104.801 16.4023 104.918 13.4727 104.391 12.2422ZM97.125 22.5547C94.4297 22.5547 92.3203 20.4453 92.3203 17.75C92.3203 15.1133 94.4297 12.9453 97.125 12.9453C99.7617 12.9453 101.93 15.1133 101.93 17.75V17.8086C101.93 20.4453 99.7617 22.6133 97.125 22.6133V22.5547ZM102.105 13.8828C101.461 13.8828 100.992 13.4141 100.992 12.7695C100.992 12.125 101.461 11.6562 102.105 11.6562C102.691 11.6562 103.219 12.125 103.219 12.7695C103.219 13.4141 102.691 13.8828 102.105 13.8828ZM107.438 4.625H86.8125C85.2305 4.625 84 5.91406 84 7.4375V28.0625C84 29.6445 85.2305 30.875 86.8125 30.875H107.438C108.961 30.875 110.25 29.6445 110.25 28.0625V7.4375C110.25 5.91406 108.961 4.625 107.438 4.625ZM106.383 21.6172C106.324 23.1406 105.973 24.4883 104.918 25.543C103.805 26.6562 102.457 27.0078 100.992 27.0664C99.4102 27.1836 94.7812 27.1836 93.2578 27.0664C91.7344 27.0078 90.3867 26.6562 89.332 25.543C88.2188 24.4883 87.8672 23.1406 87.8086 21.6172C87.6914 20.0938 87.6914 15.4648 87.8086 13.8828C87.8672 12.418 88.2188 11.0703 89.332 9.95703C90.3867 8.90234 91.7344 8.55078 93.2578 8.49219C94.7812 8.375 99.4102 8.375 100.992 8.49219C102.457 8.55078 103.805 8.90234 104.918 10.0156C105.973 11.0703 106.324 12.418 106.383 13.9414C106.5 15.4648 106.5 20.0938 106.383 21.6172Z" fill="#757575"/>
<path d="M150.375 4.625H127.816C126.82 4.625 126 5.50391 126 6.55859V29C126 30.0547 126.82 30.875 127.816 30.875H150.375C151.371 30.875 152.25 30.0547 152.25 29V6.55859C152.25 5.50391 151.371 4.625 150.375 4.625ZM133.91 27.125H130.043V14.6445H133.91V27.125ZM131.977 12.8867C130.688 12.8867 129.691 11.8906 129.691 10.6602C129.691 9.42969 130.688 8.375 131.977 8.375C133.207 8.375 134.203 9.42969 134.203 10.6602C134.203 11.8906 133.207 12.8867 131.977 12.8867ZM148.5 27.125H144.574V21.0312C144.574 19.625 144.574 17.75 142.582 17.75C140.531 17.75 140.238 19.332 140.238 20.9727V27.125H136.371V14.6445H140.062V16.3438H140.121C140.648 15.3477 141.938 14.293 143.812 14.293C147.738 14.293 148.5 16.9297 148.5 20.2695V27.125Z" fill="#757575"/>
</svg>
