<svg width="374" height="465" viewBox="0 0 374 465" fill="none" xmlns="http://www.w3.org/2000/svg">
<path d="M357.798 291.178C368.967 277.14 383.754 245.906 353.551 233.271" stroke="white" stroke-width="5"/>
<path d="M29.8156 302.476C9.5925 286.44 -17.683 249.295 35 229" stroke="white" stroke-width="5"/>
<g filter="url(#filter0_d_38_866)">
<ellipse cx="192.5" cy="291" rx="172.5" ry="166" fill="#D4B793"/>
</g>
<path d="M203.922 71.8489C203.333 83.6853 181.718 92.2278 155.645 90.9292C129.572 89.6306 108.913 78.9826 109.502 67.1462C110.092 55.3098 131.521 37.0194 157.594 38.318C183.668 39.6166 204.512 60.0126 203.922 71.8489Z" fill="#B3B3B3"/>
<ellipse cx="177.435" cy="35.5" rx="17" ry="17.5" fill="#B3B3B3"/>
<ellipse cx="188.435" cy="35" rx="39" ry="35" fill="#B3B3B3"/>
<g filter="url(#filter1_df_38_866)">
<ellipse cx="196.935" cy="292" rx="167.5" ry="162" fill="#795B53"/>
</g>
<path d="M154.978 64.4778C155.875 62.9433 157.518 62 159.296 62H261.981C264.569 62 266.73 63.9748 266.961 66.5524L269.292 92.4821C269.385 93.5185 269.152 94.5581 268.627 95.456L259.052 111.809C258.676 112.452 258.447 113.172 258.385 113.915L256.052 141.602C255.807 144.511 253.133 146.592 250.253 146.115L207.963 139.113C207.434 139.026 206.895 139.024 206.366 139.107L161.708 146.165C158.85 146.617 156.206 144.556 155.947 141.674L152.518 103.525C152.434 102.59 152.089 101.698 151.521 100.95L143.454 90.3211C142.232 88.7105 142.1 86.5221 143.12 84.7762L154.978 64.4778Z" fill="#B3B3B3"/>
<ellipse cx="249.935" cy="40.5" rx="37.5" ry="35.5" fill="#B3B3B3"/>
<ellipse cx="271.935" cy="69" rx="41.5" ry="37" fill="#B3B3B3"/>
<g filter="url(#filter2_d_38_866)">
<path d="M365 290.639C365 382.518 288.628 457 193.144 457C97.661 457 20.2565 382.518 20.2565 290.639C14.0635 248.536 121.409 302.962 193.144 324.528C278.298 290.639 365 237.24 365 290.639Z" fill="white"/>
</g>
<g filter="url(#filter3_i_38_866)">
<ellipse cx="196.935" cy="292" rx="34.5" ry="33" fill="#895C4C"/>
</g>
<g filter="url(#filter4_d_38_866)">
<ellipse cx="303.435" cy="143.5" rx="35" ry="35.5" fill="#D4B793"/>
</g>
<g filter="url(#filter5_d_38_866)">
<ellipse cx="198.435" cy="221.5" rx="30" ry="29.5" fill="#D4B793"/>
</g>
<g filter="url(#filter6_d_38_866)">
<ellipse cx="300.435" cy="149.5" rx="29" ry="29.5" fill="#795B53"/>
</g>
<g filter="url(#filter7_d_38_866)">
<ellipse cx="259.435" cy="204" rx="12" ry="11" fill="#59423D"/>
</g>
<g filter="url(#filter8_d_38_866)">
<ellipse cx="196.935" cy="208" rx="10.5" ry="10" fill="#785952"/>
</g>
<g filter="url(#filter9_d_38_866)">
<path d="M147.435 205.5C147.435 212.404 141.391 218 133.935 218C126.479 218 120.435 212.404 120.435 205.5C120.435 198.596 126.479 193 133.935 193C141.391 193 147.435 198.596 147.435 205.5Z" fill="#59423D"/>
</g>
<g filter="url(#filter10_d_38_866)">
<path d="M197.435 216.5L197.501 216.744C199.698 224.905 205.078 231.842 212.435 236V236" stroke="#785952" stroke-width="5"/>
</g>
<g filter="url(#filter11_d_38_866)">
<path d="M196.435 211L195.943 213.196C193.861 222.492 188.315 230.646 180.435 236V236" stroke="#785952" stroke-width="5"/>
</g>
<g filter="url(#filter12_d_38_866)">
<ellipse cx="101.435" cy="143.5" rx="35" ry="35.5" fill="#D4B793"/>
</g>
<g filter="url(#filter13_d_38_866)">
<ellipse cx="104.435" cy="149.5" rx="29" ry="29.5" fill="#795B53"/>
<ellipse cx="104.435" cy="149.5" rx="29" ry="29.5" fill="#795B53"/>
</g>
<path d="M165.705 137.407C163.062 137.407 163.435 138.249 161.779 139.906C160.929 140.755 159.341 141.703 158.879 142.627" stroke="#B3B3B3" stroke-width="5" stroke-linecap="round"/>
<path d="M164.5 138.612C163.958 139.222 163.62 139.855 162.894 140.218" stroke="#B3B3B3" stroke-width="5" stroke-linecap="round"/>
<path d="M164.099 137.809C163.924 139.205 162.044 139.875 161.288 140.82C160.759 141.482 159.716 143.012 158.879 143.43" stroke="#B3B3B3" stroke-width="5" stroke-linecap="round"/>
<path d="M258.458 103.277C257.631 102.45 256.802 101.716 256.049 100.868C255.316 100.044 255.082 98.6155 254.443 97.656" stroke="#B3B3B3" stroke-width="5" stroke-linecap="round"/>
<ellipse cx="189.435" cy="40" rx="39" ry="35" fill="#D9D9D9"/>
<ellipse cx="249.935" cy="45.5" rx="37.5" ry="35.5" fill="#D9D9D9"/>
<ellipse cx="268.935" cy="69" rx="40.5" ry="34" fill="#D9D9D9"/>
<path d="M208.87 72.3126C208.309 83.5652 186.718 91.6344 160.645 90.3358C134.572 89.0372 113.889 78.8624 114.45 67.6099C115.01 56.3574 136.392 39.0194 162.465 40.318C188.539 41.6166 209.43 61.0601 208.87 72.3126Z" fill="#D9D9D9"/>
<ellipse cx="182.435" cy="38.5" rx="17" ry="17.5" fill="#D9D9D9"/>
<path d="M160.38 61.6706C161.245 60.0282 162.948 59 164.804 59H255.256C257.861 59 260.029 60.9999 260.24 63.5963L262.317 89.2479C262.394 90.1951 262.199 91.1445 261.756 91.9849L253.163 108.27C252.843 108.876 252.651 109.541 252.6 110.225L250.532 137.456C250.307 140.418 247.564 142.532 244.642 141.995L207.858 135.238C207.274 135.13 206.676 135.128 206.091 135.231L167.191 142.052C164.291 142.561 161.581 140.466 161.343 137.531L158.299 99.946C158.229 99.0788 157.933 98.2449 157.442 97.5268L150.136 86.845C149.089 85.3154 148.975 83.3326 149.838 81.6928L160.38 61.6706Z" fill="#D9D9D9"/>
<path d="M259.524 105.299C259.231 102.956 252.118 100 249.941 99.1295C244.591 96.9897 239.404 94.6913 233.827 93.452C229.633 92.5199 225.657 93.4848 221.685 93.4848C218.54 93.4848 213.73 92.9025 211.085 94.6663" stroke="#B3B3B3" stroke-width="5" stroke-linecap="round"/>
<path d="M311.307 315.968C311.16 314.457 309.991 310.501 308.676 309.707C307.408 308.941 305.263 308.359 304.543 310.393C303.967 312.02 302.422 313.977 303.228 315.796C304.257 318.122 306.353 319.247 308.134 320.985C309.217 322.042 310.711 324.103 312.058 324.758C314.627 326.007 317.372 322.088 318.822 320.599C320.295 319.086 322.458 315.853 322.58 313.652C322.623 312.873 323.267 311.717 322.872 310.951C322.437 310.106 321.147 310.393 320.492 309.965C317.48 307.996 314.856 310.945 314.689 314.038C314.65 314.757 314.361 317.29 313.854 317.811C313.11 318.576 311.439 315.576 311.286 315.024C310.851 313.461 309.472 313.838 308.489 313.052C307.015 311.875 305.998 314.203 306.881 315.11C308.117 316.38 308.378 311.3 307.361 312.344C306.607 313.119 306.161 316.74 307.549 316.74" stroke="#D49393" stroke-width="5" stroke-linecap="round"/>
<path d="M306 313.407C306 315.661 307.839 316.666 309.054 318.119C309.588 318.759 309.656 319.461 310.003 320.209C310.838 322.008 309.864 318.924 310.292 319.253C311.944 320.524 311.464 322.713 313.883 321.009C315.502 319.869 317.514 317.895 317.514 315.63C317.514 314.497 317.991 314.112 318.237 313.185C318.463 312.33 319 314.691 319 315.207C319 316.433 318.835 316.385 318.071 317.208C317.259 318.084 317.312 318.3 316.854 319.409C316.158 321.095 315.602 322.313 314.378 323.632C313.102 325.007 312.11 322.17 311.571 321.009" stroke="#D49393" stroke-width="5" stroke-linecap="round"/>
<path d="M306.815 313C305.779 313 306.026 313.476 306.026 314.123C306.026 315.132 306.698 314.994 308 314.994" stroke="#D49393" stroke-width="5" stroke-linecap="round"/>
<path d="M291 355.956C291 396.849 246.676 430 192 430C137.324 430 93 396.849 93 355.956C93 315.062 137.324 346.622 192 346.622C246.676 346.622 291 315.062 291 355.956Z" fill="#D9D9D9"/>
<path d="M192 426.5C191.669 426.5 191.339 426.499 191.009 426.496L191.005 426.996C190.342 426.991 189.681 426.98 189.022 426.965L189.034 426.465C188.376 426.449 187.72 426.429 187.066 426.403L187.047 426.902C186.383 426.876 185.721 426.845 185.062 426.808L185.09 426.309C184.433 426.272 183.777 426.23 183.124 426.184L183.089 426.682C182.427 426.635 181.768 426.582 181.11 426.525L181.154 426.026C180.497 425.969 179.843 425.906 179.191 425.838L179.139 426.335C178.481 426.266 177.825 426.193 177.171 426.114L177.231 425.617C176.575 425.538 175.922 425.454 175.272 425.364L175.203 425.86C174.549 425.77 173.897 425.674 173.248 425.574L173.324 425.08C172.671 424.979 172.02 424.873 171.371 424.762L171.287 425.255C170.636 425.143 169.987 425.026 169.342 424.904L169.435 424.413C168.785 424.29 168.138 424.162 167.495 424.03L167.394 424.519C166.746 424.386 166.101 424.247 165.459 424.103L165.568 423.615C164.924 423.47 164.284 423.321 163.646 423.166L163.528 423.652C162.884 423.496 162.244 423.335 161.606 423.169L161.732 422.685C161.095 422.519 160.461 422.347 159.83 422.171L159.695 422.652C159.057 422.474 158.421 422.29 157.789 422.101L157.932 421.622C157.302 421.434 156.675 421.24 156.052 421.042L155.9 421.518C155.268 421.317 154.639 421.11 154.013 420.899L154.173 420.425C153.551 420.214 152.932 419.999 152.317 419.778L152.148 420.249C151.523 420.024 150.901 419.795 150.284 419.56L150.461 419.093C149.846 418.859 149.236 418.62 148.629 418.377L148.443 418.841C147.826 418.593 147.214 418.341 146.607 418.083L146.802 417.623C146.196 417.366 145.594 417.104 144.997 416.838L144.793 417.294C144.187 417.024 143.586 416.748 142.989 416.468L143.202 416.015C142.606 415.735 142.014 415.45 141.428 415.16L141.206 415.608C140.612 415.314 140.022 415.015 139.437 414.711L139.668 414.267C139.084 413.963 138.504 413.654 137.93 413.341L137.69 413.78C137.108 413.462 136.531 413.139 135.96 412.811L136.209 412.378C135.637 412.05 135.071 411.717 134.51 411.38L134.252 411.808C133.684 411.466 133.122 411.119 132.565 410.768L132.832 410.345C132.275 409.993 131.724 409.637 131.178 409.275L130.902 409.692C130.35 409.326 129.803 408.955 129.262 408.579L129.548 408.168C129.007 407.792 128.472 407.411 127.944 407.026L127.649 407.429C127.114 407.039 126.584 406.643 126.062 406.242L126.366 405.846C125.843 405.445 125.327 405.04 124.817 404.63L124.504 405.02C123.987 404.604 123.477 404.183 122.974 403.758L123.297 403.376C122.795 402.952 122.299 402.522 121.811 402.088L121.479 402.462C120.983 402.021 120.494 401.575 120.013 401.125L120.354 400.76C119.874 400.311 119.402 399.857 118.937 399.399L118.586 399.755C118.113 399.289 117.648 398.819 117.191 398.343L117.551 397.997C117.096 397.524 116.649 397.046 116.209 396.564L115.84 396.9C115.392 396.409 114.953 395.914 114.523 395.414L114.902 395.088C114.474 394.59 114.054 394.089 113.643 393.583L113.255 393.898C112.836 393.383 112.426 392.863 112.025 392.339L112.422 392.035C112.023 391.513 111.633 390.988 111.253 390.458L110.847 390.749C110.46 390.211 110.082 389.668 109.714 389.121L110.129 388.842C109.762 388.297 109.405 387.748 109.058 387.195L108.635 387.461C108.282 386.9 107.94 386.335 107.608 385.766L108.04 385.514C107.709 384.947 107.387 384.376 107.077 383.801L106.637 384.039C106.322 383.457 106.018 382.871 105.725 382.282L106.172 382.059C105.879 381.471 105.597 380.88 105.326 380.285L104.871 380.492C104.597 379.891 104.334 379.286 104.082 378.677L104.544 378.486C104.293 377.88 104.053 377.27 103.824 376.657L103.356 376.832C103.125 376.213 102.905 375.59 102.697 374.964L103.171 374.807C102.965 374.185 102.77 373.56 102.586 372.933L102.107 373.073C101.921 372.439 101.748 371.802 101.587 371.161L102.071 371.039C101.911 370.405 101.763 369.768 101.627 369.127L101.138 369.231C101.001 368.586 100.876 367.938 100.763 367.287L101.256 367.202C101.144 366.557 101.045 365.91 100.957 365.261L100.462 365.327C100.374 364.674 100.299 364.019 100.236 363.361L100.734 363.314C100.671 362.664 100.622 362.011 100.584 361.356L100.085 361.385C100.047 360.728 100.022 360.068 100.009 359.406L100.509 359.396C100.503 359.069 100.5 358.74 100.5 358.412C100.5 358.057 100.504 357.708 100.511 357.365L100.011 357.355C100.026 356.662 100.055 355.993 100.099 355.348L100.598 355.381C100.645 354.679 100.71 354.006 100.791 353.36L100.295 353.298C100.383 352.602 100.49 351.937 100.616 351.301L101.107 351.398C101.24 350.727 101.394 350.09 101.569 349.488L101.089 349.348C101.287 348.666 101.511 348.025 101.76 347.421L102.222 347.612C102.484 346.979 102.775 346.391 103.092 345.846L102.66 345.594C103.011 344.991 103.396 344.435 103.813 343.925L104.2 344.242C104.618 343.731 105.07 343.269 105.554 342.852L105.227 342.473C105.74 342.031 106.289 341.636 106.872 341.287L107.129 341.715C107.678 341.386 108.261 341.097 108.877 340.846L108.689 340.383C109.301 340.134 109.944 339.921 110.615 339.744L110.743 340.227C111.361 340.063 112.006 339.929 112.678 339.822L112.6 339.328C113.25 339.225 113.922 339.148 114.616 339.094L114.654 339.593C115.301 339.543 115.968 339.513 116.655 339.504L116.647 339.004C117.311 338.994 117.992 339.003 118.689 339.028L118.671 339.527C119.327 339.551 119.998 339.589 120.685 339.64L120.723 339.142C121.38 339.191 122.051 339.253 122.735 339.326L122.682 339.823C123.34 339.893 124.01 339.974 124.692 340.064L124.758 339.569C125.422 339.657 126.097 339.754 126.783 339.859L126.708 340.353C127.359 340.453 128.02 340.56 128.692 340.674L128.775 340.181C129.436 340.293 130.106 340.411 130.785 340.535L130.695 341.027C131.351 341.147 132.015 341.272 132.688 341.402L132.783 340.912C133.439 341.038 134.102 341.17 134.773 341.305L134.675 341.795C135.335 341.928 136.002 342.064 136.677 342.204L136.779 341.715C137.431 341.85 138.09 341.988 138.756 342.129L138.652 342.618C139.313 342.758 139.98 342.9 140.653 343.044L140.758 342.556C141.411 342.695 142.07 342.837 142.734 342.98L142.629 343.469L144.626 343.899L144.731 343.41C145.386 343.551 146.046 343.693 146.712 343.835L146.607 344.324C147.267 344.466 147.933 344.607 148.604 344.749L148.707 344.26C149.364 344.399 150.025 344.538 150.692 344.677L150.59 345.167C151.251 345.305 151.918 345.443 152.589 345.58L152.689 345.09C153.347 345.224 154.01 345.358 154.677 345.491L154.579 345.982C155.243 346.114 155.911 346.246 156.583 346.376L156.679 345.885C157.339 346.013 158.002 346.14 158.67 346.265L158.578 346.756C159.245 346.881 159.915 347.004 160.589 347.126L160.678 346.634C161.339 346.753 162.004 346.871 162.673 346.986L162.588 347.479C163.257 347.594 163.93 347.708 164.607 347.819L164.688 347.325C165.351 347.434 166.017 347.541 166.687 347.645L166.61 348.139C167.281 348.243 167.955 348.344 168.632 348.443L168.704 347.948C169.371 348.045 170.04 348.14 170.712 348.231L170.645 348.726C171.317 348.818 171.992 348.906 172.67 348.991L172.732 348.494C173.402 348.578 174.074 348.659 174.749 348.736L174.693 349.232C175.366 349.309 176.042 349.382 176.72 349.452L176.771 348.954C177.444 349.023 178.119 349.088 178.797 349.149L178.752 349.647C179.426 349.708 180.103 349.765 180.782 349.818L180.821 349.319C181.496 349.372 182.174 349.42 182.855 349.464L182.822 349.963C183.497 350.007 184.174 350.046 184.853 350.08L184.879 349.581C185.556 349.616 186.235 349.646 186.916 349.671L186.897 350.17C187.574 350.195 188.252 350.216 188.932 350.231L188.944 349.731C189.62 349.747 190.298 349.757 190.979 349.762L190.975 350.262C191.316 350.265 191.658 350.266 192 350.266C192.342 350.266 192.684 350.265 193.025 350.262L193.021 349.762C193.702 349.757 194.38 349.747 195.056 349.731L195.068 350.231C195.748 350.216 196.426 350.195 197.103 350.17L197.084 349.671C197.765 349.646 198.444 349.616 199.121 349.581L199.147 350.08C199.826 350.046 200.503 350.007 201.178 349.963L201.146 349.464C201.826 349.42 202.504 349.372 203.179 349.319L203.218 349.818C203.897 349.765 204.574 349.708 205.248 349.647L205.203 349.149C205.881 349.088 206.556 349.023 207.229 348.954L207.28 349.452C207.958 349.382 208.634 349.309 209.307 349.232L209.251 348.736C209.926 348.659 210.598 348.578 211.268 348.494L211.33 348.991C212.008 348.906 212.683 348.818 213.355 348.726L213.288 348.231C213.96 348.14 214.629 348.045 215.296 347.948L215.368 348.443C216.045 348.344 216.719 348.243 217.39 348.139L217.313 347.645C217.983 347.541 218.649 347.434 219.312 347.325L219.393 347.819C220.07 347.708 220.743 347.594 221.412 347.479L221.327 346.986C221.996 346.871 222.661 346.753 223.322 346.634L223.411 347.126C224.085 347.004 224.756 346.881 225.422 346.756L225.33 346.265C225.998 346.14 226.661 346.013 227.321 345.885L227.417 346.376C228.089 346.246 228.757 346.114 229.421 345.982L229.323 345.491C229.99 345.358 230.653 345.224 231.311 345.09L231.411 345.58C232.082 345.443 232.749 345.305 233.41 345.167L233.308 344.677C233.975 344.538 234.636 344.399 235.293 344.26L235.396 344.749C236.067 344.607 236.733 344.466 237.393 344.324L237.288 343.835C237.954 343.693 238.614 343.551 239.269 343.41L239.374 343.899L241.371 343.469L241.266 342.98C241.93 342.837 242.589 342.695 243.242 342.556L243.347 343.044C244.02 342.9 244.687 342.758 245.348 342.618L245.244 342.129C245.91 341.988 246.569 341.85 247.221 341.715L247.323 342.204C247.998 342.064 248.665 341.928 249.325 341.795L249.227 341.305C249.898 341.17 250.561 341.038 251.217 340.912L251.312 341.402C251.985 341.272 252.649 341.147 253.305 341.027L253.215 340.535C253.894 340.411 254.564 340.293 255.225 340.181L255.308 340.674C255.98 340.56 256.641 340.453 257.292 340.353L257.217 339.859C257.903 339.754 258.578 339.657 259.242 339.569L259.308 340.064C259.99 339.974 260.66 339.893 261.318 339.823L261.265 339.326C261.949 339.253 262.62 339.191 263.277 339.142L263.315 339.64C264.002 339.589 264.673 339.551 265.329 339.527L265.311 339.028C266.008 339.003 266.689 338.994 267.353 339.004L267.345 339.504C268.032 339.513 268.699 339.543 269.346 339.593L269.384 339.094C270.078 339.148 270.75 339.225 271.4 339.328L271.322 339.822C271.994 339.929 272.639 340.063 273.257 340.227L273.385 339.744C274.056 339.921 274.699 340.134 275.311 340.383L275.123 340.846C275.739 341.097 276.322 341.386 276.871 341.716L277.128 341.287C277.711 341.636 278.26 342.031 278.773 342.473L278.446 342.852C278.93 343.269 279.382 343.731 279.8 344.242L280.187 343.925C280.604 344.435 280.989 344.991 281.34 345.594L280.908 345.846C281.225 346.391 281.516 346.979 281.778 347.612L282.24 347.421C282.489 348.025 282.713 348.667 282.911 349.348L282.431 349.488C282.606 350.091 282.76 350.727 282.893 351.398L283.384 351.301C283.51 351.937 283.617 352.602 283.705 353.298L283.209 353.36C283.29 354.006 283.355 354.679 283.402 355.381L283.901 355.348C283.945 355.993 283.974 356.662 283.989 357.355L283.489 357.366C283.496 357.708 283.5 358.057 283.5 358.412C283.5 358.74 283.497 359.069 283.491 359.397L283.991 359.406C283.978 360.068 283.953 360.728 283.915 361.385L283.416 361.356C283.378 362.011 283.329 362.664 283.266 363.314L283.764 363.361C283.701 364.019 283.626 364.675 283.538 365.327L283.043 365.261C282.955 365.91 282.856 366.557 282.744 367.202L283.237 367.287C283.124 367.938 282.999 368.586 282.862 369.231L282.373 369.127C282.237 369.768 282.089 370.405 281.929 371.039L282.413 371.162C282.252 371.802 282.079 372.439 281.893 373.073L281.413 372.933C281.23 373.561 281.035 374.185 280.829 374.807L281.303 374.964C281.095 375.59 280.875 376.213 280.644 376.832L280.176 376.657C279.947 377.27 279.707 377.88 279.456 378.486L279.918 378.677C279.666 379.286 279.403 379.891 279.129 380.492L278.674 380.285C278.403 380.88 278.12 381.471 277.828 382.059L278.275 382.282C277.982 382.871 277.678 383.457 277.363 384.039L276.923 383.801C276.613 384.376 276.291 384.947 275.96 385.514L276.392 385.766C276.06 386.335 275.718 386.9 275.365 387.461L274.942 387.195C274.595 387.748 274.238 388.297 273.871 388.842L274.286 389.121C273.918 389.668 273.54 390.211 273.153 390.749L272.747 390.458C272.367 390.988 271.977 391.513 271.578 392.035L271.975 392.339C271.574 392.863 271.164 393.383 270.745 393.898L270.357 393.583C269.946 394.089 269.526 394.59 269.098 395.088L269.477 395.414C269.047 395.914 268.608 396.409 268.16 396.9L267.791 396.564C267.351 397.046 266.904 397.524 266.449 397.997L266.809 398.343C266.352 398.819 265.887 399.289 265.414 399.755L265.063 399.399C264.598 399.857 264.126 400.311 263.646 400.76L263.987 401.125C263.506 401.575 263.017 402.021 262.521 402.462L262.189 402.088C261.701 402.522 261.205 402.951 260.703 403.376L261.026 403.758C260.523 404.183 260.013 404.604 259.496 405.02L259.183 404.63C258.673 405.04 258.157 405.445 257.634 405.846L257.938 406.242C257.416 406.643 256.886 407.039 256.351 407.429L256.056 407.026C255.528 407.411 254.993 407.792 254.452 408.168L254.738 408.579C254.197 408.955 253.65 409.326 253.098 409.692L252.822 409.275C252.276 409.637 251.725 409.993 251.168 410.345L251.435 410.768C250.878 411.119 250.316 411.466 249.748 411.808L249.49 411.38C248.929 411.717 248.363 412.05 247.791 412.378L248.04 412.811C247.469 413.139 246.892 413.462 246.31 413.78L246.07 413.341C245.496 413.654 244.916 413.963 244.332 414.267L244.563 414.711C243.978 415.015 243.388 415.314 242.794 415.608L242.572 415.16C241.986 415.45 241.394 415.735 240.798 416.015L241.011 416.468C240.414 416.748 239.813 417.024 239.207 417.294L239.003 416.838C238.406 417.104 237.804 417.366 237.198 417.623L237.393 418.083C236.786 418.341 236.174 418.593 235.557 418.841L235.371 418.377C234.764 418.62 234.154 418.859 233.539 419.093L233.716 419.56C233.099 419.795 232.477 420.024 231.852 420.249L231.683 419.778C231.068 419.999 230.449 420.214 229.826 420.425L229.987 420.899C229.361 421.11 228.732 421.317 228.1 421.518L227.948 421.042C227.325 421.24 226.698 421.434 226.067 421.622L226.211 422.101C225.579 422.29 224.943 422.474 224.305 422.652L224.17 422.171C223.539 422.347 222.905 422.519 222.267 422.685L222.394 423.169C221.756 423.335 221.116 423.496 220.472 423.652L220.354 423.166C219.716 423.321 219.076 423.47 218.432 423.615L218.541 424.103C217.899 424.247 217.254 424.386 216.606 424.519L216.505 424.03C215.861 424.163 215.215 424.29 214.565 424.413L214.658 424.904C214.012 425.026 213.364 425.143 212.713 425.255L212.628 424.762C211.98 424.873 211.329 424.979 210.676 425.08L210.752 425.574C210.103 425.674 209.451 425.77 208.796 425.86L208.728 425.364C208.078 425.454 207.424 425.538 206.769 425.617L206.829 426.114C206.175 426.193 205.519 426.266 204.861 426.335L204.809 425.838C204.157 425.906 203.503 425.969 202.846 426.026L202.89 426.525C202.232 426.582 201.573 426.635 200.911 426.682L200.876 426.184C200.222 426.23 199.567 426.272 198.91 426.309L198.938 426.808C198.278 426.845 197.617 426.876 196.953 426.902L196.934 426.403C196.28 426.429 195.624 426.449 194.966 426.465L194.978 426.965C194.319 426.98 193.658 426.991 192.995 426.996L192.991 426.496C192.661 426.499 192.331 426.5 192 426.5Z" stroke="#DD9696" stroke-dasharray="2 2"/>
<path d="M357.798 291.178C368.967 277.14 383.754 245.906 353.551 233.271" stroke="white" stroke-width="5"/>
<path d="M29.8156 302.476C9.5925 286.44 -17.683 249.295 35 229" stroke="white" stroke-width="5"/>
<g filter="url(#filter14_d_38_866)">
<ellipse cx="192.5" cy="291" rx="172.5" ry="166" fill="#D4B793"/>
</g>
<path d="M203.922 71.8489C203.333 83.6853 181.718 92.2278 155.645 90.9292C129.572 89.6306 108.913 78.9826 109.502 67.1462C110.092 55.3098 131.521 37.0194 157.594 38.318C183.668 39.6166 204.512 60.0126 203.922 71.8489Z" fill="#B3B3B3"/>
<ellipse cx="177.435" cy="35.5" rx="17" ry="17.5" fill="#B3B3B3"/>
<ellipse cx="188.435" cy="35" rx="39" ry="35" fill="#B3B3B3"/>
<g filter="url(#filter15_df_38_866)">
<ellipse cx="196.935" cy="292" rx="167.5" ry="162" fill="#795B53"/>
</g>
<path d="M154.978 64.4778C155.875 62.9433 157.518 62 159.296 62H261.981C264.569 62 266.73 63.9748 266.961 66.5524L269.292 92.4821C269.385 93.5185 269.152 94.5581 268.627 95.456L259.052 111.809C258.676 112.452 258.447 113.172 258.385 113.915L256.052 141.602C255.807 144.511 253.133 146.592 250.253 146.115L207.963 139.113C207.434 139.026 206.895 139.024 206.366 139.107L161.708 146.165C158.85 146.617 156.206 144.556 155.947 141.674L152.518 103.525C152.434 102.59 152.089 101.698 151.521 100.95L143.454 90.3211C142.232 88.7105 142.1 86.5221 143.12 84.7762L154.978 64.4778Z" fill="#B3B3B3"/>
<ellipse cx="249.935" cy="40.5" rx="37.5" ry="35.5" fill="#B3B3B3"/>
<ellipse cx="271.935" cy="69" rx="41.5" ry="37" fill="#B3B3B3"/>
<g filter="url(#filter16_d_38_866)">
<path d="M365 290.639C365 382.518 288.628 457 193.144 457C97.661 457 20.2565 382.518 20.2565 290.639C14.0635 248.536 121.409 302.962 193.144 324.528C278.298 290.639 365 237.24 365 290.639Z" fill="white"/>
</g>
<g filter="url(#filter17_i_38_866)">
<ellipse cx="196.935" cy="292" rx="34.5" ry="33" fill="#895C4C"/>
</g>
<g filter="url(#filter18_d_38_866)">
<ellipse cx="303.435" cy="143.5" rx="35" ry="35.5" fill="#D4B793"/>
</g>
<g filter="url(#filter19_d_38_866)">
<ellipse cx="198.435" cy="221.5" rx="30" ry="29.5" fill="#D4B793"/>
</g>
<g filter="url(#filter20_d_38_866)">
<ellipse cx="300.435" cy="149.5" rx="29" ry="29.5" fill="#795B53"/>
</g>
<g filter="url(#filter21_d_38_866)">
<ellipse cx="259.435" cy="204" rx="12" ry="11" fill="#59423D"/>
</g>
<g filter="url(#filter22_d_38_866)">
<ellipse cx="196.935" cy="208" rx="10.5" ry="10" fill="#785952"/>
</g>
<g filter="url(#filter23_d_38_866)">
<path d="M147.435 205.5C147.435 212.404 141.391 218 133.935 218C126.479 218 120.435 212.404 120.435 205.5C120.435 198.596 126.479 193 133.935 193C141.391 193 147.435 198.596 147.435 205.5Z" fill="#59423D"/>
</g>
<g filter="url(#filter24_d_38_866)">
<path d="M197.435 216.5L197.501 216.744C199.698 224.905 205.078 231.842 212.435 236V236" stroke="#785952" stroke-width="5"/>
</g>
<g filter="url(#filter25_d_38_866)">
<path d="M196.435 211L195.943 213.196C193.861 222.492 188.315 230.646 180.435 236V236" stroke="#785952" stroke-width="5"/>
</g>
<g filter="url(#filter26_d_38_866)">
<ellipse cx="101.435" cy="143.5" rx="35" ry="35.5" fill="#D4B793"/>
</g>
<g filter="url(#filter27_d_38_866)">
<ellipse cx="104.435" cy="149.5" rx="29" ry="29.5" fill="#795B53"/>
<ellipse cx="104.435" cy="149.5" rx="29" ry="29.5" fill="#795B53"/>
</g>
<path d="M165.705 137.407C163.062 137.407 163.435 138.249 161.779 139.906C160.929 140.755 159.341 141.703 158.879 142.627" stroke="#B3B3B3" stroke-width="5" stroke-linecap="round"/>
<path d="M164.5 138.612C163.958 139.222 163.62 139.855 162.894 140.218" stroke="#B3B3B3" stroke-width="5" stroke-linecap="round"/>
<path d="M164.099 137.809C163.924 139.205 162.044 139.875 161.288 140.82C160.759 141.482 159.716 143.012 158.879 143.43" stroke="#B3B3B3" stroke-width="5" stroke-linecap="round"/>
<path d="M258.458 103.277C257.631 102.45 256.802 101.716 256.049 100.868C255.316 100.044 255.082 98.6155 254.443 97.656" stroke="#B3B3B3" stroke-width="5" stroke-linecap="round"/>
<ellipse cx="189.435" cy="40" rx="39" ry="35" fill="#D9D9D9"/>
<ellipse cx="249.935" cy="45.5" rx="37.5" ry="35.5" fill="#D9D9D9"/>
<ellipse cx="268.935" cy="69" rx="40.5" ry="34" fill="#D9D9D9"/>
<path d="M208.87 72.3126C208.309 83.5652 186.718 91.6344 160.645 90.3358C134.572 89.0372 113.889 78.8624 114.45 67.6099C115.01 56.3574 136.392 39.0194 162.465 40.318C188.539 41.6166 209.43 61.0601 208.87 72.3126Z" fill="#D9D9D9"/>
<ellipse cx="182.435" cy="38.5" rx="17" ry="17.5" fill="#D9D9D9"/>
<path d="M160.38 61.6706C161.245 60.0282 162.948 59 164.804 59H255.256C257.861 59 260.029 60.9999 260.24 63.5963L262.317 89.2479C262.394 90.1951 262.199 91.1445 261.756 91.9849L253.163 108.27C252.843 108.876 252.651 109.541 252.6 110.225L250.532 137.456C250.307 140.418 247.564 142.532 244.642 141.995L207.858 135.238C207.274 135.13 206.676 135.128 206.091 135.231L167.191 142.052C164.291 142.561 161.581 140.466 161.343 137.531L158.299 99.946C158.229 99.0788 157.933 98.2449 157.442 97.5268L150.136 86.845C149.089 85.3154 148.975 83.3326 149.838 81.6928L160.38 61.6706Z" fill="#D9D9D9"/>
<path d="M259.524 105.299C259.231 102.956 252.118 100 249.941 99.1295C244.591 96.9897 239.404 94.6913 233.827 93.452C229.633 92.5199 225.657 93.4848 221.685 93.4848C218.54 93.4848 213.73 92.9025 211.085 94.6663" stroke="#B3B3B3" stroke-width="5" stroke-linecap="round"/>
<path d="M311.307 315.968C311.16 314.457 309.991 310.501 308.676 309.707C307.408 308.941 305.263 308.359 304.543 310.393C303.967 312.02 302.422 313.977 303.228 315.796C304.257 318.122 306.353 319.247 308.134 320.985C309.217 322.042 310.711 324.103 312.058 324.758C314.627 326.007 317.372 322.088 318.822 320.599C320.295 319.086 322.458 315.853 322.58 313.652C322.623 312.873 323.267 311.717 322.872 310.951C322.437 310.106 321.147 310.393 320.492 309.965C317.48 307.996 314.856 310.945 314.689 314.038C314.65 314.757 314.361 317.29 313.854 317.811C313.11 318.576 311.439 315.576 311.286 315.024C310.851 313.461 309.472 313.838 308.489 313.052C307.015 311.875 305.998 314.203 306.881 315.11C308.117 316.38 308.378 311.3 307.361 312.344C306.607 313.119 306.161 316.74 307.549 316.74" stroke="#D49393" stroke-width="5" stroke-linecap="round"/>
<path d="M306 313.407C306 315.661 307.839 316.666 309.054 318.119C309.588 318.759 309.656 319.461 310.003 320.209C310.838 322.008 309.864 318.924 310.292 319.253C311.944 320.524 311.464 322.713 313.883 321.009C315.502 319.869 317.514 317.895 317.514 315.63C317.514 314.497 317.991 314.112 318.237 313.185C318.463 312.33 319 314.691 319 315.207C319 316.433 318.835 316.385 318.071 317.208C317.259 318.084 317.312 318.3 316.854 319.409C316.158 321.095 315.602 322.313 314.378 323.632C313.102 325.007 312.11 322.17 311.571 321.009" stroke="#D49393" stroke-width="5" stroke-linecap="round"/>
<path d="M306.815 313C305.779 313 306.026 313.476 306.026 314.123C306.026 315.132 306.698 314.994 308 314.994" stroke="#D49393" stroke-width="5" stroke-linecap="round"/>
<path d="M291 355.956C291 396.849 246.676 430 192 430C137.324 430 93 396.849 93 355.956C93 315.062 137.324 346.622 192 346.622C246.676 346.622 291 315.062 291 355.956Z" fill="#D9D9D9"/>
<path d="M192 426.5C191.669 426.5 191.339 426.499 191.009 426.496L191.005 426.996C190.342 426.991 189.681 426.98 189.022 426.965L189.034 426.465C188.376 426.449 187.72 426.429 187.066 426.403L187.047 426.902C186.383 426.876 185.721 426.845 185.062 426.808L185.09 426.309C184.433 426.272 183.777 426.23 183.124 426.184L183.089 426.682C182.427 426.635 181.768 426.582 181.11 426.525L181.154 426.026C180.497 425.969 179.843 425.906 179.191 425.838L179.139 426.335C178.481 426.266 177.825 426.193 177.171 426.114L177.231 425.617C176.575 425.538 175.922 425.454 175.272 425.364L175.203 425.86C174.549 425.77 173.897 425.674 173.248 425.574L173.324 425.08C172.671 424.979 172.02 424.873 171.371 424.762L171.287 425.255C170.636 425.143 169.987 425.026 169.342 424.904L169.435 424.413C168.785 424.29 168.138 424.162 167.495 424.03L167.394 424.519C166.746 424.386 166.101 424.247 165.459 424.103L165.568 423.615C164.924 423.47 164.284 423.321 163.646 423.166L163.528 423.652C162.884 423.496 162.244 423.335 161.606 423.169L161.732 422.685C161.095 422.519 160.461 422.347 159.83 422.171L159.695 422.652C159.057 422.474 158.421 422.29 157.789 422.101L157.932 421.622C157.302 421.434 156.675 421.24 156.052 421.042L155.9 421.518C155.268 421.317 154.639 421.11 154.013 420.899L154.173 420.425C153.551 420.214 152.932 419.999 152.317 419.778L152.148 420.249C151.523 420.024 150.901 419.795 150.284 419.56L150.461 419.093C149.846 418.859 149.236 418.62 148.629 418.377L148.443 418.841C147.826 418.593 147.214 418.341 146.607 418.083L146.802 417.623C146.196 417.366 145.594 417.104 144.997 416.838L144.793 417.294C144.187 417.024 143.586 416.748 142.989 416.468L143.202 416.015C142.606 415.735 142.014 415.45 141.428 415.16L141.206 415.608C140.612 415.314 140.022 415.015 139.437 414.711L139.668 414.267C139.084 413.963 138.504 413.654 137.93 413.341L137.69 413.78C137.108 413.462 136.531 413.139 135.96 412.811L136.209 412.378C135.637 412.05 135.071 411.717 134.51 411.38L134.252 411.808C133.684 411.466 133.122 411.119 132.565 410.768L132.832 410.345C132.275 409.993 131.724 409.637 131.178 409.275L130.902 409.692C130.35 409.326 129.803 408.955 129.262 408.579L129.548 408.168C129.007 407.792 128.472 407.411 127.944 407.026L127.649 407.429C127.114 407.039 126.584 406.643 126.062 406.242L126.366 405.846C125.843 405.445 125.327 405.04 124.817 404.63L124.504 405.02C123.987 404.604 123.477 404.183 122.974 403.758L123.297 403.376C122.795 402.952 122.299 402.522 121.811 402.088L121.479 402.462C120.983 402.021 120.494 401.575 120.013 401.125L120.354 400.76C119.874 400.311 119.402 399.857 118.937 399.399L118.586 399.755C118.113 399.289 117.648 398.819 117.191 398.343L117.551 397.997C117.096 397.524 116.649 397.046 116.209 396.564L115.84 396.9C115.392 396.409 114.953 395.914 114.523 395.414L114.902 395.088C114.474 394.59 114.054 394.089 113.643 393.583L113.255 393.898C112.836 393.383 112.426 392.863 112.025 392.339L112.422 392.035C112.023 391.513 111.633 390.988 111.253 390.458L110.847 390.749C110.46 390.211 110.082 389.668 109.714 389.121L110.129 388.842C109.762 388.297 109.405 387.748 109.058 387.195L108.635 387.461C108.282 386.9 107.94 386.335 107.608 385.766L108.04 385.514C107.709 384.947 107.387 384.376 107.077 383.801L106.637 384.039C106.322 383.457 106.018 382.871 105.725 382.282L106.172 382.059C105.879 381.471 105.597 380.88 105.326 380.285L104.871 380.492C104.597 379.891 104.334 379.286 104.082 378.677L104.544 378.486C104.293 377.88 104.053 377.27 103.824 376.657L103.356 376.832C103.125 376.213 102.905 375.59 102.697 374.964L103.171 374.807C102.965 374.185 102.77 373.56 102.586 372.933L102.107 373.073C101.921 372.439 101.748 371.802 101.587 371.161L102.071 371.039C101.911 370.405 101.763 369.768 101.627 369.127L101.138 369.231C101.001 368.586 100.876 367.938 100.763 367.287L101.256 367.202C101.144 366.557 101.045 365.91 100.957 365.261L100.462 365.327C100.374 364.674 100.299 364.019 100.236 363.361L100.734 363.314C100.671 362.664 100.622 362.011 100.584 361.356L100.085 361.385C100.047 360.728 100.022 360.068 100.009 359.406L100.509 359.396C100.503 359.069 100.5 358.74 100.5 358.412C100.5 358.057 100.504 357.708 100.511 357.365L100.011 357.355C100.026 356.662 100.055 355.993 100.099 355.348L100.598 355.381C100.645 354.679 100.71 354.006 100.791 353.36L100.295 353.298C100.383 352.602 100.49 351.937 100.616 351.301L101.107 351.398C101.24 350.727 101.394 350.09 101.569 349.488L101.089 349.348C101.287 348.666 101.511 348.025 101.76 347.421L102.222 347.612C102.484 346.979 102.775 346.391 103.092 345.846L102.66 345.594C103.011 344.991 103.396 344.435 103.813 343.925L104.2 344.242C104.618 343.731 105.07 343.269 105.554 342.852L105.227 342.473C105.74 342.031 106.289 341.636 106.872 341.287L107.129 341.715C107.678 341.386 108.261 341.097 108.877 340.846L108.689 340.383C109.301 340.134 109.944 339.921 110.615 339.744L110.743 340.227C111.361 340.063 112.006 339.929 112.678 339.822L112.6 339.328C113.25 339.225 113.922 339.148 114.616 339.094L114.654 339.593C115.301 339.543 115.968 339.513 116.655 339.504L116.647 339.004C117.311 338.994 117.992 339.003 118.689 339.028L118.671 339.527C119.327 339.551 119.998 339.589 120.685 339.64L120.723 339.142C121.38 339.191 122.051 339.253 122.735 339.326L122.682 339.823C123.34 339.893 124.01 339.974 124.692 340.064L124.758 339.569C125.422 339.657 126.097 339.754 126.783 339.859L126.708 340.353C127.359 340.453 128.02 340.56 128.692 340.674L128.775 340.181C129.436 340.293 130.106 340.411 130.785 340.535L130.695 341.027C131.351 341.147 132.015 341.272 132.688 341.402L132.783 340.912C133.439 341.038 134.102 341.17 134.773 341.305L134.675 341.795C135.335 341.928 136.002 342.064 136.677 342.204L136.779 341.715C137.431 341.85 138.09 341.988 138.756 342.129L138.652 342.618C139.313 342.758 139.98 342.9 140.653 343.044L140.758 342.556C141.411 342.695 142.07 342.837 142.734 342.98L142.629 343.469L144.626 343.899L144.731 343.41C145.386 343.551 146.046 343.693 146.712 343.835L146.607 344.324C147.267 344.466 147.933 344.607 148.604 344.749L148.707 344.26C149.364 344.399 150.025 344.538 150.692 344.677L150.59 345.167C151.251 345.305 151.918 345.443 152.589 345.58L152.689 345.09C153.347 345.224 154.01 345.358 154.677 345.491L154.579 345.982C155.243 346.114 155.911 346.246 156.583 346.376L156.679 345.885C157.339 346.013 158.002 346.14 158.67 346.265L158.578 346.756C159.245 346.881 159.915 347.004 160.589 347.126L160.678 346.634C161.339 346.753 162.004 346.871 162.673 346.986L162.588 347.479C163.257 347.594 163.93 347.708 164.607 347.819L164.688 347.325C165.351 347.434 166.017 347.541 166.687 347.645L166.61 348.139C167.281 348.243 167.955 348.344 168.632 348.443L168.704 347.948C169.371 348.045 170.04 348.14 170.712 348.231L170.645 348.726C171.317 348.818 171.992 348.906 172.67 348.991L172.732 348.494C173.402 348.578 174.074 348.659 174.749 348.736L174.693 349.232C175.366 349.309 176.042 349.382 176.72 349.452L176.771 348.954C177.444 349.023 178.119 349.088 178.797 349.149L178.752 349.647C179.426 349.708 180.103 349.765 180.782 349.818L180.821 349.319C181.496 349.372 182.174 349.42 182.855 349.464L182.822 349.963C183.497 350.007 184.174 350.046 184.853 350.08L184.879 349.581C185.556 349.616 186.235 349.646 186.916 349.671L186.897 350.17C187.574 350.195 188.252 350.216 188.932 350.231L188.944 349.731C189.62 349.747 190.298 349.757 190.979 349.762L190.975 350.262C191.316 350.265 191.658 350.266 192 350.266C192.342 350.266 192.684 350.265 193.025 350.262L193.021 349.762C193.702 349.757 194.38 349.747 195.056 349.731L195.068 350.231C195.748 350.216 196.426 350.195 197.103 350.17L197.084 349.671C197.765 349.646 198.444 349.616 199.121 349.581L199.147 350.08C199.826 350.046 200.503 350.007 201.178 349.963L201.146 349.464C201.826 349.42 202.504 349.372 203.179 349.319L203.218 349.818C203.897 349.765 204.574 349.708 205.248 349.647L205.203 349.149C205.881 349.088 206.556 349.023 207.229 348.954L207.28 349.452C207.958 349.382 208.634 349.309 209.307 349.232L209.251 348.736C209.926 348.659 210.598 348.578 211.268 348.494L211.33 348.991C212.008 348.906 212.683 348.818 213.355 348.726L213.288 348.231C213.96 348.14 214.629 348.045 215.296 347.948L215.368 348.443C216.045 348.344 216.719 348.243 217.39 348.139L217.313 347.645C217.983 347.541 218.649 347.434 219.312 347.325L219.393 347.819C220.07 347.708 220.743 347.594 221.412 347.479L221.327 346.986C221.996 346.871 222.661 346.753 223.322 346.634L223.411 347.126C224.085 347.004 224.756 346.881 225.422 346.756L225.33 346.265C225.998 346.14 226.661 346.013 227.321 345.885L227.417 346.376C228.089 346.246 228.757 346.114 229.421 345.982L229.323 345.491C229.99 345.358 230.653 345.224 231.311 345.09L231.411 345.58C232.082 345.443 232.749 345.305 233.41 345.167L233.308 344.677C233.975 344.538 234.636 344.399 235.293 344.26L235.396 344.749C236.067 344.607 236.733 344.466 237.393 344.324L237.288 343.835C237.954 343.693 238.614 343.551 239.269 343.41L239.374 343.899L241.371 343.469L241.266 342.98C241.93 342.837 242.589 342.695 243.242 342.556L243.347 343.044C244.02 342.9 244.687 342.758 245.348 342.618L245.244 342.129C245.91 341.988 246.569 341.85 247.221 341.715L247.323 342.204C247.998 342.064 248.665 341.928 249.325 341.795L249.227 341.305C249.898 341.17 250.561 341.038 251.217 340.912L251.312 341.402C251.985 341.272 252.649 341.147 253.305 341.027L253.215 340.535C253.894 340.411 254.564 340.293 255.225 340.181L255.308 340.674C255.98 340.56 256.641 340.453 257.292 340.353L257.217 339.859C257.903 339.754 258.578 339.657 259.242 339.569L259.308 340.064C259.99 339.974 260.66 339.893 261.318 339.823L261.265 339.326C261.949 339.253 262.62 339.191 263.277 339.142L263.315 339.64C264.002 339.589 264.673 339.551 265.329 339.527L265.311 339.028C266.008 339.003 266.689 338.994 267.353 339.004L267.345 339.504C268.032 339.513 268.699 339.543 269.346 339.593L269.384 339.094C270.078 339.148 270.75 339.225 271.4 339.328L271.322 339.822C271.994 339.929 272.639 340.063 273.257 340.227L273.385 339.744C274.056 339.921 274.699 340.134 275.311 340.383L275.123 340.846C275.739 341.097 276.322 341.386 276.871 341.716L277.128 341.287C277.711 341.636 278.26 342.031 278.773 342.473L278.446 342.852C278.93 343.269 279.382 343.731 279.8 344.242L280.187 343.925C280.604 344.435 280.989 344.991 281.34 345.594L280.908 345.846C281.225 346.391 281.516 346.979 281.778 347.612L282.24 347.421C282.489 348.025 282.713 348.667 282.911 349.348L282.431 349.488C282.606 350.091 282.76 350.727 282.893 351.398L283.384 351.301C283.51 351.937 283.617 352.602 283.705 353.298L283.209 353.36C283.29 354.006 283.355 354.679 283.402 355.381L283.901 355.348C283.945 355.993 283.974 356.662 283.989 357.355L283.489 357.366C283.496 357.708 283.5 358.057 283.5 358.412C283.5 358.74 283.497 359.069 283.491 359.397L283.991 359.406C283.978 360.068 283.953 360.728 283.915 361.385L283.416 361.356C283.378 362.011 283.329 362.664 283.266 363.314L283.764 363.361C283.701 364.019 283.626 364.675 283.538 365.327L283.043 365.261C282.955 365.91 282.856 366.557 282.744 367.202L283.237 367.287C283.124 367.938 282.999 368.586 282.862 369.231L282.373 369.127C282.237 369.768 282.089 370.405 281.929 371.039L282.413 371.162C282.252 371.802 282.079 372.439 281.893 373.073L281.413 372.933C281.23 373.561 281.035 374.185 280.829 374.807L281.303 374.964C281.095 375.59 280.875 376.213 280.644 376.832L280.176 376.657C279.947 377.27 279.707 377.88 279.456 378.486L279.918 378.677C279.666 379.286 279.403 379.891 279.129 380.492L278.674 380.285C278.403 380.88 278.12 381.471 277.828 382.059L278.275 382.282C277.982 382.871 277.678 383.457 277.363 384.039L276.923 383.801C276.613 384.376 276.291 384.947 275.96 385.514L276.392 385.766C276.06 386.335 275.718 386.9 275.365 387.461L274.942 387.195C274.595 387.748 274.238 388.297 273.871 388.842L274.286 389.121C273.918 389.668 273.54 390.211 273.153 390.749L272.747 390.458C272.367 390.988 271.977 391.513 271.578 392.035L271.975 392.339C271.574 392.863 271.164 393.383 270.745 393.898L270.357 393.583C269.946 394.089 269.526 394.59 269.098 395.088L269.477 395.414C269.047 395.914 268.608 396.409 268.16 396.9L267.791 396.564C267.351 397.046 266.904 397.524 266.449 397.997L266.809 398.343C266.352 398.819 265.887 399.289 265.414 399.755L265.063 399.399C264.598 399.857 264.126 400.311 263.646 400.76L263.987 401.125C263.506 401.575 263.017 402.021 262.521 402.462L262.189 402.088C261.701 402.522 261.205 402.951 260.703 403.376L261.026 403.758C260.523 404.183 260.013 404.604 259.496 405.02L259.183 404.63C258.673 405.04 258.157 405.445 257.634 405.846L257.938 406.242C257.416 406.643 256.886 407.039 256.351 407.429L256.056 407.026C255.528 407.411 254.993 407.792 254.452 408.168L254.738 408.579C254.197 408.955 253.65 409.326 253.098 409.692L252.822 409.275C252.276 409.637 251.725 409.993 251.168 410.345L251.435 410.768C250.878 411.119 250.316 411.466 249.748 411.808L249.49 411.38C248.929 411.717 248.363 412.05 247.791 412.378L248.04 412.811C247.469 413.139 246.892 413.462 246.31 413.78L246.07 413.341C245.496 413.654 244.916 413.963 244.332 414.267L244.563 414.711C243.978 415.015 243.388 415.314 242.794 415.608L242.572 415.16C241.986 415.45 241.394 415.735 240.798 416.015L241.011 416.468C240.414 416.748 239.813 417.024 239.207 417.294L239.003 416.838C238.406 417.104 237.804 417.366 237.198 417.623L237.393 418.083C236.786 418.341 236.174 418.593 235.557 418.841L235.371 418.377C234.764 418.62 234.154 418.859 233.539 419.093L233.716 419.56C233.099 419.795 232.477 420.024 231.852 420.249L231.683 419.778C231.068 419.999 230.449 420.214 229.826 420.425L229.987 420.899C229.361 421.11 228.732 421.317 228.1 421.518L227.948 421.042C227.325 421.24 226.698 421.434 226.067 421.622L226.211 422.101C225.579 422.29 224.943 422.474 224.305 422.652L224.17 422.171C223.539 422.347 222.905 422.519 222.267 422.685L222.394 423.169C221.756 423.335 221.116 423.496 220.472 423.652L220.354 423.166C219.716 423.321 219.076 423.47 218.432 423.615L218.541 424.103C217.899 424.247 217.254 424.386 216.606 424.519L216.505 424.03C215.861 424.163 215.215 424.29 214.565 424.413L214.658 424.904C214.012 425.026 213.364 425.143 212.713 425.255L212.628 424.762C211.98 424.873 211.329 424.979 210.676 425.08L210.752 425.574C210.103 425.674 209.451 425.77 208.796 425.86L208.728 425.364C208.078 425.454 207.424 425.538 206.769 425.617L206.829 426.114C206.175 426.193 205.519 426.266 204.861 426.335L204.809 425.838C204.157 425.906 203.503 425.969 202.846 426.026L202.89 426.525C202.232 426.582 201.573 426.635 200.911 426.682L200.876 426.184C200.222 426.23 199.567 426.272 198.91 426.309L198.938 426.808C198.278 426.845 197.617 426.876 196.953 426.902L196.934 426.403C196.28 426.429 195.624 426.449 194.966 426.465L194.978 426.965C194.319 426.98 193.658 426.991 192.995 426.996L192.991 426.496C192.661 426.499 192.331 426.5 192 426.5Z" stroke="#DD9696" stroke-dasharray="2 2"/>
<defs>
<filter id="filter0_d_38_866" x="16" y="125" width="353" height="340" filterUnits="userSpaceOnUse" color-interpolation-filters="sRGB">
<feFlood flood-opacity="0" result="BackgroundImageFix"/>
<feColorMatrix in="SourceAlpha" type="matrix" values="0 0 0 0 0 0 0 0 0 0 0 0 0 0 0 0 0 0 127 0" result="hardAlpha"/>
<feOffset dy="4"/>
<feGaussianBlur stdDeviation="2"/>
<feComposite in2="hardAlpha" operator="out"/>
<feColorMatrix type="matrix" values="0 0 0 0 0 0 0 0 0 0 0 0 0 0 0 0 0 0 0.25 0"/>
<feBlend mode="normal" in2="BackgroundImageFix" result="effect1_dropShadow_38_866"/>
<feBlend mode="normal" in="SourceGraphic" in2="effect1_dropShadow_38_866" result="shape"/>
</filter>
<filter id="filter1_df_38_866" x="25.435" y="126" width="343" height="336" filterUnits="userSpaceOnUse" color-interpolation-filters="sRGB">
<feFlood flood-opacity="0" result="BackgroundImageFix"/>
<feColorMatrix in="SourceAlpha" type="matrix" values="0 0 0 0 0 0 0 0 0 0 0 0 0 0 0 0 0 0 127 0" result="hardAlpha"/>
<feOffset dy="4"/>
<feGaussianBlur stdDeviation="2"/>
<feComposite in2="hardAlpha" operator="out"/>
<feColorMatrix type="matrix" values="0 0 0 0 0 0 0 0 0 0 0 0 0 0 0 0 0 0 0.25 0"/>
<feBlend mode="normal" in2="BackgroundImageFix" result="effect1_dropShadow_38_866"/>
<feBlend mode="normal" in="SourceGraphic" in2="effect1_dropShadow_38_866" result="shape"/>
<feGaussianBlur stdDeviation="2" result="effect2_foregroundBlur_38_866"/>
</filter>
<filter id="filter2_d_38_866" x="16" y="268" width="353" height="197" filterUnits="userSpaceOnUse" color-interpolation-filters="sRGB">
<feFlood flood-opacity="0" result="BackgroundImageFix"/>
<feColorMatrix in="SourceAlpha" type="matrix" values="0 0 0 0 0 0 0 0 0 0 0 0 0 0 0 0 0 0 127 0" result="hardAlpha"/>
<feOffset dy="4"/>
<feGaussianBlur stdDeviation="2"/>
<feComposite in2="hardAlpha" operator="out"/>
<feColorMatrix type="matrix" values="0 0 0 0 0 0 0 0 0 0 0 0 0 0 0 0 0 0 0.25 0"/>
<feBlend mode="normal" in2="BackgroundImageFix" result="effect1_dropShadow_38_866"/>
<feBlend mode="normal" in="SourceGraphic" in2="effect1_dropShadow_38_866" result="shape"/>
</filter>
<filter id="filter3_i_38_866" x="162.435" y="259" width="69" height="70" filterUnits="userSpaceOnUse" color-interpolation-filters="sRGB">
<feFlood flood-opacity="0" result="BackgroundImageFix"/>
<feBlend mode="normal" in="SourceGraphic" in2="BackgroundImageFix" result="shape"/>
<feColorMatrix in="SourceAlpha" type="matrix" values="0 0 0 0 0 0 0 0 0 0 0 0 0 0 0 0 0 0 127 0" result="hardAlpha"/>
<feOffset dy="4"/>
<feGaussianBlur stdDeviation="2"/>
<feComposite in2="hardAlpha" operator="arithmetic" k2="-1" k3="1"/>
<feColorMatrix type="matrix" values="0 0 0 0 0 0 0 0 0 0 0 0 0 0 0 0 0 0 0.25 0"/>
<feBlend mode="normal" in2="shape" result="effect1_innerShadow_38_866"/>
</filter>
<filter id="filter4_d_38_866" x="264.435" y="108" width="78" height="79" filterUnits="userSpaceOnUse" color-interpolation-filters="sRGB">
<feFlood flood-opacity="0" result="BackgroundImageFix"/>
<feColorMatrix in="SourceAlpha" type="matrix" values="0 0 0 0 0 0 0 0 0 0 0 0 0 0 0 0 0 0 127 0" result="hardAlpha"/>
<feOffset dy="4"/>
<feGaussianBlur stdDeviation="2"/>
<feComposite in2="hardAlpha" operator="out"/>
<feColorMatrix type="matrix" values="0 0 0 0 0 0 0 0 0 0 0 0 0 0 0 0 0 0 0.25 0"/>
<feBlend mode="normal" in2="BackgroundImageFix" result="effect1_dropShadow_38_866"/>
<feBlend mode="normal" in="SourceGraphic" in2="effect1_dropShadow_38_866" result="shape"/>
</filter>
<filter id="filter5_d_38_866" x="164.435" y="192" width="68" height="67" filterUnits="userSpaceOnUse" color-interpolation-filters="sRGB">
<feFlood flood-opacity="0" result="BackgroundImageFix"/>
<feColorMatrix in="SourceAlpha" type="matrix" values="0 0 0 0 0 0 0 0 0 0 0 0 0 0 0 0 0 0 127 0" result="hardAlpha"/>
<feOffset dy="4"/>
<feGaussianBlur stdDeviation="2"/>
<feComposite in2="hardAlpha" operator="out"/>
<feColorMatrix type="matrix" values="0 0 0 0 0 0 0 0 0 0 0 0 0 0 0 0 0 0 0.25 0"/>
<feBlend mode="normal" in2="BackgroundImageFix" result="effect1_dropShadow_38_866"/>
<feBlend mode="normal" in="SourceGraphic" in2="effect1_dropShadow_38_866" result="shape"/>
</filter>
<filter id="filter6_d_38_866" x="267.435" y="120" width="66" height="67" filterUnits="userSpaceOnUse" color-interpolation-filters="sRGB">
<feFlood flood-opacity="0" result="BackgroundImageFix"/>
<feColorMatrix in="SourceAlpha" type="matrix" values="0 0 0 0 0 0 0 0 0 0 0 0 0 0 0 0 0 0 127 0" result="hardAlpha"/>
<feOffset dy="4"/>
<feGaussianBlur stdDeviation="2"/>
<feComposite in2="hardAlpha" operator="out"/>
<feColorMatrix type="matrix" values="0 0 0 0 0 0 0 0 0 0 0 0 0 0 0 0 0 0 0.25 0"/>
<feBlend mode="normal" in2="BackgroundImageFix" result="effect1_dropShadow_38_866"/>
<feBlend mode="normal" in="SourceGraphic" in2="effect1_dropShadow_38_866" result="shape"/>
</filter>
<filter id="filter7_d_38_866" x="243.435" y="193" width="32" height="30" filterUnits="userSpaceOnUse" color-interpolation-filters="sRGB">
<feFlood flood-opacity="0" result="BackgroundImageFix"/>
<feColorMatrix in="SourceAlpha" type="matrix" values="0 0 0 0 0 0 0 0 0 0 0 0 0 0 0 0 0 0 127 0" result="hardAlpha"/>
<feOffset dy="4"/>
<feGaussianBlur stdDeviation="2"/>
<feComposite in2="hardAlpha" operator="out"/>
<feColorMatrix type="matrix" values="0 0 0 0 0 0 0 0 0 0 0 0 0 0 0 0 0 0 0.25 0"/>
<feBlend mode="normal" in2="BackgroundImageFix" result="effect1_dropShadow_38_866"/>
<feBlend mode="normal" in="SourceGraphic" in2="effect1_dropShadow_38_866" result="shape"/>
</filter>
<filter id="filter8_d_38_866" x="182.435" y="198" width="29" height="28" filterUnits="userSpaceOnUse" color-interpolation-filters="sRGB">
<feFlood flood-opacity="0" result="BackgroundImageFix"/>
<feColorMatrix in="SourceAlpha" type="matrix" values="0 0 0 0 0 0 0 0 0 0 0 0 0 0 0 0 0 0 127 0" result="hardAlpha"/>
<feOffset dy="4"/>
<feGaussianBlur stdDeviation="2"/>
<feComposite in2="hardAlpha" operator="out"/>
<feColorMatrix type="matrix" values="0 0 0 0 0 0 0 0 0 0 0 0 0 0 0 0 0 0 0.25 0"/>
<feBlend mode="normal" in2="BackgroundImageFix" result="effect1_dropShadow_38_866"/>
<feBlend mode="normal" in="SourceGraphic" in2="effect1_dropShadow_38_866" result="shape"/>
</filter>
<filter id="filter9_d_38_866" x="116.435" y="193" width="35" height="33" filterUnits="userSpaceOnUse" color-interpolation-filters="sRGB">
<feFlood flood-opacity="0" result="BackgroundImageFix"/>
<feColorMatrix in="SourceAlpha" type="matrix" values="0 0 0 0 0 0 0 0 0 0 0 0 0 0 0 0 0 0 127 0" result="hardAlpha"/>
<feOffset dy="4"/>
<feGaussianBlur stdDeviation="2"/>
<feComposite in2="hardAlpha" operator="out"/>
<feColorMatrix type="matrix" values="0 0 0 0 0 0 0 0 0 0 0 0 0 0 0 0 0 0 0.25 0"/>
<feBlend mode="normal" in2="BackgroundImageFix" result="effect1_dropShadow_38_866"/>
<feBlend mode="normal" in="SourceGraphic" in2="effect1_dropShadow_38_866" result="shape"/>
</filter>
<filter id="filter10_d_38_866" x="191.021" y="215.85" width="26.6442" height="30.3263" filterUnits="userSpaceOnUse" color-interpolation-filters="sRGB">
<feFlood flood-opacity="0" result="BackgroundImageFix"/>
<feColorMatrix in="SourceAlpha" type="matrix" values="0 0 0 0 0 0 0 0 0 0 0 0 0 0 0 0 0 0 127 0" result="hardAlpha"/>
<feOffset dy="4"/>
<feGaussianBlur stdDeviation="2"/>
<feComposite in2="hardAlpha" operator="out"/>
<feColorMatrix type="matrix" values="0 0 0 0 0 0 0 0 0 0 0 0 0 0 0 0 0 0 0.25 0"/>
<feBlend mode="normal" in2="BackgroundImageFix" result="effect1_dropShadow_38_866"/>
<feBlend mode="normal" in="SourceGraphic" in2="effect1_dropShadow_38_866" result="shape"/>
</filter>
<filter id="filter11_d_38_866" x="175.03" y="210.454" width="27.8444" height="35.6144" filterUnits="userSpaceOnUse" color-interpolation-filters="sRGB">
<feFlood flood-opacity="0" result="BackgroundImageFix"/>
<feColorMatrix in="SourceAlpha" type="matrix" values="0 0 0 0 0 0 0 0 0 0 0 0 0 0 0 0 0 0 127 0" result="hardAlpha"/>
<feOffset dy="4"/>
<feGaussianBlur stdDeviation="2"/>
<feComposite in2="hardAlpha" operator="out"/>
<feColorMatrix type="matrix" values="0 0 0 0 0 0 0 0 0 0 0 0 0 0 0 0 0 0 0.25 0"/>
<feBlend mode="normal" in2="BackgroundImageFix" result="effect1_dropShadow_38_866"/>
<feBlend mode="normal" in="SourceGraphic" in2="effect1_dropShadow_38_866" result="shape"/>
</filter>
<filter id="filter12_d_38_866" x="62.435" y="108" width="78" height="79" filterUnits="userSpaceOnUse" color-interpolation-filters="sRGB">
<feFlood flood-opacity="0" result="BackgroundImageFix"/>
<feColorMatrix in="SourceAlpha" type="matrix" values="0 0 0 0 0 0 0 0 0 0 0 0 0 0 0 0 0 0 127 0" result="hardAlpha"/>
<feOffset dy="4"/>
<feGaussianBlur stdDeviation="2"/>
<feComposite in2="hardAlpha" operator="out"/>
<feColorMatrix type="matrix" values="0 0 0 0 0 0 0 0 0 0 0 0 0 0 0 0 0 0 0.25 0"/>
<feBlend mode="normal" in2="BackgroundImageFix" result="effect1_dropShadow_38_866"/>
<feBlend mode="normal" in="SourceGraphic" in2="effect1_dropShadow_38_866" result="shape"/>
</filter>
<filter id="filter13_d_38_866" x="71.435" y="120" width="66" height="67" filterUnits="userSpaceOnUse" color-interpolation-filters="sRGB">
<feFlood flood-opacity="0" result="BackgroundImageFix"/>
<feColorMatrix in="SourceAlpha" type="matrix" values="0 0 0 0 0 0 0 0 0 0 0 0 0 0 0 0 0 0 127 0" result="hardAlpha"/>
<feOffset dy="4"/>
<feGaussianBlur stdDeviation="2"/>
<feComposite in2="hardAlpha" operator="out"/>
<feColorMatrix type="matrix" values="0 0 0 0 0 0 0 0 0 0 0 0 0 0 0 0 0 0 0.25 0"/>
<feBlend mode="normal" in2="BackgroundImageFix" result="effect1_dropShadow_38_866"/>
<feBlend mode="normal" in="SourceGraphic" in2="effect1_dropShadow_38_866" result="shape"/>
</filter>
<filter id="filter14_d_38_866" x="16" y="125" width="353" height="340" filterUnits="userSpaceOnUse" color-interpolation-filters="sRGB">
<feFlood flood-opacity="0" result="BackgroundImageFix"/>
<feColorMatrix in="SourceAlpha" type="matrix" values="0 0 0 0 0 0 0 0 0 0 0 0 0 0 0 0 0 0 127 0" result="hardAlpha"/>
<feOffset dy="4"/>
<feGaussianBlur stdDeviation="2"/>
<feComposite in2="hardAlpha" operator="out"/>
<feColorMatrix type="matrix" values="0 0 0 0 0 0 0 0 0 0 0 0 0 0 0 0 0 0 0.25 0"/>
<feBlend mode="normal" in2="BackgroundImageFix" result="effect1_dropShadow_38_866"/>
<feBlend mode="normal" in="SourceGraphic" in2="effect1_dropShadow_38_866" result="shape"/>
</filter>
<filter id="filter15_df_38_866" x="25.435" y="126" width="343" height="336" filterUnits="userSpaceOnUse" color-interpolation-filters="sRGB">
<feFlood flood-opacity="0" result="BackgroundImageFix"/>
<feColorMatrix in="SourceAlpha" type="matrix" values="0 0 0 0 0 0 0 0 0 0 0 0 0 0 0 0 0 0 127 0" result="hardAlpha"/>
<feOffset dy="4"/>
<feGaussianBlur stdDeviation="2"/>
<feComposite in2="hardAlpha" operator="out"/>
<feColorMatrix type="matrix" values="0 0 0 0 0 0 0 0 0 0 0 0 0 0 0 0 0 0 0.25 0"/>
<feBlend mode="normal" in2="BackgroundImageFix" result="effect1_dropShadow_38_866"/>
<feBlend mode="normal" in="SourceGraphic" in2="effect1_dropShadow_38_866" result="shape"/>
<feGaussianBlur stdDeviation="2" result="effect2_foregroundBlur_38_866"/>
</filter>
<filter id="filter16_d_38_866" x="16" y="268" width="353" height="197" filterUnits="userSpaceOnUse" color-interpolation-filters="sRGB">
<feFlood flood-opacity="0" result="BackgroundImageFix"/>
<feColorMatrix in="SourceAlpha" type="matrix" values="0 0 0 0 0 0 0 0 0 0 0 0 0 0 0 0 0 0 127 0" result="hardAlpha"/>
<feOffset dy="4"/>
<feGaussianBlur stdDeviation="2"/>
<feComposite in2="hardAlpha" operator="out"/>
<feColorMatrix type="matrix" values="0 0 0 0 0 0 0 0 0 0 0 0 0 0 0 0 0 0 0.25 0"/>
<feBlend mode="normal" in2="BackgroundImageFix" result="effect1_dropShadow_38_866"/>
<feBlend mode="normal" in="SourceGraphic" in2="effect1_dropShadow_38_866" result="shape"/>
</filter>
<filter id="filter17_i_38_866" x="162.435" y="259" width="69" height="70" filterUnits="userSpaceOnUse" color-interpolation-filters="sRGB">
<feFlood flood-opacity="0" result="BackgroundImageFix"/>
<feBlend mode="normal" in="SourceGraphic" in2="BackgroundImageFix" result="shape"/>
<feColorMatrix in="SourceAlpha" type="matrix" values="0 0 0 0 0 0 0 0 0 0 0 0 0 0 0 0 0 0 127 0" result="hardAlpha"/>
<feOffset dy="4"/>
<feGaussianBlur stdDeviation="2"/>
<feComposite in2="hardAlpha" operator="arithmetic" k2="-1" k3="1"/>
<feColorMatrix type="matrix" values="0 0 0 0 0 0 0 0 0 0 0 0 0 0 0 0 0 0 0.25 0"/>
<feBlend mode="normal" in2="shape" result="effect1_innerShadow_38_866"/>
</filter>
<filter id="filter18_d_38_866" x="264.435" y="108" width="78" height="79" filterUnits="userSpaceOnUse" color-interpolation-filters="sRGB">
<feFlood flood-opacity="0" result="BackgroundImageFix"/>
<feColorMatrix in="SourceAlpha" type="matrix" values="0 0 0 0 0 0 0 0 0 0 0 0 0 0 0 0 0 0 127 0" result="hardAlpha"/>
<feOffset dy="4"/>
<feGaussianBlur stdDeviation="2"/>
<feComposite in2="hardAlpha" operator="out"/>
<feColorMatrix type="matrix" values="0 0 0 0 0 0 0 0 0 0 0 0 0 0 0 0 0 0 0.25 0"/>
<feBlend mode="normal" in2="BackgroundImageFix" result="effect1_dropShadow_38_866"/>
<feBlend mode="normal" in="SourceGraphic" in2="effect1_dropShadow_38_866" result="shape"/>
</filter>
<filter id="filter19_d_38_866" x="164.435" y="192" width="68" height="67" filterUnits="userSpaceOnUse" color-interpolation-filters="sRGB">
<feFlood flood-opacity="0" result="BackgroundImageFix"/>
<feColorMatrix in="SourceAlpha" type="matrix" values="0 0 0 0 0 0 0 0 0 0 0 0 0 0 0 0 0 0 127 0" result="hardAlpha"/>
<feOffset dy="4"/>
<feGaussianBlur stdDeviation="2"/>
<feComposite in2="hardAlpha" operator="out"/>
<feColorMatrix type="matrix" values="0 0 0 0 0 0 0 0 0 0 0 0 0 0 0 0 0 0 0.25 0"/>
<feBlend mode="normal" in2="BackgroundImageFix" result="effect1_dropShadow_38_866"/>
<feBlend mode="normal" in="SourceGraphic" in2="effect1_dropShadow_38_866" result="shape"/>
</filter>
<filter id="filter20_d_38_866" x="267.435" y="120" width="66" height="67" filterUnits="userSpaceOnUse" color-interpolation-filters="sRGB">
<feFlood flood-opacity="0" result="BackgroundImageFix"/>
<feColorMatrix in="SourceAlpha" type="matrix" values="0 0 0 0 0 0 0 0 0 0 0 0 0 0 0 0 0 0 127 0" result="hardAlpha"/>
<feOffset dy="4"/>
<feGaussianBlur stdDeviation="2"/>
<feComposite in2="hardAlpha" operator="out"/>
<feColorMatrix type="matrix" values="0 0 0 0 0 0 0 0 0 0 0 0 0 0 0 0 0 0 0.25 0"/>
<feBlend mode="normal" in2="BackgroundImageFix" result="effect1_dropShadow_38_866"/>
<feBlend mode="normal" in="SourceGraphic" in2="effect1_dropShadow_38_866" result="shape"/>
</filter>
<filter id="filter21_d_38_866" x="243.435" y="193" width="32" height="30" filterUnits="userSpaceOnUse" color-interpolation-filters="sRGB">
<feFlood flood-opacity="0" result="BackgroundImageFix"/>
<feColorMatrix in="SourceAlpha" type="matrix" values="0 0 0 0 0 0 0 0 0 0 0 0 0 0 0 0 0 0 127 0" result="hardAlpha"/>
<feOffset dy="4"/>
<feGaussianBlur stdDeviation="2"/>
<feComposite in2="hardAlpha" operator="out"/>
<feColorMatrix type="matrix" values="0 0 0 0 0 0 0 0 0 0 0 0 0 0 0 0 0 0 0.25 0"/>
<feBlend mode="normal" in2="BackgroundImageFix" result="effect1_dropShadow_38_866"/>
<feBlend mode="normal" in="SourceGraphic" in2="effect1_dropShadow_38_866" result="shape"/>
</filter>
<filter id="filter22_d_38_866" x="182.435" y="198" width="29" height="28" filterUnits="userSpaceOnUse" color-interpolation-filters="sRGB">
<feFlood flood-opacity="0" result="BackgroundImageFix"/>
<feColorMatrix in="SourceAlpha" type="matrix" values="0 0 0 0 0 0 0 0 0 0 0 0 0 0 0 0 0 0 127 0" result="hardAlpha"/>
<feOffset dy="4"/>
<feGaussianBlur stdDeviation="2"/>
<feComposite in2="hardAlpha" operator="out"/>
<feColorMatrix type="matrix" values="0 0 0 0 0 0 0 0 0 0 0 0 0 0 0 0 0 0 0.25 0"/>
<feBlend mode="normal" in2="BackgroundImageFix" result="effect1_dropShadow_38_866"/>
<feBlend mode="normal" in="SourceGraphic" in2="effect1_dropShadow_38_866" result="shape"/>
</filter>
<filter id="filter23_d_38_866" x="116.435" y="193" width="35" height="33" filterUnits="userSpaceOnUse" color-interpolation-filters="sRGB">
<feFlood flood-opacity="0" result="BackgroundImageFix"/>
<feColorMatrix in="SourceAlpha" type="matrix" values="0 0 0 0 0 0 0 0 0 0 0 0 0 0 0 0 0 0 127 0" result="hardAlpha"/>
<feOffset dy="4"/>
<feGaussianBlur stdDeviation="2"/>
<feComposite in2="hardAlpha" operator="out"/>
<feColorMatrix type="matrix" values="0 0 0 0 0 0 0 0 0 0 0 0 0 0 0 0 0 0 0.25 0"/>
<feBlend mode="normal" in2="BackgroundImageFix" result="effect1_dropShadow_38_866"/>
<feBlend mode="normal" in="SourceGraphic" in2="effect1_dropShadow_38_866" result="shape"/>
</filter>
<filter id="filter24_d_38_866" x="191.021" y="215.85" width="26.6442" height="30.3263" filterUnits="userSpaceOnUse" color-interpolation-filters="sRGB">
<feFlood flood-opacity="0" result="BackgroundImageFix"/>
<feColorMatrix in="SourceAlpha" type="matrix" values="0 0 0 0 0 0 0 0 0 0 0 0 0 0 0 0 0 0 127 0" result="hardAlpha"/>
<feOffset dy="4"/>
<feGaussianBlur stdDeviation="2"/>
<feComposite in2="hardAlpha" operator="out"/>
<feColorMatrix type="matrix" values="0 0 0 0 0 0 0 0 0 0 0 0 0 0 0 0 0 0 0.25 0"/>
<feBlend mode="normal" in2="BackgroundImageFix" result="effect1_dropShadow_38_866"/>
<feBlend mode="normal" in="SourceGraphic" in2="effect1_dropShadow_38_866" result="shape"/>
</filter>
<filter id="filter25_d_38_866" x="175.03" y="210.454" width="27.8444" height="35.6144" filterUnits="userSpaceOnUse" color-interpolation-filters="sRGB">
<feFlood flood-opacity="0" result="BackgroundImageFix"/>
<feColorMatrix in="SourceAlpha" type="matrix" values="0 0 0 0 0 0 0 0 0 0 0 0 0 0 0 0 0 0 127 0" result="hardAlpha"/>
<feOffset dy="4"/>
<feGaussianBlur stdDeviation="2"/>
<feComposite in2="hardAlpha" operator="out"/>
<feColorMatrix type="matrix" values="0 0 0 0 0 0 0 0 0 0 0 0 0 0 0 0 0 0 0.25 0"/>
<feBlend mode="normal" in2="BackgroundImageFix" result="effect1_dropShadow_38_866"/>
<feBlend mode="normal" in="SourceGraphic" in2="effect1_dropShadow_38_866" result="shape"/>
</filter>
<filter id="filter26_d_38_866" x="62.435" y="108" width="78" height="79" filterUnits="userSpaceOnUse" color-interpolation-filters="sRGB">
<feFlood flood-opacity="0" result="BackgroundImageFix"/>
<feColorMatrix in="SourceAlpha" type="matrix" values="0 0 0 0 0 0 0 0 0 0 0 0 0 0 0 0 0 0 127 0" result="hardAlpha"/>
<feOffset dy="4"/>
<feGaussianBlur stdDeviation="2"/>
<feComposite in2="hardAlpha" operator="out"/>
<feColorMatrix type="matrix" values="0 0 0 0 0 0 0 0 0 0 0 0 0 0 0 0 0 0 0.25 0"/>
<feBlend mode="normal" in2="BackgroundImageFix" result="effect1_dropShadow_38_866"/>
<feBlend mode="normal" in="SourceGraphic" in2="effect1_dropShadow_38_866" result="shape"/>
</filter>
<filter id="filter27_d_38_866" x="71.435" y="120" width="66" height="67" filterUnits="userSpaceOnUse" color-interpolation-filters="sRGB">
<feFlood flood-opacity="0" result="BackgroundImageFix"/>
<feColorMatrix in="SourceAlpha" type="matrix" values="0 0 0 0 0 0 0 0 0 0 0 0 0 0 0 0 0 0 127 0" result="hardAlpha"/>
<feOffset dy="4"/>
<feGaussianBlur stdDeviation="2"/>
<feComposite in2="hardAlpha" operator="out"/>
<feColorMatrix type="matrix" values="0 0 0 0 0 0 0 0 0 0 0 0 0 0 0 0 0 0 0.25 0"/>
<feBlend mode="normal" in2="BackgroundImageFix" result="effect1_dropShadow_38_866"/>
<feBlend mode="normal" in="SourceGraphic" in2="effect1_dropShadow_38_866" result="shape"/>
</filter>
</defs>
</svg>
