<svg width="112" height="170" viewBox="0 0 112 170" fill="none" xmlns="http://www.w3.org/2000/svg">
<path d="M94.1147 73.2723C96.9311 69.7398 100.66 61.8799 93.0436 58.7006" stroke="white" stroke-width="5"/>
<path d="M11.4058 76.1153C6.30606 72.0801 -0.572138 62.7329 12.7132 57.6258" stroke="white" stroke-width="5"/>
<g filter="url(#filter0_d_38_1649)">
<ellipse cx="52.4306" cy="73.2276" rx="43.5001" ry="41.7724" fill="#D4B793"/>
</g>
<path d="M55.3111 18.0801C55.1624 21.0587 49.7118 23.2083 43.1367 22.8815C36.5617 22.5547 31.3521 19.8753 31.5008 16.8967C31.6494 13.9182 37.0533 9.31561 43.6283 9.64239C50.2034 9.96918 55.4597 15.1016 55.3111 18.0801Z" fill="#B3B3B3"/>
<ellipse cx="48.6316" cy="8.93326" rx="4.28697" ry="4.40372" fill="#B3B3B3"/>
<ellipse cx="51.4055" cy="8.80744" rx="9.83481" ry="8.80744" fill="#B3B3B3"/>
<g filter="url(#filter1_df_38_1649)">
<ellipse cx="53.549" cy="73.4792" rx="42.2392" ry="40.7659" fill="#795B53"/>
</g>
<path d="M41.8854 18.0756C42.7824 16.5433 44.4248 15.6017 46.2003 15.6017H66.5348C69.1224 15.6017 71.2825 17.576 71.5146 20.1532L71.6879 22.0769C71.7814 23.1151 71.5481 24.1566 71.0206 25.0557L69.6434 27.4028C69.2654 28.0472 69.0365 28.768 68.9736 29.5124L68.7977 31.5963C68.5522 34.5039 65.8793 36.5843 63.0004 36.1087L56.9252 35.105C56.3976 35.0178 55.8595 35.0158 55.3313 35.0991L48.613 36.1587C45.7559 36.6092 43.1137 34.5489 42.8543 31.6682L42.439 27.0575C42.3586 26.1647 42.0281 25.3127 41.4854 24.5992V24.5992C40.3163 23.062 40.1901 20.9714 41.1658 19.3047L41.8854 18.0756Z" fill="#B3B3B3"/>
<ellipse cx="66.9143" cy="10.1915" rx="9.45654" ry="8.93326" fill="#B3B3B3"/>
<ellipse cx="72.4621" cy="17.3632" rx="10.4652" ry="9.31072" fill="#B3B3B3"/>
<g filter="url(#filter2_d_38_1649)">
<path d="M95.9307 73.1368C95.9307 96.2572 76.6716 115 52.5931 115C28.5147 115 8.99521 96.2572 8.99521 73.1368C7.4335 62.5418 34.5032 76.2378 52.5931 81.6645C74.0667 73.1368 95.9307 59.6993 95.9307 73.1368Z" fill="white"/>
</g>
<g filter="url(#filter3_i_38_1649)">
<ellipse cx="53.549" cy="73.4792" rx="8.70002" ry="8.30416" fill="#895C4C"/>
</g>
<g filter="url(#filter4_d_38_1649)">
<ellipse cx="80.4056" cy="36.1105" rx="8.82611" ry="8.93326" fill="#D4B793"/>
</g>
<g filter="url(#filter5_d_38_1649)">
<ellipse cx="53.9273" cy="55.7385" rx="7.56524" ry="7.42341" fill="#D4B793"/>
</g>
<g filter="url(#filter6_d_38_1649)">
<ellipse cx="79.6491" cy="37.6203" rx="7.31306" ry="7.42341" fill="#795B53"/>
</g>
<g filter="url(#filter7_d_38_1649)">
<ellipse cx="69.31" cy="51.3348" rx="3.02609" ry="2.76805" fill="#59423D"/>
</g>
<g filter="url(#filter8_d_38_1649)">
<ellipse cx="53.5491" cy="52.3414" rx="2.64783" ry="2.51641" fill="#785952"/>
</g>
<g filter="url(#filter9_d_38_1649)">
<path d="M41.0664 51.7123C41.0664 53.4495 39.5422 54.8578 37.662 54.8578C35.7819 54.8578 34.2577 53.4495 34.2577 51.7123C34.2577 49.975 35.7819 48.5667 37.662 48.5667C39.5422 48.5667 41.0664 49.975 41.0664 51.7123Z" fill="#59423D"/>
</g>
<g filter="url(#filter10_d_38_1649)">
<path d="M53.6751 54.4803L53.6904 54.5371C54.2452 56.5935 55.6026 58.341 57.4577 59.3873V59.3873" stroke="#785952" stroke-width="5"/>
</g>
<g filter="url(#filter11_d_38_1649)">
<path d="M53.423 53.0963L53.3 53.6439C52.7742 55.9863 51.3753 58.0402 49.3882 59.3873V59.3873" stroke="#785952" stroke-width="5"/>
</g>
<g filter="url(#filter12_d_38_1649)">
<ellipse cx="29.4664" cy="36.1105" rx="8.82611" ry="8.93326" fill="#D4B793"/>
</g>
<g filter="url(#filter13_d_38_1649)">
<ellipse cx="30.2229" cy="37.6203" rx="7.31306" ry="7.42341" fill="#795B53"/>
<ellipse cx="30.2229" cy="37.6203" rx="7.31306" ry="7.42341" fill="#795B53"/>
</g>
<path d="M45.6736 34.5773C45.0073 34.5773 45.1012 34.7892 44.6836 35.206C44.4694 35.4197 44.0688 35.6583 43.9523 35.8909" stroke="#B3B3B3" stroke-width="5" stroke-linecap="round"/>
<path d="M45.3698 34.8805C45.2331 35.0339 45.1478 35.1933 44.9648 35.2846" stroke="#B3B3B3" stroke-width="5" stroke-linecap="round"/>
<path d="M45.2686 34.6784C45.2246 35.0297 44.7504 35.1984 44.5598 35.4362C44.4264 35.6026 44.1633 35.9877 43.9523 36.093" stroke="#B3B3B3" stroke-width="5" stroke-linecap="round"/>
<path d="M69.0636 25.9889C68.8549 25.7807 68.6461 25.5959 68.456 25.3826C68.2713 25.1752 68.2123 24.8157 68.051 24.5743" stroke="#B3B3B3" stroke-width="5" stroke-linecap="round"/>
<ellipse cx="51.6577" cy="10.0656" rx="9.83481" ry="8.80744" fill="#D9D9D9"/>
<ellipse cx="66.9143" cy="11.4497" rx="9.45654" ry="8.93326" fill="#D9D9D9"/>
<ellipse cx="71.7056" cy="17.3632" rx="10.2131" ry="8.5558" fill="#D9D9D9"/>
<path d="M56.5587 18.1968C56.4174 21.0284 50.9727 23.059 44.3977 22.7322C37.8226 22.4054 32.6071 19.8451 32.7484 17.0135C32.8897 14.1819 38.2816 9.8189 44.8567 10.1457C51.4317 10.4725 56.7 15.3652 56.5587 18.1968Z" fill="#D9D9D9"/>
<ellipse cx="49.8925" cy="9.68817" rx="4.28697" ry="4.40372" fill="#D9D9D9"/>
<path d="M43.2784 17.5136C44.1439 15.8733 45.8461 14.8468 47.7007 14.8468H64.8084C67.413 14.8468 69.5813 16.8463 69.792 19.4423L69.9486 21.3703C70.0256 22.3193 69.8301 23.2705 69.385 24.1121L68.0926 26.5563C67.7717 27.1632 67.5792 27.8296 67.5271 28.5142L67.3803 30.4441C67.1549 33.405 64.4139 35.5182 61.4931 34.9827L56.9621 34.1521C56.3794 34.0452 55.7823 34.0428 55.1987 34.145L50.0873 35.0394C47.188 35.5468 44.4799 33.4524 44.2418 30.5188L43.8866 26.143C43.8161 25.2744 43.5193 24.4386 43.0266 23.7199V23.7199C41.977 22.1885 41.861 20.2 42.7274 18.558L43.2784 17.5136Z" fill="#D9D9D9"/>
<path d="M69.3323 26.4976C69.2585 25.908 67.4648 25.1642 66.9158 24.945C65.5668 24.4066 64.2587 23.8282 62.8524 23.5164C61.7947 23.2818 60.7921 23.5246 59.7903 23.5246C58.9973 23.5246 57.7844 23.3781 57.1172 23.8219" stroke="#B3B3B3" stroke-width="5" stroke-linecap="round"/>
<path d="M82.3907 79.5105C82.3536 79.1303 82.0588 78.1349 81.7274 77.9351C81.4077 77.7424 80.8667 77.5959 80.685 78.1077C80.5399 78.517 80.1503 79.0095 80.3534 79.4673C80.613 80.0527 81.1415 80.3357 81.5905 80.7729C81.8637 81.0389 82.2405 81.5575 82.5803 81.7225C83.2279 82.0368 83.9203 81.0505 84.2859 80.6758C84.6574 80.2951 85.2027 79.4815 85.2335 78.9278C85.2445 78.7317 85.4069 78.4409 85.3072 78.248C85.1974 78.0354 84.8722 78.1075 84.7071 77.9998C83.9474 77.5044 83.2858 78.2466 83.2436 79.0249C83.2338 79.2058 83.161 79.8433 83.033 79.9744C82.8453 80.1668 82.4241 79.4118 82.3855 79.2731C82.2758 78.8796 81.9281 78.9745 81.68 78.7767C81.3083 78.4805 81.052 79.0664 81.2747 79.2947C81.5864 79.6141 81.6523 78.3358 81.3958 78.5987C81.2056 78.7935 81.0932 79.7047 81.4431 79.7047" stroke="#D49393" stroke-width="5" stroke-linecap="round"/>
<path d="M81.0525 78.8661C81.0525 79.4332 81.5164 79.6861 81.8226 80.0519C81.9573 80.2128 81.9745 80.3896 82.062 80.5777C82.2726 81.0305 82.0269 80.2544 82.1348 80.3372C82.5513 80.657 82.4303 81.2078 83.0403 80.7791C83.4485 80.4921 83.9561 79.9954 83.9561 79.4254C83.9561 79.1404 84.0762 79.0434 84.1382 78.8101C84.1954 78.5951 84.3308 79.1891 84.3308 79.3192C84.3308 79.6276 84.2893 79.6155 84.0966 79.8226C83.8917 80.0429 83.905 80.0973 83.7896 80.3764C83.6142 80.8007 83.4739 81.1072 83.1652 81.4392C82.8434 81.785 82.5933 81.0712 82.4575 80.7791" stroke="#D49393" stroke-width="5" stroke-linecap="round"/>
<path d="M81.2581 78.7637C80.9967 78.7637 81.059 78.8834 81.059 79.0464C81.059 79.3001 81.2285 79.2653 81.5568 79.2653" stroke="#D49393" stroke-width="5" stroke-linecap="round"/>
<path d="M77.2699 89.5731C77.2699 99.8636 66.0925 108.206 52.3046 108.206C38.5166 108.206 27.3393 99.8636 27.3393 89.5731C27.3393 79.2826 38.5166 87.2245 52.3046 87.2245C66.0925 87.2245 77.2699 79.2826 77.2699 89.5731Z" fill="#D9D9D9"/>
<path d="M75.4654 89.2348C75.4013 88.5016 75.2595 87.8917 75.0453 87.3887L74.5853 87.5846C74.3437 87.0173 74.0071 86.6264 73.5887 86.3566L73.8597 85.9364C73.3627 85.6158 72.761 85.4326 72.0654 85.3534L72.0089 85.8502C71.4789 85.7899 70.8774 85.7937 70.2043 85.8495L70.1631 85.3512C69.5753 85.3999 68.9462 85.486 68.2796 85.5981L68.3625 86.0912C67.7756 86.19 67.1571 86.3096 66.5079 86.4427L66.4075 85.9529C65.8088 86.0757 65.187 86.2093 64.5443 86.3474L64.6493 86.8363L64.6177 86.843C64.0251 86.9704 63.4127 87.1021 62.7839 87.2327L62.6822 86.7432C62.0745 86.8694 61.4516 86.9947 60.8149 87.1147L60.9075 87.606C60.2905 87.7223 59.6599 87.8336 59.0171 87.9361L58.9384 87.4423C58.32 87.5409 57.6909 87.6311 57.0521 87.7093L57.1129 88.2056C56.4842 88.2825 55.8456 88.3481 55.1984 88.3988L55.1593 87.9003C54.5328 87.9494 53.8986 87.9844 53.2576 88.0022L53.2715 88.502C52.9509 88.5109 52.6286 88.5155 52.3046 88.5155C51.9806 88.5155 51.6583 88.5109 51.3378 88.502L51.3516 88.0022C50.7107 87.9844 50.0764 87.9494 49.4499 87.9003L49.4108 88.3988C48.7636 88.3481 48.125 88.2825 47.4963 88.2056L47.5571 87.7093C46.9183 87.6311 46.2892 87.5409 45.6708 87.4423L45.5921 87.9361C44.9493 87.8336 44.3187 87.7223 43.7018 87.606L43.7943 87.1147C43.1576 86.9947 42.5347 86.8694 41.927 86.7432L41.8253 87.2327C41.1965 87.1021 40.5841 86.9704 39.9914 86.843L39.9599 86.8363L40.065 86.3474C39.4222 86.2093 38.8005 86.0757 38.2017 85.9529L38.1013 86.4427C37.4521 86.3096 36.8336 86.19 36.2467 86.0912L36.3297 85.5981C35.663 85.486 35.0339 85.3999 34.4462 85.3512L34.4049 85.8495C33.7318 85.7937 33.1303 85.7899 32.6004 85.8502L32.5438 85.3534C31.8482 85.4326 31.2465 85.6158 30.7495 85.9364L31.0205 86.3566C30.6021 86.6264 30.2655 87.0173 30.0239 87.5846L29.5639 87.3887C29.3497 87.8917 29.2079 88.5016 29.1438 89.2348L29.6419 89.2784C29.6173 89.5603 29.6046 89.8641 29.6046 90.1911C29.6046 90.5133 29.6169 90.8333 29.6412 91.1509L29.1427 91.1891C29.1939 91.8572 29.2962 92.5152 29.4467 93.1609L29.9336 93.0474C30.0789 93.6706 30.271 94.2825 30.5074 94.8811L30.0424 95.0648C30.2853 95.68 30.5731 96.2809 30.9029 96.8655L31.3384 96.6198C31.6513 97.1745 32.0038 97.7147 32.3935 98.2386L31.9924 98.5371C32.3846 99.0642 32.8128 99.5745 33.2745 100.066L33.6389 99.7237C34.0761 100.189 34.5448 100.638 35.0428 101.068L34.7159 101.447C35.2126 101.876 35.7371 102.287 36.2875 102.677L36.577 102.27C37.1002 102.641 37.6476 102.995 38.2176 103.329L37.9649 103.76C38.5318 104.092 39.12 104.405 39.7278 104.697L39.9444 104.246C40.5252 104.526 41.1246 104.786 41.7409 105.026L41.5594 105.492C42.1726 105.731 42.8019 105.95 43.4457 106.148L43.5927 105.67C44.2109 105.86 44.843 106.031 45.4875 106.181L45.3743 106.668C46.0154 106.817 46.6684 106.946 47.3321 107.053L47.4123 106.56C48.0516 106.664 48.7012 106.748 49.3596 106.811L49.3119 107.308C49.9682 107.371 50.6331 107.414 51.3053 107.435L51.3211 106.935C51.6472 106.946 51.9751 106.951 52.3046 106.951C52.6342 106.951 52.962 106.946 53.2881 106.935L53.3039 107.435C53.9762 107.414 54.641 107.371 55.2973 107.308L55.2496 106.811C55.9081 106.748 56.5576 106.664 57.197 106.56L57.2771 107.053C57.9408 106.946 58.5939 106.817 59.2349 106.668L59.1217 106.181C59.7663 106.031 60.3983 105.86 61.0165 105.67L61.1635 106.148C61.8074 105.95 62.4366 105.731 63.0498 105.492L62.8683 105.026C63.4846 104.786 64.084 104.526 64.6648 104.246L64.8815 104.697C65.4892 104.405 66.0775 104.092 66.6444 103.76L66.3917 103.329C66.9616 102.995 67.5091 102.641 68.0322 102.27L68.3217 102.677C68.8721 102.287 69.3966 101.876 69.8933 101.447L69.5664 101.068C70.0644 100.638 70.5331 100.189 70.9703 99.7237L71.3347 100.066C71.7964 99.5745 72.2246 99.0642 72.6168 98.5371L72.2157 98.2386C72.6054 97.7147 72.9579 97.1745 73.2708 96.6198L73.7063 96.8655C74.0361 96.2809 74.3239 95.68 74.5668 95.0648L74.1018 94.8811C74.3382 94.2825 74.5303 93.6706 74.6756 93.0474L75.1625 93.1609C75.313 92.5152 75.4153 91.8572 75.4665 91.1891L74.968 91.1509C74.9923 90.8333 75.0047 90.5133 75.0047 90.1911C75.0047 89.8641 74.992 89.5603 74.9673 89.2784L75.4654 89.2348Z" stroke="#DD9696" stroke-dasharray="2 2"/>
<path d="M94.1147 73.2723C96.9311 69.7398 100.66 61.8799 93.0436 58.7006" stroke="white" stroke-width="5"/>
<path d="M11.4058 76.1153C6.30606 72.0801 -0.572138 62.7329 12.7132 57.6258" stroke="white" stroke-width="5"/>
<g filter="url(#filter14_d_38_1649)">
<ellipse cx="52.4306" cy="73.2276" rx="43.5001" ry="41.7724" fill="#D4B793"/>
</g>
<path d="M55.3111 18.0801C55.1624 21.0587 49.7118 23.2083 43.1367 22.8815C36.5617 22.5547 31.3521 19.8753 31.5008 16.8967C31.6494 13.9182 37.0533 9.31561 43.6283 9.64239C50.2034 9.96918 55.4597 15.1016 55.3111 18.0801Z" fill="#B3B3B3"/>
<ellipse cx="48.6316" cy="8.93326" rx="4.28697" ry="4.40372" fill="#B3B3B3"/>
<ellipse cx="51.4055" cy="8.80744" rx="9.83481" ry="8.80744" fill="#B3B3B3"/>
<g filter="url(#filter15_df_38_1649)">
<ellipse cx="53.549" cy="73.4792" rx="42.2392" ry="40.7659" fill="#795B53"/>
</g>
<path d="M41.8854 18.0756C42.7824 16.5433 44.4248 15.6017 46.2003 15.6017H66.5348C69.1224 15.6017 71.2825 17.576 71.5146 20.1532L71.6879 22.0769C71.7814 23.1151 71.5481 24.1566 71.0206 25.0557L69.6434 27.4028C69.2654 28.0472 69.0365 28.768 68.9736 29.5124L68.7977 31.5963C68.5522 34.5039 65.8793 36.5843 63.0004 36.1087L56.9252 35.105C56.3976 35.0178 55.8595 35.0158 55.3313 35.0991L48.613 36.1587C45.7559 36.6092 43.1137 34.5489 42.8543 31.6682L42.439 27.0575C42.3586 26.1647 42.0281 25.3127 41.4854 24.5992V24.5992C40.3163 23.062 40.1901 20.9714 41.1658 19.3047L41.8854 18.0756Z" fill="#B3B3B3"/>
<ellipse cx="66.9143" cy="10.1915" rx="9.45654" ry="8.93326" fill="#B3B3B3"/>
<ellipse cx="72.4621" cy="17.3632" rx="10.4652" ry="9.31072" fill="#B3B3B3"/>
<g filter="url(#filter16_d_38_1649)">
<path d="M95.9307 73.1368C95.9307 96.2572 76.6716 115 52.5931 115C28.5147 115 8.99521 96.2572 8.99521 73.1368C7.4335 62.5418 34.5032 76.2378 52.5931 81.6645C74.0667 73.1368 95.9307 59.6993 95.9307 73.1368Z" fill="white"/>
</g>
<g filter="url(#filter17_i_38_1649)">
<ellipse cx="53.549" cy="73.4792" rx="8.70002" ry="8.30416" fill="#895C4C"/>
</g>
<g filter="url(#filter18_d_38_1649)">
<ellipse cx="80.4056" cy="36.1105" rx="8.82611" ry="8.93326" fill="#D4B793"/>
</g>
<g filter="url(#filter19_d_38_1649)">
<ellipse cx="53.9273" cy="55.7385" rx="7.56524" ry="7.42341" fill="#D4B793"/>
</g>
<g filter="url(#filter20_d_38_1649)">
<ellipse cx="79.6491" cy="37.6203" rx="7.31306" ry="7.42341" fill="#795B53"/>
</g>
<g filter="url(#filter21_d_38_1649)">
<ellipse cx="69.31" cy="51.3348" rx="3.02609" ry="2.76805" fill="#59423D"/>
</g>
<g filter="url(#filter22_d_38_1649)">
<ellipse cx="53.5491" cy="52.3414" rx="2.64783" ry="2.51641" fill="#785952"/>
</g>
<g filter="url(#filter23_d_38_1649)">
<path d="M41.0664 51.7123C41.0664 53.4495 39.5422 54.8578 37.662 54.8578C35.7819 54.8578 34.2577 53.4495 34.2577 51.7123C34.2577 49.975 35.7819 48.5667 37.662 48.5667C39.5422 48.5667 41.0664 49.975 41.0664 51.7123Z" fill="#59423D"/>
</g>
<g filter="url(#filter24_d_38_1649)">
<path d="M53.6751 54.4803L53.6904 54.5371C54.2452 56.5935 55.6026 58.341 57.4577 59.3873V59.3873" stroke="#785952" stroke-width="5"/>
</g>
<g filter="url(#filter25_d_38_1649)">
<path d="M53.423 53.0963L53.3 53.6439C52.7742 55.9863 51.3753 58.0402 49.3882 59.3873V59.3873" stroke="#785952" stroke-width="5"/>
</g>
<g filter="url(#filter26_d_38_1649)">
<ellipse cx="29.4664" cy="36.1105" rx="8.82611" ry="8.93326" fill="#D4B793"/>
</g>
<g filter="url(#filter27_d_38_1649)">
<ellipse cx="30.2229" cy="37.6203" rx="7.31306" ry="7.42341" fill="#795B53"/>
<ellipse cx="30.2229" cy="37.6203" rx="7.31306" ry="7.42341" fill="#795B53"/>
</g>
<path d="M45.6736 34.5773C45.0073 34.5773 45.1012 34.7892 44.6836 35.206C44.4694 35.4197 44.0688 35.6583 43.9523 35.8909" stroke="#B3B3B3" stroke-width="5" stroke-linecap="round"/>
<path d="M45.3698 34.8805C45.2331 35.0339 45.1478 35.1933 44.9648 35.2846" stroke="#B3B3B3" stroke-width="5" stroke-linecap="round"/>
<path d="M45.2686 34.6784C45.2246 35.0297 44.7504 35.1984 44.5598 35.4362C44.4264 35.6026 44.1633 35.9877 43.9523 36.093" stroke="#B3B3B3" stroke-width="5" stroke-linecap="round"/>
<path d="M69.0636 25.9889C68.8549 25.7807 68.6461 25.5959 68.456 25.3826C68.2713 25.1752 68.2123 24.8157 68.051 24.5743" stroke="#B3B3B3" stroke-width="5" stroke-linecap="round"/>
<ellipse cx="51.6577" cy="10.0656" rx="9.83481" ry="8.80744" fill="#D9D9D9"/>
<ellipse cx="66.9143" cy="11.4497" rx="9.45654" ry="8.93326" fill="#D9D9D9"/>
<ellipse cx="71.7056" cy="17.3632" rx="10.2131" ry="8.5558" fill="#D9D9D9"/>
<path d="M56.5587 18.1968C56.4174 21.0284 50.9727 23.059 44.3977 22.7322C37.8226 22.4054 32.6071 19.8451 32.7484 17.0135C32.8897 14.1819 38.2816 9.8189 44.8567 10.1457C51.4317 10.4725 56.7 15.3652 56.5587 18.1968Z" fill="#D9D9D9"/>
<ellipse cx="49.8925" cy="9.68817" rx="4.28697" ry="4.40372" fill="#D9D9D9"/>
<path d="M43.2784 17.5136C44.1439 15.8733 45.8461 14.8468 47.7007 14.8468H64.8084C67.413 14.8468 69.5813 16.8463 69.792 19.4423L69.9486 21.3703C70.0256 22.3193 69.8301 23.2705 69.385 24.1121L68.0926 26.5563C67.7717 27.1632 67.5792 27.8296 67.5271 28.5142L67.3803 30.4441C67.1549 33.405 64.4139 35.5182 61.4931 34.9827L56.9621 34.1521C56.3794 34.0452 55.7823 34.0428 55.1987 34.145L50.0873 35.0394C47.188 35.5468 44.4799 33.4524 44.2418 30.5188L43.8866 26.143C43.8161 25.2744 43.5193 24.4386 43.0266 23.7199V23.7199C41.977 22.1885 41.861 20.2 42.7274 18.558L43.2784 17.5136Z" fill="#D9D9D9"/>
<path d="M69.3323 26.4976C69.2585 25.908 67.4648 25.1642 66.9158 24.945C65.5668 24.4066 64.2587 23.8282 62.8524 23.5164C61.7947 23.2818 60.7921 23.5246 59.7903 23.5246C58.9973 23.5246 57.7844 23.3781 57.1172 23.8219" stroke="#B3B3B3" stroke-width="5" stroke-linecap="round"/>
<path d="M82.3907 79.5105C82.3536 79.1303 82.0588 78.1349 81.7274 77.9351C81.4077 77.7424 80.8667 77.5959 80.685 78.1077C80.5399 78.517 80.1503 79.0095 80.3534 79.4673C80.613 80.0527 81.1415 80.3357 81.5905 80.7729C81.8637 81.0389 82.2405 81.5575 82.5803 81.7225C83.2279 82.0368 83.9203 81.0505 84.2859 80.6758C84.6574 80.2951 85.2027 79.4815 85.2335 78.9278C85.2445 78.7317 85.4069 78.4409 85.3072 78.248C85.1974 78.0354 84.8722 78.1075 84.7071 77.9998C83.9474 77.5044 83.2858 78.2466 83.2436 79.0249C83.2338 79.2058 83.161 79.8433 83.033 79.9744C82.8453 80.1668 82.4241 79.4118 82.3855 79.2731C82.2758 78.8796 81.9281 78.9745 81.68 78.7767C81.3083 78.4805 81.052 79.0664 81.2747 79.2947C81.5864 79.6141 81.6523 78.3358 81.3958 78.5987C81.2056 78.7935 81.0932 79.7047 81.4431 79.7047" stroke="#D49393" stroke-width="5" stroke-linecap="round"/>
<path d="M81.0525 78.8661C81.0525 79.4332 81.5164 79.6861 81.8226 80.0519C81.9573 80.2128 81.9745 80.3896 82.062 80.5777C82.2726 81.0305 82.0269 80.2544 82.1348 80.3372C82.5513 80.657 82.4303 81.2078 83.0403 80.7791C83.4485 80.4921 83.9561 79.9954 83.9561 79.4254C83.9561 79.1404 84.0762 79.0434 84.1382 78.8101C84.1954 78.5951 84.3308 79.1891 84.3308 79.3192C84.3308 79.6276 84.2893 79.6155 84.0966 79.8226C83.8917 80.0429 83.905 80.0973 83.7896 80.3764C83.6142 80.8007 83.4739 81.1072 83.1652 81.4392C82.8434 81.785 82.5933 81.0712 82.4575 80.7791" stroke="#D49393" stroke-width="5" stroke-linecap="round"/>
<path d="M81.2581 78.7637C80.9967 78.7637 81.059 78.8834 81.059 79.0464C81.059 79.3001 81.2285 79.2653 81.5568 79.2653" stroke="#D49393" stroke-width="5" stroke-linecap="round"/>
<path d="M77.2699 89.5731C77.2699 99.8636 66.0925 108.206 52.3046 108.206C38.5166 108.206 27.3393 99.8636 27.3393 89.5731C27.3393 79.2826 38.5166 87.2245 52.3046 87.2245C66.0925 87.2245 77.2699 79.2826 77.2699 89.5731Z" fill="#D9D9D9"/>
<path d="M75.4654 89.2348C75.4013 88.5016 75.2595 87.8917 75.0453 87.3887L74.5853 87.5846C74.3437 87.0173 74.0071 86.6264 73.5887 86.3566L73.8597 85.9364C73.3627 85.6158 72.761 85.4326 72.0654 85.3534L72.0089 85.8502C71.4789 85.7899 70.8774 85.7937 70.2043 85.8495L70.1631 85.3512C69.5753 85.3999 68.9462 85.486 68.2796 85.5981L68.3625 86.0912C67.7756 86.19 67.1571 86.3096 66.5079 86.4427L66.4075 85.9529C65.8088 86.0757 65.187 86.2093 64.5443 86.3474L64.6493 86.8363L64.6177 86.843C64.0251 86.9704 63.4127 87.1021 62.7839 87.2327L62.6822 86.7432C62.0745 86.8694 61.4516 86.9947 60.8149 87.1147L60.9075 87.606C60.2905 87.7223 59.6599 87.8336 59.0171 87.9361L58.9384 87.4423C58.32 87.5409 57.6909 87.6311 57.0521 87.7093L57.1129 88.2056C56.4842 88.2825 55.8456 88.3481 55.1984 88.3988L55.1593 87.9003C54.5328 87.9494 53.8986 87.9844 53.2576 88.0022L53.2715 88.502C52.9509 88.5109 52.6286 88.5155 52.3046 88.5155C51.9806 88.5155 51.6583 88.5109 51.3378 88.502L51.3516 88.0022C50.7107 87.9844 50.0764 87.9494 49.4499 87.9003L49.4108 88.3988C48.7636 88.3481 48.125 88.2825 47.4963 88.2056L47.5571 87.7093C46.9183 87.6311 46.2892 87.5409 45.6708 87.4423L45.5921 87.9361C44.9493 87.8336 44.3187 87.7223 43.7018 87.606L43.7943 87.1147C43.1576 86.9947 42.5347 86.8694 41.927 86.7432L41.8253 87.2327C41.1965 87.1021 40.5841 86.9704 39.9914 86.843L39.9599 86.8363L40.065 86.3474C39.4222 86.2093 38.8005 86.0757 38.2017 85.9529L38.1013 86.4427C37.4521 86.3096 36.8336 86.19 36.2467 86.0912L36.3297 85.5981C35.663 85.486 35.0339 85.3999 34.4462 85.3512L34.4049 85.8495C33.7318 85.7937 33.1303 85.7899 32.6004 85.8502L32.5438 85.3534C31.8482 85.4326 31.2465 85.6158 30.7495 85.9364L31.0205 86.3566C30.6021 86.6264 30.2655 87.0173 30.0239 87.5846L29.5639 87.3887C29.3497 87.8917 29.2079 88.5016 29.1438 89.2348L29.6419 89.2784C29.6173 89.5603 29.6046 89.8641 29.6046 90.1911C29.6046 90.5133 29.6169 90.8333 29.6412 91.1509L29.1427 91.1891C29.1939 91.8572 29.2962 92.5152 29.4467 93.1609L29.9336 93.0474C30.0789 93.6706 30.271 94.2825 30.5074 94.8811L30.0424 95.0648C30.2853 95.68 30.5731 96.2809 30.9029 96.8655L31.3384 96.6198C31.6513 97.1745 32.0038 97.7147 32.3935 98.2386L31.9924 98.5371C32.3846 99.0642 32.8128 99.5745 33.2745 100.066L33.6389 99.7237C34.0761 100.189 34.5448 100.638 35.0428 101.068L34.7159 101.447C35.2126 101.876 35.7371 102.287 36.2875 102.677L36.577 102.27C37.1002 102.641 37.6476 102.995 38.2176 103.329L37.9649 103.76C38.5318 104.092 39.12 104.405 39.7278 104.697L39.9444 104.246C40.5252 104.526 41.1246 104.786 41.7409 105.026L41.5594 105.492C42.1726 105.731 42.8019 105.95 43.4457 106.148L43.5927 105.67C44.2109 105.86 44.843 106.031 45.4875 106.181L45.3743 106.668C46.0154 106.817 46.6684 106.946 47.3321 107.053L47.4123 106.56C48.0516 106.664 48.7012 106.748 49.3596 106.811L49.3119 107.308C49.9682 107.371 50.6331 107.414 51.3053 107.435L51.3211 106.935C51.6472 106.946 51.9751 106.951 52.3046 106.951C52.6342 106.951 52.962 106.946 53.2881 106.935L53.3039 107.435C53.9762 107.414 54.641 107.371 55.2973 107.308L55.2496 106.811C55.9081 106.748 56.5576 106.664 57.197 106.56L57.2771 107.053C57.9408 106.946 58.5939 106.817 59.2349 106.668L59.1217 106.181C59.7663 106.031 60.3983 105.86 61.0165 105.67L61.1635 106.148C61.8074 105.95 62.4366 105.731 63.0498 105.492L62.8683 105.026C63.4846 104.786 64.084 104.526 64.6648 104.246L64.8815 104.697C65.4892 104.405 66.0775 104.092 66.6444 103.76L66.3917 103.329C66.9616 102.995 67.5091 102.641 68.0322 102.27L68.3217 102.677C68.8721 102.287 69.3966 101.876 69.8933 101.447L69.5664 101.068C70.0644 100.638 70.5331 100.189 70.9703 99.7237L71.3347 100.066C71.7964 99.5745 72.2246 99.0642 72.6168 98.5371L72.2157 98.2386C72.6054 97.7147 72.9579 97.1745 73.2708 96.6198L73.7063 96.8655C74.0361 96.2809 74.3239 95.68 74.5668 95.0648L74.1018 94.8811C74.3382 94.2825 74.5303 93.6706 74.6756 93.0474L75.1625 93.1609C75.313 92.5152 75.4153 91.8572 75.4665 91.1891L74.968 91.1509C74.9923 90.8333 75.0047 90.5133 75.0047 90.1911C75.0047 89.8641 74.992 89.5603 74.9673 89.2784L75.4654 89.2348Z" stroke="#DD9696" stroke-dasharray="2 2"/>
<g filter="url(#filter28_d_38_1649)">
<path d="M6.064 127.256L9.024 127.272C10.5707 127.272 11.9307 127.832 13.104 128.952C14.2773 130.061 14.864 131.432 14.864 133.064C14.864 134.685 14.288 136.077 13.136 137.24C11.9947 138.403 10.608 138.984 8.976 138.984H6.048C5.39733 138.984 4.992 138.851 4.832 138.584C4.704 138.36 4.64 138.019 4.64 137.56V128.664C4.64 128.408 4.64533 128.221 4.656 128.104C4.67733 127.987 4.73067 127.848 4.816 127.688C4.96533 127.4 5.38133 127.256 6.064 127.256ZM9.024 136.152C9.792 136.152 10.4853 135.869 11.104 135.304C11.7227 134.728 12.032 134.008 12.032 133.144C12.032 132.28 11.728 131.56 11.12 130.984C10.5227 130.397 9.81867 130.104 9.008 130.104H7.472V136.152H9.024ZM15.6656 134.792C15.6656 133.512 16.1136 132.456 17.0096 131.624C17.9056 130.792 18.9296 130.376 20.0816 130.376C21.2336 130.376 22.2523 130.792 23.1376 131.624C24.023 132.445 24.4656 133.496 24.4656 134.776C24.4656 135.661 24.2363 136.451 23.7776 137.144C23.319 137.827 22.759 138.333 22.0976 138.664C21.447 138.984 20.7696 139.144 20.0656 139.144C19.3616 139.144 18.679 138.973 18.0176 138.632C17.3563 138.28 16.7963 137.768 16.3376 137.096C15.8896 136.413 15.6656 135.645 15.6656 134.792ZM19.0096 135.944C19.351 136.2 19.6976 136.328 20.0496 136.328C20.4016 136.328 20.7536 136.195 21.1056 135.928C21.4576 135.661 21.6336 135.267 21.6336 134.744C21.6336 134.221 21.4683 133.832 21.1376 133.576C20.807 133.32 20.4496 133.192 20.0656 133.192C19.6816 133.192 19.3243 133.325 18.9936 133.592C18.663 133.859 18.4976 134.253 18.4976 134.776C18.4976 135.288 18.6683 135.677 19.0096 135.944ZM30.1874 130.568C31.254 130.568 32.1394 130.979 32.8434 131.8C33.558 132.611 33.9154 133.603 33.9154 134.776V137.592C33.9154 137.837 33.9047 138.024 33.8834 138.152C33.8727 138.269 33.83 138.403 33.7554 138.552C33.606 138.84 33.19 138.984 32.5074 138.984C31.75 138.984 31.3127 138.787 31.1954 138.392C31.1314 138.211 31.0994 137.939 31.0994 137.576V134.76C31.0994 134.323 30.9714 133.981 30.7154 133.736C30.47 133.491 30.134 133.368 29.7074 133.368C29.2914 133.368 28.95 133.496 28.6834 133.752C28.4274 134.008 28.2994 134.344 28.2994 134.76V137.592C28.2994 137.837 28.2887 138.024 28.2674 138.152C28.2567 138.269 28.2087 138.403 28.1234 138.552C27.9847 138.84 27.574 138.984 26.8914 138.984C26.2194 138.984 25.8087 138.84 25.6594 138.552C25.5847 138.392 25.5367 138.253 25.5154 138.136C25.5047 138.008 25.4994 137.821 25.4994 137.576V131.912C25.4994 131.677 25.5047 131.501 25.5154 131.384C25.5367 131.256 25.59 131.117 25.6754 130.968C25.8247 130.701 26.2354 130.568 26.9074 130.568C27.558 130.568 27.958 130.691 28.1074 130.936C28.214 131.117 28.2674 131.336 28.2674 131.592C28.31 131.517 28.406 131.411 28.5554 131.272C28.7047 131.133 28.8487 131.021 28.9874 130.936C29.35 130.691 29.75 130.568 30.1874 130.568ZM38.9465 138.968C37.8692 138.968 36.9732 138.563 36.2585 137.752C35.5545 136.931 35.2025 135.933 35.2025 134.76V131.96C35.2025 131.704 35.2078 131.517 35.2185 131.4C35.2398 131.283 35.2878 131.144 35.3625 130.984C35.5118 130.696 35.9278 130.552 36.6105 130.552C37.3572 130.552 37.7945 130.755 37.9225 131.16C37.9865 131.331 38.0185 131.603 38.0185 131.976V134.776C38.0185 135.213 38.1412 135.555 38.3865 135.8C38.6425 136.045 38.9785 136.168 39.3945 136.168C39.8212 136.168 40.1625 136.04 40.4185 135.784C40.6852 135.528 40.8185 135.192 40.8185 134.776V131.944C40.8185 131.699 40.8238 131.517 40.8345 131.4C40.8558 131.272 40.9092 131.128 40.9945 130.968C41.1332 130.691 41.5438 130.552 42.2265 130.552C42.8985 130.552 43.3092 130.696 43.4585 130.984C43.5332 131.144 43.5758 131.288 43.5865 131.416C43.6078 131.533 43.6185 131.715 43.6185 131.96V137.624C43.6185 137.859 43.6078 138.04 43.5865 138.168C43.5758 138.285 43.5278 138.419 43.4425 138.568C43.2825 138.845 42.8718 138.984 42.2105 138.984C41.5598 138.984 41.1598 138.856 41.0105 138.6C40.9038 138.419 40.8505 138.2 40.8505 137.944C40.8078 138.019 40.7118 138.125 40.5625 138.264C40.4132 138.403 40.2692 138.52 40.1305 138.616C39.7678 138.851 39.3732 138.968 38.9465 138.968ZM49.8016 133.4L48.7616 133.336V135.544C48.7616 135.832 48.8043 136.04 48.8896 136.168C48.9856 136.296 49.1563 136.36 49.4016 136.36C49.6576 136.36 49.8496 136.371 49.9776 136.392C50.1163 136.403 50.2603 136.451 50.4096 136.536C50.655 136.675 50.7776 137.032 50.7776 137.608C50.7776 138.28 50.6283 138.691 50.3296 138.84C50.1696 138.915 50.0256 138.963 49.8976 138.984C49.7803 138.995 49.6043 139 49.3696 139C48.2603 139 47.4176 138.749 46.8416 138.248C46.2656 137.747 45.9776 136.899 45.9776 135.704V133.336C45.775 133.368 45.5563 133.384 45.3216 133.384C45.087 133.384 44.8896 133.293 44.7296 133.112C44.5803 132.931 44.5056 132.621 44.5056 132.184C44.5056 131.747 44.5323 131.432 44.5856 131.24C44.639 131.037 44.7136 130.893 44.8096 130.808C44.9803 130.669 45.1936 130.6 45.4496 130.6L45.9776 130.664V129.016C45.9776 128.771 45.983 128.589 45.9936 128.472C46.015 128.355 46.0683 128.227 46.1536 128.088C46.2923 127.821 46.703 127.688 47.3856 127.688C48.111 127.688 48.543 127.885 48.6816 128.28C48.735 128.451 48.7616 128.723 48.7616 129.096V130.664C49.231 130.621 49.583 130.6 49.8176 130.6C50.063 130.6 50.2443 130.611 50.3616 130.632C50.4896 130.643 50.6336 130.691 50.7936 130.776C51.071 130.915 51.2096 131.325 51.2096 132.008C51.2096 132.68 51.0656 133.091 50.7776 133.24C50.6176 133.315 50.4736 133.363 50.3456 133.384C50.2283 133.395 50.047 133.4 49.8016 133.4ZM70.172 127.336C70.8867 127.592 71.244 127.933 71.244 128.36C71.244 128.499 71.18 128.76 71.052 129.144L67.98 138.024C67.9587 138.099 67.9213 138.189 67.868 138.296C67.8147 138.403 67.6707 138.547 67.436 138.728C67.212 138.899 66.94 138.984 66.62 138.984C66.3107 138.984 66.0387 138.899 65.804 138.728C65.58 138.547 65.4307 138.371 65.356 138.2L63.484 132.68C62.3 136.179 61.6973 137.96 61.676 138.024C61.6547 138.088 61.6067 138.179 61.532 138.296C61.4573 138.413 61.372 138.52 61.276 138.616C61.0307 138.861 60.7373 138.984 60.396 138.984C60.0547 138.984 59.772 138.904 59.548 138.744C59.3347 138.584 59.1907 138.424 59.116 138.264L59.004 138.024L55.916 129.144C55.7987 128.792 55.74 128.531 55.74 128.36C55.74 127.933 56.0973 127.597 56.812 127.352C57.1213 127.245 57.3987 127.192 57.644 127.192C57.9 127.192 58.092 127.277 58.22 127.448C58.3587 127.619 58.4813 127.88 58.588 128.232L60.348 133.576L62.092 128.312C62.2413 127.864 62.5133 127.555 62.908 127.384C63.0787 127.309 63.2973 127.272 63.564 127.272C63.8413 127.272 64.0973 127.363 64.332 127.544C64.5667 127.715 64.716 127.885 64.78 128.056L66.62 133.608L68.38 128.232C68.4653 127.987 68.5347 127.805 68.588 127.688C68.6413 127.571 68.7373 127.459 68.876 127.352C69.0253 127.235 69.2067 127.176 69.42 127.176C69.6333 127.176 69.884 127.229 70.172 127.336ZM70.7594 134.792C70.7594 133.512 71.2074 132.456 72.1034 131.624C72.9994 130.792 74.0234 130.376 75.1754 130.376C76.3274 130.376 77.346 130.792 78.2314 131.624C79.1167 132.445 79.5594 133.496 79.5594 134.776C79.5594 135.661 79.33 136.451 78.8714 137.144C78.4127 137.827 77.8527 138.333 77.1914 138.664C76.5407 138.984 75.8634 139.144 75.1594 139.144C74.4554 139.144 73.7727 138.973 73.1114 138.632C72.45 138.28 71.89 137.768 71.4314 137.096C70.9834 136.413 70.7594 135.645 70.7594 134.792ZM74.1034 135.944C74.4447 136.2 74.7914 136.328 75.1434 136.328C75.4954 136.328 75.8474 136.195 76.1994 135.928C76.5514 135.661 76.7274 135.267 76.7274 134.744C76.7274 134.221 76.562 133.832 76.2314 133.576C75.9007 133.32 75.5434 133.192 75.1594 133.192C74.7754 133.192 74.418 133.325 74.0874 133.592C73.7567 133.859 73.5914 134.253 73.5914 134.776C73.5914 135.288 73.762 135.677 74.1034 135.944ZM86.3211 130.664C86.5238 130.728 86.6891 130.84 86.8171 131C86.9558 131.149 87.0251 131.395 87.0251 131.736C87.0251 132.077 86.9238 132.451 86.7211 132.856C86.5185 133.261 86.2251 133.464 85.8411 133.464C85.6491 133.464 85.4625 133.421 85.2811 133.336C85.1105 133.251 84.8811 133.208 84.5931 133.208C84.3051 133.208 84.0331 133.309 83.7771 133.512C83.5318 133.715 83.4091 133.96 83.4091 134.248V137.608C83.4091 137.853 83.3985 138.04 83.3771 138.168C83.3665 138.285 83.3185 138.424 83.2331 138.584C83.0731 138.861 82.6571 139 81.9851 139C81.4731 139 81.1051 138.909 80.8811 138.728C80.7105 138.579 80.6145 138.349 80.5931 138.04C80.5931 137.933 80.5931 137.779 80.5931 137.576V131.96C80.5931 131.715 80.5985 131.533 80.6091 131.416C80.6305 131.288 80.6785 131.149 80.7531 131C80.9025 130.712 81.3185 130.568 82.0011 130.568C82.6411 130.568 83.0411 130.691 83.2011 130.936C83.3185 131.107 83.3771 131.283 83.3771 131.464C83.4305 131.389 83.5051 131.299 83.6011 131.192C83.7078 131.085 83.9265 130.941 84.2571 130.76C84.5878 130.579 84.8758 130.488 85.1211 130.488C85.3771 130.488 85.5905 130.504 85.7611 130.536C85.9318 130.557 86.1185 130.6 86.3211 130.664ZM93.6336 130.664C93.8363 130.728 94.0016 130.84 94.1296 131C94.2683 131.149 94.3376 131.395 94.3376 131.736C94.3376 132.077 94.2363 132.451 94.0336 132.856C93.831 133.261 93.5376 133.464 93.1536 133.464C92.9616 133.464 92.775 133.421 92.5936 133.336C92.423 133.251 92.1936 133.208 91.9056 133.208C91.6176 133.208 91.3456 133.309 91.0896 133.512C90.8443 133.715 90.7216 133.96 90.7216 134.248V137.608C90.7216 137.853 90.711 138.04 90.6896 138.168C90.679 138.285 90.631 138.424 90.5456 138.584C90.3856 138.861 89.9696 139 89.2976 139C88.7856 139 88.4176 138.909 88.1936 138.728C88.023 138.579 87.927 138.349 87.9056 138.04C87.9056 137.933 87.9056 137.779 87.9056 137.576V131.96C87.9056 131.715 87.911 131.533 87.9216 131.416C87.943 131.288 87.991 131.149 88.0656 131C88.215 130.712 88.631 130.568 89.3136 130.568C89.9536 130.568 90.3536 130.691 90.5136 130.936C90.631 131.107 90.6896 131.283 90.6896 131.464C90.743 131.389 90.8176 131.299 90.9136 131.192C91.0203 131.085 91.239 130.941 91.5696 130.76C91.9003 130.579 92.1883 130.488 92.4336 130.488C92.6896 130.488 92.903 130.504 93.0736 130.536C93.2443 130.557 93.431 130.6 93.6336 130.664ZM103.058 130.664C103.687 130.941 104.002 131.277 104.002 131.672C104.002 131.864 103.959 132.045 103.874 132.216C103.789 132.387 103.746 132.477 103.746 132.488L99.5541 141.864C99.4688 142.067 99.3941 142.221 99.3301 142.328C99.2768 142.435 99.1861 142.536 99.0581 142.632C98.9301 142.728 98.7701 142.776 98.5781 142.776C98.3861 142.776 98.1035 142.696 97.7301 142.536C97.1008 142.259 96.7861 141.928 96.7861 141.544C96.7861 141.288 97.2981 140.067 98.3221 137.88L95.1381 132.52C94.9248 132.168 94.8181 131.907 94.8181 131.736C94.8181 131.395 95.1061 131.053 95.6821 130.712C96.0448 130.499 96.3275 130.392 96.5301 130.392C96.7328 130.392 96.8981 130.435 97.0261 130.52C97.1541 130.605 97.2448 130.696 97.2981 130.792C97.3621 130.877 97.6555 131.373 98.1781 132.28C98.7115 133.176 99.2181 134.013 99.6981 134.792C99.7515 134.621 100.039 133.965 100.562 132.824C101.085 131.672 101.362 131.059 101.394 130.984C101.437 130.909 101.501 130.819 101.586 130.712C101.725 130.531 101.917 130.44 102.162 130.44C102.418 130.44 102.717 130.515 103.058 130.664ZM103.701 136.488C103.797 136.317 103.952 136.2 104.165 136.136C104.379 136.061 104.72 136.024 105.189 136.024C105.659 136.024 105.995 136.131 106.197 136.344C106.411 136.547 106.517 136.947 106.517 137.544C106.517 137.768 106.501 137.976 106.469 138.168C106.373 139.075 106.075 139.864 105.573 140.536C105.072 141.208 104.485 141.544 103.813 141.544C103.739 141.544 103.669 141.485 103.605 141.368C103.552 141.261 103.525 141.117 103.525 140.936C103.525 140.765 103.547 140.627 103.589 140.52C103.643 140.413 103.707 140.344 103.781 140.312C103.856 140.291 103.931 140.248 104.005 140.184C104.091 140.131 104.203 139.992 104.341 139.768C104.48 139.544 104.56 139.288 104.581 139C104.24 138.957 103.973 138.845 103.781 138.664C103.6 138.472 103.509 138.168 103.509 137.752C103.52 137.325 103.531 137.053 103.541 136.936C103.563 136.808 103.616 136.659 103.701 136.488ZM11.968 154.928L12.256 154.72C12.6187 154.507 12.8747 154.4 13.024 154.4C13.3547 154.4 13.712 154.699 14.096 155.296C14.3307 155.669 14.448 155.968 14.448 156.192C14.448 156.416 14.3733 156.603 14.224 156.752C14.0853 156.901 13.92 157.035 13.728 157.152C13.536 157.269 13.3493 157.381 13.168 157.488C12.9973 157.595 12.64 157.733 12.096 157.904C11.552 158.075 11.024 158.16 10.512 158.16C10.0107 158.16 9.49867 158.096 8.976 157.968C8.464 157.829 7.93067 157.605 7.376 157.296C6.832 156.976 6.34133 156.592 5.904 156.144C5.46667 155.685 5.104 155.104 4.816 154.4C4.53867 153.685 4.4 152.912 4.4 152.08C4.4 151.248 4.53867 150.496 4.816 149.824C5.09333 149.141 5.44533 148.581 5.872 148.144C6.30933 147.696 6.80533 147.323 7.36 147.024C8.40533 146.448 9.456 146.16 10.512 146.16C11.0133 146.16 11.52 146.24 12.032 146.4C12.5547 146.549 12.9493 146.704 13.216 146.864L13.6 147.088C13.792 147.205 13.9413 147.301 14.048 147.376C14.3253 147.6 14.464 147.856 14.464 148.144C14.464 148.421 14.352 148.715 14.128 149.024C13.712 149.6 13.3387 149.888 13.008 149.888C12.816 149.888 12.544 149.771 12.192 149.536C11.744 149.173 11.1467 148.992 10.4 148.992C9.70667 148.992 9.024 149.232 8.352 149.712C8.032 149.947 7.76533 150.277 7.552 150.704C7.33867 151.131 7.232 151.616 7.232 152.16C7.232 152.693 7.33867 153.173 7.552 153.6C7.76533 154.027 8.03733 154.363 8.368 154.608C9.01867 155.077 9.696 155.312 10.4 155.312C10.7307 155.312 11.04 155.269 11.328 155.184C11.6267 155.099 11.84 155.013 11.968 154.928ZM15.2594 153.792C15.2594 152.512 15.7074 151.456 16.6034 150.624C17.4994 149.792 18.5234 149.376 19.6754 149.376C20.8274 149.376 21.846 149.792 22.7314 150.624C23.6167 151.445 24.0594 152.496 24.0594 153.776C24.0594 154.661 23.83 155.451 23.3714 156.144C22.9127 156.827 22.3527 157.333 21.6914 157.664C21.0407 157.984 20.3634 158.144 19.6594 158.144C18.9554 158.144 18.2727 157.973 17.6114 157.632C16.95 157.28 16.39 156.768 15.9314 156.096C15.4834 155.413 15.2594 154.645 15.2594 153.792ZM18.6034 154.944C18.9447 155.2 19.2914 155.328 19.6434 155.328C19.9954 155.328 20.3474 155.195 20.6994 154.928C21.0514 154.661 21.2274 154.267 21.2274 153.744C21.2274 153.221 21.062 152.832 20.7314 152.576C20.4007 152.32 20.0434 152.192 19.6594 152.192C19.2754 152.192 18.918 152.325 18.5874 152.592C18.2567 152.859 18.0914 153.253 18.0914 153.776C18.0914 154.288 18.262 154.677 18.6034 154.944ZM24.8531 153.792C24.8531 152.512 25.3011 151.456 26.1971 150.624C27.0931 149.792 28.1171 149.376 29.2691 149.376C30.4211 149.376 31.4398 149.792 32.3251 150.624C33.2105 151.445 33.6531 152.496 33.6531 153.776C33.6531 154.661 33.4238 155.451 32.9651 156.144C32.5065 156.827 31.9465 157.333 31.2851 157.664C30.6345 157.984 29.9571 158.144 29.2531 158.144C28.5491 158.144 27.8665 157.973 27.2051 157.632C26.5438 157.28 25.9838 156.768 25.5251 156.096C25.0771 155.413 24.8531 154.645 24.8531 153.792ZM28.1971 154.944C28.5385 155.2 28.8851 155.328 29.2371 155.328C29.5891 155.328 29.9411 155.195 30.2931 154.928C30.6451 154.661 30.8211 154.267 30.8211 153.744C30.8211 153.221 30.6558 152.832 30.3251 152.576C29.9945 152.32 29.6371 152.192 29.2531 152.192C28.8691 152.192 28.5118 152.325 28.1811 152.592C27.8505 152.859 27.6851 153.253 27.6851 153.776C27.6851 154.288 27.8558 154.677 28.1971 154.944ZM39.6469 153.776L41.7749 155.536C42.0415 155.76 42.2069 155.931 42.2709 156.048C42.3455 156.165 42.3829 156.277 42.3829 156.384C42.3829 156.64 42.2175 156.987 41.8869 157.424C41.5242 157.872 41.2042 158.096 40.9269 158.096C40.6922 158.096 40.3669 157.941 39.9509 157.632L39.7909 157.52C39.5455 157.317 39.1669 156.965 38.6549 156.464C38.1429 155.952 37.7535 155.589 37.4869 155.376V156.608C37.4869 156.853 37.4762 157.04 37.4549 157.168C37.4442 157.285 37.3962 157.424 37.3109 157.584C37.1722 157.861 36.7615 158 36.0789 158C35.4069 158 34.9962 157.856 34.8469 157.568C34.7722 157.408 34.7242 157.269 34.7029 157.152C34.6922 157.024 34.6869 156.837 34.6869 156.592V147.008C34.6869 146.763 34.6922 146.581 34.7029 146.464C34.7242 146.336 34.7722 146.192 34.8469 146.032C34.9962 145.744 35.4122 145.6 36.0949 145.6C36.6069 145.6 36.9695 145.691 37.1829 145.872C37.3642 146.021 37.4602 146.256 37.4709 146.576C37.4815 146.672 37.4869 146.821 37.4869 147.024V152.096C37.6789 151.936 37.9669 151.664 38.3509 151.28C38.7455 150.896 39.0389 150.624 39.2309 150.464L39.4229 150.336C39.7962 150.048 40.1162 149.904 40.3829 149.904C40.6495 149.904 40.9535 150.123 41.2949 150.56C41.6469 150.987 41.8229 151.323 41.8229 151.568C41.8229 151.813 41.6255 152.101 41.2309 152.432L39.6469 153.776ZM54.5599 146.704C54.6452 146.544 54.7892 146.432 54.9919 146.368C55.1945 146.304 55.4505 146.272 55.7599 146.272C56.0692 146.272 56.3145 146.299 56.4959 146.352C56.6772 146.405 56.8159 146.469 56.9119 146.544C57.0079 146.619 57.0825 146.725 57.1359 146.864C57.1892 147.045 57.2159 147.323 57.2159 147.696V156.576C57.2159 156.821 57.2052 157.008 57.1839 157.136C57.1732 157.253 57.1252 157.392 57.0399 157.552C56.8905 157.84 56.4745 157.984 55.7919 157.984C55.0452 157.984 54.6079 157.787 54.4799 157.392C54.4159 157.211 54.3839 156.933 54.3839 156.56V153.312H50.1439V156.576C50.1439 156.821 50.1332 157.008 50.1119 157.136C50.1012 157.253 50.0532 157.392 49.9679 157.552C49.8185 157.84 49.4025 157.984 48.7199 157.984C47.9732 157.984 47.5359 157.787 47.4079 157.392C47.3439 157.211 47.3119 156.933 47.3119 156.56V147.68C47.3119 147.435 47.3172 147.253 47.3279 147.136C47.3492 147.008 47.4025 146.864 47.4879 146.704C47.6372 146.416 48.0532 146.272 48.7359 146.272C49.4825 146.272 49.9252 146.469 50.0639 146.864C50.1172 147.045 50.1439 147.323 50.1439 147.696V150.96H54.3839V147.68C54.3839 147.435 54.3892 147.253 54.3999 147.136C54.4212 147.008 54.4745 146.864 54.5599 146.704ZM63.9714 150.464C64.0354 149.867 64.4567 149.568 65.2354 149.568C65.6514 149.568 65.9607 149.6 66.1634 149.664C66.366 149.728 66.5047 149.84 66.5794 150C66.6647 150.16 66.7127 150.304 66.7234 150.432C66.7447 150.549 66.7554 150.731 66.7554 150.976V156.576C66.7554 156.821 66.7447 157.008 66.7234 157.136C66.7127 157.253 66.67 157.392 66.5954 157.552C66.446 157.829 66.078 157.968 65.4914 157.968C64.9154 157.968 64.526 157.899 64.3234 157.76C64.1314 157.611 64.0194 157.397 63.9874 157.12C63.5927 157.685 62.9314 157.968 62.0034 157.968C61.086 157.968 60.2327 157.547 59.4434 156.704C58.654 155.861 58.2594 154.885 58.2594 153.776C58.2594 152.656 58.654 151.68 59.4434 150.848C60.2434 150.005 61.118 149.584 62.0674 149.584C62.43 149.584 62.7607 149.648 63.0594 149.776C63.358 149.904 63.566 150.027 63.6834 150.144C63.8007 150.251 63.8967 150.357 63.9714 150.464ZM61.0594 153.792C61.0594 154.144 61.198 154.464 61.4754 154.752C61.7527 155.029 62.0887 155.168 62.4834 155.168C62.878 155.168 63.2034 155.024 63.4594 154.736C63.726 154.448 63.8594 154.133 63.8594 153.792C63.8594 153.44 63.7314 153.115 63.4754 152.816C63.23 152.517 62.894 152.368 62.4674 152.368C62.0514 152.368 61.71 152.517 61.4434 152.816C61.1874 153.115 61.0594 153.44 61.0594 153.792ZM68.0306 160.288V150.944C68.0306 150.699 68.036 150.517 68.0466 150.4C68.068 150.283 68.116 150.149 68.1906 150C68.34 149.712 68.6973 149.568 69.2626 149.568C69.828 149.568 70.2066 149.643 70.3986 149.792C70.6013 149.931 70.7186 150.139 70.7506 150.416C71.156 149.861 71.7906 149.584 72.6546 149.584C73.5293 149.584 74.356 149.995 75.1346 150.816C75.9133 151.637 76.3026 152.592 76.3026 153.68C76.3026 154.768 75.9133 155.723 75.1346 156.544C74.3666 157.365 73.5453 157.776 72.6706 157.776C71.796 157.776 71.1613 157.531 70.7666 157.04V160.272C70.7666 160.517 70.756 160.699 70.7346 160.816C70.724 160.933 70.676 161.067 70.5906 161.216C70.516 161.376 70.3826 161.488 70.1906 161.552C69.9986 161.616 69.7373 161.648 69.4066 161.648C69.076 161.648 68.8093 161.616 68.6066 161.552C68.4146 161.488 68.276 161.381 68.1906 161.232C68.116 161.083 68.068 160.949 68.0466 160.832C68.036 160.715 68.0306 160.533 68.0306 160.288ZM71.1986 152.752C70.9533 153.04 70.8306 153.355 70.8306 153.696C70.8306 154.037 70.9533 154.352 71.1986 154.64C71.4546 154.917 71.7746 155.056 72.1586 155.056C72.5533 155.056 72.884 154.917 73.1506 154.64C73.428 154.363 73.5666 154.048 73.5666 153.696C73.5666 153.344 73.4386 153.029 73.1826 152.752C72.9266 152.464 72.5906 152.32 72.1746 152.32C71.7693 152.32 71.444 152.464 71.1986 152.752ZM77.3431 160.288V150.944C77.3431 150.699 77.3485 150.517 77.3591 150.4C77.3805 150.283 77.4285 150.149 77.5031 150C77.6525 149.712 78.0098 149.568 78.5751 149.568C79.1405 149.568 79.5191 149.643 79.7111 149.792C79.9138 149.931 80.0311 150.139 80.0631 150.416C80.4685 149.861 81.1031 149.584 81.9671 149.584C82.8418 149.584 83.6685 149.995 84.4471 150.816C85.2258 151.637 85.6151 152.592 85.6151 153.68C85.6151 154.768 85.2258 155.723 84.4471 156.544C83.6791 157.365 82.8578 157.776 81.9831 157.776C81.1085 157.776 80.4738 157.531 80.0791 157.04V160.272C80.0791 160.517 80.0685 160.699 80.0471 160.816C80.0365 160.933 79.9885 161.067 79.9031 161.216C79.8285 161.376 79.6951 161.488 79.5031 161.552C79.3111 161.616 79.0498 161.648 78.7191 161.648C78.3885 161.648 78.1218 161.616 77.9191 161.552C77.7271 161.488 77.5885 161.381 77.5031 161.232C77.4285 161.083 77.3805 160.949 77.3591 160.832C77.3485 160.715 77.3431 160.533 77.3431 160.288ZM80.5111 152.752C80.2658 153.04 80.1431 153.355 80.1431 153.696C80.1431 154.037 80.2658 154.352 80.5111 154.64C80.7671 154.917 81.0871 155.056 81.4711 155.056C81.8658 155.056 82.1965 154.917 82.4631 154.64C82.7405 154.363 82.8791 154.048 82.8791 153.696C82.8791 153.344 82.7511 153.029 82.4951 152.752C82.2391 152.464 81.9031 152.32 81.4871 152.32C81.0818 152.32 80.7565 152.464 80.5111 152.752ZM94.0113 149.664C94.6406 149.941 94.9553 150.277 94.9553 150.672C94.9553 150.864 94.9126 151.045 94.8273 151.216C94.7419 151.387 94.6993 151.477 94.6993 151.488L90.5073 160.864C90.4219 161.067 90.3473 161.221 90.2833 161.328C90.2299 161.435 90.1393 161.536 90.0113 161.632C89.8833 161.728 89.7233 161.776 89.5312 161.776C89.3393 161.776 89.0566 161.696 88.6833 161.536C88.0539 161.259 87.7393 160.928 87.7393 160.544C87.7393 160.288 88.2513 159.067 89.2753 156.88L86.0913 151.52C85.8779 151.168 85.7713 150.907 85.7713 150.736C85.7713 150.395 86.0593 150.053 86.6353 149.712C86.9979 149.499 87.2806 149.392 87.4833 149.392C87.6859 149.392 87.8513 149.435 87.9793 149.52C88.1073 149.605 88.1979 149.696 88.2513 149.792C88.3153 149.877 88.6086 150.373 89.1313 151.28C89.6646 152.176 90.1713 153.013 90.6513 153.792C90.7046 153.621 90.9926 152.965 91.5153 151.824C92.0379 150.672 92.3153 150.059 92.3473 149.984C92.3899 149.909 92.4539 149.819 92.5393 149.712C92.6779 149.531 92.8699 149.44 93.1153 149.44C93.3713 149.44 93.6699 149.515 94.0113 149.664ZM95.9875 155.568C96.0942 155.355 96.2542 155.211 96.4675 155.136C96.6915 155.061 97.0328 155.024 97.4915 155.024C97.9608 155.024 98.2968 155.125 98.4995 155.328C98.7128 155.531 98.8195 155.851 98.8195 156.288V156.544C98.8195 156.8 98.8088 156.992 98.7875 157.12C98.7768 157.237 98.7288 157.381 98.6435 157.552C98.4728 157.861 98.0622 158.016 97.4115 158.016C96.7715 158.016 96.3448 157.915 96.1315 157.712C95.9288 157.499 95.8275 157.093 95.8275 156.496C95.8275 156.08 95.8808 155.771 95.9875 155.568ZM98.1315 153.696C97.9288 153.749 97.6568 153.776 97.3155 153.776C96.9742 153.776 96.7022 153.749 96.4995 153.696C96.2968 153.643 96.1528 153.547 96.0675 153.408C95.9928 153.269 95.9448 153.147 95.9235 153.04C95.9128 152.933 95.9075 152.768 95.9075 152.544V147.472C95.9075 147.248 95.9128 147.083 95.9235 146.976C95.9448 146.859 95.9982 146.731 96.0835 146.592C96.1688 146.453 96.3128 146.357 96.5155 146.304C96.7182 146.24 96.9902 146.208 97.3315 146.208C97.6728 146.208 97.9448 146.24 98.1475 146.304C98.3502 146.357 98.4888 146.459 98.5635 146.608C98.6488 146.747 98.6968 146.875 98.7075 146.992C98.7288 147.099 98.7395 147.264 98.7395 147.488V152.56C98.7395 152.784 98.7288 152.949 98.7075 153.056C98.6968 153.163 98.6488 153.285 98.5635 153.424C98.4782 153.552 98.3342 153.643 98.1315 153.696Z" fill="#785952"/>
</g>
<defs>
<filter id="filter0_d_38_1649" x="4.93054" y="31.4551" width="95.0002" height="91.5449" filterUnits="userSpaceOnUse" color-interpolation-filters="sRGB">
<feFlood flood-opacity="0" result="BackgroundImageFix"/>
<feColorMatrix in="SourceAlpha" type="matrix" values="0 0 0 0 0 0 0 0 0 0 0 0 0 0 0 0 0 0 127 0" result="hardAlpha"/>
<feOffset dy="4"/>
<feGaussianBlur stdDeviation="2"/>
<feComposite in2="hardAlpha" operator="out"/>
<feColorMatrix type="matrix" values="0 0 0 0 0 0 0 0 0 0 0 0 0 0 0 0 0 0 0.25 0"/>
<feBlend mode="normal" in2="BackgroundImageFix" result="effect1_dropShadow_38_1649"/>
<feBlend mode="normal" in="SourceGraphic" in2="effect1_dropShadow_38_1649" result="shape"/>
</filter>
<filter id="filter1_df_38_1649" x="7.30981" y="28.7133" width="92.4785" height="93.5317" filterUnits="userSpaceOnUse" color-interpolation-filters="sRGB">
<feFlood flood-opacity="0" result="BackgroundImageFix"/>
<feColorMatrix in="SourceAlpha" type="matrix" values="0 0 0 0 0 0 0 0 0 0 0 0 0 0 0 0 0 0 127 0" result="hardAlpha"/>
<feOffset dy="4"/>
<feGaussianBlur stdDeviation="2"/>
<feComposite in2="hardAlpha" operator="out"/>
<feColorMatrix type="matrix" values="0 0 0 0 0 0 0 0 0 0 0 0 0 0 0 0 0 0 0.25 0"/>
<feBlend mode="normal" in2="BackgroundImageFix" result="effect1_dropShadow_38_1649"/>
<feBlend mode="normal" in="SourceGraphic" in2="effect1_dropShadow_38_1649" result="shape"/>
<feGaussianBlur stdDeviation="2" result="effect2_foregroundBlur_38_1649"/>
</filter>
<filter id="filter2_d_38_1649" x="4.93054" y="67.4398" width="95.0002" height="55.5602" filterUnits="userSpaceOnUse" color-interpolation-filters="sRGB">
<feFlood flood-opacity="0" result="BackgroundImageFix"/>
<feColorMatrix in="SourceAlpha" type="matrix" values="0 0 0 0 0 0 0 0 0 0 0 0 0 0 0 0 0 0 127 0" result="hardAlpha"/>
<feOffset dy="4"/>
<feGaussianBlur stdDeviation="2"/>
<feComposite in2="hardAlpha" operator="out"/>
<feColorMatrix type="matrix" values="0 0 0 0 0 0 0 0 0 0 0 0 0 0 0 0 0 0 0.25 0"/>
<feBlend mode="normal" in2="BackgroundImageFix" result="effect1_dropShadow_38_1649"/>
<feBlend mode="normal" in="SourceGraphic" in2="effect1_dropShadow_38_1649" result="shape"/>
</filter>
<filter id="filter3_i_38_1649" x="44.849" y="65.175" width="17.4" height="20.6083" filterUnits="userSpaceOnUse" color-interpolation-filters="sRGB">
<feFlood flood-opacity="0" result="BackgroundImageFix"/>
<feBlend mode="normal" in="SourceGraphic" in2="BackgroundImageFix" result="shape"/>
<feColorMatrix in="SourceAlpha" type="matrix" values="0 0 0 0 0 0 0 0 0 0 0 0 0 0 0 0 0 0 127 0" result="hardAlpha"/>
<feOffset dy="4"/>
<feGaussianBlur stdDeviation="2"/>
<feComposite in2="hardAlpha" operator="arithmetic" k2="-1" k3="1"/>
<feColorMatrix type="matrix" values="0 0 0 0 0 0 0 0 0 0 0 0 0 0 0 0 0 0 0.25 0"/>
<feBlend mode="normal" in2="shape" result="effect1_innerShadow_38_1649"/>
</filter>
<filter id="filter4_d_38_1649" x="67.5795" y="27.1772" width="25.6522" height="25.8665" filterUnits="userSpaceOnUse" color-interpolation-filters="sRGB">
<feFlood flood-opacity="0" result="BackgroundImageFix"/>
<feColorMatrix in="SourceAlpha" type="matrix" values="0 0 0 0 0 0 0 0 0 0 0 0 0 0 0 0 0 0 127 0" result="hardAlpha"/>
<feOffset dy="4"/>
<feGaussianBlur stdDeviation="2"/>
<feComposite in2="hardAlpha" operator="out"/>
<feColorMatrix type="matrix" values="0 0 0 0 0 0 0 0 0 0 0 0 0 0 0 0 0 0 0.25 0"/>
<feBlend mode="normal" in2="BackgroundImageFix" result="effect1_dropShadow_38_1649"/>
<feBlend mode="normal" in="SourceGraphic" in2="effect1_dropShadow_38_1649" result="shape"/>
</filter>
<filter id="filter5_d_38_1649" x="42.3621" y="48.3151" width="23.1305" height="22.8468" filterUnits="userSpaceOnUse" color-interpolation-filters="sRGB">
<feFlood flood-opacity="0" result="BackgroundImageFix"/>
<feColorMatrix in="SourceAlpha" type="matrix" values="0 0 0 0 0 0 0 0 0 0 0 0 0 0 0 0 0 0 127 0" result="hardAlpha"/>
<feOffset dy="4"/>
<feGaussianBlur stdDeviation="2"/>
<feComposite in2="hardAlpha" operator="out"/>
<feColorMatrix type="matrix" values="0 0 0 0 0 0 0 0 0 0 0 0 0 0 0 0 0 0 0.25 0"/>
<feBlend mode="normal" in2="BackgroundImageFix" result="effect1_dropShadow_38_1649"/>
<feBlend mode="normal" in="SourceGraphic" in2="effect1_dropShadow_38_1649" result="shape"/>
</filter>
<filter id="filter6_d_38_1649" x="68.3361" y="30.1969" width="22.6261" height="22.8468" filterUnits="userSpaceOnUse" color-interpolation-filters="sRGB">
<feFlood flood-opacity="0" result="BackgroundImageFix"/>
<feColorMatrix in="SourceAlpha" type="matrix" values="0 0 0 0 0 0 0 0 0 0 0 0 0 0 0 0 0 0 127 0" result="hardAlpha"/>
<feOffset dy="4"/>
<feGaussianBlur stdDeviation="2"/>
<feComposite in2="hardAlpha" operator="out"/>
<feColorMatrix type="matrix" values="0 0 0 0 0 0 0 0 0 0 0 0 0 0 0 0 0 0 0.25 0"/>
<feBlend mode="normal" in2="BackgroundImageFix" result="effect1_dropShadow_38_1649"/>
<feBlend mode="normal" in="SourceGraphic" in2="effect1_dropShadow_38_1649" result="shape"/>
</filter>
<filter id="filter7_d_38_1649" x="62.2839" y="48.5667" width="14.0522" height="13.5361" filterUnits="userSpaceOnUse" color-interpolation-filters="sRGB">
<feFlood flood-opacity="0" result="BackgroundImageFix"/>
<feColorMatrix in="SourceAlpha" type="matrix" values="0 0 0 0 0 0 0 0 0 0 0 0 0 0 0 0 0 0 127 0" result="hardAlpha"/>
<feOffset dy="4"/>
<feGaussianBlur stdDeviation="2"/>
<feComposite in2="hardAlpha" operator="out"/>
<feColorMatrix type="matrix" values="0 0 0 0 0 0 0 0 0 0 0 0 0 0 0 0 0 0 0.25 0"/>
<feBlend mode="normal" in2="BackgroundImageFix" result="effect1_dropShadow_38_1649"/>
<feBlend mode="normal" in="SourceGraphic" in2="effect1_dropShadow_38_1649" result="shape"/>
</filter>
<filter id="filter8_d_38_1649" x="46.9012" y="49.825" width="13.2957" height="13.0328" filterUnits="userSpaceOnUse" color-interpolation-filters="sRGB">
<feFlood flood-opacity="0" result="BackgroundImageFix"/>
<feColorMatrix in="SourceAlpha" type="matrix" values="0 0 0 0 0 0 0 0 0 0 0 0 0 0 0 0 0 0 127 0" result="hardAlpha"/>
<feOffset dy="4"/>
<feGaussianBlur stdDeviation="2"/>
<feComposite in2="hardAlpha" operator="out"/>
<feColorMatrix type="matrix" values="0 0 0 0 0 0 0 0 0 0 0 0 0 0 0 0 0 0 0.25 0"/>
<feBlend mode="normal" in2="BackgroundImageFix" result="effect1_dropShadow_38_1649"/>
<feBlend mode="normal" in="SourceGraphic" in2="effect1_dropShadow_38_1649" result="shape"/>
</filter>
<filter id="filter9_d_38_1649" x="30.2577" y="48.5667" width="14.8087" height="14.291" filterUnits="userSpaceOnUse" color-interpolation-filters="sRGB">
<feFlood flood-opacity="0" result="BackgroundImageFix"/>
<feColorMatrix in="SourceAlpha" type="matrix" values="0 0 0 0 0 0 0 0 0 0 0 0 0 0 0 0 0 0 127 0" result="hardAlpha"/>
<feOffset dy="4"/>
<feGaussianBlur stdDeviation="2"/>
<feComposite in2="hardAlpha" operator="out"/>
<feColorMatrix type="matrix" values="0 0 0 0 0 0 0 0 0 0 0 0 0 0 0 0 0 0 0.25 0"/>
<feBlend mode="normal" in2="BackgroundImageFix" result="effect1_dropShadow_38_1649"/>
<feBlend mode="normal" in="SourceGraphic" in2="effect1_dropShadow_38_1649" result="shape"/>
</filter>
<filter id="filter10_d_38_1649" x="47.2614" y="53.8291" width="15.4245" height="15.7357" filterUnits="userSpaceOnUse" color-interpolation-filters="sRGB">
<feFlood flood-opacity="0" result="BackgroundImageFix"/>
<feColorMatrix in="SourceAlpha" type="matrix" values="0 0 0 0 0 0 0 0 0 0 0 0 0 0 0 0 0 0 127 0" result="hardAlpha"/>
<feOffset dy="4"/>
<feGaussianBlur stdDeviation="2"/>
<feComposite in2="hardAlpha" operator="out"/>
<feColorMatrix type="matrix" values="0 0 0 0 0 0 0 0 0 0 0 0 0 0 0 0 0 0 0.25 0"/>
<feBlend mode="normal" in2="BackgroundImageFix" result="effect1_dropShadow_38_1649"/>
<feBlend mode="normal" in="SourceGraphic" in2="effect1_dropShadow_38_1649" result="shape"/>
</filter>
<filter id="filter11_d_38_1649" x="43.9854" y="52.5487" width="15.8769" height="16.9079" filterUnits="userSpaceOnUse" color-interpolation-filters="sRGB">
<feFlood flood-opacity="0" result="BackgroundImageFix"/>
<feColorMatrix in="SourceAlpha" type="matrix" values="0 0 0 0 0 0 0 0 0 0 0 0 0 0 0 0 0 0 127 0" result="hardAlpha"/>
<feOffset dy="4"/>
<feGaussianBlur stdDeviation="2"/>
<feComposite in2="hardAlpha" operator="out"/>
<feColorMatrix type="matrix" values="0 0 0 0 0 0 0 0 0 0 0 0 0 0 0 0 0 0 0.25 0"/>
<feBlend mode="normal" in2="BackgroundImageFix" result="effect1_dropShadow_38_1649"/>
<feBlend mode="normal" in="SourceGraphic" in2="effect1_dropShadow_38_1649" result="shape"/>
</filter>
<filter id="filter12_d_38_1649" x="16.6403" y="27.1772" width="25.6522" height="25.8665" filterUnits="userSpaceOnUse" color-interpolation-filters="sRGB">
<feFlood flood-opacity="0" result="BackgroundImageFix"/>
<feColorMatrix in="SourceAlpha" type="matrix" values="0 0 0 0 0 0 0 0 0 0 0 0 0 0 0 0 0 0 127 0" result="hardAlpha"/>
<feOffset dy="4"/>
<feGaussianBlur stdDeviation="2"/>
<feComposite in2="hardAlpha" operator="out"/>
<feColorMatrix type="matrix" values="0 0 0 0 0 0 0 0 0 0 0 0 0 0 0 0 0 0 0.25 0"/>
<feBlend mode="normal" in2="BackgroundImageFix" result="effect1_dropShadow_38_1649"/>
<feBlend mode="normal" in="SourceGraphic" in2="effect1_dropShadow_38_1649" result="shape"/>
</filter>
<filter id="filter13_d_38_1649" x="18.9099" y="30.1969" width="22.6261" height="22.8468" filterUnits="userSpaceOnUse" color-interpolation-filters="sRGB">
<feFlood flood-opacity="0" result="BackgroundImageFix"/>
<feColorMatrix in="SourceAlpha" type="matrix" values="0 0 0 0 0 0 0 0 0 0 0 0 0 0 0 0 0 0 127 0" result="hardAlpha"/>
<feOffset dy="4"/>
<feGaussianBlur stdDeviation="2"/>
<feComposite in2="hardAlpha" operator="out"/>
<feColorMatrix type="matrix" values="0 0 0 0 0 0 0 0 0 0 0 0 0 0 0 0 0 0 0.25 0"/>
<feBlend mode="normal" in2="BackgroundImageFix" result="effect1_dropShadow_38_1649"/>
<feBlend mode="normal" in="SourceGraphic" in2="effect1_dropShadow_38_1649" result="shape"/>
</filter>
<filter id="filter14_d_38_1649" x="4.93054" y="31.4551" width="95.0002" height="91.5449" filterUnits="userSpaceOnUse" color-interpolation-filters="sRGB">
<feFlood flood-opacity="0" result="BackgroundImageFix"/>
<feColorMatrix in="SourceAlpha" type="matrix" values="0 0 0 0 0 0 0 0 0 0 0 0 0 0 0 0 0 0 127 0" result="hardAlpha"/>
<feOffset dy="4"/>
<feGaussianBlur stdDeviation="2"/>
<feComposite in2="hardAlpha" operator="out"/>
<feColorMatrix type="matrix" values="0 0 0 0 0 0 0 0 0 0 0 0 0 0 0 0 0 0 0.25 0"/>
<feBlend mode="normal" in2="BackgroundImageFix" result="effect1_dropShadow_38_1649"/>
<feBlend mode="normal" in="SourceGraphic" in2="effect1_dropShadow_38_1649" result="shape"/>
</filter>
<filter id="filter15_df_38_1649" x="7.30981" y="28.7133" width="92.4785" height="93.5317" filterUnits="userSpaceOnUse" color-interpolation-filters="sRGB">
<feFlood flood-opacity="0" result="BackgroundImageFix"/>
<feColorMatrix in="SourceAlpha" type="matrix" values="0 0 0 0 0 0 0 0 0 0 0 0 0 0 0 0 0 0 127 0" result="hardAlpha"/>
<feOffset dy="4"/>
<feGaussianBlur stdDeviation="2"/>
<feComposite in2="hardAlpha" operator="out"/>
<feColorMatrix type="matrix" values="0 0 0 0 0 0 0 0 0 0 0 0 0 0 0 0 0 0 0.25 0"/>
<feBlend mode="normal" in2="BackgroundImageFix" result="effect1_dropShadow_38_1649"/>
<feBlend mode="normal" in="SourceGraphic" in2="effect1_dropShadow_38_1649" result="shape"/>
<feGaussianBlur stdDeviation="2" result="effect2_foregroundBlur_38_1649"/>
</filter>
<filter id="filter16_d_38_1649" x="4.93054" y="67.4398" width="95.0002" height="55.5602" filterUnits="userSpaceOnUse" color-interpolation-filters="sRGB">
<feFlood flood-opacity="0" result="BackgroundImageFix"/>
<feColorMatrix in="SourceAlpha" type="matrix" values="0 0 0 0 0 0 0 0 0 0 0 0 0 0 0 0 0 0 127 0" result="hardAlpha"/>
<feOffset dy="4"/>
<feGaussianBlur stdDeviation="2"/>
<feComposite in2="hardAlpha" operator="out"/>
<feColorMatrix type="matrix" values="0 0 0 0 0 0 0 0 0 0 0 0 0 0 0 0 0 0 0.25 0"/>
<feBlend mode="normal" in2="BackgroundImageFix" result="effect1_dropShadow_38_1649"/>
<feBlend mode="normal" in="SourceGraphic" in2="effect1_dropShadow_38_1649" result="shape"/>
</filter>
<filter id="filter17_i_38_1649" x="44.849" y="65.175" width="17.4" height="20.6083" filterUnits="userSpaceOnUse" color-interpolation-filters="sRGB">
<feFlood flood-opacity="0" result="BackgroundImageFix"/>
<feBlend mode="normal" in="SourceGraphic" in2="BackgroundImageFix" result="shape"/>
<feColorMatrix in="SourceAlpha" type="matrix" values="0 0 0 0 0 0 0 0 0 0 0 0 0 0 0 0 0 0 127 0" result="hardAlpha"/>
<feOffset dy="4"/>
<feGaussianBlur stdDeviation="2"/>
<feComposite in2="hardAlpha" operator="arithmetic" k2="-1" k3="1"/>
<feColorMatrix type="matrix" values="0 0 0 0 0 0 0 0 0 0 0 0 0 0 0 0 0 0 0.25 0"/>
<feBlend mode="normal" in2="shape" result="effect1_innerShadow_38_1649"/>
</filter>
<filter id="filter18_d_38_1649" x="67.5795" y="27.1772" width="25.6522" height="25.8665" filterUnits="userSpaceOnUse" color-interpolation-filters="sRGB">
<feFlood flood-opacity="0" result="BackgroundImageFix"/>
<feColorMatrix in="SourceAlpha" type="matrix" values="0 0 0 0 0 0 0 0 0 0 0 0 0 0 0 0 0 0 127 0" result="hardAlpha"/>
<feOffset dy="4"/>
<feGaussianBlur stdDeviation="2"/>
<feComposite in2="hardAlpha" operator="out"/>
<feColorMatrix type="matrix" values="0 0 0 0 0 0 0 0 0 0 0 0 0 0 0 0 0 0 0.25 0"/>
<feBlend mode="normal" in2="BackgroundImageFix" result="effect1_dropShadow_38_1649"/>
<feBlend mode="normal" in="SourceGraphic" in2="effect1_dropShadow_38_1649" result="shape"/>
</filter>
<filter id="filter19_d_38_1649" x="42.3621" y="48.3151" width="23.1305" height="22.8468" filterUnits="userSpaceOnUse" color-interpolation-filters="sRGB">
<feFlood flood-opacity="0" result="BackgroundImageFix"/>
<feColorMatrix in="SourceAlpha" type="matrix" values="0 0 0 0 0 0 0 0 0 0 0 0 0 0 0 0 0 0 127 0" result="hardAlpha"/>
<feOffset dy="4"/>
<feGaussianBlur stdDeviation="2"/>
<feComposite in2="hardAlpha" operator="out"/>
<feColorMatrix type="matrix" values="0 0 0 0 0 0 0 0 0 0 0 0 0 0 0 0 0 0 0.25 0"/>
<feBlend mode="normal" in2="BackgroundImageFix" result="effect1_dropShadow_38_1649"/>
<feBlend mode="normal" in="SourceGraphic" in2="effect1_dropShadow_38_1649" result="shape"/>
</filter>
<filter id="filter20_d_38_1649" x="68.3361" y="30.1969" width="22.6261" height="22.8468" filterUnits="userSpaceOnUse" color-interpolation-filters="sRGB">
<feFlood flood-opacity="0" result="BackgroundImageFix"/>
<feColorMatrix in="SourceAlpha" type="matrix" values="0 0 0 0 0 0 0 0 0 0 0 0 0 0 0 0 0 0 127 0" result="hardAlpha"/>
<feOffset dy="4"/>
<feGaussianBlur stdDeviation="2"/>
<feComposite in2="hardAlpha" operator="out"/>
<feColorMatrix type="matrix" values="0 0 0 0 0 0 0 0 0 0 0 0 0 0 0 0 0 0 0.25 0"/>
<feBlend mode="normal" in2="BackgroundImageFix" result="effect1_dropShadow_38_1649"/>
<feBlend mode="normal" in="SourceGraphic" in2="effect1_dropShadow_38_1649" result="shape"/>
</filter>
<filter id="filter21_d_38_1649" x="62.2839" y="48.5667" width="14.0522" height="13.5361" filterUnits="userSpaceOnUse" color-interpolation-filters="sRGB">
<feFlood flood-opacity="0" result="BackgroundImageFix"/>
<feColorMatrix in="SourceAlpha" type="matrix" values="0 0 0 0 0 0 0 0 0 0 0 0 0 0 0 0 0 0 127 0" result="hardAlpha"/>
<feOffset dy="4"/>
<feGaussianBlur stdDeviation="2"/>
<feComposite in2="hardAlpha" operator="out"/>
<feColorMatrix type="matrix" values="0 0 0 0 0 0 0 0 0 0 0 0 0 0 0 0 0 0 0.25 0"/>
<feBlend mode="normal" in2="BackgroundImageFix" result="effect1_dropShadow_38_1649"/>
<feBlend mode="normal" in="SourceGraphic" in2="effect1_dropShadow_38_1649" result="shape"/>
</filter>
<filter id="filter22_d_38_1649" x="46.9012" y="49.825" width="13.2957" height="13.0328" filterUnits="userSpaceOnUse" color-interpolation-filters="sRGB">
<feFlood flood-opacity="0" result="BackgroundImageFix"/>
<feColorMatrix in="SourceAlpha" type="matrix" values="0 0 0 0 0 0 0 0 0 0 0 0 0 0 0 0 0 0 127 0" result="hardAlpha"/>
<feOffset dy="4"/>
<feGaussianBlur stdDeviation="2"/>
<feComposite in2="hardAlpha" operator="out"/>
<feColorMatrix type="matrix" values="0 0 0 0 0 0 0 0 0 0 0 0 0 0 0 0 0 0 0.25 0"/>
<feBlend mode="normal" in2="BackgroundImageFix" result="effect1_dropShadow_38_1649"/>
<feBlend mode="normal" in="SourceGraphic" in2="effect1_dropShadow_38_1649" result="shape"/>
</filter>
<filter id="filter23_d_38_1649" x="30.2577" y="48.5667" width="14.8087" height="14.291" filterUnits="userSpaceOnUse" color-interpolation-filters="sRGB">
<feFlood flood-opacity="0" result="BackgroundImageFix"/>
<feColorMatrix in="SourceAlpha" type="matrix" values="0 0 0 0 0 0 0 0 0 0 0 0 0 0 0 0 0 0 127 0" result="hardAlpha"/>
<feOffset dy="4"/>
<feGaussianBlur stdDeviation="2"/>
<feComposite in2="hardAlpha" operator="out"/>
<feColorMatrix type="matrix" values="0 0 0 0 0 0 0 0 0 0 0 0 0 0 0 0 0 0 0.25 0"/>
<feBlend mode="normal" in2="BackgroundImageFix" result="effect1_dropShadow_38_1649"/>
<feBlend mode="normal" in="SourceGraphic" in2="effect1_dropShadow_38_1649" result="shape"/>
</filter>
<filter id="filter24_d_38_1649" x="47.2614" y="53.8291" width="15.4245" height="15.7357" filterUnits="userSpaceOnUse" color-interpolation-filters="sRGB">
<feFlood flood-opacity="0" result="BackgroundImageFix"/>
<feColorMatrix in="SourceAlpha" type="matrix" values="0 0 0 0 0 0 0 0 0 0 0 0 0 0 0 0 0 0 127 0" result="hardAlpha"/>
<feOffset dy="4"/>
<feGaussianBlur stdDeviation="2"/>
<feComposite in2="hardAlpha" operator="out"/>
<feColorMatrix type="matrix" values="0 0 0 0 0 0 0 0 0 0 0 0 0 0 0 0 0 0 0.25 0"/>
<feBlend mode="normal" in2="BackgroundImageFix" result="effect1_dropShadow_38_1649"/>
<feBlend mode="normal" in="SourceGraphic" in2="effect1_dropShadow_38_1649" result="shape"/>
</filter>
<filter id="filter25_d_38_1649" x="43.9854" y="52.5487" width="15.8769" height="16.9079" filterUnits="userSpaceOnUse" color-interpolation-filters="sRGB">
<feFlood flood-opacity="0" result="BackgroundImageFix"/>
<feColorMatrix in="SourceAlpha" type="matrix" values="0 0 0 0 0 0 0 0 0 0 0 0 0 0 0 0 0 0 127 0" result="hardAlpha"/>
<feOffset dy="4"/>
<feGaussianBlur stdDeviation="2"/>
<feComposite in2="hardAlpha" operator="out"/>
<feColorMatrix type="matrix" values="0 0 0 0 0 0 0 0 0 0 0 0 0 0 0 0 0 0 0.25 0"/>
<feBlend mode="normal" in2="BackgroundImageFix" result="effect1_dropShadow_38_1649"/>
<feBlend mode="normal" in="SourceGraphic" in2="effect1_dropShadow_38_1649" result="shape"/>
</filter>
<filter id="filter26_d_38_1649" x="16.6403" y="27.1772" width="25.6522" height="25.8665" filterUnits="userSpaceOnUse" color-interpolation-filters="sRGB">
<feFlood flood-opacity="0" result="BackgroundImageFix"/>
<feColorMatrix in="SourceAlpha" type="matrix" values="0 0 0 0 0 0 0 0 0 0 0 0 0 0 0 0 0 0 127 0" result="hardAlpha"/>
<feOffset dy="4"/>
<feGaussianBlur stdDeviation="2"/>
<feComposite in2="hardAlpha" operator="out"/>
<feColorMatrix type="matrix" values="0 0 0 0 0 0 0 0 0 0 0 0 0 0 0 0 0 0 0.25 0"/>
<feBlend mode="normal" in2="BackgroundImageFix" result="effect1_dropShadow_38_1649"/>
<feBlend mode="normal" in="SourceGraphic" in2="effect1_dropShadow_38_1649" result="shape"/>
</filter>
<filter id="filter27_d_38_1649" x="18.9099" y="30.1969" width="22.6261" height="22.8468" filterUnits="userSpaceOnUse" color-interpolation-filters="sRGB">
<feFlood flood-opacity="0" result="BackgroundImageFix"/>
<feColorMatrix in="SourceAlpha" type="matrix" values="0 0 0 0 0 0 0 0 0 0 0 0 0 0 0 0 0 0 127 0" result="hardAlpha"/>
<feOffset dy="4"/>
<feGaussianBlur stdDeviation="2"/>
<feComposite in2="hardAlpha" operator="out"/>
<feColorMatrix type="matrix" values="0 0 0 0 0 0 0 0 0 0 0 0 0 0 0 0 0 0 0.25 0"/>
<feBlend mode="normal" in2="BackgroundImageFix" result="effect1_dropShadow_38_1649"/>
<feBlend mode="normal" in="SourceGraphic" in2="effect1_dropShadow_38_1649" result="shape"/>
</filter>
<filter id="filter28_d_38_1649" x="0.400024" y="127.176" width="110.117" height="42.6" filterUnits="userSpaceOnUse" color-interpolation-filters="sRGB">
<feFlood flood-opacity="0" result="BackgroundImageFix"/>
<feColorMatrix in="SourceAlpha" type="matrix" values="0 0 0 0 0 0 0 0 0 0 0 0 0 0 0 0 0 0 127 0" result="hardAlpha"/>
<feOffset dy="4"/>
<feGaussianBlur stdDeviation="2"/>
<feComposite in2="hardAlpha" operator="out"/>
<feColorMatrix type="matrix" values="0 0 0 0 0 0 0 0 0 0 0 0 0 0 0 0 0 0 0.25 0"/>
<feBlend mode="normal" in2="BackgroundImageFix" result="effect1_dropShadow_38_1649"/>
<feBlend mode="normal" in="SourceGraphic" in2="effect1_dropShadow_38_1649" result="shape"/>
</filter>
</defs>
</svg>
