<svg width="534" height="536" viewBox="0 0 534 536" fill="none" xmlns="http://www.w3.org/2000/svg">
<ellipse cx="267" cy="268" rx="267" ry="268" fill="white"/>
<g filter="url(#filter0_i_166_669)">
<path d="M505 269.5C505 398.458 389.712 503.5 266 503.5C142.288 503.5 34.5 398.458 34.5 269.5C34.5 140.542 149.788 44.5 273.5 44.5C397.212 44.5 505 140.542 505 269.5Z" fill="#4A2007"/>
</g>
<g filter="url(#filter1_d_166_669)">
<path d="M399.5 297C399.5 357.199 355.722 406 290 406C224.278 406 183.5 357.199 183.5 297C183.5 236.801 235.278 189 301 189C366.722 189 399.5 236.801 399.5 297Z" fill="white"/>
<path d="M281.656 114.612C300.613 157.896 299 195 277.423 209.872C243.5 224.73 234.458 185.784 215.5 142.5C196.543 99.2168 180.5 73.5 208.772 53.1287C235.989 33.5177 262.698 71.329 281.656 114.612Z" fill="white"/>
<path d="M141.523 196.818C103.265 169.083 83.4181 156.747 94.5 133C116.237 103.016 141.523 96.0002 186.5 133C224.757 160.735 249.573 181.078 235.5 212.956C221.953 243.645 179.78 224.553 141.523 196.818Z" fill="white"/>
<line x1="309.152" y1="343.966" x2="329.152" y2="315.966" stroke="black" stroke-width="7"/>
<line x1="302.001" y1="332.5" x2="337.369" y2="332.508" stroke="black" stroke-width="7"/>
<path d="M352.629 285.992C352.786 284.582 353.082 286.218 353.478 286.416" stroke="#1E1E1E" stroke-width="14" stroke-linecap="round"/>
<path d="M264.337 334.807C264.63 336.417 265.476 339.16 267.308 339.052C268.203 338.999 268.446 337.711 267.733 337.354" stroke="#1E1E1E" stroke-width="14" stroke-linecap="round"/>
<path d="M351.25 204.663C351.435 206.145 352.653 203.473 352.796 203.33C354.9 201.226 354.796 204.403 353.17 205.623" stroke="white" stroke-width="8" stroke-linecap="round"/>
<path d="M360.37 206.103C360.227 208.809 358.789 211.03 357.49 213.303" stroke="white" stroke-width="8" stroke-linecap="round"/>
<path d="M373.33 212.823C371.355 215.018 369.505 216.705 367.09 218.583" stroke="white" stroke-width="8" stroke-linecap="round"/>
<path d="M381.01 219.063C378.877 221.434 376.772 222.383 373.81 223.864" stroke="white" stroke-width="8" stroke-linecap="round"/>
<path d="M365.17 208.503C362.081 209.661 371.034 211.818 374.29 212.343" stroke="white" stroke-width="8" stroke-linecap="round"/>
<path d="M335.409 190.263H337.809" stroke="white" stroke-width="8" stroke-linecap="round"/>
<path d="M335.889 194.103C338.165 194.103 340.346 194.317 342.609 194.583" stroke="white" stroke-width="8" stroke-linecap="round"/>
<path d="M327.729 190.743C330.371 189.5 334.035 189.655 336.849 189.303" stroke="white" stroke-width="8" stroke-linecap="round"/>
<path d="M312.369 193.623C311.375 190.641 319.326 186.317 321.009 184.983" stroke="white" stroke-width="8" stroke-linecap="round"/>
<path d="M301.328 192.663C303.334 192.046 305.153 191.622 307.089 190.743" stroke="white" stroke-width="8" stroke-linecap="round"/>
<path d="M297.488 189.303C297.297 189.303 299.313 187.767 299.888 187.383" stroke="white" stroke-width="8" stroke-linecap="round"/>
<path d="M379.09 229.144C381.768 229.441 385.032 231.874 387.25 232.984" stroke="white" stroke-width="8" stroke-linecap="round"/>
<path d="M397.331 308.345C399.718 307.638 400.683 307.86 402.611 309.305" stroke="white" stroke-width="8" stroke-linecap="round"/>
<path d="M241.327 386.107C240.083 388.347 237.967 389.551 237.967 392.347" stroke="white" stroke-width="8" stroke-linecap="round"/>
<path d="M239.887 389.467C238.408 392.795 240.452 396.857 241.327 400.028" stroke="white" stroke-width="8" stroke-linecap="round"/>
<path d="M246.607 394.747C246.607 397.009 247.087 399.168 247.087 401.467" stroke="white" stroke-width="8" stroke-linecap="round"/>
<path d="M252.367 396.187C252.367 398.471 252.21 400.65 251.887 402.907" stroke="white" stroke-width="8" stroke-linecap="round"/>
<path d="M256.688 397.627C257.566 399.209 258.98 399.734 260.528 400.507" stroke="white" stroke-width="8" stroke-linecap="round"/>
<path d="M262.928 400.027C264.648 402.658 266.101 402.966 269.168 403.868" stroke="white" stroke-width="8" stroke-linecap="round"/>
<path d="M263.888 396.187C259.142 393.939 252.6 394.633 247.567 394.267" stroke="white" stroke-width="8" stroke-linecap="round"/>
<path d="M246.607 393.307C242.828 394.713 240.239 393.147 236.527 391.867" stroke="white" stroke-width="8" stroke-linecap="round"/>
<path d="M234.607 389.467C232.352 388.87 230.195 388.412 227.887 388.027" stroke="white" stroke-width="8" stroke-linecap="round"/>
<path d="M231.247 384.187C229.004 386.206 224.527 382.341 222.607 381.307" stroke="white" stroke-width="8" stroke-linecap="round"/>
<path d="M223.567 379.387C224.107 382.27 220.978 382.398 218.767 383.227" stroke="white" stroke-width="8" stroke-linecap="round"/>
<path d="M219.247 372.187C217.353 374.081 215.757 376.413 213.967 378.427" stroke="white" stroke-width="8" stroke-linecap="round"/>
<path d="M216.847 370.747C215.29 372.476 213.852 373.999 212.047 375.547" stroke="white" stroke-width="8" stroke-linecap="round"/>
<path d="M214.447 366.907C214.086 368.53 210.959 369.775 209.646 370.267" stroke="white" stroke-width="8" stroke-linecap="round"/>
<path d="M211.086 365.947C209.751 367.338 208.81 368.614 207.246 369.787" stroke="white" stroke-width="8" stroke-linecap="round"/>
<path d="M205.326 363.067C205.123 364.692 200.696 366.988 199.566 367.867" stroke="white" stroke-width="8" stroke-linecap="round"/>
<path d="M204.366 360.667C204.011 361.911 203.497 362.884 202.926 364.027" stroke="white" stroke-width="8" stroke-linecap="round"/>
<path d="M204.366 359.707C200.502 360.093 199.434 358.895 196.206 356.347" stroke="white" stroke-width="8" stroke-linecap="round"/>
<path d="M200.526 359.227C197.478 359.074 194.4 358.307 191.406 357.786" stroke="white" stroke-width="8" stroke-linecap="round"/>
<path d="M199.086 350.586C197.292 352.054 194.034 351.8 191.886 352.026" stroke="white" stroke-width="8" stroke-linecap="round"/>
<path d="M196.206 348.666C194.221 346.902 190.408 346.475 188.046 345.786" stroke="white" stroke-width="8" stroke-linecap="round"/>
<path d="M187.566 344.346H194.286" stroke="white" stroke-width="8" stroke-linecap="round"/>
<path d="M194.286 340.506C191.355 340.506 188.208 338.328 185.646 337.146" stroke="white" stroke-width="8" stroke-linecap="round"/>
<path d="M193.326 329.466C191.234 331.14 186.648 328.65 184.686 328.026" stroke="white" stroke-width="8" stroke-linecap="round"/>
<path d="M189.486 328.506C186.861 328.506 186.017 327.437 184.206 325.626" stroke="white" stroke-width="8" stroke-linecap="round"/>
<path d="M186.606 323.706C187.995 323.645 187.707 323.3 187.086 322.266" stroke="white" stroke-width="8" stroke-linecap="round"/>
<path d="M188.046 316.986C186.655 317.604 185.219 317.466 183.726 317.466" stroke="white" stroke-width="8" stroke-linecap="round"/>
<path d="M185.646 313.625C184.098 317.109 185.068 321.526 185.166 325.146" stroke="white" stroke-width="8" stroke-linecap="round"/>
<path d="M184.206 312.666C180.745 316.127 180.831 321.26 182.286 325.626" stroke="white" stroke-width="8" stroke-linecap="round"/>
<path d="M180.366 307.385C182.175 309.195 182.54 312.232 183.246 314.586" stroke="white" stroke-width="8" stroke-linecap="round"/>
<path d="M185.166 301.145C185.832 303.589 180.322 297.775 179.886 297.305" stroke="white" stroke-width="8" stroke-linecap="round"/>
<path d="M181.806 290.585C181.241 291.079 185.89 297.146 186.606 298.265" stroke="white" stroke-width="8" stroke-linecap="round"/>
<path d="M181.806 280.505C180.071 280.938 183.442 287.041 183.726 287.705" stroke="white" stroke-width="8" stroke-linecap="round"/>
<path d="M185.166 271.865C185.519 275.042 186.474 278.036 186.606 281.465" stroke="white" stroke-width="8" stroke-linecap="round"/>
<path d="M187.086 261.784C185.431 260.314 186.126 268.085 186.126 268.985" stroke="white" stroke-width="8" stroke-linecap="round"/>
<path d="M189.966 250.744C192.015 253.306 188.255 259.447 187.086 261.784" stroke="white" stroke-width="8" stroke-linecap="round"/>
<path d="M192.846 244.984C192.48 249.008 189.596 253.401 188.046 256.984" stroke="white" stroke-width="8" stroke-linecap="round"/>
<path d="M197.646 237.784C197.33 239.999 196.141 242.011 195.246 244.024" stroke="white" stroke-width="8" stroke-linecap="round"/>
<path d="M201.966 231.064C202.377 231.816 201.803 232.497 201.486 233.197C199.826 236.867 198.569 240.733 197.166 244.504" stroke="white" stroke-width="8" stroke-linecap="round"/>
<path d="M205.806 228.184C205.66 231.105 204.278 234.064 203.406 236.824" stroke="white" stroke-width="8" stroke-linecap="round"/>
<path d="M248.047 194.583L247.567 195.543" stroke="white" stroke-width="8" stroke-linecap="round"/>
<path d="M246.607 195.063C244.555 199.168 242.626 203.318 240.847 207.543" stroke="white" stroke-width="8" stroke-linecap="round"/>
<path d="M293.648 177.783C293.98 179.884 296.266 180.771 297.968 181.623" stroke="white" stroke-width="8" stroke-linecap="round"/>
<path d="M298.448 174.902C299.362 175.816 300.285 176.557 301.329 177.303" stroke="white" stroke-width="8" stroke-linecap="round"/>
<path d="M297.968 164.342C298.639 163.886 299.258 163.406 299.888 162.902" stroke="white" stroke-width="8" stroke-linecap="round"/>
<path d="M292.688 152.342C294.672 153.73 295.716 149.5 296.048 148.502" stroke="white" stroke-width="8" stroke-linecap="round"/>
<path d="M291.728 138.902C292.765 138.807 293.667 138.345 294.608 137.942" stroke="white" stroke-width="8" stroke-linecap="round"/>
<path d="M288.848 128.341L289.328 127.861" stroke="white" stroke-width="8" stroke-linecap="round"/>
<path d="M290.768 134.102C291.041 136.194 291.382 138.262 291.728 140.342" stroke="white" stroke-width="8" stroke-linecap="round"/>
<path d="M293.168 142.742C292.922 145.572 291.691 148.248 290.768 150.902" stroke="white" stroke-width="8" stroke-linecap="round"/>
<path d="M297.488 155.222C295.803 158.032 294.819 161.297 293.648 164.342" stroke="white" stroke-width="8" stroke-linecap="round"/>
<path d="M297.968 162.902C296.155 164.897 295.518 168.113 294.608 170.582" stroke="white" stroke-width="8" stroke-linecap="round"/>
<path d="M296.048 171.542C295.835 174.101 294.47 176.148 293.168 178.263" stroke="white" stroke-width="8" stroke-linecap="round"/>
<path d="M181.326 214.263C179.325 217.376 177.24 220.368 175.086 223.384" stroke="white" stroke-width="8" stroke-linecap="round"/>
<path d="M181.326 216.663C180.242 218.952 179.228 221.174 177.966 223.383" stroke="white" stroke-width="8" stroke-linecap="round"/>
<path d="M182.286 211.383C180.162 212.657 178.328 213.729 176.046 214.743" stroke="white" stroke-width="8" stroke-linecap="round"/>
<path d="M167.886 213.783C167.086 215.303 166.329 216.565 165.005 217.623" stroke="white" stroke-width="8" stroke-linecap="round"/>
<path d="M169.806 205.623C168.365 206.2 166.845 208.886 165.485 209.943" stroke="white" stroke-width="8" stroke-linecap="round"/>
<path d="M161.165 207.543C160.709 208.214 160.23 208.833 159.725 209.463" stroke="white" stroke-width="8" stroke-linecap="round"/>
<path d="M157.805 198.903C155.677 201.989 152.93 204.129 150.125 206.583" stroke="white" stroke-width="8" stroke-linecap="round"/>
<path d="M146.285 205.623C146.168 206.266 145.165 207.696 146.498 206.85C149.6 204.882 152.642 203.049 155.885 201.303" stroke="white" stroke-width="8" stroke-linecap="round"/>
<path d="M152.045 204.663C152.994 204.769 154.021 205.322 154.925 205.623" stroke="white" stroke-width="8" stroke-linecap="round"/>
<path d="M168.365 207.543C169.011 209.156 172.626 209.823 174.126 210.423" stroke="white" stroke-width="8" stroke-linecap="round"/>
<path d="M177.486 218.103C178.998 219.994 180.979 220.078 183.246 220.503" stroke="white" stroke-width="8" stroke-linecap="round"/>
<path d="M184.686 226.744C186.687 226.744 188.496 226.697 190.446 226.264" stroke="white" stroke-width="8" stroke-linecap="round"/>
<path d="M195.246 223.384C197.6 224.202 200.044 223.636 202.446 223.384" stroke="white" stroke-width="8" stroke-linecap="round"/>
<path d="M139.565 200.823C140.941 202.054 142.646 202.65 144.365 203.223" stroke="white" stroke-width="8" stroke-linecap="round"/>
<path d="M140.045 197.463C141.621 198.609 144.602 197.344 146.285 196.983" stroke="white" stroke-width="8" stroke-linecap="round"/>
<path d="M129.485 192.663C130.979 192.034 132.708 192.097 134.285 191.703" stroke="white" stroke-width="8" stroke-linecap="round"/>
<path d="M125.165 188.823C125.16 188.828 128.997 188.823 129.965 188.823" stroke="white" stroke-width="8" stroke-linecap="round"/>
<path d="M119.884 182.583C120.86 182.149 121.711 182.103 122.764 182.103" stroke="white" stroke-width="8" stroke-linecap="round"/>
<path d="M108.844 179.223C111.712 178.936 114.712 178.476 117.484 177.783" stroke="white" stroke-width="8" stroke-linecap="round"/>
<path d="M103.084 178.263C105.554 179.302 107.387 177.246 109.324 175.862" stroke="white" stroke-width="8" stroke-linecap="round"/>
<path d="M97.804 164.342C99.6172 166.209 101.319 168.19 103.084 170.102" stroke="white" stroke-width="8" stroke-linecap="round"/>
<path d="M97.324 164.342C99.4465 164.342 101.459 164.559 103.564 164.822" stroke="white" stroke-width="8" stroke-linecap="round"/>
<path d="M90.6038 155.702C90.1267 155.77 93.9696 157.142 94.9239 157.142" stroke="white" stroke-width="8" stroke-linecap="round"/>
<path d="M89.1637 148.982C88.4454 149.187 93.1067 154.296 93.4838 154.742" stroke="white" stroke-width="8" stroke-linecap="round"/>
<path d="M92.0439 138.902C90.8557 140.238 92.9334 143.341 93.4839 144.662" stroke="white" stroke-width="8" stroke-linecap="round"/>
<path d="M92.0438 136.502C91.437 138.474 94.2713 138.91 95.4039 139.382" stroke="white" stroke-width="8" stroke-linecap="round"/>
<path d="M96.3639 124.501C96.3592 124.469 94.7376 126.715 95.8838 127.861" stroke="white" stroke-width="8" stroke-linecap="round"/>
<path d="M94.4438 122.581C95.0982 124.871 95.1903 126.951 95.4039 129.301" stroke="white" stroke-width="8" stroke-linecap="round"/>
<path d="M106.444 115.861C106.94 117.459 107.22 119.007 107.404 120.661" stroke="white" stroke-width="8" stroke-linecap="round"/>
<path d="M117.004 110.101C118.31 110.428 116.331 115.002 116.044 115.861" stroke="white" stroke-width="8" stroke-linecap="round"/>
<path d="M123.244 105.301C123.164 107.552 122.315 109.08 121.324 111.061" stroke="white" stroke-width="8" stroke-linecap="round"/>
<path d="M127.085 106.261C127.291 108.325 127.061 109.967 126.605 112.021" stroke="white" stroke-width="8" stroke-linecap="round"/>
<path d="M135.725 103.381C138.496 103.073 135.316 106.634 134.285 108.181" stroke="white" stroke-width="8" stroke-linecap="round"/>
<path d="M139.565 106.261V110.101" stroke="white" stroke-width="8" stroke-linecap="round"/>
<path d="M146.765 105.781C149.522 106.087 147.499 111.712 147.245 112.981" stroke="white" stroke-width="8" stroke-linecap="round"/>
<path d="M153.965 110.101C154.576 110.941 154.445 111.991 154.445 112.981" stroke="white" stroke-width="8" stroke-linecap="round"/>
<path d="M158.285 110.581C158.143 111.86 157.12 113.415 156.365 114.421" stroke="white" stroke-width="8" stroke-linecap="round"/>
<path d="M160.205 114.421C161.398 115.747 161.165 117.549 161.165 119.221" stroke="white" stroke-width="8" stroke-linecap="round"/>
<path d="M167.406 118.741C168.326 119.866 168.366 121.193 168.366 122.581" stroke="white" stroke-width="8" stroke-linecap="round"/>
<path d="M170.286 123.541C171.675 124.323 170.766 125.521 170.766 126.901" stroke="white" stroke-width="8" stroke-linecap="round"/>
<path d="M176.526 127.861C175.902 128.641 175.802 129.796 175.566 130.741" stroke="white" stroke-width="8" stroke-linecap="round"/>
<path d="M179.886 128.341C180.543 129.163 180.366 130.224 180.366 131.221" stroke="white" stroke-width="8" stroke-linecap="round"/>
<path d="M185.166 132.661C186.567 134.063 186.451 136.08 186.606 137.942" stroke="white" stroke-width="8" stroke-linecap="round"/>
<path d="M191.886 137.462C192.497 137.614 192.887 140.57 193.326 141.302" stroke="white" stroke-width="8" stroke-linecap="round"/>
<path d="M189.966 137.942C192.223 137.942 194.457 139.01 196.686 139.382" stroke="white" stroke-width="8" stroke-linecap="round"/>
<path d="M197.646 146.102C197.763 148.096 199.862 148.27 201.486 148.502" stroke="white" stroke-width="8" stroke-linecap="round"/>
<path d="M206.766 149.942C208.503 151.591 210.453 152.616 212.527 153.782" stroke="white" stroke-width="8" stroke-linecap="round"/>
<path d="M211.566 153.302C210.928 156.918 214.584 157.427 217.327 158.582" stroke="white" stroke-width="8" stroke-linecap="round"/>
<path d="M217.807 159.542C219.283 161.401 220.424 162.109 222.607 162.902" stroke="white" stroke-width="8" stroke-linecap="round"/>
<path d="M222.127 168.662C222.468 170.37 225.2 171.63 226.447 172.502" stroke="white" stroke-width="8" stroke-linecap="round"/>
<path d="M227.407 179.703C226.913 180.32 226.721 182.205 227.887 181.623" stroke="white" stroke-width="8" stroke-linecap="round"/>
<path d="M220.687 146.582C220.115 148.01 220.502 149.738 219.727 150.902" stroke="white" stroke-width="8" stroke-linecap="round"/>
<path d="M213.487 136.502C212.27 137.921 211.716 139.57 211.087 141.302" stroke="white" stroke-width="8" stroke-linecap="round"/>
<path d="M211.086 132.181C210.13 133.244 209.722 134.725 209.166 136.022" stroke="white" stroke-width="8" stroke-linecap="round"/>
<path d="M207.246 122.581C207.13 123.627 205.811 124.972 205.326 125.941" stroke="white" stroke-width="8" stroke-linecap="round"/>
<path d="M202.446 116.821C201.609 117.659 201.377 118.59 201.006 119.701" stroke="white" stroke-width="8" stroke-linecap="round"/>
<path d="M199.566 108.661C199.491 109.634 199.26 110.583 199.086 111.541" stroke="white" stroke-width="8" stroke-linecap="round"/>
<path d="M194.286 152.342C194.014 151.797 196.093 152.819 196.1 152.822C199.673 154.629 202.677 157.588 205.806 160.022" stroke="white" stroke-width="8" stroke-linecap="round"/>
<path d="M202.446 154.742C203.175 154.785 203.557 154.925 204.1 155.435C207.077 158.234 210.033 161.059 213.007 163.862" stroke="white" stroke-width="8" stroke-linecap="round"/>
<path d="M209.166 156.662C209.907 161.551 214.577 164.473 217.807 167.702" stroke="white" stroke-width="8" stroke-linecap="round"/>
<path d="M287.408 120.661C285.822 122.392 285.616 124.235 285.008 126.421" stroke="white" stroke-width="8" stroke-linecap="round"/>
<path d="M283.568 112.981C283.568 115.288 283.538 117.453 283.088 119.701" stroke="white" stroke-width="8" stroke-linecap="round"/>
<path d="M280.208 102.901C280.208 105.167 280.15 106.631 279.248 108.661" stroke="white" stroke-width="8" stroke-linecap="round"/>
<path d="M276.848 97.6207C276.688 99.8662 276.481 102.089 276.368 104.341" stroke="white" stroke-width="8" stroke-linecap="round"/>
<path d="M272.528 91.8606C270.507 92.1132 269.636 97.7153 269.168 99.0608" stroke="white" stroke-width="8" stroke-linecap="round"/>
<path d="M271.088 81.7803C269.711 84.6111 268.634 87.6472 267.248 90.4205" stroke="white" stroke-width="8" stroke-linecap="round"/>
<path d="M263.888 77.4603C263.888 79.124 264.22 80.6012 263.888 82.2604" stroke="white" stroke-width="8" stroke-linecap="round"/>
<path d="M259.568 66.42C258.092 66.9733 259.088 75.936 259.088 76.9802" stroke="white" stroke-width="8" stroke-linecap="round"/>
<path d="M259.088 57.7798C259.088 61.1056 257.84 63.8271 256.688 66.9" stroke="white" stroke-width="8" stroke-linecap="round"/>
<path d="M251.407 56.3398C251.407 59.1929 250.462 61.3392 249.487 64.02" stroke="white" stroke-width="8" stroke-linecap="round"/>
<path d="M240.367 50.0997C240.037 53.4006 238.376 57.0184 237.487 60.1799" stroke="white" stroke-width="8" stroke-linecap="round"/>
<path d="M226.927 47.6996V52.4997" stroke="white" stroke-width="8" stroke-linecap="round"/>
<path d="M193.326 71.2201C193.372 71.4048 197.655 71.8989 198.606 72.6601" stroke="white" stroke-width="8" stroke-linecap="round"/>
<path d="M191.886 80.8203C189.322 84.9865 193.957 83.1975 196.206 82.2604" stroke="white" stroke-width="8" stroke-linecap="round"/>
<path d="M193.326 87.0605C192.213 89.5645 195.468 92.7474 196.686 94.7407" stroke="white" stroke-width="8" stroke-linecap="round"/>
<path d="M194.286 94.2606C193.532 97.9075 197 98.2574 199.566 99.5407" stroke="white" stroke-width="8" stroke-linecap="round"/>
<path d="M197.646 102.421C197.893 104.894 199.941 106.507 201.486 108.181" stroke="white" stroke-width="8" stroke-linecap="round"/>
<path d="M202.446 60.1799C199.934 60.4311 199.253 63.5187 198.606 65.46" stroke="white" stroke-width="8" stroke-linecap="round"/>
<path d="M199.566 60.6599C199.498 61.9623 199.086 63.188 199.086 64.5" stroke="white" stroke-width="8" stroke-linecap="round"/>
<path d="M208.686 54.8997C208.902 55.8708 210.45 57.0164 211.086 57.7798" stroke="white" stroke-width="8" stroke-linecap="round"/>
<path d="M216.847 54.4197C217.89 55.4632 218.756 56.4572 220.207 56.8198" stroke="white" stroke-width="8" stroke-linecap="round"/>
<path d="M227.887 52.0197C229.972 52.3405 232.12 53.3059 234.127 53.9397" stroke="white" stroke-width="8" stroke-linecap="round"/>
<path d="M237.487 54.4197C239.024 55.6854 239.966 56.978 240.847 58.7398" stroke="white" stroke-width="8" stroke-linecap="round"/>
<path d="M276.608 402.908C275.014 403.107 275.648 410.038 275.648 411.068" stroke="white" stroke-width="8" stroke-linecap="round"/>
<path d="M282.848 403.868C283.425 405.887 283.548 408.031 283.808 410.108" stroke="white" stroke-width="8" stroke-linecap="round"/>
<path d="M289.568 404.348C288.701 405.587 289.822 409.229 290.048 410.588" stroke="white" stroke-width="8" stroke-linecap="round"/>
<path d="M297.728 402.427C297.892 403.902 299.398 405.95 300.128 407.228" stroke="white" stroke-width="8" stroke-linecap="round"/>
<path d="M307.809 400.988C307.809 402.947 308.073 404.807 308.289 406.748" stroke="white" stroke-width="8" stroke-linecap="round"/>
<path d="M312.609 401.948C312.666 403.491 313.002 404.85 313.569 406.268" stroke="white" stroke-width="8" stroke-linecap="round"/>
<path d="M320.289 400.507C322.002 400.507 323.089 402.698 324.129 403.868" stroke="white" stroke-width="8" stroke-linecap="round"/>
<path d="M329.889 397.627C329.989 399.331 331.464 400.983 332.289 402.428" stroke="white" stroke-width="8" stroke-linecap="round"/>
<path d="M339.969 391.387C340.062 393.139 340.781 394.112 342.369 394.747" stroke="white" stroke-width="8" stroke-linecap="round"/>
<path d="M349.09 385.627C349.698 387.755 350.668 389.813 351.49 391.867" stroke="white" stroke-width="8" stroke-linecap="round"/>
<path d="M355.81 384.667C356.154 384.973 356.361 385.011 356.77 385.147" stroke="white" stroke-width="8" stroke-linecap="round"/>
<path d="M364.93 375.547C365.019 377.066 366.047 377.039 367.33 377.467" stroke="white" stroke-width="8" stroke-linecap="round"/>
<path d="M372.13 366.427C372.269 368.783 374.738 367.728 375.97 366.907" stroke="white" stroke-width="8" stroke-linecap="round"/>
<path d="M379.33 360.667C380.001 360.964 380.544 361.029 381.25 361.147" stroke="white" stroke-width="8" stroke-linecap="round"/>
<path d="M379.33 353.946C380.336 354.852 381.35 355.271 382.21 356.346" stroke="white" stroke-width="8" stroke-linecap="round"/>
<path d="M370.69 366.427C370.943 368.954 375.431 367.617 376.93 367.387" stroke="white" stroke-width="8" stroke-linecap="round"/>
<path d="M366.85 369.787C366.316 370.915 366.142 371.527 366.37 372.667" stroke="white" stroke-width="8" stroke-linecap="round"/>
<path d="M350.53 379.387C349.203 382.41 347.952 385.457 346.69 388.507" stroke="white" stroke-width="8" stroke-linecap="round"/>
<path d="M341.409 386.587C340.011 389.928 338.172 390.875 335.169 392.827" stroke="white" stroke-width="8" stroke-linecap="round"/>
<path d="M331.329 393.307C330.928 395.315 328.527 396.262 327.009 397.147" stroke="white" stroke-width="8" stroke-linecap="round"/>
<path d="M317.409 393.307C316.35 396.194 315.391 398.991 314.529 401.948" stroke="white" stroke-width="8" stroke-linecap="round"/>
<path d="M389.411 356.347H388.931" stroke="white" stroke-width="8" stroke-linecap="round"/>
<path d="M379.33 347.226C379.605 349.56 382.332 348.366 383.65 347.706" stroke="white" stroke-width="8" stroke-linecap="round"/>
<path d="M383.65 344.346C384.004 346.289 386.024 345.952 387.49 346.266" stroke="white" stroke-width="8" stroke-linecap="round"/>
<path d="M392.291 331.386C391.78 332.066 396.895 330.61 397.571 330.426" stroke="white" stroke-width="8" stroke-linecap="round"/>
<path d="M392.771 319.386C394.365 320.023 395.738 319.92 397.091 318.906" stroke="white" stroke-width="8" stroke-linecap="round"/>
<path d="M396.131 304.025C397.409 305.048 399.877 305.111 401.411 305.465" stroke="white" stroke-width="8" stroke-linecap="round"/>
<path d="M396.611 296.825C396.611 297.985 397.526 297.449 398.531 297.305" stroke="white" stroke-width="8" stroke-linecap="round"/>
<path d="M396.611 285.785C396.611 284.516 397.624 285.198 398.051 284.345" stroke="white" stroke-width="8" stroke-linecap="round"/>
<path d="M397.571 276.665C397.871 275.463 401.952 276.552 402.851 276.665" stroke="white" stroke-width="8" stroke-linecap="round"/>
<path d="M396.611 262.264C396.08 262.264 397.571 262.633 397.571 262.264" stroke="white" stroke-width="8" stroke-linecap="round"/>
<path d="M392.771 253.144C391.65 253.219 392.43 253.571 393.117 253.571C395.904 253.571 398.164 251.557 400.451 250.264" stroke="white" stroke-width="8" stroke-linecap="round"/>
<path d="M386.53 246.424H388.45" stroke="white" stroke-width="8" stroke-linecap="round"/>
<path d="M382.21 240.184H383.17" stroke="white" stroke-width="8" stroke-linecap="round"/>
<path d="M383.65 235.864C384.749 237.062 385.797 238.146 387.01 239.224" stroke="white" stroke-width="8" stroke-linecap="round"/>
<path d="M385.09 233.944V234.904" stroke="white" stroke-width="8" stroke-linecap="round"/>
<path d="M387.49 365.947C386.422 367.149 389.181 368.702 389.89 368.347" stroke="white" stroke-width="8" stroke-linecap="round"/>
<path d="M387.49 361.147C386.539 362.732 392.198 365.315 393.251 365.947" stroke="white" stroke-width="8" stroke-linecap="round"/>
<path d="M387.01 357.786C387.271 359.351 389.097 360.304 389.89 361.627" stroke="white" stroke-width="8" stroke-linecap="round"/>
<path d="M391.331 349.626C390.791 351.631 391.97 353.104 392.771 354.906" stroke="white" stroke-width="8" stroke-linecap="round"/>
<path d="M392.291 340.506C391.129 341.958 392.931 343.626 393.731 344.826" stroke="white" stroke-width="8" stroke-linecap="round"/>
<path d="M396.131 331.866C396.261 332.908 397.571 333.083 397.571 334.746" stroke="white" stroke-width="8" stroke-linecap="round"/>
<path d="M399.491 327.546C399.491 329.3 399.971 331.025 399.971 332.826" stroke="white" stroke-width="8" stroke-linecap="round"/>
<path d="M405.251 329.946C405.341 331.659 405.69 332.735 404.771 334.266" stroke="white" stroke-width="8" stroke-linecap="round"/>
<path d="M406.691 328.986C407.126 328.442 410.563 331.948 411.011 332.346" stroke="white" stroke-width="8" stroke-linecap="round"/>
<path d="M411.971 327.066C412.123 328.282 414.934 328.026 415.811 328.026" stroke="white" stroke-width="8" stroke-linecap="round"/>
<path d="M420.131 321.786C420.381 324.034 422.233 323.899 423.971 323.706" stroke="white" stroke-width="8" stroke-linecap="round"/>
<path d="M423.011 320.826C424.994 321.718 427.126 321.911 429.251 322.266" stroke="white" stroke-width="8" stroke-linecap="round"/>
<path d="M427.811 317.466C429.349 319.174 431.076 320.154 433.092 321.306" stroke="white" stroke-width="8" stroke-linecap="round"/>
<path d="M436.452 319.386C438.675 321.993 440.966 322.439 443.172 319.866" stroke="white" stroke-width="8" stroke-linecap="round"/>
<path d="M444.132 318.906C445.758 320.954 446.969 321.514 449.412 322.266" stroke="white" stroke-width="8" stroke-linecap="round"/>
<path d="M452.772 319.866V320.346" stroke="white" stroke-width="8" stroke-linecap="round"/>
<path d="M458.052 317.466V321.306" stroke="white" stroke-width="8" stroke-linecap="round"/>
<path d="M463.812 325.146C463.812 326.144 463.939 326.51 464.772 327.066" stroke="white" stroke-width="8" stroke-linecap="round"/>
<path d="M469.092 327.546V330.906" stroke="white" stroke-width="8" stroke-linecap="round"/>
<path d="M473.892 335.226C475.486 336.914 475.624 338.24 475.812 340.506" stroke="white" stroke-width="8" stroke-linecap="round"/>
<path d="M481.093 343.866C480.636 344.537 480.157 345.156 479.652 345.786" stroke="white" stroke-width="8" stroke-linecap="round"/>
<path d="M483.493 345.306C483.342 346.812 481.807 347.115 481.093 348.186" stroke="white" stroke-width="8" stroke-linecap="round"/>
<path d="M482.053 352.506C481.387 354.143 481.002 355.619 480.613 357.307" stroke="white" stroke-width="8" stroke-linecap="round"/>
<path d="M483.493 362.587C482.613 365.385 481.278 365.565 478.693 366.427" stroke="white" stroke-width="8" stroke-linecap="round"/>
<path d="M477.732 370.267C477.617 371.425 476.675 372.02 475.812 372.667" stroke="white" stroke-width="8" stroke-linecap="round"/>
<path d="M474.372 376.507C473.079 378.529 472.185 378.99 470.052 380.347" stroke="white" stroke-width="8" stroke-linecap="round"/>
<path d="M468.612 381.307C469.439 382.37 468.975 382.864 468.132 383.707" stroke="white" stroke-width="8" stroke-linecap="round"/>
<path d="M463.812 387.547C463.415 391.316 459.436 389.147 457.092 388.507" stroke="white" stroke-width="8" stroke-linecap="round"/>
<path d="M457.092 391.867C455.646 393.313 454.081 394.233 452.292 395.227" stroke="white" stroke-width="8" stroke-linecap="round"/>
<path d="M458.532 393.787C458.424 394.866 457.969 395.675 457.572 396.667" stroke="white" stroke-width="8" stroke-linecap="round"/>
<path d="M453.252 400.507C452.081 402.636 450.679 404.674 449.412 406.748" stroke="white" stroke-width="8" stroke-linecap="round"/>
<path d="M444.612 404.828C444.053 406.07 443.65 407.393 443.172 408.668" stroke="white" stroke-width="8" stroke-linecap="round"/>
<path d="M433.572 412.028C433.533 412.679 433.364 412.923 433.092 413.468" stroke="white" stroke-width="8" stroke-linecap="round"/>
<path d="M425.411 406.268C425.154 407.618 425.053 408.904 424.451 410.108" stroke="white" stroke-width="8" stroke-linecap="round"/>
<path d="M421.091 404.828C420.466 406.078 420.09 407.352 419.651 408.668" stroke="white" stroke-width="8" stroke-linecap="round"/>
<path d="M410.531 400.988C410.017 401.774 409.556 402.573 409.091 403.388" stroke="white" stroke-width="8" stroke-linecap="round"/>
<path d="M406.691 393.787C405.88 395.967 405.802 397.3 406.211 399.547" stroke="white" stroke-width="8" stroke-linecap="round"/>
<path d="M402.851 386.107C402.767 388.37 402.469 390.056 402.851 392.347" stroke="white" stroke-width="8" stroke-linecap="round"/>
<path d="M397.571 383.227C397.17 385.232 396.454 385.799 397.091 388.027" stroke="white" stroke-width="8" stroke-linecap="round"/>
<path d="M395.171 379.867C394.524 381.303 394.365 382.641 394.211 384.187" stroke="white" stroke-width="8" stroke-linecap="round"/>
<path d="M390.851 374.107C389.934 375.024 389.891 375.707 389.891 376.987" stroke="white" stroke-width="8" stroke-linecap="round"/>
<path d="M390.85 367.867C390.975 370.106 391.675 372.278 391.811 374.587" stroke="white" stroke-width="8" stroke-linecap="round"/>
<path d="M313.089 404.828C312.92 409.391 314.232 410.009 318.849 411.548" stroke="white" stroke-width="8" stroke-linecap="round"/>
<path d="M318.369 409.148C318.528 410.584 320.643 410.796 321.729 411.068" stroke="white" stroke-width="8" stroke-linecap="round"/>
<path d="M325.569 413.468C325.569 415.958 326.81 416.248 328.929 417.308" stroke="white" stroke-width="8" stroke-linecap="round"/>
<path d="M330.369 416.348C330.55 418.704 332.299 419.233 334.209 420.188" stroke="white" stroke-width="8" stroke-linecap="round"/>
<path d="M335.169 424.508C335.724 427.562 338.842 426.296 340.929 425.948" stroke="white" stroke-width="8" stroke-linecap="round"/>
<path d="M341.889 429.788C342.07 432.684 343.754 431.55 345.249 430.268" stroke="white" stroke-width="8" stroke-linecap="round"/>
<path d="M341.889 437.948C342.041 440.674 344.469 439.655 346.21 438.908" stroke="white" stroke-width="8" stroke-linecap="round"/>
<path d="M342.849 442.748C340.709 445.424 343.591 446.356 345.73 447.069" stroke="white" stroke-width="8" stroke-linecap="round"/>
<path d="M342.369 451.869C342.546 454.074 344.379 454.199 346.209 454.749" stroke="white" stroke-width="8" stroke-linecap="round"/>
<path d="M341.409 460.029C340.306 461.868 345.06 461.335 345.73 461.469" stroke="white" stroke-width="8" stroke-linecap="round"/>
<path d="M339.489 467.229C339.9 469.078 343.683 467.907 344.769 467.709" stroke="white" stroke-width="8" stroke-linecap="round"/>
<path d="M340.449 472.029C340.644 475.234 342.627 473.963 344.769 472.989" stroke="white" stroke-width="8" stroke-linecap="round"/>
<path d="M343.329 475.389C343.431 477.107 344.441 476.779 345.73 476.349" stroke="white" stroke-width="8" stroke-linecap="round"/>
<path d="M246.847 458.109C244.366 460.866 248.825 462.731 250.687 463.869" stroke="white" stroke-width="8" stroke-linecap="round"/>
<path d="M248.287 456.669C248.531 457.767 252.038 457.419 253.087 457.629" stroke="white" stroke-width="8" stroke-linecap="round"/>
<path d="M247.327 449.949C249.028 450.39 250.559 450.096 252.127 449.469" stroke="white" stroke-width="8" stroke-linecap="round"/>
<path d="M245.887 442.748C246.007 445.861 248.651 446.365 251.167 447.549" stroke="white" stroke-width="8" stroke-linecap="round"/>
<path d="M247.327 439.388C248.486 440.547 250.1 440.519 251.647 440.828" stroke="white" stroke-width="8" stroke-linecap="round"/>
<path d="M251.647 428.828C251.705 430.264 252.263 431.034 253.087 432.188" stroke="white" stroke-width="8" stroke-linecap="round"/>
<path d="M255.487 421.628C255.546 423.161 256.199 424.46 256.447 425.948" stroke="white" stroke-width="8" stroke-linecap="round"/>
<path d="M260.288 419.708C261.378 422.131 261.946 424.847 262.688 427.388" stroke="white" stroke-width="8" stroke-linecap="round"/>
<path d="M266.048 415.388C266.086 417.322 266.315 419.231 266.528 421.148" stroke="white" stroke-width="8" stroke-linecap="round"/>
<path d="M268.928 415.868V421.148" stroke="white" stroke-width="8" stroke-linecap="round"/>
<path d="M274.208 413.468C274.339 414.912 274.576 416.333 274.688 417.788" stroke="white" stroke-width="8" stroke-linecap="round"/>
<path d="M279.968 412.988C280.233 413.987 280.567 414.906 280.928 415.868" stroke="white" stroke-width="8" stroke-linecap="round"/>
<path d="M476 360.5C476 381.211 456.524 406 432.5 406C408.476 406 389 381.211 389 360.5C389 339.789 408.476 323 432.5 323C459 318.5 483.5 338 476 360.5Z" fill="white"/>
<path d="M251.384 452.52C251.935 431.817 272.062 407.554 296.078 408.192C324 408.192 344.05 431.817 343.5 452.52C342.95 473.224 317.889 491.801 293.873 491.163C267.262 494.957 243.289 474.813 251.384 452.52Z" fill="white"/>
<path d="M246.847 471.069C245.777 473.344 248.233 474.855 249.727 476.349" stroke="white" stroke-width="8" stroke-linecap="round"/>
<path d="M250.207 470.589C251.529 470.736 253.367 470.969 254.528 471.549" stroke="white" stroke-width="8" stroke-linecap="round"/>
<path d="M251.167 480.669C252.841 479.148 254.782 478.764 256.928 478.269" stroke="white" stroke-width="8" stroke-linecap="round"/>
<path d="M254.527 483.069C256.225 483.069 257.426 483.477 257.888 481.629" stroke="white" stroke-width="8" stroke-linecap="round"/>
<path d="M258.848 484.989C260.919 486.307 264.653 482.584 266.048 481.629" stroke="white" stroke-width="8" stroke-linecap="round"/>
<path d="M261.728 485.469C263.234 485.606 264.677 486.322 266.048 486.909" stroke="white" stroke-width="8" stroke-linecap="round"/>
<path d="M266.048 485.949C266.657 487.71 267.365 488.372 268.928 489.31" stroke="white" stroke-width="8" stroke-linecap="round"/>
<path d="M269.888 490.75C271.534 490.75 273.062 490.52 274.688 490.27" stroke="white" stroke-width="8" stroke-linecap="round"/>
<path d="M277.088 488.829C276.799 490.128 277.176 490.533 277.568 491.71" stroke="white" stroke-width="8" stroke-linecap="round"/>
<path d="M277.088 491.71L278.528 493.15" stroke="white" stroke-width="8" stroke-linecap="round"/>
<path d="M280.448 491.71C281.618 492.131 282.453 492.446 282.848 493.63" stroke="white" stroke-width="8" stroke-linecap="round"/>
<path d="M284.288 491.71C284.819 492.839 285.248 493.819 285.248 495.07" stroke="white" stroke-width="8" stroke-linecap="round"/>
<path d="M290.048 491.229C290.601 492.887 291.246 494.44 291.968 496.03" stroke="white" stroke-width="8" stroke-linecap="round"/>
<path d="M292.928 494.59C293.924 494.322 294.376 494.453 295.328 494.59" stroke="white" stroke-width="8" stroke-linecap="round"/>
<path d="M295.808 489.309C296.954 490.455 298.305 491.294 299.648 492.19" stroke="white" stroke-width="8" stroke-linecap="round"/>
<path d="M299.648 489.79C300.885 491.026 302.073 492.139 303.489 493.15" stroke="white" stroke-width="8" stroke-linecap="round"/>
<path d="M304.929 491.229L306.849 492.19" stroke="white" stroke-width="8" stroke-linecap="round"/>
<path d="M311.169 489.309C312.271 490.212 313.65 490.523 315.009 490.749" stroke="white" stroke-width="8" stroke-linecap="round"/>
<path d="M316.929 487.869C317.125 488.751 318.096 488.829 318.849 488.829" stroke="white" stroke-width="8" stroke-linecap="round"/>
<path d="M318.849 485.949C318.976 487.091 320.372 487.682 321.249 487.39" stroke="white" stroke-width="8" stroke-linecap="round"/>
<path d="M324.129 485.949H325.569" stroke="white" stroke-width="8" stroke-linecap="round"/>
<path d="M327.009 481.629C327.229 482.617 328.196 482.834 328.929 482.589" stroke="white" stroke-width="8" stroke-linecap="round"/>
<path d="M329.409 480.189C331.031 480.454 332.218 480.794 333.729 480.189" stroke="white" stroke-width="8" stroke-linecap="round"/>
<path d="M332.289 479.229C333.46 478.978 334.524 478.644 335.649 478.269" stroke="white" stroke-width="8" stroke-linecap="round"/>
<path d="M335.649 474.429C335.791 475.563 337.39 475.003 338.049 474.909" stroke="white" stroke-width="8" stroke-linecap="round"/>
<path d="M338.049 472.509C339.798 473.768 340.19 474.572 342.369 473.949" stroke="white" stroke-width="8" stroke-linecap="round"/>
<path d="M339.489 471.069C339.834 470.763 340.041 470.725 340.449 470.589" stroke="white" stroke-width="8" stroke-linecap="round"/>
</g>
<g filter="url(#filter2_d_166_669)">
<ellipse cx="119.5" cy="230.5" rx="23.5" ry="20.5" fill="#DB894D"/>
<path d="M104.06 238C104.06 250.426 91.748 260.5 76.5602 260.5C56 273 49.0602 250.426 49.0602 238C49.0602 225.574 61.3723 215.5 76.5602 215.5C91.748 215.5 104.06 225.574 104.06 238Z" fill="#DB894D"/>
<ellipse cx="135.5" cy="267.5" rx="25.5" ry="22.5" fill="#DB894D"/>
<ellipse cx="106.5" cy="297.5" rx="25.5" ry="22.5" fill="#DB894D"/>
<path d="M93 281C93 295.359 80.9117 307 66 307C51.0883 307 39 295.359 39 281C39 266.641 51.0883 255 66 255C80.9117 255 93 266.641 93 281Z" fill="#DB894D"/>
<ellipse cx="99" cy="263.5" rx="33" ry="30.5" fill="#F29235"/>
<ellipse cx="101" cy="263" rx="28" ry="22" fill="#EB833B"/>
</g>
<g filter="url(#filter3_d_166_669)">
<path d="M451.906 264.075C458.523 276.819 453.158 292.72 439.924 299.592C426.69 306.463 410.598 301.702 403.981 288.958C397.364 276.214 402.728 260.313 415.963 253.442C429.197 246.57 445.289 251.331 451.906 264.075Z" fill="#DB894D"/>
<ellipse cx="445.428" cy="208.023" rx="23.5" ry="20.5" transform="rotate(-27.4386 445.428 208.023)" fill="#DB894D"/>
<path d="M435.181 221.794C440.907 232.822 434.622 247.436 421.142 254.434C408.655 275.002 392.094 258.166 386.368 247.138C380.642 236.109 386.927 221.495 400.406 214.497C413.886 207.498 429.455 210.765 435.181 221.794Z" fill="#DB894D"/>
<ellipse cx="476.677" cy="233.488" rx="25.5" ry="22.5" transform="rotate(-27.4386 476.677 233.488)" fill="#DB894D"/>
<ellipse cx="464.763" cy="273.476" rx="25.5" ry="22.5" transform="rotate(-27.4386 464.763 273.476)" fill="#DB894D"/>
<ellipse cx="447.996" cy="247.51" rx="33" ry="30.5" transform="rotate(179.983 447.996 247.51)" fill="#F29235"/>
<ellipse cx="449.007" cy="248.008" rx="28" ry="22" transform="rotate(179.983 449.007 248.008)" fill="#DB894D"/>
</g>
<path d="M436.5 130.5C451.5 196.5 386 164 365.5 184C335.124 184 307 155.719 307 127C298.5 68 339.124 72.5 369.5 72.5C399.5 63 436.5 101.781 436.5 130.5Z" fill="#1A2A14"/>
<path d="M188 388.362C205 410.362 169.5 419.362 146.5 446.362C113.087 446.362 120.5 403 86.0001 388.362C76.5 334 113.087 330.362 146.5 330.362C179.913 330.362 179 360.862 188 388.362Z" fill="#565943"/>
<path d="M155.706 414.45L156.733 415.477" stroke="#AAB73E" stroke-width="3" stroke-linecap="round"/>
<path d="M149.032 431.905H150.059" stroke="#AAB73E" stroke-width="3" stroke-linecap="round"/>
<path d="M168.027 419.584H168.54" stroke="#AAB73E" stroke-width="3" stroke-linecap="round"/>
<path d="M186.508 399.562L187.535 400.076" stroke="#AAB73E" stroke-width="3" stroke-linecap="round"/>
<path d="M176.241 401.616H175.727" stroke="#AAB73E" stroke-width="3" stroke-linecap="round"/>
<path d="M149.546 424.204C149.218 424.573 149.178 424.794 149.032 425.231" stroke="#AAB73E" stroke-width="3" stroke-linecap="round"/>
<path d="M135.171 424.717C134.698 424.777 134.831 424.884 134.658 425.231" stroke="#AAB73E" stroke-width="3" stroke-linecap="round"/>
<path d="M135.685 407.263V408.29" stroke="#AAB73E" stroke-width="3" stroke-linecap="round"/>
<path d="M149.032 394.942L149.546 395.455" stroke="#AAB73E" stroke-width="3" stroke-linecap="round"/>
<path d="M170.594 387.242H171.107" stroke="#AAB73E" stroke-width="3" stroke-linecap="round"/>
<path d="M179.321 373.381H178.808" stroke="#AAB73E" stroke-width="3" stroke-linecap="round"/>
<path d="M163.92 360.547V361.573" stroke="#AAB73E" stroke-width="3" stroke-linecap="round"/>
<path d="M129.524 382.108L129.011 382.621" stroke="#AAB73E" stroke-width="3" stroke-linecap="round"/>
<path d="M120.797 401.102C120.399 400.647 120.554 400.832 120.797 400.589" stroke="#AAB73E" stroke-width="3" stroke-linecap="round"/>
<path d="M159.813 385.702C159.461 387.072 159.063 388.425 158.786 389.808" stroke="#AAB73E" stroke-width="3" stroke-linecap="round"/>
<path d="M152.626 372.867L153.139 372.354" stroke="#AAB73E" stroke-width="3" stroke-linecap="round"/>
<path d="M143.385 384.161L142.872 385.188" stroke="#AAB73E" stroke-width="3" stroke-linecap="round"/>
<path d="M132.091 395.969C132.126 396.841 132.303 397.268 132.605 398.022" stroke="#AAB73E" stroke-width="3" stroke-linecap="round"/>
<path d="M133.118 412.91C132.368 412.827 131.862 412.397 131.065 412.397" stroke="#AAB73E" stroke-width="3" stroke-linecap="round"/>
<path d="M138.765 434.985V436.011" stroke="#AAB73E" stroke-width="3" stroke-linecap="round"/>
<path d="M146.979 410.343V410.856" stroke="#AAB73E" stroke-width="3" stroke-linecap="round"/>
<path d="M126.444 378.001C126.862 378.863 127.174 379.676 127.471 380.568" stroke="#AAB73E" stroke-width="3" stroke-linecap="round"/>
<path d="M106.936 364.14H106.423" stroke="#AAB73E" stroke-width="3" stroke-linecap="round"/>
<path d="M100.776 384.675H101.289" stroke="#AAB73E" stroke-width="3" stroke-linecap="round"/>
<path d="M118.23 381.081V382.108" stroke="#AAB73E" stroke-width="3" stroke-linecap="round"/>
<path d="M116.177 400.589H115.663" stroke="#AAB73E" stroke-width="3" stroke-linecap="round"/>
<path d="M122.851 420.097V421.637" stroke="#AAB73E" stroke-width="3" stroke-linecap="round"/>
<path d="M130.038 366.194L129.524 366.707" stroke="#AAB73E" stroke-width="3" stroke-linecap="round"/>
<path d="M164.947 341.039C165.006 341.512 165.113 341.379 165.46 341.552" stroke="#AAB73E" stroke-width="3" stroke-linecap="round"/>
<path d="M174.187 352.846C173.789 353.301 173.944 353.116 174.187 353.359" stroke="#AAB73E" stroke-width="3" stroke-linecap="round"/>
<path d="M146.466 345.146L145.952 345.659" stroke="#AAB73E" stroke-width="3" stroke-linecap="round"/>
<path d="M131.578 337.958H131.065" stroke="#AAB73E" stroke-width="3" stroke-linecap="round"/>
<path d="M123.877 352.333V353.359" stroke="#AAB73E" stroke-width="3" stroke-linecap="round"/>
<path d="M139.278 345.659H139.792" stroke="#AAB73E" stroke-width="3" stroke-linecap="round"/>
<path d="M113.61 342.579C114.083 342.638 113.95 342.745 114.123 343.092" stroke="#AAB73E" stroke-width="3" stroke-linecap="round"/>
<path d="M99.2358 345.146L98.7224 345.659" stroke="#AAB73E" stroke-width="3" stroke-linecap="round"/>
<path d="M100.776 364.14H100.262" stroke="#AAB73E" stroke-width="3" stroke-linecap="round"/>
<path d="M95.6422 373.381C95.163 373.434 94.998 373.639 94.6155 373.894" stroke="#AAB73E" stroke-width="3" stroke-linecap="round"/>
<path d="M123.364 362.087L121.311 362.6" stroke="#AAB73E" stroke-width="3" stroke-linecap="round"/>
<path d="M156.219 352.333V352.846" stroke="#AAB73E" stroke-width="3" stroke-linecap="round"/>
<path d="M150.573 334.365C150.071 334.897 149.851 335.293 149.546 335.905" stroke="#AAB73E" stroke-width="3" stroke-linecap="round"/>
<path d="M138.252 364.14C138.193 364.613 138.085 364.48 137.738 364.653" stroke="#AAB73E" stroke-width="3" stroke-linecap="round"/>
<path d="M176.241 376.974L175.727 377.488" stroke="#AAB73E" stroke-width="3" stroke-linecap="round"/>
<path d="M167.514 398.022C166.57 398.022 166.268 397.878 165.974 396.996" stroke="#AAB73E" stroke-width="3" stroke-linecap="round"/>
<path d="M158.273 404.183H158.786" stroke="#AAB73E" stroke-width="3" stroke-linecap="round"/>
<path d="M172.647 410.856V411.883" stroke="#AAB73E" stroke-width="3" stroke-linecap="round"/>
<path d="M185.995 387.242C185.469 387.767 185.137 388.041 184.455 388.268" stroke="#AAB73E" stroke-width="3" stroke-linecap="round"/>
<path d="M108.476 391.349L107.963 391.862" stroke="#AAB73E" stroke-width="3" stroke-linecap="round"/>
<path d="M119.77 385.702V386.215" stroke="#AAB73E" stroke-width="3" stroke-linecap="round"/>
<path d="M110.016 373.381C109.543 373.44 109.676 373.547 109.503 373.894" stroke="#AAB73E" stroke-width="3" stroke-linecap="round"/>
<path d="M119.77 367.734C119.411 368.093 119.477 367.776 119.77 367.734" stroke="#AAB73E" stroke-width="3" stroke-linecap="round"/>
<path d="M111.043 350.792L111.557 352.333" stroke="#AAB73E" stroke-width="3" stroke-linecap="round"/>
<path d="M94.1021 361.573C93.6291 361.632 93.7621 361.74 93.5887 362.087" stroke="#AAB73E" stroke-width="3" stroke-linecap="round"/>
<path d="M91.5353 383.135C91.0335 383.206 91.3987 383.375 91.5353 383.648" stroke="#AAB73E" stroke-width="3" stroke-linecap="round"/>
<path d="M102.316 389.295H102.829" stroke="#AAB73E" stroke-width="3" stroke-linecap="round"/>
<path d="M119.77 412.91H120.284" stroke="#AAB73E" stroke-width="3" stroke-linecap="round"/>
<defs>
<filter id="filter0_i_166_669" x="34.5" y="44.5" width="470.5" height="463" filterUnits="userSpaceOnUse" color-interpolation-filters="sRGB">
<feFlood flood-opacity="0" result="BackgroundImageFix"/>
<feBlend mode="normal" in="SourceGraphic" in2="BackgroundImageFix" result="shape"/>
<feColorMatrix in="SourceAlpha" type="matrix" values="0 0 0 0 0 0 0 0 0 0 0 0 0 0 0 0 0 0 127 0" result="hardAlpha"/>
<feOffset dy="4"/>
<feGaussianBlur stdDeviation="2"/>
<feComposite in2="hardAlpha" operator="arithmetic" k2="-1" k3="1"/>
<feColorMatrix type="matrix" values="0 0 0 0 0 0 0 0 0 0 0 0 0 0 0 0 0 0 0.25 0"/>
<feBlend mode="normal" in2="shape" result="effect1_innerShadow_166_669"/>
</filter>
<filter id="filter1_d_166_669" x="74.0889" y="43.6996" width="413.405" height="466.331" filterUnits="userSpaceOnUse" color-interpolation-filters="sRGB">
<feFlood flood-opacity="0" result="BackgroundImageFix"/>
<feColorMatrix in="SourceAlpha" type="matrix" values="0 0 0 0 0 0 0 0 0 0 0 0 0 0 0 0 0 0 127 0" result="hardAlpha"/>
<feOffset dx="-7" dy="6"/>
<feGaussianBlur stdDeviation="2"/>
<feComposite in2="hardAlpha" operator="out"/>
<feColorMatrix type="matrix" values="0 0 0 0 0 0 0 0 0 0 0 0 0 0 0 0 0 0 0.9 0"/>
<feBlend mode="normal" in2="BackgroundImageFix" result="effect1_dropShadow_166_669"/>
<feBlend mode="normal" in="SourceGraphic" in2="effect1_dropShadow_166_669" result="shape"/>
</filter>
<filter id="filter2_d_166_669" x="35" y="210" width="130" height="118" filterUnits="userSpaceOnUse" color-interpolation-filters="sRGB">
<feFlood flood-opacity="0" result="BackgroundImageFix"/>
<feColorMatrix in="SourceAlpha" type="matrix" values="0 0 0 0 0 0 0 0 0 0 0 0 0 0 0 0 0 0 127 0" result="hardAlpha"/>
<feOffset dy="4"/>
<feGaussianBlur stdDeviation="2"/>
<feComposite in2="hardAlpha" operator="out"/>
<feColorMatrix type="matrix" values="0 0 0 0 0 0 0 0 0 0 0 0 0 0 0 0 0 0 0.25 0"/>
<feBlend mode="normal" in2="BackgroundImageFix" result="effect1_dropShadow_166_669"/>
<feBlend mode="normal" in="SourceGraphic" in2="effect1_dropShadow_166_669" result="shape"/>
</filter>
<filter id="filter3_d_166_669" x="380.25" y="186.847" width="125.326" height="123.891" filterUnits="userSpaceOnUse" color-interpolation-filters="sRGB">
<feFlood flood-opacity="0" result="BackgroundImageFix"/>
<feColorMatrix in="SourceAlpha" type="matrix" values="0 0 0 0 0 0 0 0 0 0 0 0 0 0 0 0 0 0 127 0" result="hardAlpha"/>
<feOffset dy="4"/>
<feGaussianBlur stdDeviation="2"/>
<feComposite in2="hardAlpha" operator="out"/>
<feColorMatrix type="matrix" values="0 0 0 0 0 0 0 0 0 0 0 0 0 0 0 0 0 0 0.25 0"/>
<feBlend mode="normal" in2="BackgroundImageFix" result="effect1_dropShadow_166_669"/>
<feBlend mode="normal" in="SourceGraphic" in2="effect1_dropShadow_166_669" result="shape"/>
</filter>
</defs>
</svg>
