<svg width="472" height="509" viewBox="0 0 472 509" fill="none" xmlns="http://www.w3.org/2000/svg">
<ellipse cx="59.5" cy="341.5" rx="59.5" ry="55.5" fill="#C1A392"/>
<ellipse cx="268.5" cy="74.5" rx="59.5" ry="55.5" fill="#C1A392"/>
<ellipse cx="144.5" cy="397.5" rx="118.5" ry="111.5" fill="#C1A392"/>
<ellipse cx="353.5" cy="130.5" rx="118.5" ry="111.5" fill="#C1A392"/>
<ellipse cx="208" cy="314.5" rx="55" ry="47.5" fill="#C1A392"/>
<ellipse cx="417" cy="47.5" rx="55" ry="47.5" fill="#C1A392"/>
<ellipse cx="215.5" cy="292.5" rx="16.5" ry="13.5" transform="rotate(-17.9323 215.5 292.5)" fill="white"/>
<ellipse cx="424.5" cy="25.5" rx="16.5" ry="13.5" transform="rotate(-17.9323 424.5 25.5)" fill="white"/>
<ellipse cx="47.855" cy="331.924" rx="16.5" ry="13.5" transform="rotate(-17.9323 47.855 331.924)" fill="white"/>
<ellipse cx="256.855" cy="64.9244" rx="16.5" ry="13.5" transform="rotate(-17.9323 256.855 64.9244)" fill="white"/>
<path d="M207.975 367.077C202.98 367.532 207.377 371.74 208.947 368.914C210.336 366.414 202.622 366.518 205.383 369.346C209.897 373.97 207.871 367.1 207.489 367.077C205.271 366.947 206.399 372.542 208.947 369.994" stroke="#FED5E8" stroke-width="11" stroke-linecap="round"/>
<path d="M404.194 106.002C399.199 106.456 403.596 110.665 405.166 107.839C406.555 105.339 398.841 105.442 401.602 108.271C406.116 112.895 404.09 106.025 403.708 106.002C401.49 105.872 402.618 111.467 405.166 108.919" stroke="#FED5E8" stroke-width="11" stroke-linecap="round"/>
<path d="M99.5786 398.187C98.5976 400.026 100.157 397.155 102.117 397.809C103.284 398.198 104.511 400.317 105.682 400.104C106.855 399.891 108.669 398.873 109.678 398.187C111.717 396.8 107.855 400.65 106.87 400.995C105.848 401.353 103.553 398.759 102.981 398.187" stroke="#FED5E8" stroke-width="11" stroke-linecap="round"/>
<path d="M100.551 399.159C98.6583 401.304 103.82 402.65 105.412 403.048" stroke="#FED5E8" stroke-width="11" stroke-linecap="round"/>
<path d="M102.981 397.215C104.288 398.376 106.227 398.404 107.842 398.673" stroke="#FED5E8" stroke-width="11" stroke-linecap="round"/>
<path d="M314 119C315.306 120.161 317.246 120.189 318.861 120.458" stroke="#FED5E8" stroke-width="11" stroke-linecap="round"/>
<path d="M187.56 358.328C187.884 358.76 190.176 363.445 190.935 360.029C191.162 359.009 190.476 358.428 190.476 359.786" stroke="black" stroke-width="11" stroke-linecap="round"/>
<path d="M384 99C384.324 99.432 386.617 104.117 387.376 100.701C387.602 99.681 386.916 99.1006 386.916 100.458" stroke="black" stroke-width="11" stroke-linecap="round"/>
<path d="M103.467 379.716C103.407 379.716 105.34 373.593 102.279 379.716C101.206 381.861 101.913 379.424 101.523 379.229" stroke="black" stroke-width="11" stroke-linecap="round"/>
<path d="M329.944 106.721C329.884 106.721 331.818 100.598 328.756 106.721C327.683 108.867 328.39 106.43 328 106.235" stroke="black" stroke-width="11" stroke-linecap="round"/>
<path d="M102.009 373.396C99.491 370.563 94.079 383.118 100.065 383.118C101.08 383.118 103.619 382.761 104.008 381.741C104.989 379.165 105.585 374.855 101.523 374.855" stroke="black" stroke-width="11" stroke-linecap="round"/>
<path d="M188.532 356.384C187.662 356.305 186.678 355.685 185.858 356.141C184.063 357.138 185.832 359.82 187.047 360.488C188.267 361.16 192.547 362.792 190.854 359.948C189.645 357.916 186.141 356.512 186.615 360.299C187.068 363.929 191.206 362.699 191.935 359.786" stroke="black" stroke-width="11" stroke-linecap="round"/>
<path d="M189 390.5C189 402.374 169.5 407 156 398C136.5 417.5 130.5 402.374 130.5 390.5C130.5 378.626 143.984 369 160 369C176.016 369 189 378.626 189 390.5Z" fill="white"/>
<path d="M394.5 151.5C394.5 163.374 375 168 361.5 159C342 178.5 336 163.374 336 151.5C336 139.626 349.484 130 365.5 130C381.516 130 394.5 139.626 394.5 151.5Z" fill="white"/>
<ellipse cx="156" cy="373" rx="8" ry="6" fill="black" fill-opacity="0.9"/>
<ellipse cx="362" cy="132" rx="8" ry="6" fill="black" fill-opacity="0.9"/>
<path d="M164.027 290.385C162.307 292.334 166.341 297.218 166.413 299.753C166.484 302.243 165.818 304.695 165.22 307.088" stroke="#4A2007" stroke-linecap="round"/>
<path d="M166.015 307.884C166.26 308.455 167.49 307.762 168.004 307.972C169.92 308.756 171.758 311.728 172.776 313.452C173.584 314.818 174.814 315.183 176.356 315.44" stroke="#4A2007" stroke-linecap="round"/>
<path d="M170.39 315.44C169.438 317.522 169.033 319.746 168.004 321.804" stroke="#4A2007" stroke-linecap="round"/>
<path d="M193.06 273.681C190.201 275.739 190.446 280.991 191.668 283.977C192.435 285.853 193.851 287.197 195.048 288.794" stroke="#4A2007" stroke-linecap="round"/>
<path d="M196.639 316.236C196.572 316.834 196.097 317.112 195.623 317.429C194.027 318.492 193.42 320.185 193.126 322.047C192.92 323.351 192.662 324.438 192.662 325.781" stroke="#4A2007" stroke-linecap="round"/>
<path d="M194.65 319.02V319.417" stroke="#4A2007" stroke-linecap="round"/>
<path d="M194.65 320.213C196.574 322.992 199.644 324.341 201.014 327.57C201.847 329.534 202.871 329.52 204.593 330.553" stroke="#4A2007" stroke-linecap="round"/>
<path d="M249.932 289.191C247.28 291.977 244.042 297.742 245.16 301.653C245.679 303.47 246.973 304.809 247.723 306.514C249.083 309.605 248.739 312.943 248.739 316.236" stroke="#4A2007" stroke-linecap="round"/>
<path d="M250.728 311.065C250.772 311.819 251.035 312.375 251.611 312.877C253.577 314.59 254.756 317.148 255.478 319.616C256.109 321.771 255.882 323.967 257.091 325.781" stroke="#4A2007" stroke-linecap="round"/>
<path d="M241.183 329.758C236.268 331.545 243.569 340.582 243.569 343.678" stroke="#4A2007" stroke-linecap="round"/>
<path d="M224.876 379.472C224.946 379.962 226.951 379.057 227.064 379.03C230.228 378.27 233.937 377.367 237.205 377.881C239.69 378.272 242.304 378.614 244.674 379.472C246.734 380.217 249.077 379.459 251.258 379.781C252.75 380.001 254.056 380.701 255.5 381.062" stroke="#4A2007" stroke-linecap="round"/>
<path d="M237.603 375.097C235.56 377.14 232.87 378.938 231.439 381.482C230.801 382.615 230.212 383.734 229.251 384.642C228.098 385.731 224.501 385.153 222.888 385.437" stroke="#4A2007" stroke-linecap="round"/>
<path d="M234.024 374.699C231.65 376.598 228.764 371.675 227.66 370.368C226.312 368.771 223.868 368.811 222.49 366.745" stroke="#4A2007" stroke-linecap="round"/>
<path d="M212.945 429.583C209.689 434.875 215.022 439.709 218.601 442.884C222.322 446.184 223.036 449.808 224.788 454.153C225.463 455.828 226.693 459.104 226.379 460.87C226.098 462.45 225.072 468.855 226.865 469.752" stroke="#4A2007" stroke-linecap="round"/>
<path d="M226.467 458.616C226.513 458.982 226.596 458.879 226.865 459.014" stroke="#4A2007" stroke-linecap="round"/>
<path d="M226.865 459.014C230.546 456.038 233.899 452.775 237.205 449.469" stroke="#4A2007" stroke-linecap="round"/>
<path d="M222.49 455.832C221.727 453.287 218.955 455.242 217.475 455.014C215.832 454.762 214.516 453.475 212.879 453.158C212.218 453.031 211.626 453.446 210.957 453.446" stroke="#4A2007" stroke-linecap="round"/>
<path d="M221.695 440.719C220.958 442.101 223.438 437.791 224.081 437.184C226.654 434.753 227.642 433.805 228.854 430.776" stroke="#4A2007" stroke-linecap="round"/>
<path d="M177.151 417.254C177.232 417.819 178.511 416.641 178.72 416.459C180.954 414.504 185.437 419.103 188.265 418.359C190.178 417.855 192.471 416.684 194.165 415.663C196.147 414.468 197.779 411.677 200.219 412.084" stroke="#4A2007" stroke-linecap="round"/>
<path d="M191.867 414.47C191.294 415.114 191.184 414.971 190.762 414.072C190.077 412.614 190.983 411.373 191.955 410.272C193.483 408.54 195.095 407.966 195.844 405.72" stroke="#4A2007" stroke-linecap="round"/>
<path d="M110.336 433.56C108.388 434.534 107.126 435.437 105.873 437.383C103.426 441.183 105.751 441.428 108.524 443.348C112.33 445.983 114.432 451.617 112.324 455.832" stroke="#4A2007" stroke-linecap="round"/>
<path d="M112.325 449.468C111.692 450.524 111.704 449.377 113.253 449.071C114.761 448.772 119.728 449.131 120.279 447.48" stroke="#4A2007" stroke-linecap="round"/>
<path d="M111.927 445.094C110.628 444.931 115.512 442.43 115.904 442.31" stroke="#4A2007" stroke-linecap="round"/>
<path d="M118.688 440.719L120.279 439.128" stroke="#4A2007" stroke-linecap="round"/>
<path d="M105.166 430.378C103.1 429.919 100.452 425.524 98.8244 424.059C96.8461 422.279 94.3984 422.577 92.0413 423.22" stroke="#4A2007" stroke-linecap="round"/>
<path d="M123.858 353.223C123.989 350.74 127.091 347.883 129.514 347.721C131.833 347.566 133.032 351.696 135.613 349.953C139.525 347.309 142.974 346.909 147.323 345.666" stroke="#4A2007" stroke-linecap="round"/>
<path d="M141.357 348.848C140.242 348.709 145.735 343.011 146.174 342.639C147.757 341.296 148.758 340.411 149.709 338.507" stroke="#4A2007" stroke-linecap="round"/>
<path d="M104.37 304.304C102.308 304.304 101.94 305.684 102.072 307.641C102.225 309.886 103.457 310.149 105.166 311.066C109.106 313.18 110.584 316.882 113.518 319.815" stroke="#4A2007" stroke-linecap="round"/>
<path d="M113.12 314.645C112.341 315.619 113.792 315.018 114.269 314.866C115.641 314.429 117.453 314.864 118.865 314.844C122.163 314.797 122.308 314.533 124.654 312.656" stroke="#4A2007" stroke-linecap="round"/>
<path d="M35.9644 293.169C35.9644 292.602 36.2939 294.101 36.3621 294.273C37.2012 296.396 38.647 298.752 40.2729 300.327C42.7428 302.72 47.0687 302.747 49.8621 304.702C51.8453 306.09 54.0291 306.685 55.8498 308.193C57.1921 309.305 58.3605 313.986 60.2246 313.054" stroke="#4A2007" stroke-linecap="round"/>
<path d="M75.3375 326.178C77.7196 326.476 79.1963 334.536 79.3146 336.121C79.5026 338.64 78.148 340.718 76.619 342.706C74.9033 344.936 72.8119 346.963 71.0511 349.246C69.8556 350.795 67.7227 352.439 66.1902 353.709C65.0321 354.668 64.2013 356.054 63.2074 357.178C62.3695 358.125 61.026 358.556 60.3129 359.586C59.194 361.202 59.3353 363.745 58.7884 365.596C57.7899 368.975 56.2693 372.488 54.038 375.229C52.8423 376.698 51.6537 378.157 51.3203 380.09C51.0815 381.475 51.9607 382.983 51.3424 384.288C50.3279 386.43 48.094 387.551 46.9234 389.613C45.99 391.258 45.4406 392.25 43.9185 393.391" stroke="#4A2007" stroke-linecap="round"/>
<path d="M58.6338 369.529C61.1695 371.125 63.8408 371.737 64.1796 375.296C64.332 376.896 63.6241 378.569 64.5994 379.869" stroke="#4A2007" stroke-linecap="round"/>
<path d="M72.5535 347.257C70.4646 347.257 70.1672 344.064 70.1672 342.462C70.1672 340.146 71.1971 338.648 68.9741 337.314" stroke="#4A2007" stroke-linecap="round"/>
<path d="M109.541 314.645L109.143 315.043" stroke="#4A2007" stroke-linecap="round"/>
<path d="M109.143 315.838C106.193 319.416 102.931 323.708 104.37 328.565C105.486 332.331 106.081 336.399 103.177 339.303" stroke="#4A2007" stroke-linecap="round"/>
<path d="M6.9314 329.758C7.08677 330.554 7.21472 331.343 7.32912 332.144" stroke="#4A2007" stroke-linecap="round"/>
<path d="M6.93138 333.735C6.86715 336.561 6.12772 340.082 9.11879 341.512C12.4504 343.106 14.8515 346.041 16.4764 349.246C18.0056 352.261 21.212 356.839 18.465 359.586" stroke="#4A2007" stroke-linecap="round"/>
<path d="M13.6926 343.678C14.7944 342.261 14.9112 340.68 17.4046 340.165C18.3705 339.965 19.389 340.171 20.3653 340.098C21.3095 340.028 22.5142 338.315 23.2377 337.712" stroke="#4A2007" stroke-linecap="round"/>
<path d="M16.4765 327.769C15.7805 329.77 15.788 326.917 15.8578 326.178C16.1143 323.467 19.0497 321.799 19.8349 319.219C20.549 316.872 19.3233 315.057 18.465 313.054" stroke="#4A2007" stroke-linecap="round"/>
<path d="M28.4079 372.711C26.8116 374.964 26.6021 378.973 29.4684 380.665C30.6413 381.357 32.6281 381.732 33.4013 382.963C34.2768 384.355 34.1628 386.641 34.3735 388.221" stroke="#4A2007" stroke-linecap="round"/>
<path d="M34.7711 401.346C32.8149 407.432 34.507 413.379 35.1909 419.419C35.6575 423.541 38.4725 426.965 39.4552 431.041C40.6029 435.802 42.2029 441.859 45.1336 445.889C48.1105 449.982 48.9445 454.051 53.0657 457.423" stroke="#4A2007" stroke-linecap="round"/>
<path d="M45.5093 443.503C45.7116 445.526 50.1984 447.022 51.5633 447.833C53.2129 448.814 54.2936 450.126 55.8497 451.059" stroke="#4A2007" stroke-linecap="round"/>
<path d="M37.9529 426.004C36.4522 427.338 37.7996 424.95 38.2622 424.413C40.3328 422.006 43.5318 421.088 46.0838 419.464C47.4736 418.579 45.7065 416.774 45.5756 415.531C45.4535 414.37 47.4448 412.813 47.8956 411.686" stroke="#4A2007" stroke-linecap="round"/>
<path d="M52.2703 431.174C57.2038 428.852 57.2183 432.725 59.1197 436.035C59.5198 436.731 60.3209 439.305 61.0199 439.526C62.1438 439.881 62.8017 441.276 63.0084 442.31" stroke="#4A2007" stroke-linecap="round"/>
<path d="M82.8941 443.105C82.1108 443.595 82.158 446.696 82.0987 447.392C81.8475 450.339 81.1702 453.511 83.1593 455.898C84.6207 457.652 86.3904 459.236 86.9375 461.554C87.9706 465.933 86.5995 470.518 84.8827 474.524" stroke="#4A2007" stroke-linecap="round"/>
<path d="M37.1575 432.367C37.9805 432.264 39.642 429.652 38.5494 432.323C37.933 433.83 37.1575 435.499 37.1575 437.14" stroke="#4A2007" stroke-linecap="round"/>
<path d="M87.6665 466.172C88.062 470.127 93.3853 471.592 95.4439 474.524C96.593 476.161 96.4032 478.404 97.6092 480.092" stroke="#4A2007" stroke-linecap="round"/>
<path d="M123.858 476.91C118.085 476.189 124.912 485.623 126.244 488.444C127.478 491.056 127.312 494.491 125.272 496.531C123.827 497.976 124.201 499.319 123.46 501.171" stroke="#4A2007" stroke-linecap="round"/>
<path d="M127.438 496.796C126.632 497.226 127.015 497.122 127.681 497.238C129.487 497.552 130.945 499.398 132.188 500.574C133.529 501.844 134.44 503.372 136.187 503.955" stroke="#4A2007" stroke-linecap="round"/>
<path d="M127.04 489.637C127.201 486.414 129.136 484.405 131.326 482.169C132.732 480.734 135.185 480.569 136.165 478.855C136.716 477.89 138.908 470.982 138.352 469.951C137.564 468.486 136.231 466.931 136.231 465.178C136.231 462.103 139.298 457.619 141.269 455.523C144.28 452.319 146.318 452.001 145.334 447.082" stroke="#4A2007" stroke-linecap="round"/>
<path d="M144.937 454.241C144.512 458.489 148.377 460.035 150.659 463.013C152.764 465.757 152.921 469.598 154.88 472.536" stroke="#4A2007" stroke-linecap="round"/>
<path d="M163.629 431.969C159.452 428.21 158.405 442.99 159.961 445.447C162.155 448.91 167.013 449.849 169.109 453.667C171.71 458.405 178.345 462.561 178.345 468.559" stroke="#4A2007" stroke-linecap="round"/>
<path d="M171.186 451.855C172.524 452.482 172.297 452.306 173.351 451.855C175.37 450.989 177.946 451.152 180.068 451.435C181.313 451.601 182.306 451.86 183.515 451.457" stroke="#4A2007" stroke-linecap="round"/>
<path d="M183.912 435.946C184.476 435.895 185.491 435.049 185.901 435.151C188.174 435.719 190.303 438.909 191.27 440.918C192.627 443.735 193.162 447.351 195.048 449.866" stroke="#4A2007" stroke-linecap="round"/>
<path d="M177.549 496.398L177.151 496.796" stroke="#4A2007" stroke-linecap="round"/>
<path d="M177.549 496.398C182.183 493.371 187.611 492.514 192.662 490.83" stroke="#4A2007" stroke-linecap="round"/>
<path d="M197.037 474.127C197.037 476.146 198.821 480.224 201.014 480.468C203.907 480.789 205.294 482.687 206.582 485.262" stroke="#4A2007" stroke-linecap="round"/>
<path d="M159.254 480.092C155.485 480.291 153.422 485.948 154.703 489.24C155.913 492.351 153.189 495.652 152.493 498.785" stroke="#4A2007" stroke-linecap="round"/>
<path d="M131.812 414.072C127.953 414.93 138.002 428.52 133.403 431.969" stroke="#4A2007" stroke-linecap="round"/>
<path d="M161.641 411.686C165.251 413.692 168.141 414.072 172.379 414.072" stroke="#4A2007" stroke-linecap="round"/>
<path d="M237.205 412.084C233.484 412.084 245.404 410.595 248.341 412.879C250.638 414.665 254.717 415.561 257.489 414.868" stroke="#4A2007" stroke-linecap="round"/>
<path d="M251.921 412.084L251.523 412.482" stroke="#4A2007" stroke-linecap="round"/>
<path d="M253.114 408.504L253.511 408.107" stroke="#4A2007" stroke-linecap="round"/>
<path d="M254.705 407.709C256.975 406.712 257.165 405.641 257.886 403.334" stroke="#4A2007" stroke-linecap="round"/>
<path d="M110.734 356.007C110.989 358.301 112.446 360.974 113.12 363.165" stroke="#4A2007" stroke-linecap="round"/>
<path d="M410.316 96.427C416.874 95.6983 423.514 96.4025 430.285 96.9667" stroke="#4A2007" stroke-linecap="round"/>
<path d="M418.411 96.427C418.411 90.2218 430.092 92.5979 434.063 89.9504" stroke="#4A2007" stroke-linecap="round"/>
<path d="M400.601 146.62C400.309 146.649 396.551 147.556 396.793 146.83C397.421 144.947 404.558 144.393 406.178 145.001C410.137 146.486 413.416 149.319 417.872 149.319" stroke="#4A2007" stroke-linecap="round"/>
<path d="M410.316 147.16C413.552 154.036 416.367 161.363 420.57 167.669" stroke="#4A2007" stroke-linecap="round"/>
<path d="M428.126 152.557C430.748 154.887 436.896 151.784 440.18 152.557C441.188 152.794 442.073 154.327 443.118 154.056C444.825 153.614 446.667 151.856 448.095 150.938" stroke="#4A2007" stroke-linecap="round"/>
<path d="M422.729 132.588C426.606 128.711 430.944 131.673 435.442 130.549C437.981 129.914 440.797 127.76 443.238 126.651" stroke="#4A2007" stroke-linecap="round"/>
<path d="M428.666 126.651C431.494 123.656 434.21 121.869 437.841 119.635" stroke="#4A2007" stroke-linecap="round"/>
<path d="M246.244 149.858C246.636 146.723 257.578 150.009 258.897 150.278C264.652 151.452 268.993 151.718 274.849 150.938" stroke="#4A2007" stroke-linecap="round"/>
<path d="M262.975 152.017C260.489 151.396 265.066 147.802 265.674 147.579C269.709 146.099 273.952 146.668 278.087 145.541" stroke="#4A2007" stroke-linecap="round"/>
<path d="M264.594 156.874C265.344 163.623 270.301 169.058 274.849 173.605" stroke="#4A2007" stroke-linecap="round"/>
<path d="M285.643 160.113C285.643 160.772 288.062 159.732 288.401 159.633C291.082 158.85 295.994 156.693 298.476 159.033C301.105 161.513 302.942 158.544 305.612 156.874" stroke="#4A2007" stroke-linecap="round"/>
<path d="M297.516 151.477C298.476 146.68 305.48 147.516 307.771 144.461" stroke="#4A2007" stroke-linecap="round"/>
<path d="M240.847 99.6652C240.847 103.535 242.677 104.409 246.004 106.981C251.187 110.988 255.277 116.027 259.197 121.254" stroke="#4A2007" stroke-linecap="round"/>
<path d="M252.181 115.317C255.211 112.59 258.478 114.244 262.076 115.617C265.038 116.747 265.157 119.359 268.372 118.555" stroke="#4A2007" stroke-linecap="round"/>
<path d="M272.15 100.745C273.066 96.6235 280.222 98.2673 282.405 99.965C284.896 101.903 286.779 102.807 289.961 103.443" stroke="#4A2007" stroke-linecap="round"/>
<path d="M287.262 98.0461C289.563 96.1632 293.62 96.799 296.317 96.4269C298.58 96.1148 300.625 95.8872 302.914 95.8872" stroke="#4A2007" stroke-linecap="round"/>
<path d="M331.518 53.7899C335.666 53.5459 339.614 52.3753 339.614 58.0776C339.614 65.2837 339.614 72.4898 339.614 79.6959" stroke="#4A2007" stroke-linecap="round"/>
<path d="M340.693 76.4577C347.305 76.4577 350.063 83.2859 356.345 79.696" stroke="#4A2007" stroke-linecap="round"/>
<path d="M355.266 27.3441C346.419 32.399 355.238 44.3455 359.583 48.9325C362.075 51.5627 364.395 56.3981 366.06 59.7267" stroke="#4A2007" stroke-linecap="round"/>
<path d="M366.599 54.3296C370.87 55.8671 375.987 54.3296 380.632 54.3296" stroke="#4A2007" stroke-linecap="round"/>
<path d="M374.155 59.187C371.341 58.8352 379.536 74.8386 374.695 74.8386" stroke="#4A2007" stroke-linecap="round"/>
<path d="M319.105 198.972C315.45 199.581 312.845 196.711 317.905 198.972C320.06 199.935 321.998 202.087 322.883 204.249C324.43 208.032 324.217 211.1 327.2 214.084" stroke="#4A2007" stroke-linecap="round"/>
<path d="M325.581 205.988C326.055 202.198 334.652 209.633 335.416 210.426C338.086 213.195 341.367 209.136 343.931 210.845" stroke="#4A2007" stroke-linecap="round"/>
<path d="M336.375 202.75C338.659 200.332 342.03 194.288 346.06 197.143C348.462 198.844 349.525 200.522 352.567 201.131" stroke="#4A2007" stroke-linecap="round"/>
<path d="M386.029 201.67C386.029 203.482 384.953 203.748 384.41 205.298C382.796 209.909 383.606 213.412 387.648 215.433C393.726 218.472 390.841 227.284 395.744 229.735" stroke="#4A2007" stroke-linecap="round"/>
<path d="M390.886 214.623C389.514 217.54 390.816 216.862 393.345 216.752C397.931 216.553 402.629 217.132 407.078 216.243" stroke="#4A2007" stroke-linecap="round"/>
<path d="M402.76 204.909C400.916 205.114 402.909 206.061 403.629 206.258C407.189 207.229 411.19 207.324 414.514 208.986C417.07 210.265 418.791 211.86 420.57 214.084" stroke="#4A2007" stroke-linecap="round"/>
<path d="M428.666 193.575C430.518 196.122 429.857 200.117 431.904 202.75C433.669 205.019 435.107 207.45 436.762 209.766" stroke="#4A2007" stroke-linecap="round"/>
<path d="M381.711 166.049C382.316 167.431 381.185 168.805 381.471 170.487C382.113 174.257 383.842 177.601 385.729 180.862C387.003 183.062 387.108 186.209 387.108 188.717" stroke="#4A2007" stroke-linecap="round"/>
<path d="M371.457 190.336C371.349 189.474 370.087 189.719 369.598 190.157C366.142 193.249 365.438 197.518 366.299 201.7C366.716 203.723 367.597 206.784 366.509 208.687C365.548 210.369 363.831 211.322 362.821 213.004" stroke="#4A2007" stroke-linecap="round"/>
<path d="M442.698 173.066C448.899 173.841 446.551 188.792 450.794 193.035" stroke="#4A2007" stroke-linecap="round"/>
<path d="M291.58 35.4398C292.316 36.6675 292.553 37.2149 291.7 38.2582C290.087 40.2298 292.716 45.6311 294.158 47.0735C297.726 50.6409 298.166 53.4614 296.437 58.6473" stroke="#4A2007" stroke-linecap="round"/>
<path d="M296.437 45.1545C295.652 45.1545 297.555 45.149 297.786 45.1845C300.175 45.5521 301.41 49.0329 302.434 50.7915C304.018 53.5106 306.102 52.8568 308.311 54.3296" stroke="#4A2007" stroke-linecap="round"/>
<path d="M288.881 48.3928C287.659 50.9907 287.633 54.9312 287.292 57.7178C286.705 62.5078 288.332 64.8686 289.96 69.1716C292.207 75.1078 287.054 79.4464 285.643 85.0931" stroke="#4A2007" stroke-linecap="round"/>
<path d="M292.659 68.3621C295.359 71.9958 295.73 75.4517 296.437 79.696" stroke="#4A2007" stroke-linecap="round"/>
<path d="M228.973 46.7737C227.452 50.0064 228.434 52.0499 229.153 55.7089C229.868 59.34 228.655 62.8879 227.474 66.3232C226.343 69.6145 225.514 73.0249 224.656 76.4577" stroke="#4A2007" stroke-linecap="round"/>
<path d="M230.053 67.2827C230.053 70.3426 233.733 73.3818 234.55 76.5777C235.335 79.6457 234.37 82.5455 234.37 85.6328" stroke="#4A2007" stroke-linecap="round"/>
<path d="M229.513 91.5696C224.484 91.5696 226.973 100.561 227.654 103.533C228.526 107.336 232.92 111.834 234.91 115.317" stroke="#4A2007" stroke-linecap="round"/>
<path d="M261.896 26.8044C261.896 27.8095 262.049 28.8722 261.626 29.8028C260.439 32.4146 265.38 38.2313 266.513 40.597C267.448 42.5478 264.7 45.5886 263.515 46.7737" stroke="#4A2007" stroke-linecap="round"/>
<path d="M266.753 34.9C269.011 37.2992 271.113 39.9161 273.229 42.456" stroke="#4A2007" stroke-linecap="round"/>
<path d="M391.966 20.3279C391.966 21.9258 390.889 23.5812 391.006 25.5451C391.142 27.8204 390.86 31.5041 392.236 33.4908C392.948 34.5204 393.539 34.9616 393.825 36.3093C394.87 41.2385 393.045 45.7774 393.045 50.5516" stroke="#4A2007" stroke-linecap="round"/>
<path d="M395.744 44.0752C403.094 41.7229 399.553 53.4406 403.839 54.8694" stroke="#4A2007" stroke-linecap="round"/>
<path d="M432.444 58.6473C427.961 63.3942 432.867 69.3133 432.414 74.7486C432.208 77.2157 430.825 79.3985 430.825 81.8548" stroke="#4A2007" stroke-linecap="round"/>
<path d="M432.984 74.8386C435.996 76.3903 439.697 84.3162 443.238 80.7754" stroke="#4A2007" stroke-linecap="round"/>
<path d="M457.81 26.2647C455.873 22.8208 454.751 29.5053 454.692 30.5824C454.375 36.3483 455.106 40.1522 456.311 45.4544C457.139 49.0998 458.337 52.1931 455.292 54.6894C453.355 56.2771 449.565 60.3123 451.334 62.965" stroke="#4A2007" stroke-linecap="round"/>
<path d="M457.271 47.8531C450.957 47.8531 447.133 46.6817 444.318 53.2502" stroke="#4A2007" stroke-linecap="round"/>
<path d="M325.042 159.573C320.098 160.191 323.002 172.718 323.543 176.124C323.91 178.441 324.527 180.195 323.722 182.481C323.119 184.195 321.803 185.772 321.803 187.638" stroke="#4A2007" stroke-linecap="round"/>
<path d="M327.2 177.923C327.507 180.681 330.204 184.149 331.518 186.559" stroke="#4A2007" stroke-linecap="round"/>
<path d="M281.325 192.495C280.157 192.43 276.515 190.11 277.697 193.065C279.374 197.257 283.267 198.565 282.405 203.739C281.668 208.155 282.6 212.37 281.865 216.782" stroke="#4A2007" stroke-linecap="round"/>
<path d="M284.563 207.067C288.094 207.42 291.688 213.014 293.739 215.163" stroke="#4A2007" stroke-linecap="round"/>
<path d="M355.623 108.041C353.65 110.146 355.863 111.489 358.161 112.505C363.58 114.899 369.45 115.214 372.165 120.644" stroke="#4A2007" stroke-linecap="round"/>
</svg>
