<svg width="519" height="331" viewBox="0 0 519 331" fill="none" xmlns="http://www.w3.org/2000/svg">
<path d="M274 155.5C252.5 221 205 304 132 293.5C64.5 287 0 260.446 0 195C0 129.554 59.0984 61.5 132 61.5C204.902 61.5 274 90.0543 274 155.5Z" fill="#F3DCC6"/>
<path d="M239.5 78.9998C225.159 93.1649 207.544 104.208 197.033 93.5655C186.521 82.9233 173.658 76.665 188 62.4999C202.342 48.3349 221.5 23.0927 248.968 42.2692C271.5 57.9998 253.842 64.8348 239.5 78.9998Z" fill="#F2F4DC"/>
<path d="M171.287 56.5C160.95 73.8051 144.5 79.1019 133.852 79.1019C121.011 71.431 109.163 61.3051 119.5 44C129.838 26.6949 139.893 4.74751 171.288 16.4346C197.041 26.0216 181.625 39.1949 171.287 56.5Z" fill="#F2F4DC"/>
<path d="M239.527 47.4103C250.5 54.5 243.88 69.1437 232 77.4347C220.12 85.7257 201.679 84.8471 196.506 77.4347C191.332 70.0223 196.77 57.2922 208.65 49.0012C220.53 40.7102 234.354 39.9979 239.527 47.4103Z" fill="#F98E8D"/>
<path d="M134.37 58.2554C123.822 54.7362 126.864 40.927 135.48 31.2923C144.097 21.6576 159.886 18.2787 165.574 23.3649C171.261 28.4511 168.886 40.3848 160.269 50.0196C151.653 59.6543 140.057 63.3416 134.37 58.2554Z" fill="#F98E8D"/>
<ellipse cx="69.5" cy="131" rx="12.5" ry="11" fill="#F98E8D"/>
<ellipse cx="183.5" cy="174" rx="12.5" ry="11" fill="#F98E8D"/>
<path d="M106 142C107 148.5 112.6 158 127 144C125.833 150.333 126.8 160.9 140 152.5" stroke="black" stroke-width="3"/>
<ellipse cx="100.5" cy="113" rx="7.5" ry="7" fill="black"/>
<ellipse cx="175.5" cy="138" rx="7.5" ry="7" fill="black"/>
<line x1="182.293" y1="137.293" x2="186.293" y2="133.293" stroke="black" stroke-width="2"/>
<line x1="182.394" y1="139.081" x2="189.394" y2="142.081" stroke="black" stroke-width="2"/>
<line x1="94.4322" y1="112.823" x2="87.997" y2="108.385" stroke="black" stroke-width="2"/>
<line x1="97.0194" y1="107.804" x2="98.0194" y2="102.804" stroke="black" stroke-width="2"/>
<path d="M180 80C180 86.6274 171.5 102.5 158.5 94.5C146.626 94.5 137 86.6274 137 80C137 73.3726 146.626 65.5 158.5 65.5C170.374 65.5 180 73.3726 180 80Z" fill="#F98E8D"/>
<path d="M231 100.5C231 108.508 219.583 115 205.5 115C191.417 115 177 108.508 177 100.5C177 92.4919 192.417 88.5001 206.5 88.5001C220.583 88.5001 228 86 231 100.5Z" fill="#F98E8D"/>
<ellipse cx="182.465" cy="89.839" rx="12.5" ry="8.5" transform="rotate(-17.3386 182.465 89.839)" fill="#E0D0B9"/>
<path d="M445.5 253.5C425.5 295 425 310 364.5 326C289.5 330 216 344 204 281.5C204 208.046 265.785 134 342 134C418.215 134 445.5 180.046 445.5 253.5Z" fill="#EC766E"/>
<path d="M288 218.5C288 224.299 283.299 229 277.5 229C271.701 229 262 221.299 262 215.5C262 209.701 271.701 208 277.5 208C283.299 208 288 212.701 288 218.5Z" fill="#D8BB9C"/>
<path d="M324 278C324 282.971 316.522 289.571 311.615 289.571C306.709 289.571 298.5 282.971 298.5 278C298.5 273.029 310.209 269 315.115 269C320.022 269 324 273.029 324 278Z" fill="#D8BB9C"/>
<path d="M383.5 272C383.5 276.971 376.022 283.571 371.115 283.571C366.209 283.571 358 276.971 358 272C358 267.029 369.709 263 374.615 263C379.522 263 383.5 267.029 383.5 272Z" fill="#D8BB9C"/>
<path d="M325 172.875C325 177.224 317.962 183 313.344 183C308.726 183 301 177.224 301 172.875C301 168.526 312.02 165 316.638 165C321.256 165 325 168.526 325 172.875Z" fill="#D8BB9C"/>
<path d="M345.362 215.154C348.324 219.104 347.809 224.493 344.211 227.19C340.614 229.887 330.663 229.151 327.701 225.201C324.74 221.25 329.889 215.58 333.486 212.883C337.084 210.186 342.401 211.203 345.362 215.154Z" fill="#D8BB9C"/>
<path d="M267.926 266.732C271.127 271.003 270.698 276.731 266.969 279.527C263.239 282.323 252.749 281.329 249.548 277.058C246.346 272.788 251.646 266.858 255.376 264.062C259.106 261.266 264.724 262.462 267.926 266.732Z" fill="#D8BB9C"/>
<path d="M362.5 124C367 138 381.1 167.2 401.5 172C389.1 190.8 377.667 202.167 373.5 205.5C395.333 208.167 438.7 216.2 437.5 227C436.3 237.8 421.333 265.833 414 278.5C416 284.333 428.6 296.5 463 298.5C471.5 295.5 489.6 285.6 494 270C494.333 248.5 493.8 205.5 489 205.5C483 205.5 498 215.5 463 155.5C436.333 137.5 378.9 106 362.5 124Z" stroke="#387A18" stroke-width="3"/>
<ellipse cx="493" cy="182.5" rx="26" ry="22.5" fill="#387A18"/>
<path d="M419.987 173.029C420.305 177.48 425.212 187.724 430.904 186.493C435.623 185.473 438.635 175.68 435.635 172.041C431.432 166.942 422.391 172.066 419.727 176.148C417.329 179.825 416.705 184.214 417.7 188.469C418.702 192.753 422.23 200.555 427.603 200.556C434.62 200.556 438.064 186.557 436.415 181.347C434.142 174.163 424.171 173.433 420.871 180.255C418.933 184.261 418.673 189.276 419.935 193.511C420.389 195.034 422.079 199.9 424.666 198.606C430.803 195.537 429.8 185.543 424.692 182.412C418.465 178.596 409.776 184.127 408.94 191.094C408.365 195.893 412.943 193.673 414.399 191.38C416.925 187.401 418.931 182.321 414.087 179.059C409.608 176.043 401.744 177.96 399.349 182.75C397.852 185.745 397.219 197.249 403.612 194.447C406.753 193.071 408.965 188.553 409.148 185.246C409.446 179.883 402.758 186.809 401.169 188.001C400.147 188.767 400.436 190.033 399.765 190.704C398.903 191.566 397.545 191.509 396.49 191.848C394.061 192.629 392.62 193.866 390.485 195.253C389.367 195.98 382.863 199.201 386.872 197.358C389.47 196.165 390.853 194.83 392.851 192.888C394.199 191.577 394.5 192.713 392.825 193.615C392.123 193.993 382.552 200.924 382.662 200.997C383.563 201.599 386.982 200.41 388.068 200.27C389.974 200.024 392.064 200.218 393.969 200.218C395.405 200.218 396.59 200.166 397.997 200.166" stroke="#387A18" stroke-width="10" stroke-linecap="round"/>
<path d="M400.805 196.89C400.684 198.402 398.442 199.219 399.921 199.75C404.49 201.39 409.159 201.32 413.905 201.673C416.61 201.874 424.649 202.973 421.937 202.973C417.812 202.973 413.919 202.999 409.928 201.777C409.287 201.581 403.317 199.004 404.755 200.062C407.635 202.179 413.739 201.983 417.128 202.141C423.422 202.436 429.54 201.282 435.817 201.543C440.996 201.759 438.316 199.905 435.609 197.02C434.743 196.097 425.894 185.917 429.553 186.805C434.496 188.006 440.643 191.794 444.759 194.629C447.657 196.626 450.115 199.004 452.634 201.439C453.232 202.017 456.061 205.48 456.377 202.921C456.817 199.361 455.989 195.433 455.26 191.978C455.047 190.968 452.17 182.447 453.05 181.763C453.781 181.194 453.663 183.514 453.882 184.414C454.298 186.126 455.317 190.809 455.65 192.316C457.586 201.09 459.221 210.012 461.914 218.595C462.732 221.202 465.278 231.574 469.27 231.877C471.995 232.084 470.546 224.929 470.336 223.975C469.961 222.274 464.18 202.895 460.328 208.275C457.618 212.061 458.08 218.46 458.249 222.753C458.539 230.136 459.885 237.452 461.42 244.666C463.649 255.138 463.597 243.431 462.98 239.623C462.258 235.173 461.104 230.934 459.263 226.808C458.484 225.064 455.144 218.001 453.622 223.559C451.903 229.841 453.563 237.639 454.142 243.938C454.706 250.074 454.091 258.741 456.533 264.576C457.82 267.65 459.729 259.775 459.757 259.637C461.08 253.096 461.386 246.268 460.848 239.623C460.548 235.908 458.391 223.355 456.377 233.696C455.042 240.556 454.422 247.525 453.674 254.465C453.408 256.937 453.679 263.494 451.699 265.616C450.966 266.4 447.418 258.49 446.89 257.818C442.605 252.365 440.09 265.796 439.664 268.163C439.284 270.276 439.075 272.485 438.494 274.557C438.15 275.787 438.848 272.103 438.91 271.906C440.581 266.662 444.196 262.228 445.149 256.726C445.155 256.686 439.456 263.222 438.26 264.706C437.742 265.35 430.859 272.46 431.502 273.362C432.054 274.134 434.369 271.301 433.452 270.918C431.339 270.038 428.828 273.345 427.473 274.453C426.306 275.408 424.636 276.897 423.029 276.897C420.928 276.897 422.945 276.048 423.756 275.155C428.354 270.098 430.341 263.992 434.024 258.468C435.993 255.514 440.291 245.848 439.43 249.292C438.768 251.941 437.501 254.589 436.155 256.96C434.126 260.536 435.404 258.45 436.389 256.05C439.787 247.768 442.771 239.276 446.292 231.149C447.354 228.698 445.72 239.969 445.72 238.011C445.72 232.427 445.731 224.438 443.277 219.348C441.726 216.132 440.232 213.252 439.664 209.653C439.465 208.391 438.959 206.557 438 205.598C435.293 202.891 442.444 211.839 444.473 215.086C445.2 216.25 449.852 221.617 446.604 217.997C443.664 214.719 439.888 211.768 436.207 209.367C435.38 208.828 433.245 209.005 432.724 208.483C432.717 208.476 435.686 209.471 435.609 209.471C434.28 209.471 432.178 209.082 431.216 208.119C429.307 206.211 425.618 206.028 423.158 205.208C421.971 204.812 421.32 203.486 423.107 203.701C425.389 203.975 429.33 204.468 430.437 201.751C431.959 198.014 427.462 192.659 425.394 190.028C421.8 185.457 418.235 182.284 413.905 178.54C412.757 177.546 411.736 176.13 410.37 175.42C409.336 174.883 409.114 175.768 410.006 176.278C413.297 178.158 414.321 172.651 414.321 170.534C414.321 164.485 411.775 159.339 407.823 154.886C403.391 149.892 405.843 154.856 407.823 157.745C408.492 158.722 415.032 166.202 416.4 162.684C417.643 159.489 407.718 151.21 405.795 149.583C404.042 148.1 401.943 146.642 399.531 146.776C396.846 146.925 397.34 148.751 398.777 150.207C401.738 153.206 407.705 156.814 412.137 155.874C413.656 155.552 413.756 154.618 412.553 153.638C408.283 150.161 402.173 145.767 396.854 144.125C391.914 142.6 400.494 152.926 401.013 153.482C403 155.615 409.699 161.105 408.005 158.733C405.451 155.158 401.004 152.426 397.815 149.453C395.49 147.286 388.954 142.014 393.683 148.804C396.383 152.681 407.438 168.161 413.333 163.464C417.513 160.133 413.097 154.716 410.552 152.001C408.266 149.563 405.634 147.457 402.858 145.606C401.986 145.025 401.081 144.465 400.155 143.969C400.028 143.901 400.271 144.249 400.389 144.333C403.531 146.563 410.72 153.125 414.841 152.001C419.092 150.841 403.666 139.452 402.858 138.848C399.95 136.675 397.084 134.38 394.072 132.35C392.085 131.011 392.684 132.431 393.579 133.624C397.504 138.858 402.401 143.824 407.719 147.66C407.939 147.819 408.654 148.198 408.446 148.024C405.754 145.77 403.201 143.365 400.441 141.188C396.269 137.896 391.861 134.969 387.08 132.636C386.048 132.132 382.538 129.814 381.232 130.141C378.196 130.9 390.391 144.218 391.031 144.801C394.027 147.53 401.957 154.26 406.705 152.599C408.581 151.942 397.971 143.657 397.166 143.085C395.085 141.607 384.977 134.809 390.303 141.941C395.951 149.505 401.666 157.579 408.187 164.425C410.048 166.38 412.244 167.405 408.732 164.659C401.981 159.381 394.513 154.727 386.716 151.143C381.698 148.836 394.451 159.165 399.089 162.164C400.711 163.212 403.951 164.902 401.61 161.878C398.619 158.014 394.827 154.869 391.057 151.793C388.38 149.609 386.606 147.801 390.043 151.975C391.691 153.976 393.258 156.177 395.372 157.719C396.013 158.187 398.078 159.642 396.542 157.901C393.627 154.597 390.123 152.003 387.028 148.908C384.393 146.272 382.621 143.019 379.438 140.928C376.541 139.024 373.771 136.789 372.16 133.728C371.738 132.926 371.385 132.306 372.758 133.078C375.074 134.38 377.131 135.924 379.542 137.107C381.508 138.071 381.472 137.906 380.452 136.093C379.215 133.894 376.553 131.816 374.89 129.803C372.982 127.494 379.765 128.336 380.426 128.997C382.904 131.475 370.985 125.974 375.669 127.489C385.894 130.797 394.992 136.763 404.989 140.512C412.933 143.491 422.382 142.869 429.527 147.972C432.912 150.39 435.74 152.641 439.95 153.612C444.64 154.695 449.561 153.539 454.142 154.886C456.245 155.504 455.732 159.384 456.04 161.072C456.48 163.492 458.773 165.943 460.224 167.778C461.469 169.353 462.316 171.181 463.214 172.977C464.095 174.739 457.795 169.857 457.131 169.234C452.091 164.503 445.924 161.052 440.47 156.809C435.666 153.073 440.538 160.121 441.613 161.54C446.085 167.443 449.852 173.846 454.48 179.631C457.891 183.895 448.113 170.759 444.967 166.297C443.267 163.887 441.373 161.395 439.222 159.357C437.688 157.904 441.294 163.044 442.445 164.815C446.184 170.568 449.376 176.546 453.674 181.919" stroke="#387A18" stroke-width="10" stroke-linecap="round"/>
<path d="M463.032 195.955C467.463 205.847 472.167 215.607 476.288 225.639C478.582 231.224 480.807 236.894 482.526 242.69C482.827 243.705 483.966 246.732 483.462 247.993C483.123 248.84 479.501 242.552 479.355 242.274C475.434 234.812 471.363 227.217 469.686 218.88C469.564 218.275 467.606 206.508 469.166 206.768C470.046 206.914 470.865 209.126 471.089 209.679C473.541 215.729 475.319 222.17 477.224 228.394C478.851 233.711 481.554 240.234 481.902 245.965C481.937 246.532 481.575 247.807 480.733 247.421C477.775 246.065 475.667 240.409 474.494 237.673C469.004 224.863 466.636 210.714 460.588 198.138C458.677 194.164 458.105 196.787 458.535 199.88C459.804 209.002 463.438 217.754 466.177 226.496C467.178 229.691 470.477 239.091 468.802 236.192C464.937 229.503 463.253 220.892 460.432 213.734C457.66 206.699 454.779 196.956 449.255 191.432C445.341 187.518 444.02 192.397 444.057 195.799C444.14 203.522 455.361 224.527 453.024 217.165C448.762 203.737 446.433 188.588 439.482 176.2C436.795 171.412 438.914 180.135 439.118 180.723C442.426 190.264 447.305 199.636 452.478 208.301C454.872 212.31 450.786 201.654 450.607 201.101C447.61 191.831 444.981 182.479 440.47 173.783C440.46 173.764 435.187 165.137 436.311 169.39C438.256 176.749 443.059 183.665 447.904 189.404C448.92 190.608 450.608 193.688 451.543 192.42C452.364 191.306 450.435 187.391 450.087 186.597C446.803 179.109 441.305 171.964 435.427 166.323C432.709 163.714 428.843 160.299 424.874 159.903C420.496 159.465 427.023 169.497 427.707 170.508C428.612 171.846 433.794 179.574 435.713 175.16C437.429 171.215 433.779 165.648 431.84 162.502C429.068 158.003 425.739 153.843 422.119 149.999C417.843 145.46 418.903 150.867 419.935 154.314C421.397 159.194 424.159 164.217 428.071 167.57C431.035 170.11 432.261 168.848 430.878 165.621C428.849 160.885 426.219 156.402 423.782 151.871C423.715 151.745 419.458 143.251 418.688 145.113C416.577 150.214 421.936 159.045 424.302 162.996C427.954 169.093 433.23 178.194 439.95 181.555C442.388 182.774 442.78 179.517 442.835 177.89C442.869 176.881 442.069 171.235 442.731 172.275C448.09 180.696 452 190.787 455.884 199.932C459.358 208.112 462.928 217.172 462.928 226.236C462.928 233.3 456.789 219.47 458.665 225.535C461.984 236.264 463.485 248.089 468.074 258.338C468.15 258.508 470.097 262.995 469.738 261.145C469.166 258.202 468.724 254.765 467.009 252.229C463.519 247.071 462.919 263.911 463.032 265.2C463.317 268.473 464.047 271.688 464.357 274.947C464.538 276.842 462.578 271.58 461.628 269.931C458.264 264.087 449.379 260.138 449.125 270.139C449.057 272.848 449.529 276.536 451.335 278.716C453.101 280.849 454.462 278.152 454.298 276.429C453.714 270.301 444.97 263.686 439.95 269.619C436.631 273.541 440.753 289.153 447.02 284.279C452.596 279.942 445.73 273.847 440.99 273.544C431.107 272.91 436.917 281.622 441.977 284.071C448.599 287.275 454.75 279.122 454.532 272.92C454.488 271.673 452.939 268.332 453.778 269.255C455.666 271.332 456.847 273.672 459.133 275.493C465.181 280.313 470.214 276.257 469.478 269.047C469.32 267.5 468.699 265.218 467.009 264.654C463.905 263.62 466.827 269.957 467.268 270.658C470.941 276.491 476.806 272.166 476.262 266.396C475.881 262.361 467.433 257.127 469.322 263.172C470.073 265.576 472.048 270.032 475.196 269.931C477.82 269.846 481.265 265.966 481.643 263.484C482.032 260.923 478.958 245.703 473.949 250.176C470.148 253.57 480.68 263.279 484.45 258.234C488.515 252.793 483.264 239.453 477.146 237.335C469.581 234.717 473.375 255.476 477.016 254.465C478.652 254.01 477.615 248.781 477.432 247.837C476.783 244.483 474.262 240.448 470.414 240.351C460.659 240.105 456.334 253.705 457.417 261.353C457.846 264.383 459.317 261.384 459.705 260.157C460.656 257.146 461.169 253.323 459.912 250.332C458.555 247.1 454.441 246.617 451.413 247.681C447.379 249.098 445.356 253.65 445.356 257.662C445.356 258.395 445.678 263.359 447.488 262.809C450.106 262.012 450.962 253.193 451.231 251.112C451.726 247.275 452.04 243.312 451.257 239.493C451.171 239.075 448.651 232.395 448.424 235.802C448.086 240.868 457.27 260.454 463.603 253.295C470.524 245.472 470.835 230.945 469.582 221.168C469.078 217.239 470.402 223.718 470.648 224.391C472.039 228.197 473.916 234.125 477.302 236.686C483.775 241.58 484.387 223.933 484.034 221.142C483.248 214.931 481.509 217.28 481.85 221.896C481.985 223.715 481.826 228.125 483.046 229.59C484.178 230.948 483.385 226.039 483.15 224.287C482.628 220.385 481.915 216.522 480.993 212.694C480.132 209.124 478.056 204.752 478.056 201.049C478.056 199.826 478.736 203.4 479.043 204.584C480.033 208.401 481.299 212.129 482.214 215.969C482.367 216.611 483.566 222.183 483.566 220.622C483.566 216.517 482.787 212.352 482.214 208.301C481.594 203.914 481.164 199.503 480.187 195.175C479.618 192.657 480.961 200.281 481.279 202.843C481.692 206.183 482.044 209.527 482.578 212.85C482.9 214.85 481.453 210.142 481.435 210.095C479.189 204.352 476.664 198.785 473.637 193.407C473.221 192.669 469.523 185.182 469.218 189.456C468.803 195.263 474.916 212.025 473.221 206.456C472.322 203.501 462.599 172.823 459.003 175.134C454.42 178.08 462.801 199.387 466.203 197.982C470.531 196.194 460.795 177.442 459.575 175.29C458.541 173.468 455.314 168.758 455.13 170.846C454.864 173.859 458.458 178.281 460.588 180.099C462.266 181.531 464.6 180.782 464.799 178.487C465.123 174.758 463.019 171.05 461.16 167.986C460.523 166.937 458.979 163.594 457.521 163.386C456.933 163.302 459.912 170.845 460.224 171.469C460.36 171.741 462.607 176.205 463.396 175.732C463.825 175.475 461.311 172.216 461.16 171.989C459.818 169.976 458.624 167.857 456.949 166.089C456.134 165.229 452.71 163.157 453.622 166.141C454.315 168.41 455.93 170.463 456.897 172.639C457.558 174.126 455.297 169.791 454.298 168.506C449.77 162.685 444.559 156.351 438.234 152.443C436.888 151.61 435.545 150.656 434.127 149.947C433.929 149.848 436.877 152.617 437.533 153.092C437.861 153.331 440.796 155.688 441.405 155.146C441.772 154.82 437.959 152.472 437.767 152.339C435.782 150.967 422.013 140.569 419.519 143.657C417.479 146.183 425.128 150.131 423.574 146.802C422.587 144.687 419.695 143.251 417.804 142.123C415.034 140.471 412.084 138.176 409.018 137.133C407.405 136.584 405.25 136.727 404.184 138.25C402.757 140.288 404.831 142.386 406.055 143.917C407.664 145.928 409.802 147.489 411.358 149.531C412.19 150.624 407.339 147.286 406.939 146.984C404.947 145.478 402.403 143.271 399.791 142.981C397.145 142.687 403.947 149.105 404.028 149.167C408.378 152.556 413.369 154.977 417.96 158.005C422.319 160.88 426.299 164.159 431.268 165.907C433.739 166.776 434.684 168.456 435.869 170.768C439.077 177.022 441.872 183.498 445.071 189.768C450.132 199.691 454.773 210.514 458.457 221.038C458.729 221.815 455.549 220.384 455.234 220.284C450.959 218.934 446.961 217.415 442.965 215.345C439.631 213.619 436.34 211.54 432.776 210.303C430.196 209.407 434.094 213.117 434.543 213.422C438.855 216.342 445.844 218 451.023 218.828C453.822 219.276 444.654 214.775 443.797 214.41C438.778 212.269 424.366 204.474 429.293 206.82C437.699 210.823 446.434 214.018 454.792 218.153C456.885 219.188 460.456 220.256 462.148 221.948C463.226 223.026 458.442 220.747 457.573 222C455.949 224.34 460.618 231.477 461.628 233.385C464.541 238.885 467.848 244.37 469.114 250.54C470.803 258.771 466.698 261.846 463.759 268.839C462.942 270.785 458.582 285.679 464.955 284.617C466.919 284.289 470.332 279.067 467.035 279.236C464.386 279.372 458.949 281.306 459.029 284.747C459.146 289.785 466.92 285.237 468.204 283.733C468.962 282.846 470.019 280.855 468.542 280.016C466.815 279.034 463.727 281.33 462.46 282.251C461.439 282.993 454.814 289.951 454.948 289.971C455.817 290.105 462.041 289.994 461.342 289.295C459.222 287.175 454.049 287.619 451.335 287.658C448.963 287.692 447.395 288.027 450.867 287.554C455.582 286.911 449.286 285.828 447.826 285.578C445.356 285.157 442.774 285.272 440.314 284.825C437.93 284.391 431.237 281.433 433.478 282.355C437.828 284.147 442.627 284.163 447.02 285.786C447.38 285.919 442.047 284.951 440.47 284.747C438.511 284.492 435.89 283.992 434.05 283.187C432.763 282.624 433.591 282.555 434.543 283.031C436.518 284.018 438.36 284.908 440.496 285.526C446.009 287.122 439.741 286.334 437.507 286.254C436.108 286.204 435.815 285.675 434.855 284.954C433.09 283.63 430.397 282.881 428.409 281.939C426.854 281.203 421.694 280.434 420.923 279.47C420.516 278.961 423.71 281.131 424.302 281.471C426.218 282.572 428.511 282.955 430.488 283.915C432.906 285.089 436.239 287.19 438.936 287.19C439.838 287.19 443.335 287.936 440.678 287.19C438.751 286.649 436.714 286.585 434.751 286.228C433.67 286.032 433.259 286.254 432.152 286.254C432.056 286.254 435.913 288.251 437.195 288.49C439.851 288.984 442.909 288.074 445.46 288.074C448.702 288.074 449.977 288.382 453.206 289.997" stroke="#387A18" stroke-width="10" stroke-linecap="round"/>
<path d="M425.75 282.667C426.999 283.708 427.804 285.247 429.183 286.148C429.598 286.419 429.997 286.313 430.37 286.71C430.599 286.953 427.717 287.015 427.402 286.998C426.575 286.955 428.05 286.59 428.285 286.573C429.144 286.514 429.992 286.384 430.851 286.309C431.871 286.219 432.986 286.655 433.98 286.854" stroke="#387A18" stroke-width="10" stroke-linecap="round"/>
<path d="M437.301 285.41C437.181 286.491 437.723 285.844 438.424 285.667C439.546 285.383 440.632 285.41 441.777 285.41C442.148 285.41 443.37 285.271 443.622 285.699C443.87 286.122 444.186 286.605 444.584 286.886C445.016 287.191 446.378 288.985 445.386 289.276C444.831 289.44 444.101 289.782 443.654 289.309C443.318 288.954 445.139 290.273 445.531 290.464C445.835 290.611 447.133 290.773 446.381 290.544C445.624 290.313 443.759 289.815 443.253 289.164C443.004 288.844 442.566 288.833 443.333 289.276C443.491 289.368 445.241 290.111 444.937 290.111C444.598 290.111 441.222 289.75 441.761 290.416C442.858 291.771 444.903 291.969 446.477 292.341C447.75 292.641 448.751 292.786 449.975 293.319C450.331 293.474 451.098 294.036 451.451 294.073C452.522 294.186 453.917 294.661 454.948 294.394C455.503 294.25 456.037 294.427 456.648 294.105C457.16 293.836 456.885 293.26 457.547 293.383C461.142 294.052 463.259 291.989 466.258 290.432C466.993 290.05 467.687 289.162 468.28 288.587C468.944 287.941 469.848 287.642 470.51 286.998C471.256 286.272 472.005 285.568 472.739 284.833C473.371 284.201 474.004 283.329 474.729 282.811C475.59 282.196 476.241 281.14 476.718 280.212C478.018 277.683 479.286 275.139 480.52 272.576C480.694 272.215 481.451 270.607 481.427 270.635C480.098 272.097 479.105 273.969 477.986 275.592C476.847 277.242 475.609 278.937 474.135 280.309C473.6 280.807 472.96 281.367 472.242 281.367" stroke="#387A18" stroke-width="10" stroke-linecap="round"/>
<path d="M467.477 288.009C469.355 287.942 471.506 285.92 472.948 284.929C474.482 283.874 476.094 282.799 477.304 281.359C478.23 280.256 475.454 283.572 474.584 284.72C474.191 285.239 470.893 289.516 469.884 288.506C469.719 288.342 472.456 286.639 472.651 286.517C473.95 285.705 472.14 287.546 471.873 287.913C471.798 288.016 470.73 289.437 471.175 289.437C471.808 289.437 472.452 288.66 472.852 288.266C473.918 287.212 477.247 284.185 476.108 285.161C475.674 285.533 473.507 288.446 475.154 287.913C477.193 287.253 479.553 284.915 480.328 282.972C480.535 282.451 481.238 278.861 480.825 281.103C480.75 281.51 480.027 283.426 480.825 282.779C482.04 281.794 482.879 280.146 483.649 278.8C484.62 277.1 485.775 275.374 486.32 273.498C486.579 272.605 486.933 271.56 486.793 270.619C486.668 269.774 486.536 268.906 486.536 268.052C486.536 266.881 486.51 265.488 486.713 264.33C486.901 263.252 486.573 261.717 486.464 260.608C486.221 258.13 486.368 255.649 486.536 253.172C486.566 252.734 486.565 251.904 487.034 251.648C487.422 251.436 488.202 253.486 488.301 253.709C489.356 256.088 490.063 258.506 490.082 261.137C490.093 262.72 490.253 264.69 489.721 266.199C489.598 266.546 489.424 267.033 489.424 267.41C489.424 268.245 489.595 265.735 489.488 264.907C489.144 262.255 488.2 259.629 487.723 256.982C487.39 255.13 486.921 253.287 486.833 251.399C486.617 246.747 487.305 242.109 487.515 237.458C487.572 236.19 487.458 234.884 487.756 233.64C487.848 233.253 488.238 231.491 488.614 231.265C488.779 231.166 488.608 231.651 488.59 231.843C488.537 232.409 488.484 232.977 488.445 233.543C488.307 235.553 488.419 237.608 488.494 239.616C488.558 241.344 488.656 243.072 488.774 244.797C488.842 245.784 489.011 246.952 488.814 247.934C488.681 248.6 488.643 248.552 489.135 248.88" stroke="#387A18" stroke-width="10" stroke-linecap="round"/>
<path d="M486.825 248.014C488.224 252.831 489.418 257.823 490.419 262.742C490.845 264.835 490.761 266.509 489.713 268.373" stroke="#387A18" stroke-width="10" stroke-linecap="round"/>
<path d="M480.761 251.046C480.132 253.284 480.557 255.969 480.689 258.25C480.817 260.477 480.998 262.676 481.05 264.907" stroke="#387A18" stroke-width="10" stroke-linecap="round"/>
<path d="M425.172 279.707C424.805 279.34 424.741 278.318 424.105 278.415C423.851 278.455 423.383 278.63 423.151 278.728C422.529 278.99 421.956 279.274 421.274 279.274C420.835 279.274 420.326 278.957 419.83 279.161C419.14 279.446 421.303 278.57 421.707 277.942C422.734 276.344 423.376 274.911 424.161 273.21C425.333 270.67 426.461 268.065 427.715 265.557C428.323 264.342 428.942 263.108 429.584 261.883C430.064 260.966 430.802 260.074 431.164 259.06C431.465 258.216 431.669 257.257 432.03 256.453C432.762 254.827 433.588 253.197 434.268 251.544C435.103 249.516 435.61 247.424 436.506 245.423C437.32 243.609 438.199 241.839 439.105 240.073C439.946 238.436 440.581 236.574 441.279 234.859C441.514 234.282 442.651 230.429 443.365 230.904" stroke="#387A18" stroke-width="10" stroke-linecap="round"/>
<path d="M440.621 206.503C440.621 207.32 440.999 207.694 441.504 208.38C442.699 210.006 443.821 211.482 444.055 213.514C444.359 216.16 444.831 218.777 445.017 221.439C445.047 221.861 445.036 224.425 444.664 224.84C444.365 225.174 443.797 224.84 443.429 224.84C443.093 224.84 443.303 227.201 443.581 227.479C443.626 227.524 443.759 226.709 443.766 226.637C443.841 225.833 443.669 225.013 443.669 224.206C443.669 223.038 443.84 221.815 444.303 220.733C444.626 219.981 445.063 221.848 445.089 222.153C445.188 223.29 443.692 221.848 443.445 221.632C442.592 220.884 440.435 218.434 440.782 219.514C440.952 220.044 441.502 220.613 441.833 221.054C442.035 221.324 442.791 221.793 442.458 221.848C441.969 221.93 440.808 220.431 440.573 220.156C439.98 219.459 439.494 218.694 439.057 217.894C438.848 217.51 440.202 219.212 439.948 218.856C439.1 217.67 437.83 216.808 436.787 215.808C436.605 215.634 435.202 214.607 435.937 215.391C436.391 215.875 435.48 215.095 435.391 215.022C434.696 214.453 434.07 213.891 433.402 213.297C432.45 212.451 430.922 212.103 429.824 211.444C429.314 211.138 428.628 210.749 428.204 210.337C427.886 210.029 427.601 209.608 427.113 209.543C424.97 209.258 423.156 208.016 421.065 207.369C420.247 207.117 419.359 207.085 418.53 206.872C417.444 206.593 416.566 206.14 415.434 206.062C414.992 206.031 412.187 205.085 413.974 205.605C415.481 206.043 417.149 206.209 418.707 206.327C420.101 206.432 421.672 206.008 423.022 206.279C425.443 206.763 427.625 208.356 428.846 210.466C429.1 210.905 429.017 211.184 428.918 211.629C428.802 212.149 427.74 211.508 427.402 211.845C426.624 212.623 429.213 214.17 428.774 213.145C428.153 211.697 426.404 210.69 424.883 210.69C423.084 210.69 421.53 210.619 419.798 210.225C418.778 209.993 417.805 209.397 416.942 208.821C416.217 208.338 415.183 208.115 414.375 207.803C412.713 207.161 410.638 207.022 409.137 205.99C408.152 205.313 407.465 204.909 406.37 204.45C405.724 204.179 404.955 203.92 404.348 203.583C403.563 203.147 402.735 203.272 401.926 202.958C400.901 202.559 399.768 202.073 398.677 201.883C398.08 201.779 397.468 201.669 396.88 201.522C396.376 201.396 395.801 201.579 395.316 201.418C395.297 201.411 396.698 202.119 397.161 202.284C398.412 202.73 399.854 202.302 401.156 202.468C402.187 202.6 403.433 202.68 404.388 203.118C404.885 203.345 405.405 203.76 405.969 203.76" stroke="#387A18" stroke-width="10" stroke-linecap="round"/>
<path d="M408.568 205.637C407.154 204.223 405.654 203.851 403.915 203.15C403.126 202.832 401.973 202.322 402.712 203.615C403.173 204.421 404.528 205.038 405.383 205.412C405.768 205.58 405.796 205.097 405.311 205.051C404.849 205.007 404.226 204.95 403.803 204.738C402.776 204.225 401.46 204.038 400.346 203.76C398.822 203.379 397.568 202.545 395.998 202.741C395.02 202.863 394.147 202.749 393.151 202.749C392.175 202.749 391.291 202.239 390.383 201.955C389.789 201.769 389.317 201.715 388.787 201.45" stroke="#387A18" stroke-width="10" stroke-linecap="round"/>
<path d="M383.733 201.45C384.349 201.45 384.399 201.11 384.022 201.45C383.684 201.754 383.25 201.863 382.859 202.091C382.326 202.402 380.948 202.689 380.701 203.182" stroke="#387A18" stroke-width="10" stroke-linecap="round"/>
<path d="M398.316 188.022C398.183 188.038 398.221 188.068 398.172 188.166" stroke="#387A18" stroke-width="10" stroke-linecap="round"/>
<path d="M397.017 189.177C397.017 189.876 396.584 191.93 396.584 191.23C396.584 191.07 396.827 188.566 396.407 188.695C395.687 188.917 394.897 190.635 394.498 191.262C394.223 191.695 395.58 192.31 395.862 192.498" stroke="#387A18" stroke-width="10" stroke-linecap="round"/>
<path d="M415.211 155.302C416.387 158.957 418.304 162.404 420.007 165.829C421.771 169.378 423.402 173.144 425.523 176.507C425.665 176.732 426.545 177.768 425.87 176.919C424.61 175.335 423.294 173.789 421.964 172.264C420.88 171.02 419.745 169.801 418.827 168.424C418.159 167.423 417.678 166.343 419.389 167.01C421.882 167.981 424.231 169.314 426.713 170.325C427.237 170.539 428.704 171.513 428.53 170.644" stroke="#387A18" stroke-width="10" stroke-linecap="round"/>
<path d="M393.633 137.601C394.431 137.601 394.745 138.779 395.037 139.324C397.309 143.558 399.583 147.791 401.856 152.024C404.57 157.081 407.744 161.95 409.423 167.506C409.706 168.441 410.218 170.651 409.573 171.618C409.352 171.95 408.879 171.952 408.712 172.367C408.64 172.544 408.835 173.165 408.88 173.06C409.043 172.679 408.197 171.39 408.215 171.683C408.304 173.108 408.003 174.587 407.082 175.701C406.13 176.853 405.874 176.848 406.548 175.448C406.732 175.066 408.688 173.737 407.457 174.352" stroke="#387A18" stroke-width="10" stroke-linecap="round"/>
<path d="M405.265 176.713C404.735 177.803 405.103 177.937 405.742 176.872C406.58 175.476 407.178 173.282 407.016 171.664C406.711 168.611 404.992 166.93 402.736 165.211C401.951 164.613 401.239 163.649 400.329 163.245C399.787 163.004 401.203 164.047 401.668 164.415C402.844 165.345 404.077 166.211 404.9 167.497C405.389 168.261 404.098 167.549 403.822 167.422C402.242 166.692 400.724 165.846 399.364 164.781C398.994 164.49 397.926 163.567 398.259 163.9C398.896 164.537 399.629 165.113 400.301 165.717C400.393 165.8 401.596 167.022 401.172 167.075C400.582 167.149 399.642 166.616 399.13 166.345C398.047 165.771 397.012 165.29 396.068 164.471C394.221 162.872 392.47 161.463 390.766 159.854C389.646 158.796 388.018 157.283 387.573 155.799C387.247 154.712 386.713 154.16 386.084 153.279C385.763 152.831 385.97 151.471 385.54 151.256" stroke="#387A18" stroke-width="10" stroke-linecap="round"/>
<path d="M377.786 133.386C377.054 133.459 376.852 134.108 376.886 134.754C376.994 136.786 377.518 138.079 378.966 139.446C379.722 140.16 380.51 140.872 381.326 141.516C382.271 142.262 382.773 143.399 383.452 144.363C384.508 145.862 385.508 147.444 386.262 149.121C386.917 150.579 387.318 151.8 388.35 153.054C389.201 154.088 390.977 155.186 389.718 156.445C386.782 159.381 380.435 148.327 379.265 146.03C378.263 144.063 376.847 142.565 375.753 140.72C374.383 138.407 372.892 135.747 372.129 133.161C371.789 132.011 370.828 131.087 370.19 130.089C369.813 129.501 369.444 128.944 369.019 128.413C368.593 127.88 367.643 126.474 368.513 126.474" stroke="#387A18" stroke-width="10" stroke-linecap="round"/>
<path d="M370.382 125.842C370.248 125.856 369.394 125.922 369.394 125.926C369.394 126.166 370.672 126.346 370.885 126.346C372.433 126.346 373.137 126.171 371.929 124.873C371.106 123.989 374.123 124.928 374.584 125.097C375.593 125.467 376.538 126.102 377.631 126.178C378.308 126.224 379.411 126.088 380.026 126.429C380.564 126.728 381.334 126.378 381.918 126.551C382.396 126.692 384.071 126.697 384.023 126.662C383.076 125.973 382.254 125.164 381.228 124.575C380.358 124.076 380.545 124.829 380.613 125.507" stroke="#387A18" stroke-width="10" stroke-linecap="round"/>
<path d="M377.091 127.687C377.091 126.496 386.833 131.037 386.642 128.358C386.583 127.53 385.974 127.311 385.309 126.979C384.714 126.681 383.33 125.969 384.769 126.774C386.108 127.523 387.625 127.748 388.701 128.824C389.184 129.307 390.99 130.315 390.444 129.905C388.71 128.604 387.05 127.655 385.095 126.699C383.586 125.962 382.275 125.248 381.042 124.1C380.783 123.859 378.326 121.867 377.799 122.525C377.476 122.929 379.036 123.509 379.234 123.625C379.779 123.942 380.042 123.83 380.613 123.83" stroke="#387A18" stroke-width="10" stroke-linecap="round"/>
<path d="M401.746 135.402C401.231 134.939 400.447 134.958 399.817 134.471C398.961 133.808 398.524 133.319 398.056 132.383C397.51 131.291 396.563 130.052 395.708 129.197C394.842 128.33 393.718 128.187 392.68 127.603C391.688 127.045 390.738 126.763 389.801 126.103C388.887 125.46 388.019 124.836 386.819 124.836C386.478 124.836 386.059 125.254 386.577 125.395C386.848 125.469 387.21 125.1 387.574 125.181C388.21 125.322 388.601 125.823 389.13 126.14C389.913 126.61 390.967 126.725 391.841 126.932C393.639 127.358 395.321 128.307 397.106 128.656C399.406 129.106 400.828 130.135 402.743 131.452C404.352 132.558 405.741 133.122 407.579 133.688C408.369 133.931 406.992 131.903 406.778 131.582C406.6 131.315 404.838 130.19 405.799 130.967C406.894 131.851 407.815 132.996 409.331 133.054C410.075 133.083 411.029 133.188 411.744 133.408C413.27 133.878 414.733 134.982 416.17 135.701C417.086 136.159 417.899 136.9 418.863 137.322C419.749 137.709 420.605 137.881 421.528 138.17C422.464 138.462 422.758 139.296 423.718 139.558C424.164 139.68 424.165 140.024 424.472 140.332C424.682 140.541 425.126 140.598 425.395 140.732C426.066 141.068 426.701 141.742 427.408 141.944C428.258 142.186 429.066 142.625 429.923 142.875C430.5 143.043 431.031 143.413 431.396 143.882C432.072 144.752 433.01 145.368 434.042 145.764C435.294 146.244 437.081 146.409 438.142 147.311C438.673 147.762 439.316 148.322 439.893 148.652C440.129 148.787 440.215 149.149 440.49 149.286C440.881 149.481 441.488 149.603 441.915 149.733C442.556 149.928 443.516 150.33 444.18 150.33C445.994 150.33 446.695 153.376 448.54 153.684" stroke="#387A18" stroke-width="10" stroke-linecap="round"/>
<path d="M432.607 147.311C432.214 147.089 431.859 146.64 431.656 146.248C431.502 145.951 430.474 143.773 430.92 145.112C431.15 145.8 432.607 146.522 432.607 145.373C432.607 145.175 432.205 144.31 432.393 144.31C432.719 144.31 433.027 144.493 433.315 144.254C433.404 144.181 433.709 143.768 433.65 143.826C432.899 144.577 433.447 145.373 432.104 145.55C431.201 145.668 430.294 145.552 429.42 145.801" stroke="#387A18" stroke-width="10" stroke-linecap="round"/>
<path d="M462.461 176.662C462.461 177.697 463.05 178.351 463.123 176.82C463.196 175.292 462.984 173.96 462.545 172.497C462.523 172.424 462.075 171.7 462.126 171.966C462.306 172.912 463.815 174.006 464.465 174.631C464.995 175.141 466.027 176.406 466.785 175.581C467.196 175.133 467.637 174.572 467.297 173.978C466.377 172.368 464.654 173.257 463.84 171.63C463.49 170.929 462.797 169.37 462.797 168.611C462.797 166.741 461.651 164.633 460.356 163.337C459.314 162.296 457.927 161.555 457.262 160.225" stroke="#387A18" stroke-width="10" stroke-linecap="round"/>
<path d="M459.778 159.387C459.189 160.093 459.263 161.296 458.557 161.893C458.468 161.968 458.767 161.068 458.939 160.896" stroke="#387A18" stroke-width="10" stroke-linecap="round"/>
<path d="M479.737 210.039C479.226 210.102 479.84 218.73 479.606 220.736C479.522 221.457 480.275 222.953 481.078 222.953C481.929 222.953 481.63 220.63 481.582 220.102" stroke="#387A18" stroke-width="10" stroke-linecap="round"/>
<path d="M481.246 216.915C481.215 216.818 481.044 215.912 481.088 216.375C481.207 217.627 481.822 218.904 482.215 220.083C482.406 220.656 483.594 223.604 483.594 223.522C483.594 221.886 484.223 223.908 484.349 224.397C484.54 225.14 484.431 226.242 484.936 226.811C485.511 227.458 484.979 224.14 485.523 223.717C486.423 223.017 485.746 228.76 486.371 226.885C487.521 223.434 486.781 219.223 486.781 215.667C486.781 214.161 487.298 212.83 487.079 211.343C486.832 209.668 485.942 208.046 485.942 206.349" stroke="#387A18" stroke-width="10" stroke-linecap="round"/>
</svg>
