<svg width="533" height="484" viewBox="0 0 533 484" fill="none" xmlns="http://www.w3.org/2000/svg">
<g filter="url(#filter0_d_167_539)">
<path d="M523.458 268.331C528.141 286.137 520.875 304.741 500.106 310.202C479.337 315.664 458.705 305.656 454.023 287.85C449.34 270.043 455.69 254.792 476.459 249.331C497.228 243.87 518.776 250.525 523.458 268.331Z" fill="#F2F4DC"/>
</g>
<ellipse cx="158.588" cy="122.937" rx="158.588" ry="122.937" transform="matrix(0.992275 -0.124057 0.120167 0.992754 62.3999 239.765)" fill="#613B22"/>
<ellipse cx="70.1811" cy="92.5" rx="65.2156" ry="47.2328" transform="rotate(-5.72238 70.1811 92.5)" fill="#613B22"/>
<ellipse cx="67.829" cy="91.0534" rx="57.3734" ry="40.5146" transform="rotate(-12.5986 67.829 91.0534)" fill="#9F764B"/>
<ellipse cx="161.021" cy="117.896" rx="161.021" ry="117.896" transform="matrix(0.992275 -0.124057 0.120167 0.992754 60.1123 239.868)" fill="#9F764B"/>
<ellipse cx="172.634" cy="110.053" rx="172.634" ry="110.053" transform="matrix(0.992275 -0.124057 0.120167 0.992754 46.2834 217.166)" fill="#613B22"/>
<ellipse cx="167.218" cy="103.566" rx="167.218" ry="103.566" transform="matrix(0.992275 -0.124057 0.120167 0.992754 51.0305 217.489)" fill="#9F764B"/>
<ellipse cx="247" cy="43" rx="66" ry="43" fill="#613B22"/>
<ellipse cx="177.046" cy="122.892" rx="177.046" ry="122.892" transform="matrix(0.991868 -0.12727 0.117128 0.993117 33 125.908)" fill="#613B22"/>
<ellipse cx="173.381" cy="118.513" rx="173.381" ry="118.513" transform="matrix(0.991868 -0.12727 0.117128 0.993117 33 113.132)" fill="#9F764B"/>
<ellipse cx="210.664" cy="180.712" rx="185.264" ry="124.6" transform="rotate(-7.01313 210.664 180.712)" fill="#613B22"/>
<path d="M310 45.5C310 67.8675 282.466 86 248.5 86C214.534 86 187 67.8675 187 45.5C187 23.1324 214.534 4.99997 248.5 4.99997C282.466 4.99997 310 23.1324 310 45.5Z" fill="#9F764B"/>
<ellipse cx="206.429" cy="175.621" rx="183.128" ry="120.161" transform="rotate(-7.01313 206.429 175.621)" fill="#9F764B"/>
<path d="M274 162.5C299.11 183.239 309.554 200.06 292 215.433C274.446 230.807 227.055 237.393 207.823 215.433C188.591 193.474 187.23 163.209 204.783 147.836C222.337 132.463 254.768 140.54 274 162.5Z" fill="#E5F4DD"/>
<ellipse cx="174" cy="154" rx="12" ry="9" fill="black"/>
<ellipse cx="247.009" cy="128.622" rx="11.1824" ry="8.38678" transform="rotate(12.5876 247.009 128.622)" fill="black"/>
<path d="M236.619 162L216 153L236.619 145.5L236.619 162Z" fill="black"/>
<line x1="235.115" y1="158.997" x2="253.115" y2="178.997" stroke="black" stroke-width="3"/>
<line x1="248.519" y1="196.877" x2="251.875" y2="175.764" stroke="black" stroke-width="3"/>
<line x1="250.364" y1="176.545" x2="270.364" y2="181.545" stroke="black" stroke-width="3"/>
<path d="M109.62 293.306C108.402 294.447 109.689 293.392 110.24 294.08C111.003 295.034 111.806 296.097 112.563 297.005C113.09 297.638 113.963 297.828 114.335 298.571C114.868 299.637 115.17 300.391 115.815 301.359" stroke="#F2F4DC" stroke-linecap="round"/>
<path d="M109.62 293.306C109.863 295.251 111.59 295.929 112.872 297.212C113.47 297.809 113.133 298.529 113.509 299.174C113.754 299.594 114.582 300.335 114.955 300.671C115.794 301.426 116.956 301.825 117.673 303.08C118.451 304.441 119.104 304.673 120.771 304.766C122.339 304.853 123.575 306.414 125.124 306.607C126.916 306.831 128.03 307.859 129.512 308.793C132.629 310.755 137.176 309.757 139.114 313.439C139.868 314.871 142.365 313.55 143.554 313.766C145.079 314.043 146.775 314.576 148.269 315.056C149.634 315.495 151.202 316.11 152.674 315.9C154.496 315.639 155.565 314.924 157.561 315.538C161.077 316.62 164.146 316.081 167.473 314.196C169.648 312.963 171.795 310.574 173.719 312.819C174.926 314.227 173.845 315.68 175.595 316.846" stroke="#F2F4DC" stroke-width="2" stroke-linecap="round"/>
<path d="M166.612 311.271C166.612 313.133 168.61 314.044 170.157 313.68C170.884 313.509 172.152 313.869 172.824 314.248C172.992 314.342 174.941 316.354 174.941 315.16C174.941 314.525 171.319 314.964 170.811 315.056C170.562 315.102 165.668 316.33 165.821 315.986C166.195 315.144 172.32 314.778 173.255 314.85C173.751 314.888 178.61 314.758 176.799 314.23C173.126 313.159 176.53 316.502 178.365 316.502C179.525 316.502 177.009 315.61 176.146 315.848C174.68 316.252 174.596 316.034 176.524 315.848C179.248 315.585 181.014 315.993 183.511 316.674C184.929 317.061 186.648 315.601 187.985 315.366C189.962 315.019 191.948 314.818 193.938 314.437C197.006 313.849 198.495 314.446 201.235 315.228C202.934 315.714 205.182 314.361 207.016 314.695C210.084 315.253 212.279 314.558 215.242 313.817C217.16 313.338 219.045 312.585 220.989 312.183C222.572 311.855 224.371 310.341 225.945 310.341C227.943 310.341 229.96 310.469 231.951 310.668C233.071 310.78 234.353 311.174 235.306 311.752C236.404 312.419 237.606 312.014 238.782 312.269C242.004 312.965 244.623 311.89 247.782 311.89C250.963 311.89 253.584 311.282 256.678 310.72C262.873 309.594 268.834 310.618 274.557 307.227C280.151 303.912 286.542 302.174 292.987 302.89C297.796 303.425 303.261 300.153 307.166 297.642C310.397 295.565 313.939 294.034 317.146 291.929C318.725 290.893 320.524 290.197 322.171 289.279C323.872 288.331 325.213 286.629 326.955 285.872C330.354 284.394 333.463 281.961 337.039 280.916C340.765 279.827 344.561 278.904 347.931 276.907C349.189 276.161 350.193 275.113 351.459 274.343C353.406 273.157 355.547 272.101 357.344 270.695C359.527 268.986 362.619 266.428 363.607 263.708C364.16 262.189 365.14 261.081 364.829 259.372C364.494 257.527 362.805 256.195 361.577 254.898C359.881 253.107 359.963 250.707 358.961 248.703" stroke="#F2F4DC" stroke-width="2" stroke-linecap="round"/>
<path d="M115.505 296.403C117.105 297.156 116.519 299.243 117.914 300.498C118.601 301.116 116.111 298.333 115.815 297.814C115.227 296.785 114.481 296.071 113.492 295.302C112.749 294.724 111.218 292.995 113.027 293.856C114.038 294.338 115.118 295.987 116.125 296.093C117.3 296.217 117.985 297.334 118.757 298.107C120.344 299.693 123.053 300.674 125.107 301.359" stroke="#F2F4DC" stroke-width="5" stroke-linecap="round"/>
<path d="M110.549 295.784C108.267 293.215 114.991 295.138 115.505 295.164C116.583 295.218 117.358 296.093 118.448 296.093C120.262 296.093 122.037 296.146 123.077 297.78C124.551 300.097 127.135 300.204 129.444 301.359C130.904 302.089 131.465 302.598 133.161 302.598C134.717 302.598 137.286 302.516 138.736 303.08C139.816 303.5 141.3 304.456 142.453 304.456C143.842 304.456 139.605 303.437 139.218 303.355C135.44 302.554 131.841 301.442 128.205 300.361C127.87 300.261 125.784 298.296 126.518 298.296C127.421 298.296 130.384 300.452 131.268 300.894C132.659 301.59 133.637 302.499 135.26 302.839C136.696 303.139 138.181 303.072 139.596 303.596C141.692 304.372 144.448 305.386 146.858 304.697C149.271 304.008 151.281 305.386 153.621 305.386C156.437 305.386 159.196 306.005 162.035 306.005C164.807 306.005 167.616 305.86 170.381 306.022C173.283 306.193 175.891 307.362 178.555 307.846C181.5 308.382 184.521 308.791 187.503 309.343C191.303 310.047 195.311 308.793 199.152 308.793C203.132 308.793 207.077 307.628 211.077 307.554C213.917 307.501 216.773 307.244 219.647 307.244C224.075 307.244 228.485 306.315 232.897 306.315C234.708 306.315 236.544 305.193 238.3 304.766C240.45 304.244 242.604 303.741 244.805 303.458C248.891 302.933 252.57 301.066 256.592 300.447C259.68 299.972 262.837 299.499 265.884 298.709C270.998 297.383 276.309 296.876 281.389 295.405C282.69 295.028 284.29 294.037 285.57 293.46C287.26 292.7 289.365 292.451 290.973 291.585C293.785 290.071 296.66 288.526 299.491 287.111C302.755 285.479 306.41 284.508 309.781 283.084C313.108 281.68 316.73 280.47 319.934 278.868C325.869 275.901 332.062 271.834 337.28 267.735C341.771 264.206 346.314 261.262 350.289 257.066C351.127 256.181 352.512 256.051 353.507 255.362C354.271 254.833 354.838 254.046 355.709 253.659C357.192 253 357.985 251.5 359.581 251.181" stroke="#F2F4DC" stroke-width="5" stroke-linecap="round"/>
<path d="M123.559 301.669C122.505 302.66 121.51 301.587 120.496 300.877C118.465 299.456 124.385 304.048 126.656 305.041C127.072 305.224 130.042 306.134 129.375 305.936C126.777 305.167 124.044 305.228 121.373 304.628C116.15 303.456 128.067 304.244 128.067 304.078C128.067 302.955 115.653 300.227 127 304.904C129.385 305.887 134.754 308.785 137.359 307.003C139.07 305.833 133.412 304.314 132.868 304.164C131.895 303.895 130.586 303.397 129.547 303.527C128.289 303.684 131.796 304.715 132.988 305.145C137.156 306.645 141.888 307.909 146.359 307.536C146.97 307.486 142.1 306.182 141.334 305.988C140.208 305.702 138.388 304.787 137.222 304.904C135.538 305.072 140.277 306.395 141.902 306.865C144.179 307.524 146.531 307.717 148.871 308.018C149.873 308.147 152.429 308.901 153.311 308.018C153.561 307.768 151.187 307.209 151.057 307.175C148.556 306.525 146.103 306.315 143.52 306.315C141.475 306.315 135.572 306.506 140.044 308.724C140.937 309.167 152.593 312.915 152.106 310.479C151.662 308.258 143.052 307.642 141.351 307.313C140.891 307.224 138.445 306.581 138.547 307.743C138.686 309.342 142.393 309.982 143.52 310.341C144.255 310.576 151.846 313.334 151.969 312.475C152.258 310.451 145.631 309.074 144.311 308.793C142.739 308.457 138.989 307.547 142.539 309.567C143.817 310.294 149.016 311.219 148.992 311.202C147.645 310.267 142.493 308.546 141.007 309.171C139.877 309.647 143.333 310.023 144.552 310.152C147.729 310.488 150.999 310.387 154.188 310.324C156.175 310.285 158.096 310.184 159.97 309.481C160.227 309.385 161.922 308.583 160.899 308.242C160.115 307.981 156.608 307.328 156.787 307.45C160.135 309.752 164.42 311.672 168.436 312.372C168.887 312.45 170.201 312.785 169.744 312.785C167.459 312.785 165.08 311.882 162.861 311.443C162.46 311.363 157.467 310.159 157.286 311.03C157.111 311.869 163.009 312.669 163.412 312.75C164.935 313.057 172.618 314.823 173.358 312.234C173.561 311.524 166.994 310.878 166.406 310.806C162.988 310.385 160.945 310.695 157.768 311.512C156.425 311.857 160.701 312.544 161.347 312.647C162.388 312.813 166.037 312.507 163.24 312.131C158.234 311.459 153.153 311.993 148.183 312.664C145.784 312.989 143.645 312.252 141.283 312.2C138.981 312.149 145.21 311.895 146.118 312.028C148.254 312.339 150.258 311.89 152.382 311.89C153.357 311.89 154.309 311.937 155.255 312.2C156.261 312.479 153.062 312.16 152.743 312.131C151.936 312.057 146.359 311.055 148.561 311.907C153.336 313.756 159.222 312.599 164.1 311.821C170.023 310.876 176.141 307.558 182.272 309.274C183.949 309.744 185.495 309.894 187.193 310.187C189.621 310.605 189.642 310.213 187.193 310.41C184.315 310.642 181.593 311.376 178.882 312.337C176.282 313.26 177.39 314.275 179.862 314.368C180.617 314.396 183.061 314.543 183.579 313.68C183.752 313.392 178.552 312.234 178.038 312.234C175.339 312.234 183.392 313.8 186.057 313.37C188.261 313.014 187.698 311.199 188.501 309.739C189.96 307.087 194.553 310.539 196.657 309.653C197.587 309.261 199.101 309.645 200.099 309.894C200.882 310.09 204.963 310.849 203.437 311.03C199.909 311.447 196.287 311.378 192.803 312.045C191.903 312.217 188.38 312.19 188.811 312.2C192.494 312.284 203.05 315.396 199.755 313.749" stroke="#F2F4DC" stroke-width="5" stroke-linecap="round"/>
<path d="M348.43 269.456C348.2 270.489 346.872 270.801 346.038 271.194C341.994 273.097 337.982 275.156 334.354 277.784C334.175 277.914 330.948 280.4 331.618 280.503C334.164 280.895 337.863 278.438 339.929 277.302C343.131 275.543 346.093 273.461 348.74 270.935C349.815 269.91 354.524 265.085 349.91 265.773C346.871 266.226 343.912 268.352 341.495 270.109C339.179 271.794 335.491 274.278 335.111 277.423C334.787 280.107 338.234 278.516 339.379 277.922C342.346 276.381 345.141 273.932 347.294 271.383C352.159 265.624 342.146 269.252 339.912 270.609C339.2 271.041 330.19 278.356 334.767 277.13C340.026 275.722 347.96 271.187 350.495 266.117C350.799 265.51 350.683 264.519 349.91 265.326C348.785 266.499 347.189 269.177 347.398 270.867C347.788 274.035 355.003 267.028 355.64 266.375C356.031 265.975 357.572 264.27 357.034 263.536C356.775 263.184 354.451 267.41 354.315 267.7C352.384 271.817 355.668 269.417 357.24 267.563C358.671 265.876 359.457 262.729 357.344 265.876C356.671 266.878 355.919 267.786 355.175 268.733C354.565 269.51 356.277 267.09 356.776 266.238C357.333 265.286 358.183 264.395 358.514 263.33C358.933 261.979 358.06 263.021 357.791 263.571C356.893 265.405 358.86 262.984 359.116 262.159C359.712 260.24 360.019 258.924 357.791 258.924C357.297 258.924 354.824 259.805 356.363 260.129C357.572 260.384 358.583 258.443 358.135 258.443C355.616 258.443 351.548 259.641 350.357 262.022C350.209 262.319 349.579 264.129 350.495 263.984C352.069 263.733 353.116 261.905 353.937 260.748C354.852 259.457 355.847 257.214 353.403 258.924C351.466 260.28 353.083 258.87 353.627 257.823C354.355 256.42 354.636 256.216 356.191 255.827C356.75 255.687 358.729 255.053 359.202 255.827C360.286 257.6 359.949 257.089 359.15 255.431C357.325 251.639 362.368 255.972 362.368 257.221C362.368 258.179 362.433 260.638 362.024 261.557C361.619 262.469 359.476 263.421 358.72 263.949C356.802 265.289 354.342 265.979 352.766 267.769C351.607 269.087 350.746 270.547 349.497 271.796C348.783 272.509 346.298 274.669 348.602 274.102C349.666 273.84 352.386 272.254 349.841 273.482C347.593 274.567 344.65 275.205 342.166 275.582C335.851 276.538 329.407 278.068 323.616 280.847C321.004 282.101 318.155 282.754 315.615 284.151C312.988 285.596 318.715 284.583 319.521 284.495C323.455 284.068 334.864 280.718 330.947 281.277C326.145 281.963 321.404 285.137 316.905 286.835C316.2 287.102 310.214 288.739 312.001 289.107C316.31 289.994 320.483 288.372 324.029 286.044C324.289 285.874 327.314 283.772 326.611 283.772C324.68 283.772 322.236 284.894 320.433 285.476C314.444 287.41 308.41 289.491 302.485 291.619C298.499 293.051 302.71 291.504 304.688 291.275C307.919 290.901 317.439 289.897 318.488 285.7C318.677 284.946 315.907 285.926 315.856 285.941C311.384 287.252 307.056 288.871 302.76 290.673C302.256 290.884 288.148 297.132 288.684 297.745C288.769 297.842 300.64 292.24 301.78 291.757C303.843 290.883 305.988 290.045 307.957 288.969C308.809 288.504 310.06 287.456 308.198 287.868C302.52 289.123 296.185 292.208 291.145 295.112C290.136 295.694 289.161 296.484 290.922 296.644C294.093 296.932 297.543 296.838 300.696 296.403C302.807 296.112 304.955 295.278 306.684 294.028C307.562 293.393 310.443 290.375 307.596 292.29C303.849 294.811 299.445 297.116 296.531 300.671C295.408 302.041 297.448 301.379 298.046 301.101C300.871 299.785 303.461 297.886 306.116 296.265C307.811 295.231 309.533 294.189 311.123 292.996C311.586 292.649 312.999 291.459 311.502 292.135C310.617 292.535 304.456 295.94 305.015 297.281C305.734 299.007 313.251 293.694 314.014 293.134C317.666 290.453 312.023 293.188 311.02 293.615C307.708 295.028 302.516 297.191 298.872 296.403C293.773 295.301 289.709 295.904 285.243 298.881" stroke="#F2F4DC" stroke-width="5" stroke-linecap="round"/>
<path d="M204.401 309.412C205.651 309.273 205.741 307.094 203.472 308.311C202.613 308.772 200.499 310.855 202.594 310.944C205.063 311.049 207.386 310.459 209.804 310.341C210.996 310.283 211.173 310.284 209.787 310.359C208.129 310.448 206.589 311.196 205.33 312.269C201.934 315.162 208.004 314.015 209.357 313.508C210.787 312.971 212.259 312.502 213.659 311.89C214.238 311.636 215.603 310.871 214.106 311.271C212.179 311.784 206.281 312.717 208.187 312.131C209.643 311.683 211.266 311.683 212.764 311.408C214.741 311.046 216.104 310.183 217.823 309.24C218.638 308.793 219.399 308.793 220.301 308.793C221.156 308.793 218.678 309.348 217.909 309.722C216.998 310.165 214.215 312.38 216.963 311.391C219.255 310.566 220.8 308.896 223.278 308.483C226.51 307.944 230.305 308.389 233.516 309.102C236.209 309.701 235.079 308.631 233.052 308.5C231.279 308.386 229.469 308.001 227.7 308.001C226.647 308.001 223.595 308.627 224.637 308.776C228.797 309.37 232.109 307.468 236.046 306.831C238.83 306.381 241.605 306.836 244.357 307.244C246.232 307.522 247.792 307.033 249.623 306.934C250.796 306.871 250.248 306.613 249.399 306.452C247.555 306.104 245.979 306.057 244.116 306.246C239.313 306.732 246.815 307.863 248.246 307.863C249.193 307.863 251.958 307.688 251.051 307.416C249.322 306.897 246.362 308.344 244.667 308.724C242.961 309.106 241.213 309.722 239.453 309.722C238.228 309.722 239.872 309.967 240.227 310.032C243.967 310.708 247.498 309.102 251.172 309.102C252.78 309.102 247.908 309.755 246.353 309.343C245.791 309.195 249.482 308.669 249.881 308.621C252.063 308.357 254.167 307.568 256.334 307.175C258.886 306.713 261.779 306.603 264.112 305.386C264.135 305.374 266.31 303.783 265.678 303.888C264.285 304.121 262.598 305.451 261.221 305.936C259.093 306.685 256.909 307.219 254.785 307.984C253.237 308.541 255.83 307.561 256.162 307.485C259.425 306.741 262.767 306.366 266.074 305.867C268.162 305.553 270.157 305.186 272.165 304.525C272.853 304.299 274.705 303.655 272.957 304.319C272.041 304.666 264.734 306.101 268.724 306.005C272.117 305.923 277.404 303.899 280.081 301.669C281.373 300.592 278.753 301.218 278.412 301.359C276.248 302.25 273.995 302.286 271.683 302.219C267.425 302.096 254.655 301.669 258.915 301.669C264.104 301.669 269.172 303.183 274.299 303.183C274.976 303.183 276.263 302.55 274.884 302.598C272.206 302.692 269.415 303.72 266.762 304.147C262.99 304.754 259.191 304.65 255.405 305.076C254.067 305.226 250.119 306.048 251.413 305.678C255.997 304.368 261.003 304.73 265.661 303.682C267.501 303.268 267.044 302.533 265.351 302.357C262.891 302.101 260.442 302.477 258.003 302.736C257.686 302.769 253.296 302.814 254.544 303.527C257.071 304.971 261.216 303.934 263.888 303.527C267.967 302.906 272.081 302.633 276.157 301.978C278.361 301.625 281.836 301.606 283.161 299.397C283.387 299.02 276.541 299.833 275.624 300.275C274.254 300.934 276.774 301.336 277.19 301.29C279.538 301.029 281.874 300.357 284.211 299.982C284.958 299.863 288.914 298.09 287.205 298.915C285.954 299.519 284.768 299.741 283.453 300.12C282.636 300.355 281.531 300.983 282.834 301.634C284.357 302.396 286.107 301.6 287.549 301.049C287.986 300.882 293.69 298.774 291.369 299.26C288.287 299.905 290.162 301.393 292.229 301.6C292.686 301.645 296.384 301.342 295.189 300.912C291.671 299.645 287.08 298.709 283.385 298.709C280.656 298.709 277.584 299.882 275.435 301.514C273.736 302.804 273.268 304.703 271.924 306.246C270.86 307.468 266.344 310.11 264.663 309.55C263.274 309.087 267.269 308.816 267.76 308.862C267.954 308.88 270.156 309.184 269.825 308.913C268.774 308.054 267.203 307.782 265.902 308.001C260.819 308.856 255.829 309.496 250.655 309.395C246.028 309.304 232.527 306.332 236.838 308.018C239.904 309.218 244.347 308.527 247.506 308.036C251.274 307.449 242.331 307.284 241.277 307.416C241.023 307.448 236.834 308.282 237.371 308.793C238.418 309.788 241.605 309.454 242.929 309.395C243.391 309.374 246.535 309 245.7 307.863C244.814 306.659 242.258 307.491 241.122 307.709C240.219 307.881 237.62 307.957 237.302 309.102C236.791 310.941 239.982 310.914 240.95 310.582C241.675 310.334 246.154 307.487 245.459 307.313C242.196 306.497 240.987 309.455 244.495 310.204C246.683 310.671 249.287 310.202 251.051 308.81C252.009 308.053 252.293 307.071 251.103 306.384C250.162 305.84 247.677 305.777 247.042 306.848C245.712 309.093 251.615 308.784 252.393 308.638C258.035 307.58 262.82 305.336 268.104 303.252C270.817 302.182 273.76 301.94 276.467 300.808C278.42 299.992 280.111 298.768 282.146 298.107C286.227 296.78 290.084 294.973 294.157 293.615C296.456 292.849 298.6 291.956 300.971 291.378C302.675 290.963 303.84 290.506 305.066 289.279" stroke="#F2F4DC" stroke-width="5" stroke-linecap="round"/>
<path d="M358.961 265.119C358.699 266.565 358.149 267.19 359.89 265.739" stroke="#F2F4DC" stroke-width="5" stroke-linecap="round"/>
<path d="M72.7112 303.054C75.5326 305.562 77.9783 307.001 79.6407 310.511C80.3055 311.914 80.892 314.637 82.2016 315.407C84.6041 316.82 85.8775 319.783 88.152 321.357C89.9724 322.618 91.8384 324.288 93.0478 326.102" stroke="#F2F4DC" stroke-width="3" stroke-linecap="round"/>
<path d="M74.0671 301.021C74.0671 306.047 75.9726 311.532 79.4903 315.256C81.8534 317.758 85.1019 323.154 88.3028 324.069C90.752 324.768 93.4421 329.121 94.7804 331.224C96.9797 334.68 100.545 337.125 102.388 341.016C104.357 345.173 104.977 348.748 108.489 352.389C112.152 356.189 109.626 362.339 113.046 365.759C117.408 370.121 120.653 378.978 127.62 378.978" stroke="#F2F4DC" stroke-width="4" stroke-linecap="round"/>
<path d="M79.4901 312.545C78.9383 312.545 80.7566 313.157 81.3731 313.75C83.4638 315.76 85.9488 318.236 86.9468 320.981C88.0086 323.901 92.3063 325.959 93.8764 328.814C95.601 331.95 97.9268 334.107 99.4501 337.589C100.654 340.341 101.359 341.819 101.898 344.782C103.894 355.76 106.522 366.014 114.74 374.233C118.508 378 123.224 383.449 128.976 383.723C136.425 384.078 144.817 383.382 151.685 386.435C156.871 388.74 158.832 394.161 164.565 395.925C168.503 397.137 174.355 402.053 178.462 399.314" stroke="#F2F4DC" stroke-width="5" stroke-linecap="round"/>
<path d="M177.784 398.636C176.516 398.795 177.693 399.928 178.236 400.294C181.782 402.68 186.528 403.201 190.664 402.741C193.176 402.462 196.854 401.775 199.175 400.67C205.082 397.857 211.701 396.363 218.119 395.247C225.594 393.947 232.965 392.375 240.489 391.217C245.721 390.412 253.67 392.979 258.114 389.523C261.224 387.103 265.069 386.843 266.588 382.668C268.101 378.508 271.001 374.334 273.743 370.843C276.142 367.79 279.39 360.127 283.196 359.281C288.433 358.118 292.998 354.887 298.448 353.896C306.764 352.384 315.761 351.401 324.208 351.184C326.444 351.127 338.19 350.551 339.649 347.795C340.458 346.266 339.637 344.419 341.005 342.899C342.672 341.047 344.07 339.361 345.901 337.626C348.719 334.956 352.517 333.419 355.391 330.848C359.547 327.129 366.404 325.108 369.627 320.529C373.402 315.164 378.006 309.459 380.322 303.205C382.576 297.119 387.746 291.245 387.93 284.45C388.068 279.346 391.089 275.274 392.675 270.516" stroke="#F2F4DC" stroke-width="5" stroke-linecap="round"/>
<path d="M122.197 366.098C124.888 364.618 135.608 377.771 134.964 367.793C134.756 364.576 129.081 359.26 128.976 365.043C128.958 366.032 131.262 377.05 133.382 374.458C135.639 371.7 133.624 364.096 129.654 363.876C126.228 363.686 126.561 374.294 128.976 375.438C130.409 376.117 131.471 371.732 131.537 371.069C131.888 367.562 130.616 364.122 128.298 361.503C124.466 357.174 120.009 360.646 122.009 365.721C125.256 373.964 128.547 365.476 127.168 360.712C125.387 354.557 116.675 355.536 119.561 362.03C123.273 370.383 130.713 363.958 124.607 358.792C119.435 354.415 115.356 360.366 115.945 365.42C116.445 369.7 120.709 375.123 120.126 367.83C119.797 363.726 116.866 363.306 116.774 367.83C116.723 370.328 113.599 364.954 112.707 363.537C110.888 360.648 112.005 356.565 110.334 353.557C106.769 347.14 102.729 339.911 99.9774 333.032C98.7626 329.995 94.4929 325.514 92.031 323.052C90.9741 321.995 90.1208 320.861 89.2065 319.7C85.8523 315.443 87.8328 317.644 90.8635 319.7C99.6944 325.692 106.988 334.445 116.397 339.284C120.829 341.563 125.907 343.438 130.03 346.062C131.735 347.147 138.028 349.63 137.789 349.151" stroke="#F2F4DC" stroke-width="10" stroke-linecap="round"/>
<path d="M109.317 334.237C107.668 334.443 112.221 334.721 113.083 334.877C115.377 335.294 118.355 337.375 120.163 338.982C122.86 341.38 126.387 341.539 129.353 343.426C133.444 346.03 139.852 345.657 144.567 346.966C149.622 348.37 154.53 351.293 159.519 352.54C168.748 354.848 179.094 355.532 188.63 355.252C201.284 354.88 214.264 355.252 227.119 355.252C234.353 355.252 240.817 356.422 247.983 354.724C254.781 353.114 261.431 351.982 268.282 350.205C277.81 347.735 287.753 346.163 297.092 343.05C304.633 340.536 312.405 336.634 320.141 334.915C326.864 333.421 332.573 329.654 338.481 326.404C343.037 323.898 347.899 321.902 352.303 319.173C355.132 317.42 360.555 315.546 362.32 312.545C363.509 310.524 366.212 309.783 367.857 308.138C369.78 306.215 371.595 303.208 373.393 300.983C375.096 298.874 384.304 287.006 383.862 286.785" stroke="#F2F4DC" stroke-width="10" stroke-linecap="round"/>
<path d="M384.54 281.362C389.256 284.191 378.689 291.644 376.405 293.601C372.361 297.068 369.859 301.661 366.237 305.389C357.806 314.068 344.24 316.797 335.205 324.897C333.197 326.697 330.247 327.171 327.748 328.136C323.65 329.719 334.623 324.338 335.77 323.654C341.525 320.223 347.603 316.547 352.981 312.545C355.425 310.726 357.661 308.706 359.985 306.745C361.578 305.402 366.764 302.226 364.731 302.678C363.001 303.062 360.443 306.661 359.082 307.762C355.761 310.446 352.097 312.485 348.235 314.277C340.061 318.07 333.654 324.139 325.338 327.91C318.734 330.905 311.751 332.731 305.227 335.631C301.989 337.07 297.396 338.376 295.737 341.694" stroke="#F2F4DC" stroke-width="10" stroke-linecap="round"/>
<path d="M331.665 340.338C329.797 340.748 326.925 342.027 331.062 339.585C335.325 337.068 340.826 334.695 344.243 330.998C346.276 328.8 332.768 332.748 331.59 333.258C326.897 335.29 318.627 339.272 317.504 345.008C316.991 347.63 328.997 341.839 329.481 341.543C338.728 335.875 327.698 335.446 322.325 335.894C311.34 336.81 301.332 341.541 291.745 346.665C284.756 350.4 296.17 347.151 298.147 346.665C303.187 345.426 308.183 343.854 312.91 341.694C314.786 340.837 319.931 339.548 318.182 338.455C316.759 337.565 311.706 339.9 310.65 340.263C304.96 342.217 299.258 344.275 293.703 346.59C288.908 348.588 284.062 350.869 279.769 353.821C277.826 355.156 277.536 356.135 280.07 355.628C290.091 353.624 300.3 349.136 309.822 345.535C320.832 341.372 307.434 344.586 304.022 345.761C302.911 346.144 292.06 350.441 295.511 349.527C304.059 347.265 312.601 344.99 320.819 341.694C324.493 340.22 328.116 338.629 331.59 336.723C331.703 336.66 333.654 335.247 333.397 335.518C332.314 336.661 326.212 343.232 328.162 342.221C334.927 338.713 341.184 333.843 346.842 328.776C348.027 327.715 356.522 317.126 353.922 321.546C352.978 323.15 345.154 331.191 345.486 332.354C345.662 332.969 363.16 322.275 364.655 321.094C365.281 320.599 373.113 313.565 371.51 316.085C368.834 320.29 356.684 329.406 360.513 326.215C363.695 323.563 366.616 321.054 369.551 318.118C371.969 315.7 367.25 323.833 366.651 324.558C363.617 328.237 363.991 326.315 365.559 323.353C367.99 318.763 369.956 313.794 373.242 309.72C376.613 305.54 370.365 311.835 369.401 312.733C364.734 317.078 371.545 309.943 372.451 308.967C373.401 307.944 381.509 296.333 380.661 296.464C378.74 296.759 376.58 300.057 375.502 301.284C372.409 304.803 369.164 308.138 365.936 311.528C362.051 315.606 373.166 306.902 374.522 305.163C378.042 300.651 377.085 297.199 371.66 299.665" stroke="#F2F4DC" stroke-width="10" stroke-linecap="round"/>
<path d="M316.073 345.761C299.767 341.825 278.668 353.961 266.625 363.424C260.602 368.157 253.848 373.454 248.736 379.204C244.211 384.295 260.064 371.536 265.043 366.889C266.766 365.28 274.794 356.647 267.341 361.39C263.19 364.031 259.507 367.822 256.268 371.483C254.294 373.715 248.51 379.502 249.038 382.97C249.415 385.448 263.605 373.294 264.893 371.86C266.277 370.318 268.152 368.651 269.035 366.738C269.899 364.868 265.921 369.453 264.554 370.994C263.372 372.325 255.066 384.261 256.118 384.175C263.724 383.551 267.445 372.544 272.99 368.847C278.277 365.322 263.292 377.181 257.775 380.333C257.37 380.565 264.146 372.273 265.495 370.504C269.235 365.601 272.222 358.283 263.424 363.537C253.149 369.673 244.285 377.455 234.99 384.89C232.833 386.616 235.625 385.894 236.647 385.493C242.074 383.365 246.326 378.131 249.941 373.781C255.074 367.606 254.414 364.009 245.987 366.286C233.521 369.655 221.541 378.842 211.641 386.811C210.078 388.069 206.369 392.064 208.364 391.858C213.267 391.35 219.287 386.704 223.202 384.1C228.551 380.542 233.604 376.509 238.493 372.349C242.481 368.956 248.69 364.735 251.147 359.959C252.551 357.229 246.401 359.13 245.987 359.281C238.81 361.9 232.329 366.926 226.215 371.37C222.038 374.406 217.798 377.494 213.938 380.936C212.142 382.538 213.126 382.761 215.218 382.744C229.116 382.63 240.182 375.648 251.448 368.282C255.044 365.931 267.027 356.787 255.139 360.298C240.975 364.481 227.713 375.738 217.855 386.434C215.918 388.536 215.774 389.808 219.135 389.221C224.056 388.362 228.382 385.412 232.429 382.668C239.568 377.829 246.454 372.631 253.595 367.793C255.427 366.551 265.115 361.811 265.533 359.093C265.64 358.397 256.318 361.634 256.268 361.654C249.912 364.196 244.053 367.436 238.267 371.069C229.645 376.483 203.453 391.811 212.959 388.167C216.83 386.683 233.96 376.692 230.622 371.069C225.869 363.064 205.123 378.545 201.661 381.689C199.772 383.404 185.837 398.373 196.652 392.573C205.049 388.07 212.083 380.367 217.327 372.5C221.277 366.575 207.09 378.233 206.18 379.053C202.105 382.723 197.816 386.279 193.978 390.201C193.107 391.09 190.153 395.314 193.827 393.477C204.149 388.316 216.268 377.716 222.826 368.207C228.591 359.848 211.795 367.386 210.021 368.508C205.969 371.072 186.72 382.735 188.969 389.297C191.219 395.858 209.487 378.823 211.377 376.944C214.241 374.098 227.182 359.42 214.202 363.349C202.205 366.979 193.894 380.521 185.617 389.146C183.882 390.955 183.834 391.236 186.069 390.201C189.974 388.391 193.772 385.927 197.141 383.271C201.788 379.608 205.575 375.139 209.343 370.617C210.927 368.717 215.599 364.758 215.218 361.842C214.691 357.796 197.735 372.215 196.614 373.329C195.719 374.218 189.21 379.653 189.911 381.539C190.75 383.798 198.536 381.348 199.552 380.974C205.972 378.608 211.975 374.9 217.779 371.333C221.688 368.93 228.004 366.068 230.584 362.03C231.607 360.429 230.804 358.69 229.002 358.264C224.95 357.308 220.012 360.403 216.8 362.369C214.791 363.599 193.465 380.697 193.978 381.011C198.598 383.843 206.725 377.457 208.364 373.555C211.667 365.692 199.972 367.518 196.125 368.998C191.69 370.703 187.709 373.547 183.885 376.304C180.407 378.811 174.497 381.736 172.285 385.606C171.049 387.769 174 388.112 175.374 387.866C181.245 386.813 186.429 381.963 190.476 377.961C191.791 376.66 203.777 365.209 195.936 363.688C188.933 362.329 180.811 372.964 177.407 377.697C171.297 386.196 182.745 382.168 187.048 379.731C189.8 378.173 207.361 366.529 201.435 361.654C193.657 355.256 177.466 372.348 173.001 376.756C170.303 379.418 159.943 387.608 169.574 383.459C174.608 381.291 187.85 372.776 185.843 365.571C183.286 356.387 165.657 369.82 162.531 372.425C159.261 375.15 151.949 384.78 161.515 379.731C164.162 378.334 177.694 367.636 173.227 364.139C167.23 359.446 158.216 369.637 154.962 373.329C148.542 380.611 154.884 380.987 160.121 376.153C162.207 374.227 171.446 366.018 165.13 363.688C157.509 360.875 146.044 368.803 140.651 373.329C134.595 378.409 147.205 371.444 148.974 369.676C150.397 368.252 159.26 356.161 151.873 359.62C150.099 360.451 137.613 370.008 139.446 371.709C142.497 374.542 150.72 368.251 152.212 365.721C156.029 359.249 148.688 358.433 144.191 360.298C142.73 360.904 130.504 369.058 135.228 368.32C139.388 367.67 147.668 364.619 148.183 359.696C149.715 345.053 129.878 359.918 132.328 360.938C134.197 361.717 131.074 355.205 130.859 354.875C128.629 351.456 124.13 348.735 120.276 347.531C119.788 347.379 141.962 362.893 142.345 358.867C142.82 353.884 131.851 349.237 128.298 347.945C123.986 346.378 117.537 344.143 122.423 350.657C126.205 355.7 133.333 362.643 140.312 361.616C146.137 360.76 133.211 351.571 132.139 350.808C128.757 348.398 119.886 341.418 115.192 343.125C111.98 344.293 124.117 357.922 124.532 358.34C129.613 363.451 135.316 368.967 142.609 370.542C147.707 371.643 144.618 367.412 142.421 365.797C139.066 363.33 133.751 362.595 136.583 368.131C139.17 373.187 144.882 378.455 150.819 378.865C154.54 379.121 150.328 373.867 149.275 372.99C147 371.094 140.253 370.462 140.952 375.061C141.691 379.929 148.58 384.978 153.154 381.652C156.312 379.355 150.885 376.868 149.237 376.417C147.899 376.051 138.196 375.717 139.973 376.605C145.57 379.404 153.43 378.221 159.406 378.45C169.316 378.832 179.471 378.906 188.894 382.367C193.922 384.214 199.953 386.254 205.05 383.422C213.352 378.809 207.285 371.279 199.928 377.584C194.05 382.623 206.486 382.828 209.494 382.216C210.992 381.912 223.424 377.183 216.273 376.793C207.686 376.325 200.538 380.836 194.355 386.246C192.693 387.7 188.276 390.498 189.986 393.063C190.795 394.277 193.847 395.633 190.927 395.887C183.929 396.496 177.035 391.408 171.231 388.242C168.153 386.563 163.788 384.226 160.159 384.024C156.01 383.794 166.925 388.849 170.365 391.18C174.002 393.644 184.859 400.229 182.378 396.603C181.242 394.941 177.603 393.837 175.976 393.063C170.96 390.677 165.456 387.391 159.933 386.397C154.686 385.452 164.123 392.63 165.582 393.213C170.901 395.341 176.674 395.588 182.115 397.281C186.87 398.76 191.254 398.12 196.087 398.787C197.493 398.981 201.214 400.212 202.452 398.975C203.36 398.066 199.896 398.636 198.61 398.636C196.066 398.636 193.428 398.443 190.89 398.674C190.424 398.716 189.573 399.185 190.438 399.578C192.046 400.309 195.747 398.482 197.292 398.109C201.094 397.193 212.388 394.569 208.477 394.569C202.402 394.569 197.22 395.259 191.191 393.891C187.775 393.116 181.472 392.248 188.63 391.18C203.35 388.983 215.494 383.248 228.852 376.831C235.775 373.505 243.185 371.508 248.887 366.173C250.944 364.248 253.737 367.246 257.059 366.022C267.974 362.001 275.454 353.649 286.999 351.184C294.733 349.533 302.618 344.527 309.445 340.752C314.881 337.746 320.186 337.069 325.865 334.915C333.244 332.116 343.361 331.278 349.591 326.027C357.045 319.744 361.163 310.227 371.66 308.477" stroke="#F2F4DC" stroke-width="10" stroke-linecap="round"/>
<path d="M390.641 276.617C390.355 274.325 383.411 282.793 383.41 282.793C380.474 286.341 377.159 289.781 374.522 293.564C374.321 293.852 374.372 294.117 374.372 293.564" stroke="#F2F4DC" stroke-width="10" stroke-linecap="round"/>
<path d="M389.963 276.617C388.162 276.617 387.853 277.614 386.95 279.177C383.608 284.972 380.245 290.204 375.2 294.618C371.146 298.166 368.333 305.072 362.848 306.444" stroke="#F2F4DC" stroke-width="10" stroke-linecap="round"/>
<path d="M380.473 286.785C379.056 287.068 378.171 288.642 377.309 289.647C372.797 294.911 368.006 300.097 362.622 304.485C362.125 304.89 354.748 311.394 358.027 308.176C362.913 303.381 367.779 297.943 373.167 293.714C376.181 291.349 381.962 287.36 375.615 292.698C369.554 297.794 363.845 304.547 358.893 310.737C358.321 311.453 356.935 312.998 358.554 311.415C361.382 308.65 364.41 306.103 367.254 303.355C372.809 297.989 377.228 292.019 382.167 286.145C382.71 285.5 388.713 280.162 385.896 282.04" stroke="#F2F4DC" stroke-width="10" stroke-linecap="round"/>
<path d="M386.74 290.333C388.961 282.964 390.831 259.86 390.464 267.547" stroke="#F2F4DC" stroke-width="10" stroke-linecap="round"/>
<path d="M386.574 279.328C387.036 277.48 388.638 275.653 389.737 274.131C392.167 270.767 387.367 276.727 386.611 277.671C384.203 280.682 382.18 286.01 378.439 287.613C375.721 288.778 385.179 277.924 383.787 280.533C378.808 289.868 372.237 299.072 366.237 307.799" stroke="#F2F4DC" stroke-width="10" stroke-linecap="round"/>
<path d="M371.66 298.987C366.32 306.29 360.084 312.617 354.035 319.324" stroke="#F2F4DC" stroke-width="10" stroke-linecap="round"/>
<path d="M347.934 262.381C344.252 263.768 333.171 268.487 333.171 273.453C333.171 275.86 342.493 270.304 343.339 269.687C345.379 268.199 351.904 264.344 349.704 265.582C345.944 267.697 342.4 270.254 338.745 272.549C329.984 278.05 346.876 270.307 346.654 266.749C346.643 266.587 337.612 272.283 336.937 272.738C333.533 275.03 334.025 274.376 337.088 273.227" stroke="#F2F4DC" stroke-width="10" stroke-linecap="round"/>
<path d="M112.707 395.247C109.417 395.658 116.277 403.135 116.812 403.758C118.932 406.232 124.099 406.163 127.093 406.093C129.451 406.038 133.509 405.006 135.077 407.75C136.183 409.686 136.997 412.575 138.467 414.228C143.125 419.469 148.288 424.058 154.209 427.786C158.093 430.232 162.878 430.84 166.938 432.87C171.283 435.042 175.097 437.084 179.818 438.105C190.275 440.366 201.559 443.755 212.356 444.055C219.581 444.256 228.721 444.649 234.727 439.31C246.788 428.588 261.557 419.615 274.722 410.839" stroke="#F2F4DC" stroke-width="10" stroke-linecap="round"/>
<path d="M114.062 393.214C114.727 400.527 124.564 400.666 129.315 404.361C131.198 405.826 134.846 406.632 137.111 406.244C139.516 405.832 142.702 407.434 144.944 408.127C148.786 409.315 153.154 409.929 157.146 410.5C162.702 411.293 169.146 410.124 174.545 411.667C178.841 412.894 183.823 413.55 188.291 413.55C191.368 413.55 195.334 414.864 198.271 415.734C201.759 416.768 205.309 417.218 208.929 417.58C216.462 418.333 223.228 418.295 230.81 418.295C235.341 418.295 239.743 417.428 244.255 416.977C248.429 416.56 253.715 416.937 257.624 415.734C259.051 415.296 260.42 415.604 261.842 415.057C263.272 414.507 259.411 416.98 258.001 417.58C253.566 419.467 248.742 420.216 244.255 422.024C237.903 424.582 230.293 425.339 224.445 428.878C223.595 429.393 213.429 435.249 217.93 433.586C223.306 431.599 228.585 429.726 233.446 426.581C238.635 423.223 227.464 425.262 226.102 425.827C221.12 427.896 206.266 433.563 211.641 433.096C213.532 432.931 225.494 429.87 224.408 426.43C223.655 424.046 212.723 428.804 211.528 429.292C207.951 430.754 197.935 438.908 207.762 439.009C215.626 439.089 223.58 434.54 230.509 431.326C231.923 430.67 235.977 428.354 234.538 428.953C232.154 429.947 230.485 432.503 228.626 434.188C218.063 443.76 238.714 434.712 232.392 429.443C226.904 424.87 213.119 429.58 207.235 431.025C198.162 433.252 206.647 429.963 210.398 428.087C213.567 426.503 227.52 420.206 215.821 422.513C210.135 423.635 204.502 425.466 198.949 427.108C195.783 428.044 192.66 429.061 189.647 430.422C188.603 430.894 185.732 432.029 186.823 432.38C191.697 433.953 201.875 429.153 205.276 425.752C206.82 424.208 204.359 424.38 203.393 424.434C198.585 424.701 193.416 426.378 189.271 428.803C182.525 432.748 186.705 435.933 192.66 433.058C198.98 430.007 203.035 421.644 192.698 422.513C190.685 422.683 175.795 429.096 176.88 429.819C180.129 431.985 192.326 427.182 190.174 422.4C186.972 415.285 170.448 422.586 166.561 424.999C158.703 429.876 165.851 429.803 170.704 427.334C172.458 426.442 177.751 424.019 177.859 421.534C177.968 419.041 173.669 419.214 172.286 419.463C170.314 419.818 157.625 426.394 163.172 425.601C164.429 425.422 174.762 422.353 172.06 419.651C168.87 416.461 159.85 417.501 156.995 420.593C155.887 421.794 162.611 421.718 163.737 420.593C167.505 416.824 154.554 415.146 152.853 415.584C149.904 416.343 146.536 421.459 151.497 421.685C155.281 421.857 155.584 418.857 152.363 417.316C151.053 416.69 145.133 415.606 148.371 418.333C148.808 418.701 155.67 422.897 155.414 420.329C155.255 418.741 149.69 413.49 148.108 413.174C144.816 412.515 152.854 419.359 156.205 419.162C158.419 419.031 153.2 415.078 153.041 414.981C148.488 412.21 151.697 417.213 152.702 418.973" stroke="#F2F4DC" stroke-width="10" stroke-linecap="round"/>
<path d="M303.194 400.67C300.777 401.727 305.927 400.097 307.412 399.992C313.853 399.54 319.479 396.766 325.413 394.72C330.052 393.12 335.35 391.314 339.8 389.146C345.018 386.604 351.718 383.93 355.768 379.656C358.282 377.001 360.848 371.256 364.354 369.638C368.098 367.91 369.135 362.725 371.51 359.62C373.908 356.485 375.941 352.782 378.439 349.603C380.041 347.564 385.418 341.955 383.862 344.029C380.218 348.888 376.38 352.009 374.071 357.888C372.059 363.009 369.244 368.411 364.58 371.521C360.244 374.412 358.209 379.956 355.73 384.363C352.727 389.702 346.997 395.533 341.155 397.62C333.711 400.278 324.875 400.709 317.09 401.386C312.641 401.773 308.354 403.244 304.248 404.738C301.622 405.692 296.419 407.677 293.703 406.771" stroke="#F2F4DC" stroke-width="10" stroke-linecap="round"/>
<path d="M304.549 402.026C301.282 400.393 298.588 401.998 295.059 402.704" stroke="#F2F4DC" stroke-width="10" stroke-linecap="round"/>
<path d="M301.16 402.704C298.264 403.23 296.149 404.06 293.025 404.06" stroke="#F2F4DC" stroke-width="10" stroke-linecap="round"/>
<path d="M379.117 351.862C379.117 349.178 383.003 346.571 384.54 344.669C386.547 342.186 392.13 334.688 389.474 336.459C386.853 338.206 384.705 341.228 382.506 343.426C381.14 344.792 384.607 340.137 385.218 338.304" stroke="#F2F4DC" stroke-width="10" stroke-linecap="round"/>
<path d="M246.381 387.341C242.741 387.852 239.202 387.845 235.536 387.845C234.61 387.845 233.403 388.999 232.258 389.247C231.313 389.451 227.918 389.875 227.018 389.275C225.747 388.427 232.919 385.622 233.323 385.492C235.542 384.776 237.074 385.185 239.291 385.295C241.779 385.42 244.284 385.282 246.773 385.323C249.381 385.367 250.174 388.35 251.929 388.35" stroke="#F2F4DC" stroke-width="10" stroke-linecap="round"/>
<path d="M141.468 376.749C138.313 376.808 132.408 376.531 129.754 378.654C129.427 378.916 127.914 379.21 129.362 378.486C133.152 376.591 137.353 375.665 141.411 374.451C143.785 373.741 148.029 374.047 150.014 372.658C151.36 371.716 152.772 370.422 153.797 369.127C157.019 365.057 160.13 361.674 160.13 356.321C160.13 355.069 158.315 359.561 157.664 360.104C154.635 362.628 148.588 362.121 144.83 362.121C144.251 362.121 143.638 362.175 143.065 362.065C135.667 360.656 128.157 356.441 121.236 353.659C116.917 351.923 111.674 350.459 107.785 347.718C106.76 346.995 106.297 345.853 105.404 345.028C104.741 344.417 103.248 341.955 104.255 341.049C104.936 340.436 107.511 340.937 108.43 340.937C110.813 340.937 108.563 343.963 110.7 343.963" stroke="#F2F4DC" stroke-width="10" stroke-linecap="round"/>
<path d="M332.632 344.972C334.313 344.972 335.994 344.972 337.676 344.972C337.802 344.972 335.234 344.972 334.397 344.972C333.121 344.972 331.926 345.477 330.866 345.477C329.66 345.477 327.978 347.885 327.083 346.99" stroke="#F2F4DC" stroke-width="10" stroke-linecap="round"/>
<path d="M337.676 340.937C337.494 342.387 336.697 343.377 335.378 344.076C332.11 345.806 329.891 336.246 329.101 333.876" stroke="#F2F4DC" stroke-width="10" stroke-linecap="round"/>
<g filter="url(#filter1_d_167_539)">
<path d="M511.958 269.331C515.292 268.998 520.958 269.931 516.958 276.331" stroke="black" stroke-width="2"/>
</g>
<g filter="url(#filter2_d_167_539)">
<path d="M465.459 279.831C463.292 277.997 459.759 273.931 462.959 272.331" stroke="black" stroke-width="2"/>
</g>
<g filter="url(#filter3_d_167_539)">
<path d="M483.958 266.831C484.958 263.664 488.458 258.831 494.458 264.831" stroke="black" stroke-width="2"/>
</g>
<g filter="url(#filter4_d_167_539)">
<path d="M468.458 273.831C477.792 275.997 499.058 278.631 509.458 271.831" stroke="black" stroke-width="2"/>
</g>
<g filter="url(#filter5_d_167_539)">
<path d="M507.958 266.831L496.958 260.831L507.958 256.331" stroke="black" stroke-width="2"/>
</g>
<g filter="url(#filter6_d_167_539)">
<path d="M469.458 268.331L477.958 259.831H469.458" stroke="black" stroke-width="2"/>
</g>
<g filter="url(#filter7_d_167_539)">
<line x1="498.958" y1="261.331" x2="507.958" y2="261.331" stroke="black"/>
</g>
<g filter="url(#filter8_d_167_539)">
<line x1="476.207" y1="260.265" x2="469.207" y2="264.265" stroke="black"/>
</g>
<defs>
<filter id="filter0_d_167_539" x="448.563" y="247.474" width="80.2603" height="72.2202" filterUnits="userSpaceOnUse" color-interpolation-filters="sRGB">
<feFlood flood-opacity="0" result="BackgroundImageFix"/>
<feColorMatrix in="SourceAlpha" type="matrix" values="0 0 0 0 0 0 0 0 0 0 0 0 0 0 0 0 0 0 127 0" result="hardAlpha"/>
<feOffset dy="4"/>
<feGaussianBlur stdDeviation="2"/>
<feComposite in2="hardAlpha" operator="out"/>
<feColorMatrix type="matrix" values="0 0 0 0 0 0 0 0 0 0 0 0 0 0 0 0 0 0 0.25 0"/>
<feBlend mode="normal" in2="BackgroundImageFix" result="effect1_dropShadow_167_539"/>
<feBlend mode="normal" in="SourceGraphic" in2="effect1_dropShadow_167_539" result="shape"/>
</filter>
<filter id="filter1_d_167_539" x="507.859" y="268.272" width="15.4753" height="16.5884" filterUnits="userSpaceOnUse" color-interpolation-filters="sRGB">
<feFlood flood-opacity="0" result="BackgroundImageFix"/>
<feColorMatrix in="SourceAlpha" type="matrix" values="0 0 0 0 0 0 0 0 0 0 0 0 0 0 0 0 0 0 127 0" result="hardAlpha"/>
<feOffset dy="4"/>
<feGaussianBlur stdDeviation="2"/>
<feComposite in2="hardAlpha" operator="out"/>
<feColorMatrix type="matrix" values="0 0 0 0 0 0 0 0 0 0 0 0 0 0 0 0 0 0 0.25 0"/>
<feBlend mode="normal" in2="BackgroundImageFix" result="effect1_dropShadow_167_539"/>
<feBlend mode="normal" in="SourceGraphic" in2="effect1_dropShadow_167_539" result="shape"/>
</filter>
<filter id="filter2_d_167_539" x="456.676" y="271.436" width="13.4287" height="17.1578" filterUnits="userSpaceOnUse" color-interpolation-filters="sRGB">
<feFlood flood-opacity="0" result="BackgroundImageFix"/>
<feColorMatrix in="SourceAlpha" type="matrix" values="0 0 0 0 0 0 0 0 0 0 0 0 0 0 0 0 0 0 127 0" result="hardAlpha"/>
<feOffset dy="4"/>
<feGaussianBlur stdDeviation="2"/>
<feComposite in2="hardAlpha" operator="out"/>
<feColorMatrix type="matrix" values="0 0 0 0 0 0 0 0 0 0 0 0 0 0 0 0 0 0 0.25 0"/>
<feBlend mode="normal" in2="BackgroundImageFix" result="effect1_dropShadow_167_539"/>
<feBlend mode="normal" in="SourceGraphic" in2="effect1_dropShadow_167_539" result="shape"/>
</filter>
<filter id="filter3_d_167_539" x="479.005" y="260.976" width="20.1606" height="14.1561" filterUnits="userSpaceOnUse" color-interpolation-filters="sRGB">
<feFlood flood-opacity="0" result="BackgroundImageFix"/>
<feColorMatrix in="SourceAlpha" type="matrix" values="0 0 0 0 0 0 0 0 0 0 0 0 0 0 0 0 0 0 127 0" result="hardAlpha"/>
<feOffset dy="4"/>
<feGaussianBlur stdDeviation="2"/>
<feComposite in2="hardAlpha" operator="out"/>
<feColorMatrix type="matrix" values="0 0 0 0 0 0 0 0 0 0 0 0 0 0 0 0 0 0 0.25 0"/>
<feBlend mode="normal" in2="BackgroundImageFix" result="effect1_dropShadow_167_539"/>
<feBlend mode="normal" in="SourceGraphic" in2="effect1_dropShadow_167_539" result="shape"/>
</filter>
<filter id="filter4_d_167_539" x="464.232" y="270.994" width="49.7734" height="14.2036" filterUnits="userSpaceOnUse" color-interpolation-filters="sRGB">
<feFlood flood-opacity="0" result="BackgroundImageFix"/>
<feColorMatrix in="SourceAlpha" type="matrix" values="0 0 0 0 0 0 0 0 0 0 0 0 0 0 0 0 0 0 127 0" result="hardAlpha"/>
<feOffset dy="4"/>
<feGaussianBlur stdDeviation="2"/>
<feComposite in2="hardAlpha" operator="out"/>
<feColorMatrix type="matrix" values="0 0 0 0 0 0 0 0 0 0 0 0 0 0 0 0 0 0 0.25 0"/>
<feBlend mode="normal" in2="BackgroundImageFix" result="effect1_dropShadow_167_539"/>
<feBlend mode="normal" in="SourceGraphic" in2="effect1_dropShadow_167_539" result="shape"/>
</filter>
<filter id="filter5_d_167_539" x="490.633" y="255.405" width="21.804" height="20.3035" filterUnits="userSpaceOnUse" color-interpolation-filters="sRGB">
<feFlood flood-opacity="0" result="BackgroundImageFix"/>
<feColorMatrix in="SourceAlpha" type="matrix" values="0 0 0 0 0 0 0 0 0 0 0 0 0 0 0 0 0 0 127 0" result="hardAlpha"/>
<feOffset dy="4"/>
<feGaussianBlur stdDeviation="2"/>
<feComposite in2="hardAlpha" operator="out"/>
<feColorMatrix type="matrix" values="0 0 0 0 0 0 0 0 0 0 0 0 0 0 0 0 0 0 0.25 0"/>
<feBlend mode="normal" in2="BackgroundImageFix" result="effect1_dropShadow_167_539"/>
<feBlend mode="normal" in="SourceGraphic" in2="effect1_dropShadow_167_539" result="shape"/>
</filter>
<filter id="filter6_d_167_539" x="464.751" y="258.831" width="19.6213" height="18.2072" filterUnits="userSpaceOnUse" color-interpolation-filters="sRGB">
<feFlood flood-opacity="0" result="BackgroundImageFix"/>
<feColorMatrix in="SourceAlpha" type="matrix" values="0 0 0 0 0 0 0 0 0 0 0 0 0 0 0 0 0 0 127 0" result="hardAlpha"/>
<feOffset dy="4"/>
<feGaussianBlur stdDeviation="2"/>
<feComposite in2="hardAlpha" operator="out"/>
<feColorMatrix type="matrix" values="0 0 0 0 0 0 0 0 0 0 0 0 0 0 0 0 0 0 0.25 0"/>
<feBlend mode="normal" in2="BackgroundImageFix" result="effect1_dropShadow_167_539"/>
<feBlend mode="normal" in="SourceGraphic" in2="effect1_dropShadow_167_539" result="shape"/>
</filter>
<filter id="filter7_d_167_539" x="494.958" y="260.831" width="17" height="9" filterUnits="userSpaceOnUse" color-interpolation-filters="sRGB">
<feFlood flood-opacity="0" result="BackgroundImageFix"/>
<feColorMatrix in="SourceAlpha" type="matrix" values="0 0 0 0 0 0 0 0 0 0 0 0 0 0 0 0 0 0 127 0" result="hardAlpha"/>
<feOffset dy="4"/>
<feGaussianBlur stdDeviation="2"/>
<feComposite in2="hardAlpha" operator="out"/>
<feColorMatrix type="matrix" values="0 0 0 0 0 0 0 0 0 0 0 0 0 0 0 0 0 0 0.25 0"/>
<feBlend mode="normal" in2="BackgroundImageFix" result="effect1_dropShadow_167_539"/>
<feBlend mode="normal" in="SourceGraphic" in2="effect1_dropShadow_167_539" result="shape"/>
</filter>
<filter id="filter8_d_167_539" x="464.958" y="259.831" width="15.4961" height="12.8683" filterUnits="userSpaceOnUse" color-interpolation-filters="sRGB">
<feFlood flood-opacity="0" result="BackgroundImageFix"/>
<feColorMatrix in="SourceAlpha" type="matrix" values="0 0 0 0 0 0 0 0 0 0 0 0 0 0 0 0 0 0 127 0" result="hardAlpha"/>
<feOffset dy="4"/>
<feGaussianBlur stdDeviation="2"/>
<feComposite in2="hardAlpha" operator="out"/>
<feColorMatrix type="matrix" values="0 0 0 0 0 0 0 0 0 0 0 0 0 0 0 0 0 0 0.25 0"/>
<feBlend mode="normal" in2="BackgroundImageFix" result="effect1_dropShadow_167_539"/>
<feBlend mode="normal" in="SourceGraphic" in2="effect1_dropShadow_167_539" result="shape"/>
</filter>
</defs>
</svg>
